<?xml version="1.0" encoding="UTF-8" standalone="no"?>
<!DOCTYPE svg PUBLIC "-//W3C//DTD SVG 1.1//EN"
 "http://www.w3.org/Graphics/SVG/1.1/DTD/svg11.dtd">
<!-- Generated by graphviz version 12.1.2 (0)
 -->
<!-- Title: afd Pages: 1 -->
<svg width="1505pt" height="1769pt"
 viewBox="0.00 0.00 1505.00 1768.54" xmlns="http://www.w3.org/2000/svg" xmlns:xlink="http://www.w3.org/1999/xlink">
<g id="graph0" class="graph" transform="scale(1 1) rotate(0) translate(4 1764.54)">
<title>afd</title>
<polygon fill="white" stroke="none" points="-4,4 -4,-1764.54 1501,-1764.54 1501,4 -4,4"/>
<g id="clust1" class="cluster">
<title>cluster_id</title>
<polygon fill="#ffaaff" stroke="#ffaaff" points="814,-430.54 814,-927.54 1008,-927.54 1008,-430.54 814,-430.54"/>
<text text-anchor="middle" x="911" y="-910.24" font-family="Times,serif" font-size="14.00">id</text>
</g>
<g id="clust2" class="cluster">
<title>cluster_intcon</title>
<polygon fill="#bb4455" stroke="#bb4455" points="660,-430.54 660,-927.54 770,-927.54 770,-430.54 660,-430.54"/>
<text text-anchor="middle" x="715" y="-910.24" font-family="Times,serif" font-size="14.00">intcon</text>
</g>
<g id="clust3" class="cluster">
<title>cluster_realcon</title>
<polygon fill="#aaaaaa" stroke="#aaaaaa" points="1192,-430.54 1192,-1752.54 1260,-1752.54 1260,-430.54 1192,-430.54"/>
<text text-anchor="middle" x="1226" y="-1735.24" font-family="Times,serif" font-size="14.00">realcon</text>
</g>
<g id="clust4" class="cluster">
<title>cluster_charcon</title>
<polygon fill="#aaaa44" stroke="#aaaa44" points="1051,-430.54 1051,-927.54 1134,-927.54 1134,-430.54 1051,-430.54"/>
<text text-anchor="middle" x="1092.5" y="-910.24" font-family="Times,serif" font-size="14.00">charcon</text>
</g>
<g id="clust5" class="cluster">
<title>cluster_stringcon</title>
<polygon fill="#6699aa" stroke="#6699aa" points="1374,-430.54 1374,-927.54 1465,-927.54 1465,-430.54 1374,-430.54"/>
<text text-anchor="middle" x="1419.5" y="-910.24" font-family="Times,serif" font-size="14.00">stringcon</text>
</g>
<g id="clust6" class="cluster">
<title>cluster_ch</title>
<polygon fill="#9999ff" stroke="#9999ff" points="296,-430.54 296,-927.54 635,-927.54 635,-430.54 296,-430.54"/>
<text text-anchor="middle" x="465.5" y="-910.24" font-family="Times,serif" font-size="14.00">ch</text>
</g>
<g id="clust7" class="cluster">
<title>cluster_comentario</title>
<polygon fill="#00bb88" stroke="#00bb88" points="8,-430.54 8,-1752.54 288,-1752.54 288,-430.54 8,-430.54"/>
<text text-anchor="middle" x="148" y="-1735.24" font-family="Times,serif" font-size="14.00">comentario</text>
</g>
<!-- id_S -->
<g id="node1" class="node">
<title>id_S</title>
<ellipse fill="none" stroke="black" cx="899" cy="-877.04" rx="18" ry="18"/>
<text text-anchor="middle" x="899" y="-871.99" font-family="Times,serif" font-size="14.00">S</text>
</g>
<!-- id_S&#45;&gt;id_S -->
<g id="edge1" class="edge">
<title>id_S&#45;&gt;id_S</title>
<path fill="none" stroke="black" d="M904.16,-894.41C916.79,-927.75 935,-921.96 935,-877.04 935,-837.56 920.93,-828.31 908.95,-849.28"/>
<polygon fill="black" stroke="black" points="905.8,-847.75 904.8,-858.3 912.16,-850.68 905.8,-847.75"/>
<text text-anchor="middle" x="957.88" y="-871.99" font-family="Times,serif" font-size="14.00">sublinha</text>
</g>
<!-- id_A -->
<g id="node2" class="node">
<title>id_A</title>
<ellipse fill="none" stroke="black" cx="844" cy="-460.54" rx="18" ry="18"/>
<ellipse fill="none" stroke="black" cx="844" cy="-460.54" rx="22" ry="22"/>
<text text-anchor="middle" x="844" y="-455.49" font-family="Times,serif" font-size="14.00">A</text>
</g>
<!-- id_S&#45;&gt;id_A -->
<g id="edge2" class="edge">
<title>id_S&#45;&gt;id_A</title>
<path fill="none" stroke="black" d="M896.71,-858.76C888.34,-795.67 859.34,-577.16 848.31,-494.01"/>
<polygon fill="black" stroke="black" points="851.8,-493.71 847.01,-484.26 844.86,-494.63 851.8,-493.71"/>
<text text-anchor="middle" x="883.5" y="-665.74" font-family="Times,serif" font-size="14.00">letra</text>
</g>
<!-- id_A&#45;&gt;id_A -->
<g id="edge3" class="edge">
<title>id_A&#45;&gt;id_A</title>
<path fill="none" stroke="black" d="M851.27,-481.75C865.19,-511.75 884,-504.68 884,-460.54 884,-421.91 869.6,-411.67 856.67,-429.82"/>
<polygon fill="black" stroke="black" points="853.91,-427.59 852.02,-438.01 860,-431.05 853.91,-427.59"/>
<text text-anchor="middle" x="942.12" y="-455.49" font-family="Times,serif" font-size="14.00">letra, digito, sublinha</text>
</g>
<!-- S -->
<g id="node19" class="node">
<title>S</title>
<ellipse fill="none" stroke="black" cx="1056" cy="-40.04" rx="27" ry="18"/>
<text text-anchor="middle" x="1056" y="-34.99" font-family="Times,serif" font-size="14.00">S</text>
</g>
<!-- id_A&#45;&gt;S -->
<g id="edge33" class="edge">
<title>id_A&#45;&gt;S</title>
<path fill="none" stroke="black" d="M853.66,-440.47C887.85,-372.97 1003.21,-145.24 1042.65,-67.39"/>
<polygon fill="black" stroke="black" points="1045.61,-69.29 1047.01,-58.78 1039.37,-66.12 1045.61,-69.29"/>
<text text-anchor="middle" x="953" y="-245.24" font-family="Times,serif" font-size="14.00">ε</text>
</g>
<!-- A -->
<g id="node21" class="node">
<title>A</title>
<ellipse fill="none" stroke="black" cx="592" cy="-40.04" rx="18" ry="18"/>
<ellipse fill="none" stroke="black" cx="592" cy="-40.04" rx="22" ry="22"/>
<text text-anchor="middle" x="592" y="-34.99" font-family="Times,serif" font-size="14.00">A</text>
</g>
<!-- id_A&#45;&gt;A -->
<g id="edge26" class="edge">
<title>id_A&#45;&gt;A</title>
<path fill="none" stroke="black" d="M827.26,-446.06C817.86,-438.49 808,-430.54 808,-430.54 808,-430.54 593.5,-258.54 593.5,-258.54 593.5,-258.54 592.64,-134.16 592.22,-73.51"/>
<polygon fill="black" stroke="black" points="595.73,-73.78 592.16,-63.8 588.73,-73.83 595.73,-73.78"/>
<text text-anchor="middle" x="598.75" y="-245.24" font-family="Times,serif" font-size="14.00">\0</text>
</g>
<!-- intcon_S -->
<g id="node3" class="node">
<title>intcon_S</title>
<ellipse fill="none" stroke="black" cx="727" cy="-877.04" rx="18" ry="18"/>
<text text-anchor="middle" x="727" y="-871.99" font-family="Times,serif" font-size="14.00">S</text>
</g>
<!-- intcon_A -->
<g id="node4" class="node">
<title>intcon_A</title>
<ellipse fill="none" stroke="black" cx="690" cy="-460.54" rx="18" ry="18"/>
<ellipse fill="none" stroke="black" cx="690" cy="-460.54" rx="22" ry="22"/>
<text text-anchor="middle" x="690" y="-455.49" font-family="Times,serif" font-size="14.00">A</text>
</g>
<!-- intcon_S&#45;&gt;intcon_A -->
<g id="edge4" class="edge">
<title>intcon_S&#45;&gt;intcon_A</title>
<path fill="none" stroke="black" d="M725.46,-858.76C719.83,-795.67 700.32,-577.16 692.9,-494.01"/>
<polygon fill="black" stroke="black" points="696.4,-493.91 692.03,-484.26 689.43,-494.53 696.4,-493.91"/>
<text text-anchor="middle" x="724.25" y="-665.74" font-family="Times,serif" font-size="14.00">digito</text>
</g>
<!-- intcon_A&#45;&gt;intcon_A -->
<g id="edge5" class="edge">
<title>intcon_A&#45;&gt;intcon_A</title>
<path fill="none" stroke="black" d="M697.27,-481.75C711.19,-511.75 730,-504.68 730,-460.54 730,-421.91 715.6,-411.67 702.67,-429.82"/>
<polygon fill="black" stroke="black" points="699.91,-427.59 698.02,-438.01 706,-431.05 699.91,-427.59"/>
<text text-anchor="middle" x="745.75" y="-455.49" font-family="Times,serif" font-size="14.00">digito</text>
</g>
<!-- intcon_A&#45;&gt;S -->
<g id="edge34" class="edge">
<title>intcon_A&#45;&gt;S</title>
<path fill="none" stroke="black" d="M698.24,-439.85C720.64,-386.32 781,-242.04 781,-242.04 781,-242.04 960.41,-110.91 1029.41,-60.48"/>
<polygon fill="black" stroke="black" points="1031.15,-63.54 1037.16,-54.81 1027.02,-57.89 1031.15,-63.54"/>
<text text-anchor="middle" x="784" y="-245.24" font-family="Times,serif" font-size="14.00">ε</text>
</g>
<!-- intcon_A&#45;&gt;A -->
<g id="edge27" class="edge">
<title>intcon_A&#45;&gt;A</title>
<path fill="none" stroke="black" d="M678.42,-441.7C646.48,-392.51 559.5,-258.54 559.5,-258.54 559.5,-258.54 559.5,-242.04 559.5,-242.04 559.5,-242.04 577.58,-130.25 586.77,-73.41"/>
<polygon fill="black" stroke="black" points="590.2,-74.1 588.34,-63.66 583.29,-72.98 590.2,-74.1"/>
<text text-anchor="middle" x="564.75" y="-245.24" font-family="Times,serif" font-size="14.00">\0</text>
</g>
<!-- realcon_S -->
<g id="node5" class="node">
<title>realcon_S</title>
<ellipse fill="none" stroke="black" cx="1226" cy="-1702.04" rx="18" ry="18"/>
<text text-anchor="middle" x="1226" y="-1696.99" font-family="Times,serif" font-size="14.00">S</text>
</g>
<!-- realcon_A -->
<g id="node6" class="node">
<title>realcon_A</title>
<ellipse fill="none" stroke="black" cx="1220" cy="-1289.54" rx="18" ry="18"/>
<text text-anchor="middle" x="1220" y="-1284.49" font-family="Times,serif" font-size="14.00">A</text>
</g>
<!-- realcon_S&#45;&gt;realcon_A -->
<g id="edge6" class="edge">
<title>realcon_S&#45;&gt;realcon_A</title>
<path fill="none" stroke="black" d="M1225.75,-1683.66C1224.81,-1619.93 1221.58,-1398.58 1220.42,-1319.17"/>
<polygon fill="black" stroke="black" points="1223.92,-1319.15 1220.27,-1309.21 1216.92,-1319.26 1223.92,-1319.15"/>
<text text-anchor="middle" x="1239.88" y="-1490.74" font-family="Times,serif" font-size="14.00">intcon</text>
</g>
<!-- realcon_B -->
<g id="node7" class="node">
<title>realcon_B</title>
<ellipse fill="none" stroke="black" cx="1219" cy="-877.04" rx="18" ry="18"/>
<text text-anchor="middle" x="1219" y="-871.99" font-family="Times,serif" font-size="14.00">B</text>
</g>
<!-- realcon_A&#45;&gt;realcon_B -->
<g id="edge7" class="edge">
<title>realcon_A&#45;&gt;realcon_B</title>
<path fill="none" stroke="black" d="M1219.96,-1271.16C1219.8,-1207.43 1219.26,-986.08 1219.07,-906.67"/>
<polygon fill="black" stroke="black" points="1222.57,-906.7 1219.05,-896.71 1215.57,-906.71 1222.57,-906.7"/>
<text text-anchor="middle" x="1234.88" y="-1078.24" font-family="Times,serif" font-size="14.00">ponto</text>
</g>
<!-- realcon_C -->
<g id="node8" class="node">
<title>realcon_C</title>
<ellipse fill="none" stroke="black" cx="1224" cy="-460.54" rx="18" ry="18"/>
<ellipse fill="none" stroke="black" cx="1224" cy="-460.54" rx="22" ry="22"/>
<text text-anchor="middle" x="1224" y="-455.49" font-family="Times,serif" font-size="14.00">C</text>
</g>
<!-- realcon_B&#45;&gt;realcon_C -->
<g id="edge8" class="edge">
<title>realcon_B&#45;&gt;realcon_C</title>
<path fill="none" stroke="black" d="M1219.21,-858.76C1219.97,-795.74 1222.6,-577.66 1223.6,-494.3"/>
<polygon fill="black" stroke="black" points="1227.1,-494.56 1223.72,-484.52 1220.1,-494.48 1227.1,-494.56"/>
<text text-anchor="middle" x="1238.38" y="-665.74" font-family="Times,serif" font-size="14.00">intcon</text>
</g>
<!-- realcon_C&#45;&gt;S -->
<g id="edge35" class="edge">
<title>realcon_C&#45;&gt;S</title>
<path fill="none" stroke="black" d="M1218.92,-438.69C1205.65,-384.25 1171,-242.04 1171,-242.04 1171,-242.04 1102.01,-121.46 1070.9,-67.09"/>
<polygon fill="black" stroke="black" points="1073.97,-65.4 1065.97,-58.46 1067.9,-68.88 1073.97,-65.4"/>
<text text-anchor="middle" x="1177.64" y="-245.24" font-family="Times,serif" font-size="14.00">ε</text>
</g>
<!-- realcon_C&#45;&gt;A -->
<g id="edge28" class="edge">
<title>realcon_C&#45;&gt;A</title>
<path fill="none" stroke="black" d="M1203.78,-451.62C1181.87,-443.03 1150,-430.54 1150,-430.54 1150,-430.54 661.5,-258.54 661.5,-258.54 661.5,-258.54 621.2,-132.43 601.98,-72.26"/>
<polygon fill="black" stroke="black" points="605.38,-71.4 599,-62.94 598.71,-73.53 605.38,-71.4"/>
<text text-anchor="middle" x="666.75" y="-245.24" font-family="Times,serif" font-size="14.00">\0</text>
</g>
<!-- charcon_S -->
<g id="node9" class="node">
<title>charcon_S</title>
<ellipse fill="none" stroke="black" cx="1092" cy="-877.04" rx="18" ry="18"/>
<text text-anchor="middle" x="1092" y="-871.99" font-family="Times,serif" font-size="14.00">S</text>
</g>
<!-- charcon_A -->
<g id="node10" class="node">
<title>charcon_A</title>
<ellipse fill="none" stroke="black" cx="1082" cy="-460.54" rx="18" ry="18"/>
<ellipse fill="none" stroke="black" cx="1082" cy="-460.54" rx="22" ry="22"/>
<text text-anchor="middle" x="1082" y="-455.49" font-family="Times,serif" font-size="14.00">A</text>
</g>
<!-- charcon_S&#45;&gt;charcon_A -->
<g id="edge9" class="edge">
<title>charcon_S&#45;&gt;charcon_A</title>
<path fill="none" stroke="black" d="M1090.8,-858.9C1087.46,-810.97 1078.25,-679.04 1078.25,-679.04 1078.25,-679.04 1078.25,-662.54 1078.25,-662.54 1078.25,-662.54 1080.34,-550.75 1081.4,-493.91"/>
<polygon fill="black" stroke="black" points="1084.89,-494.25 1081.58,-484.18 1077.89,-494.12 1084.89,-494.25"/>
<text text-anchor="middle" x="1102.62" y="-665.74" font-family="Times,serif" font-size="14.00">ch, \n, \0</text>
</g>
<!-- charcon_A&#45;&gt;S -->
<g id="edge36" class="edge">
<title>charcon_A&#45;&gt;S</title>
<path fill="none" stroke="black" d="M1080.67,-438.21C1076.36,-368.8 1062.73,-149.29 1057.8,-69.98"/>
<polygon fill="black" stroke="black" points="1061.29,-69.77 1057.18,-60.01 1054.31,-70.21 1061.29,-69.77"/>
<text text-anchor="middle" x="1072" y="-245.24" font-family="Times,serif" font-size="14.00">ε</text>
</g>
<!-- charcon_A&#45;&gt;A -->
<g id="edge29" class="edge">
<title>charcon_A&#45;&gt;A</title>
<path fill="none" stroke="black" d="M1065.26,-446.06C1055.86,-438.49 1046,-430.54 1046,-430.54 1046,-430.54 627.5,-258.54 627.5,-258.54 627.5,-258.54 607.1,-133.55 597.23,-73.07"/>
<polygon fill="black" stroke="black" points="600.71,-72.69 595.65,-63.39 593.8,-73.82 600.71,-72.69"/>
<text text-anchor="middle" x="632.75" y="-245.24" font-family="Times,serif" font-size="14.00">\0</text>
</g>
<!-- stringcon_S -->
<g id="node11" class="node">
<title>stringcon_S</title>
<ellipse fill="none" stroke="black" cx="1400" cy="-877.04" rx="18" ry="18"/>
<text text-anchor="middle" x="1400" y="-871.99" font-family="Times,serif" font-size="14.00">S</text>
</g>
<!-- stringcon_A -->
<g id="node12" class="node">
<title>stringcon_A</title>
<ellipse fill="none" stroke="black" cx="1404" cy="-460.54" rx="18" ry="18"/>
<ellipse fill="none" stroke="black" cx="1404" cy="-460.54" rx="22" ry="22"/>
<text text-anchor="middle" x="1404" y="-455.49" font-family="Times,serif" font-size="14.00">A</text>
</g>
<!-- stringcon_S&#45;&gt;stringcon_A -->
<g id="edge10" class="edge">
<title>stringcon_S&#45;&gt;stringcon_A</title>
<path fill="none" stroke="black" d="M1400.17,-858.76C1400.77,-795.74 1402.88,-577.66 1403.68,-494.3"/>
<polygon fill="black" stroke="black" points="1407.18,-494.55 1403.78,-484.52 1400.18,-494.49 1407.18,-494.55"/>
<text text-anchor="middle" x="1408.38" y="-665.74" font-family="Times,serif" font-size="14.00">ch</text>
</g>
<!-- stringcon_A&#45;&gt;stringcon_A -->
<g id="edge11" class="edge">
<title>stringcon_A&#45;&gt;stringcon_A</title>
<path fill="none" stroke="black" d="M1411.27,-481.75C1425.19,-511.75 1444,-504.68 1444,-460.54 1444,-421.91 1429.6,-411.67 1416.67,-429.82"/>
<polygon fill="black" stroke="black" points="1413.91,-427.59 1412.02,-438.01 1420,-431.05 1413.91,-427.59"/>
<text text-anchor="middle" x="1450.38" y="-455.49" font-family="Times,serif" font-size="14.00">ch</text>
</g>
<!-- stringcon_A&#45;&gt;S -->
<g id="edge37" class="edge">
<title>stringcon_A&#45;&gt;S</title>
<path fill="none" stroke="black" d="M1403.9,-438.29C1403.65,-383.56 1403,-242.04 1403,-242.04 1403,-242.04 1169.99,-107.07 1085.85,-58.33"/>
<polygon fill="black" stroke="black" points="1087.62,-55.31 1077.21,-53.33 1084.11,-61.37 1087.62,-55.31"/>
<text text-anchor="middle" x="1406.07" y="-245.24" font-family="Times,serif" font-size="14.00">ε</text>
</g>
<!-- stringcon_A&#45;&gt;A -->
<g id="edge30" class="edge">
<title>stringcon_A&#45;&gt;A</title>
<path fill="none" stroke="black" d="M1388.6,-444.25C1338.75,-394.74 1185,-242.04 1185,-242.04 1185,-242.04 746.46,-93.4 623.63,-51.76"/>
<polygon fill="black" stroke="black" points="624.79,-48.46 614.19,-48.56 622.54,-55.09 624.79,-48.46"/>
<text text-anchor="middle" x="1205.28" y="-245.24" font-family="Times,serif" font-size="14.00">\0</text>
</g>
<!-- ch_S -->
<g id="node13" class="node">
<title>ch_S</title>
<ellipse fill="none" stroke="black" cx="465" cy="-877.04" rx="18" ry="18"/>
<text text-anchor="middle" x="465" y="-871.99" font-family="Times,serif" font-size="14.00">S</text>
</g>
<!-- ch_A -->
<g id="node14" class="node">
<title>ch_A</title>
<ellipse fill="none" stroke="black" cx="524" cy="-460.54" rx="18" ry="18"/>
<ellipse fill="none" stroke="black" cx="524" cy="-460.54" rx="22" ry="22"/>
<text text-anchor="middle" x="524" y="-455.49" font-family="Times,serif" font-size="14.00">A</text>
</g>
<!-- ch_S&#45;&gt;ch_A -->
<g id="edge12" class="edge">
<title>ch_S&#45;&gt;ch_A</title>
<path fill="none" stroke="black" d="M454.77,-861.87C422.15,-816.7 322.75,-679.04 322.75,-679.04 322.75,-679.04 322.75,-662.54 322.75,-662.54 322.75,-662.54 447.76,-537.68 500.73,-484.78"/>
<polygon fill="black" stroke="black" points="503.2,-487.26 507.8,-477.72 498.25,-482.31 503.2,-487.26"/>
<text text-anchor="middle" x="475.38" y="-665.74" font-family="Times,serif" font-size="14.00">caracter dado por isprint do &lt;ctype.h&gt;, diferente de \ e &#39;</text>
</g>
<!-- ch_A&#45;&gt;S -->
<g id="edge38" class="edge">
<title>ch_A&#45;&gt;S</title>
<path fill="none" stroke="black" d="M538.6,-443.9C585.15,-394.03 727,-242.04 727,-242.04 727,-242.04 946.41,-107.99 1026.87,-58.84"/>
<polygon fill="black" stroke="black" points="1028.4,-62 1035.11,-53.8 1024.76,-56.03 1028.4,-62"/>
<text text-anchor="middle" x="730" y="-245.24" font-family="Times,serif" font-size="14.00">ε</text>
</g>
<!-- ch_A&#45;&gt;A -->
<g id="edge31" class="edge">
<title>ch_A&#45;&gt;A</title>
<path fill="none" stroke="black" d="M524.15,-438.29C524.52,-383.56 525.5,-242.04 525.5,-242.04 525.5,-242.04 563.01,-128.68 581.68,-72.22"/>
<polygon fill="black" stroke="black" points="584.96,-73.45 584.78,-62.86 578.32,-71.25 584.96,-73.45"/>
<text text-anchor="middle" x="530.75" y="-245.24" font-family="Times,serif" font-size="14.00">\0</text>
</g>
<!-- comentario_S -->
<g id="node15" class="node">
<title>comentario_S</title>
<ellipse fill="none" stroke="black" cx="247" cy="-1702.04" rx="18" ry="18"/>
<text text-anchor="middle" x="247" y="-1696.99" font-family="Times,serif" font-size="14.00">S</text>
</g>
<!-- comentario_A -->
<g id="node16" class="node">
<title>comentario_A</title>
<ellipse fill="none" stroke="black" cx="205" cy="-1289.54" rx="18" ry="18"/>
<text text-anchor="middle" x="205" y="-1284.49" font-family="Times,serif" font-size="14.00">A</text>
</g>
<!-- comentario_S&#45;&gt;comentario_A -->
<g id="edge13" class="edge">
<title>comentario_S&#45;&gt;comentario_A</title>
<path fill="none" stroke="black" d="M245.22,-1683.66C238.69,-1619.8 215.96,-1397.67 207.88,-1318.68"/>
<polygon fill="black" stroke="black" points="211.41,-1318.79 206.91,-1309.2 204.45,-1319.5 211.41,-1318.79"/>
<text text-anchor="middle" x="227.88" y="-1490.74" font-family="Times,serif" font-size="14.00">/</text>
</g>
<!-- comentario_B -->
<g id="node17" class="node">
<title>comentario_B</title>
<ellipse fill="none" stroke="black" cx="34" cy="-877.04" rx="18" ry="18"/>
<text text-anchor="middle" x="34" y="-871.99" font-family="Times,serif" font-size="14.00">B</text>
</g>
<!-- comentario_A&#45;&gt;comentario_B -->
<g id="edge14" class="edge">
<title>comentario_A&#45;&gt;comentario_B</title>
<path fill="none" stroke="black" d="M198.3,-1272.45C172.22,-1209.86 77.42,-982.27 44.98,-904.39"/>
<polygon fill="black" stroke="black" points="48.32,-903.3 41.24,-895.42 41.85,-906 48.32,-903.3"/>
<text text-anchor="middle" x="121.38" y="-1078.24" font-family="Times,serif" font-size="14.00">/</text>
</g>
<!-- comentario_B&#45;&gt;comentario_B -->
<g id="edge15" class="edge">
<title>comentario_B&#45;&gt;comentario_B</title>
<path fill="none" stroke="black" d="M39.16,-894.41C51.79,-927.75 70,-921.96 70,-877.04 70,-837.56 55.93,-828.31 43.95,-849.28"/>
<polygon fill="black" stroke="black" points="40.8,-847.75 39.8,-858.3 47.16,-850.68 40.8,-847.75"/>
<text text-anchor="middle" x="175" y="-871.99" font-family="Times,serif" font-size="14.00">caracter dado por isprint do &lt;ctype.h&gt;</text>
</g>
<!-- comentario_C -->
<g id="node18" class="node">
<title>comentario_C</title>
<ellipse fill="none" stroke="black" cx="258" cy="-460.54" rx="18" ry="18"/>
<ellipse fill="none" stroke="black" cx="258" cy="-460.54" rx="22" ry="22"/>
<text text-anchor="middle" x="258" y="-455.49" font-family="Times,serif" font-size="14.00">C</text>
</g>
<!-- comentario_B&#45;&gt;comentario_C -->
<g id="edge16" class="edge">
<title>comentario_B&#45;&gt;comentario_C</title>
<path fill="none" stroke="black" d="M42.24,-860.8C75.32,-799.57 198.86,-570.98 242.56,-490.11"/>
<polygon fill="black" stroke="black" points="245.55,-491.93 247.23,-481.47 239.39,-488.61 245.55,-491.93"/>
<text text-anchor="middle" x="151.25" y="-665.74" font-family="Times,serif" font-size="14.00">\0</text>
</g>
<!-- comentario_C&#45;&gt;S -->
<g id="edge39" class="edge">
<title>comentario_C&#45;&gt;S</title>
<path fill="none" stroke="black" d="M274.6,-445.38C283.23,-438.02 292,-430.54 292,-430.54 292,-430.54 672,-258.54 672,-258.54 672,-258.54 935.6,-109.24 1026,-58.03"/>
<polygon fill="black" stroke="black" points="1027.6,-61.15 1034.58,-53.17 1024.15,-55.06 1027.6,-61.15"/>
<text text-anchor="middle" x="701.35" y="-245.24" font-family="Times,serif" font-size="14.00">ε</text>
</g>
<!-- comentario_C&#45;&gt;A -->
<g id="edge32" class="edge">
<title>comentario_C&#45;&gt;A</title>
<path fill="none" stroke="black" d="M271.51,-442.62C323.34,-377.67 509.73,-144.12 571.76,-66.4"/>
<polygon fill="black" stroke="black" points="574.24,-68.9 577.75,-58.9 568.77,-64.53 574.24,-68.9"/>
<text text-anchor="middle" x="430.25" y="-245.24" font-family="Times,serif" font-size="14.00">\0</text>
</g>
<!-- S&#45;&gt;id_S -->
<g id="edge19" class="edge">
<title>S&#45;&gt;id_S</title>
<path fill="none" stroke="black" d="M1054.16,-58.35C1045.47,-139.97 1009,-482.54 1009,-482.54 1009,-482.54 931.52,-759.71 906.61,-848.81"/>
<polygon fill="black" stroke="black" points="903.32,-847.6 903.99,-858.18 910.06,-849.49 903.32,-847.6"/>
<text text-anchor="middle" x="1017.4" y="-455.49" font-family="Times,serif" font-size="14.00">ε</text>
</g>
<!-- S&#45;&gt;intcon_S -->
<g id="edge20" class="edge">
<title>S&#45;&gt;intcon_S</title>
<path fill="none" stroke="black" d="M1045.81,-56.79C998.66,-129.66 804,-430.54 804,-430.54 804,-430.54 748.82,-749.79 731.88,-847.78"/>
<polygon fill="black" stroke="black" points="728.48,-846.91 730.23,-857.36 735.38,-848.1 728.48,-846.91"/>
<text text-anchor="middle" x="807" y="-455.49" font-family="Times,serif" font-size="14.00">ε</text>
</g>
<!-- S&#45;&gt;realcon_S -->
<g id="edge21" class="edge">
<title>S&#45;&gt;realcon_S</title>
<path fill="none" stroke="black" d="M1076.22,-52.42C1151.74,-94.94 1413,-242.04 1413,-242.04 1413,-242.04 1491,-459.54 1491,-459.54 1491,-1290.54 1491,-1290.54 1491,-1290.54 1491,-1290.54 1298.21,-1589.19 1241.51,-1677.02"/>
<polygon fill="black" stroke="black" points="1238.74,-1674.86 1236.25,-1685.16 1244.62,-1678.66 1238.74,-1674.86"/>
<text text-anchor="middle" x="1494" y="-871.99" font-family="Times,serif" font-size="14.00">ε</text>
</g>
<!-- S&#45;&gt;charcon_S -->
<g id="edge22" class="edge">
<title>S&#45;&gt;charcon_S</title>
<path fill="none" stroke="black" d="M1063.93,-57.38C1083.92,-98.61 1135.98,-205.95 1152.14,-239.27"/>
<polygon fill="black" stroke="black" points="1148.83,-240.46 1156.34,-247.93 1155.12,-237.4 1148.83,-240.46"/>
<path fill="none" stroke="black" d="M1157,-251.29C1157,-251.29 1127,-679.04 1127,-679.04 1127,-679.04 1103.56,-810.97 1095.04,-858.9"/>
<text text-anchor="middle" x="1146.92" y="-455.49" font-family="Times,serif" font-size="14.00">ε</text>
</g>
<!-- S&#45;&gt;stringcon_S -->
<g id="edge23" class="edge">
<title>S&#45;&gt;stringcon_S</title>
<path fill="none" stroke="black" d="M1067.53,-56.81C1102.19,-104.2 1203,-242.04 1203,-242.04 1203,-242.04 1331,-430.54 1331,-430.54 1331,-430.54 1380.35,-749.14 1395.58,-847.48"/>
<polygon fill="black" stroke="black" points="1392.12,-848.01 1397.11,-857.35 1399.03,-846.94 1392.12,-848.01"/>
<text text-anchor="middle" x="1341.93" y="-455.49" font-family="Times,serif" font-size="14.00">ε</text>
</g>
<!-- S&#45;&gt;ch_S -->
<g id="edge24" class="edge">
<title>S&#45;&gt;ch_S</title>
<path fill="none" stroke="black" d="M1038.17,-53.61C975.78,-97.62 771,-242.04 771,-242.04 771,-242.04 650,-430.54 650,-430.54 650,-430.54 628,-679.04 628,-679.04 628,-679.04 526.11,-802.19 483.44,-853.75"/>
<polygon fill="black" stroke="black" points="480.85,-851.4 477.17,-861.33 486.24,-855.86 480.85,-851.4"/>
<text text-anchor="middle" x="653" y="-455.49" font-family="Times,serif" font-size="14.00">ε</text>
</g>
<!-- S&#45;&gt;comentario_S -->
<g id="edge25" class="edge">
<title>S&#45;&gt;comentario_S</title>
<path fill="none" stroke="black" d="M1157,-251.29C1157,-251.29 1174,-669.79 1174,-669.79 1174,-1290.54 1174,-1290.54 1174,-1290.54 1174,-1290.54 387.85,-1638.67 263.48,-1693.74"/>
<text text-anchor="middle" x="1177" y="-871.99" font-family="Times,serif" font-size="14.00">ε</text>
</g>
<!-- S&#45;&gt;S -->
<g id="edge18" class="edge">
<title>S&#45;&gt;S</title>
<path fill="none" stroke="black" d="M1062.45,-57.75C1078.24,-91.73 1101,-85.83 1101,-40.04 1101,0.56 1083.1,9.8 1068.04,-12.32"/>
<polygon fill="black" stroke="black" points="1065.01,-10.57 1063.19,-21.01 1071.12,-13.99 1065.01,-10.57"/>
<text text-anchor="middle" x="1143" y="-34.99" font-family="Times,serif" font-size="14.00">Espaco, Tab, \n</text>
</g>
<!-- Inicio -->
<g id="node20" class="node">
<title>Inicio</title>
<text text-anchor="middle" x="1295" y="-455.49" font-family="Times,serif" font-size="14.00">Inicio</text>
</g>
<!-- Inicio&#45;&gt;S -->
<g id="edge17" class="edge">
<title>Inicio&#45;&gt;S</title>
<path fill="none" stroke="black" d="M1286.55,-442.83C1260.79,-391.9 1185,-242.04 1185,-242.04 1185,-242.04 1107.29,-120.96 1072.5,-66.75"/>
<polygon fill="black" stroke="black" points="1075.5,-64.95 1067.16,-58.42 1069.61,-68.73 1075.5,-64.95"/>
</g>
</g>
</svg>
