<?xml version="1.0" encoding="UTF-8" standalone="no"?>
<!DOCTYPE svg PUBLIC "-//W3C//DTD SVG 1.1//EN"
 "http://www.w3.org/Graphics/SVG/1.1/DTD/svg11.dtd">
<!-- Generated by graphviz version 12.1.2 (0)
 -->
<!-- Title: afd Pages: 1 -->
<svg width="2417pt" height="477pt"
 viewBox="0.00 0.00 2417.00 477.00" xmlns="http://www.w3.org/2000/svg" xmlns:xlink="http://www.w3.org/1999/xlink">
<g id="graph0" class="graph" transform="scale(1 1) rotate(0) translate(4 473)">
<title>afd</title>
<polygon fill="white" stroke="none" points="-4,4 -4,-473 2413,-473 2413,4 -4,4"/>
<g id="clust1" class="cluster">
<title>cluster_id</title>
<polygon fill="#ffaaff" stroke="#ffaaff" points="1548,-88.5 1548,-261.5 1742,-261.5 1742,-88.5 1548,-88.5"/>
<text text-anchor="middle" x="1645" y="-244.2" font-family="Times,serif" font-size="14.00">id</text>
</g>
<g id="clust2" class="cluster">
<title>cluster_intcon</title>
<polygon fill="#bb4455" stroke="#bb4455" points="1786,-88.5 1786,-261.5 1896,-261.5 1896,-88.5 1786,-88.5"/>
<text text-anchor="middle" x="1841" y="-244.2" font-family="Times,serif" font-size="14.00">intcon</text>
</g>
<g id="clust3" class="cluster">
<title>cluster_realcon</title>
<polygon fill="#aaaaaa" stroke="#aaaaaa" points="1976,-88.5 1976,-461 2044,-461 2044,-88.5 1976,-88.5"/>
<text text-anchor="middle" x="2010" y="-443.7" font-family="Times,serif" font-size="14.00">realcon</text>
</g>
<g id="clust4" class="cluster">
<title>cluster_charcon</title>
<polygon fill="#aaaa44" stroke="#aaaa44" points="2052,-88.5 2052,-261.5 2135,-261.5 2135,-88.5 2052,-88.5"/>
<text text-anchor="middle" x="2093.5" y="-244.2" font-family="Times,serif" font-size="14.00">charcon</text>
</g>
<g id="clust5" class="cluster">
<title>cluster_stringcon</title>
<polygon fill="#6699aa" stroke="#6699aa" points="2250,-88.5 2250,-261.5 2341,-261.5 2341,-88.5 2250,-88.5"/>
<text text-anchor="middle" x="2295.5" y="-244.2" font-family="Times,serif" font-size="14.00">stringcon</text>
</g>
<g id="clust6" class="cluster">
<title>cluster_ch</title>
<polygon fill="#9999ff" stroke="#9999ff" points="8,-88.5 8,-261.5 347,-261.5 347,-88.5 8,-88.5"/>
<text text-anchor="middle" x="177.5" y="-244.2" font-family="Times,serif" font-size="14.00">ch</text>
</g>
<g id="clust7" class="cluster">
<title>cluster_comentario</title>
<polygon fill="#00bb88" stroke="#00bb88" points="1260,-88.5 1260,-461 1540,-461 1540,-88.5 1260,-88.5"/>
<text text-anchor="middle" x="1400" y="-443.7" font-family="Times,serif" font-size="14.00">comentario</text>
</g>
<g id="clust8" class="cluster">
<title>cluster_reservadas</title>
<polygon fill="#ff7777" stroke="#ff7777" points="372,-88.5 372,-261.5 1235,-261.5 1235,-88.5 372,-88.5"/>
<text text-anchor="middle" x="803.5" y="-244.2" font-family="Times,serif" font-size="14.00">palavras reservadas</text>
</g>
<!-- id_S -->
<g id="node1" class="node">
<title>id_S</title>
<ellipse fill="none" stroke="black" cx="1633" cy="-211" rx="18" ry="18"/>
<text text-anchor="middle" x="1633" y="-205.95" font-family="Times,serif" font-size="14.00">S</text>
</g>
<!-- id_S&#45;&gt;id_S -->
<g id="edge1" class="edge">
<title>id_S&#45;&gt;id_S</title>
<path fill="none" stroke="black" d="M1649.66,-218.78C1659.62,-220.51 1669,-217.91 1669,-211 1669,-206.89 1665.69,-204.31 1660.92,-203.25"/>
<polygon fill="black" stroke="black" points="1661.19,-199.76 1651.18,-203.23 1661.17,-206.76 1661.19,-199.76"/>
<text text-anchor="middle" x="1691.88" y="-205.95" font-family="Times,serif" font-size="14.00">sublinha</text>
</g>
<!-- id_A -->
<g id="node2" class="node">
<title>id_A</title>
<ellipse fill="none" stroke="black" cx="1578" cy="-118.5" rx="18" ry="18"/>
<ellipse fill="none" stroke="black" cx="1578" cy="-118.5" rx="22" ry="22"/>
<text text-anchor="middle" x="1578" y="-113.45" font-family="Times,serif" font-size="14.00">A</text>
</g>
<!-- id_S&#45;&gt;id_A -->
<g id="edge2" class="edge">
<title>id_S&#45;&gt;id_A</title>
<path fill="none" stroke="black" d="M1623.92,-195.06C1616.11,-182.21 1604.63,-163.32 1595.11,-147.65"/>
<polygon fill="black" stroke="black" points="1598.16,-145.93 1589.97,-139.2 1592.18,-149.57 1598.16,-145.93"/>
<text text-anchor="middle" x="1622.43" y="-161.7" font-family="Times,serif" font-size="14.00">letra</text>
</g>
<!-- id_A&#45;&gt;id_A -->
<g id="edge3" class="edge">
<title>id_A&#45;&gt;id_A</title>
<path fill="none" stroke="black" d="M1598.58,-127.28C1608.84,-128.49 1618,-125.57 1618,-118.5 1618,-114.3 1614.77,-111.57 1610,-110.29"/>
<polygon fill="black" stroke="black" points="1610.25,-106.8 1600.09,-109.8 1609.91,-113.79 1610.25,-106.8"/>
<text text-anchor="middle" x="1676.12" y="-113.45" font-family="Times,serif" font-size="14.00">letra, digito, sublinha</text>
</g>
<!-- S -->
<g id="node21" class="node">
<title>S</title>
<ellipse fill="none" stroke="black" cx="1924" cy="-22" rx="27" ry="18"/>
<text text-anchor="middle" x="1924" y="-16.95" font-family="Times,serif" font-size="14.00">S</text>
</g>
<!-- id_A&#45;&gt;S -->
<g id="edge36" class="edge">
<title>id_A&#45;&gt;S</title>
<path fill="none" stroke="black" d="M1598.73,-110.13C1630.86,-98.86 1694.76,-77.07 1750,-62 1796.82,-49.23 1851.56,-37.47 1886.95,-30.28"/>
<polygon fill="black" stroke="black" points="1887.57,-33.72 1896.69,-28.32 1886.19,-26.86 1887.57,-33.72"/>
<text text-anchor="middle" x="1753" y="-65.2" font-family="Times,serif" font-size="14.00">ε</text>
</g>
<!-- A -->
<g id="node23" class="node">
<title>A</title>
<ellipse fill="none" stroke="black" cx="1048" cy="-22" rx="18" ry="18"/>
<ellipse fill="none" stroke="black" cx="1048" cy="-22" rx="22" ry="22"/>
<text text-anchor="middle" x="1048" y="-16.95" font-family="Times,serif" font-size="14.00">A</text>
</g>
<!-- id_A&#45;&gt;A -->
<g id="edge28" class="edge">
<title>id_A&#45;&gt;A</title>
<path fill="none" stroke="black" d="M1563.59,-101.39C1558.03,-96.28 1551.25,-91.25 1544,-88.5 1517.43,-78.41 1052.4,-98.79 1032.5,-78.5 1025.25,-71.1 1026.4,-60.61 1030.34,-50.74"/>
<polygon fill="black" stroke="black" points="1033.47,-52.31 1034.77,-41.8 1027.2,-49.2 1033.47,-52.31"/>
<text text-anchor="middle" x="1037.75" y="-65.2" font-family="Times,serif" font-size="14.00">\0</text>
</g>
<!-- intcon_S -->
<g id="node3" class="node">
<title>intcon_S</title>
<ellipse fill="none" stroke="black" cx="1853" cy="-211" rx="18" ry="18"/>
<text text-anchor="middle" x="1853" y="-205.95" font-family="Times,serif" font-size="14.00">S</text>
</g>
<!-- intcon_A -->
<g id="node4" class="node">
<title>intcon_A</title>
<ellipse fill="none" stroke="black" cx="1816" cy="-118.5" rx="18" ry="18"/>
<ellipse fill="none" stroke="black" cx="1816" cy="-118.5" rx="22" ry="22"/>
<text text-anchor="middle" x="1816" y="-113.45" font-family="Times,serif" font-size="14.00">A</text>
</g>
<!-- intcon_S&#45;&gt;intcon_A -->
<g id="edge4" class="edge">
<title>intcon_S&#45;&gt;intcon_A</title>
<path fill="none" stroke="black" d="M1846.39,-193.82C1841.42,-181.67 1834.46,-164.66 1828.46,-149.98"/>
<polygon fill="black" stroke="black" points="1831.7,-148.66 1824.68,-140.73 1825.22,-151.31 1831.7,-148.66"/>
<text text-anchor="middle" x="1853.56" y="-161.7" font-family="Times,serif" font-size="14.00">digito</text>
</g>
<!-- intcon_A&#45;&gt;intcon_A -->
<g id="edge5" class="edge">
<title>intcon_A&#45;&gt;intcon_A</title>
<path fill="none" stroke="black" d="M1836.58,-127.28C1846.84,-128.49 1856,-125.57 1856,-118.5 1856,-114.3 1852.77,-111.57 1848,-110.29"/>
<polygon fill="black" stroke="black" points="1848.25,-106.8 1838.09,-109.8 1847.91,-113.79 1848.25,-106.8"/>
<text text-anchor="middle" x="1871.75" y="-113.45" font-family="Times,serif" font-size="14.00">digito</text>
</g>
<!-- intcon_A&#45;&gt;S -->
<g id="edge37" class="edge">
<title>intcon_A&#45;&gt;S</title>
<path fill="none" stroke="black" d="M1832.4,-103.15C1850.29,-87.5 1879.11,-62.28 1899.64,-44.32"/>
<polygon fill="black" stroke="black" points="1901.79,-47.09 1907.01,-37.87 1897.18,-41.82 1901.79,-47.09"/>
<text text-anchor="middle" x="1879.47" y="-65.2" font-family="Times,serif" font-size="14.00">ε</text>
</g>
<!-- intcon_A&#45;&gt;A -->
<g id="edge29" class="edge">
<title>intcon_A&#45;&gt;A</title>
<path fill="none" stroke="black" d="M1801.3,-101.96C1795.27,-96.65 1787.85,-91.33 1780,-88.5 1761.35,-81.78 1082.5,-90.2 1066.5,-78.5 1059.01,-73.02 1054.51,-64.38 1051.82,-55.53"/>
<polygon fill="black" stroke="black" points="1055.26,-54.88 1049.62,-45.91 1048.43,-56.44 1055.26,-54.88"/>
<text text-anchor="middle" x="1071.75" y="-65.2" font-family="Times,serif" font-size="14.00">\0</text>
</g>
<!-- realcon_S -->
<g id="node5" class="node">
<title>realcon_S</title>
<ellipse fill="none" stroke="black" cx="2010" cy="-410.5" rx="18" ry="18"/>
<text text-anchor="middle" x="2010" y="-405.45" font-family="Times,serif" font-size="14.00">S</text>
</g>
<!-- realcon_A -->
<g id="node6" class="node">
<title>realcon_A</title>
<ellipse fill="none" stroke="black" cx="2004" cy="-322" rx="18" ry="18"/>
<text text-anchor="middle" x="2004" y="-316.95" font-family="Times,serif" font-size="14.00">A</text>
</g>
<!-- realcon_S&#45;&gt;realcon_A -->
<g id="edge6" class="edge">
<title>realcon_S&#45;&gt;realcon_A</title>
<path fill="none" stroke="black" d="M2008.81,-392.41C2008.01,-380.76 2006.92,-365.05 2005.98,-351.52"/>
<polygon fill="black" stroke="black" points="2009.49,-351.59 2005.31,-341.86 2002.51,-352.08 2009.49,-351.59"/>
<text text-anchor="middle" x="2024.41" y="-361.2" font-family="Times,serif" font-size="14.00">intcon</text>
</g>
<!-- realcon_B -->
<g id="node7" class="node">
<title>realcon_B</title>
<ellipse fill="none" stroke="black" cx="2003" cy="-211" rx="18" ry="18"/>
<text text-anchor="middle" x="2003" y="-205.95" font-family="Times,serif" font-size="14.00">B</text>
</g>
<!-- realcon_A&#45;&gt;realcon_B -->
<g id="edge7" class="edge">
<title>realcon_A&#45;&gt;realcon_B</title>
<path fill="none" stroke="black" d="M2003.84,-303.97C2003.69,-287.03 2003.45,-260.73 2003.26,-240.59"/>
<polygon fill="black" stroke="black" points="2006.76,-240.75 2003.17,-230.78 1999.76,-240.82 2006.76,-240.75"/>
<text text-anchor="middle" x="2019.05" y="-272.7" font-family="Times,serif" font-size="14.00">ponto</text>
</g>
<!-- realcon_C -->
<g id="node8" class="node">
<title>realcon_C</title>
<ellipse fill="none" stroke="black" cx="2008" cy="-118.5" rx="18" ry="18"/>
<ellipse fill="none" stroke="black" cx="2008" cy="-118.5" rx="22" ry="22"/>
<text text-anchor="middle" x="2008" y="-113.45" font-family="Times,serif" font-size="14.00">C</text>
</g>
<!-- realcon_B&#45;&gt;realcon_C -->
<g id="edge8" class="edge">
<title>realcon_B&#45;&gt;realcon_C</title>
<path fill="none" stroke="black" d="M2003.96,-192.55C2004.6,-181.11 2005.44,-165.8 2006.2,-152.15"/>
<polygon fill="black" stroke="black" points="2009.69,-152.41 2006.74,-142.23 2002.7,-152.02 2009.69,-152.41"/>
<text text-anchor="middle" x="2022.67" y="-161.7" font-family="Times,serif" font-size="14.00">intcon</text>
</g>
<!-- realcon_C&#45;&gt;S -->
<g id="edge38" class="edge">
<title>realcon_C&#45;&gt;S</title>
<path fill="none" stroke="black" d="M1997.82,-98.73C1991.25,-87.46 1982.06,-73.19 1972,-62 1965.74,-55.04 1958.18,-48.29 1950.93,-42.43"/>
<polygon fill="black" stroke="black" points="1953.27,-39.81 1943.22,-36.44 1948.97,-45.34 1953.27,-39.81"/>
<text text-anchor="middle" x="1987.35" y="-65.2" font-family="Times,serif" font-size="14.00">ε</text>
</g>
<!-- realcon_C&#45;&gt;A -->
<g id="edge30" class="edge">
<title>realcon_C&#45;&gt;A</title>
<path fill="none" stroke="black" d="M1988.49,-107.6C1973.9,-100.77 1953.23,-92.25 1934,-88.5 1888.55,-79.63 1142.92,-97.07 1100.5,-78.5 1092.8,-75.13 1079.85,-61.49 1068.75,-48.58"/>
<polygon fill="black" stroke="black" points="1071.53,-46.45 1062.41,-41.05 1066.17,-50.95 1071.53,-46.45"/>
<text text-anchor="middle" x="1105.75" y="-65.2" font-family="Times,serif" font-size="14.00">\0</text>
</g>
<!-- charcon_S -->
<g id="node9" class="node">
<title>charcon_S</title>
<ellipse fill="none" stroke="black" cx="2093" cy="-211" rx="18" ry="18"/>
<text text-anchor="middle" x="2093" y="-205.95" font-family="Times,serif" font-size="14.00">S</text>
</g>
<!-- charcon_A -->
<g id="node10" class="node">
<title>charcon_A</title>
<ellipse fill="none" stroke="black" cx="2082" cy="-118.5" rx="18" ry="18"/>
<ellipse fill="none" stroke="black" cx="2082" cy="-118.5" rx="22" ry="22"/>
<text text-anchor="middle" x="2082" y="-113.45" font-family="Times,serif" font-size="14.00">A</text>
</g>
<!-- charcon_S&#45;&gt;charcon_A -->
<g id="edge9" class="edge">
<title>charcon_S&#45;&gt;charcon_A</title>
<path fill="none" stroke="black" d="M2090.93,-192.98C2089.52,-181.38 2087.61,-165.66 2085.92,-151.73"/>
<polygon fill="black" stroke="black" points="2089.43,-151.6 2084.75,-142.09 2082.48,-152.44 2089.43,-151.6"/>
<text text-anchor="middle" x="2112.86" y="-161.7" font-family="Times,serif" font-size="14.00">ch, \n, \0</text>
</g>
<!-- charcon_A&#45;&gt;S -->
<g id="edge39" class="edge">
<title>charcon_A&#45;&gt;S</title>
<path fill="none" stroke="black" d="M2066.32,-102.87C2060.75,-98.02 2054.29,-92.77 2048,-88.5 2018.38,-68.41 1981.89,-49.79 1956.19,-37.58"/>
<polygon fill="black" stroke="black" points="1957.8,-34.47 1947.26,-33.4 1954.83,-40.81 1957.8,-34.47"/>
<text text-anchor="middle" x="2034.99" y="-65.2" font-family="Times,serif" font-size="14.00">ε</text>
</g>
<!-- charcon_A&#45;&gt;A -->
<g id="edge31" class="edge">
<title>charcon_A&#45;&gt;A</title>
<path fill="none" stroke="black" d="M2067.6,-101.35C2062.04,-96.24 2055.26,-91.22 2048,-88.5 2000.47,-70.69 1182.81,-94.06 1134.5,-78.5 1122.35,-74.59 1121.65,-69.03 1111,-62 1099.74,-54.57 1087.13,-46.68 1076.17,-39.96"/>
<polygon fill="black" stroke="black" points="1078.3,-37.16 1067.94,-34.94 1074.66,-43.14 1078.3,-37.16"/>
<text text-anchor="middle" x="1139.75" y="-65.2" font-family="Times,serif" font-size="14.00">\0</text>
</g>
<!-- stringcon_S -->
<g id="node11" class="node">
<title>stringcon_S</title>
<ellipse fill="none" stroke="black" cx="2306" cy="-211" rx="18" ry="18"/>
<text text-anchor="middle" x="2306" y="-205.95" font-family="Times,serif" font-size="14.00">S</text>
</g>
<!-- stringcon_A -->
<g id="node12" class="node">
<title>stringcon_A</title>
<ellipse fill="none" stroke="black" cx="2280" cy="-118.5" rx="18" ry="18"/>
<ellipse fill="none" stroke="black" cx="2280" cy="-118.5" rx="22" ry="22"/>
<text text-anchor="middle" x="2280" y="-113.45" font-family="Times,serif" font-size="14.00">A</text>
</g>
<!-- stringcon_S&#45;&gt;stringcon_A -->
<g id="edge10" class="edge">
<title>stringcon_S&#45;&gt;stringcon_A</title>
<path fill="none" stroke="black" d="M2301.23,-193.4C2297.83,-181.56 2293.15,-165.28 2289.05,-151.01"/>
<polygon fill="black" stroke="black" points="2292.47,-150.22 2286.34,-141.58 2285.74,-152.16 2292.47,-150.22"/>
<text text-anchor="middle" x="2301.7" y="-161.7" font-family="Times,serif" font-size="14.00">ch</text>
</g>
<!-- stringcon_A&#45;&gt;stringcon_A -->
<g id="edge11" class="edge">
<title>stringcon_A&#45;&gt;stringcon_A</title>
<path fill="none" stroke="black" d="M2300.58,-127.28C2310.84,-128.49 2320,-125.57 2320,-118.5 2320,-114.3 2316.77,-111.57 2312,-110.29"/>
<polygon fill="black" stroke="black" points="2312.25,-106.8 2302.09,-109.8 2311.91,-113.79 2312.25,-106.8"/>
<text text-anchor="middle" x="2326.38" y="-113.45" font-family="Times,serif" font-size="14.00">ch</text>
</g>
<!-- stringcon_A&#45;&gt;S -->
<g id="edge40" class="edge">
<title>stringcon_A&#45;&gt;S</title>
<path fill="none" stroke="black" d="M2285.26,-96.8C2286.91,-85.13 2286.46,-71.11 2278,-62 2256.8,-39.18 2049.68,-28.12 1962.43,-24.45"/>
<polygon fill="black" stroke="black" points="1962.84,-20.96 1952.7,-24.05 1962.55,-27.96 1962.84,-20.96"/>
<text text-anchor="middle" x="2288.28" y="-65.2" font-family="Times,serif" font-size="14.00">ε</text>
</g>
<!-- stringcon_A&#45;&gt;A -->
<g id="edge32" class="edge">
<title>stringcon_A&#45;&gt;A</title>
<path fill="none" stroke="black" d="M2264.63,-102.45C2258.4,-97.19 2250.82,-91.79 2243,-88.5 2159.93,-53.58 2131.78,-69.66 2042,-62 1666.09,-29.91 1207.93,-24.19 1081.62,-23.2"/>
<polygon fill="black" stroke="black" points="1081.98,-19.7 1071.96,-23.13 1081.93,-26.7 1081.98,-19.7"/>
<text text-anchor="middle" x="2220.52" y="-65.2" font-family="Times,serif" font-size="14.00">\0</text>
</g>
<!-- ch_S -->
<g id="node13" class="node">
<title>ch_S</title>
<ellipse fill="none" stroke="black" cx="177" cy="-211" rx="18" ry="18"/>
<text text-anchor="middle" x="177" y="-205.95" font-family="Times,serif" font-size="14.00">S</text>
</g>
<!-- ch_A -->
<g id="node14" class="node">
<title>ch_A</title>
<ellipse fill="none" stroke="black" cx="300" cy="-118.5" rx="18" ry="18"/>
<ellipse fill="none" stroke="black" cx="300" cy="-118.5" rx="22" ry="22"/>
<text text-anchor="middle" x="300" y="-113.45" font-family="Times,serif" font-size="14.00">A</text>
</g>
<!-- ch_S&#45;&gt;ch_A -->
<g id="edge12" class="edge">
<title>ch_S&#45;&gt;ch_A</title>
<path fill="none" stroke="black" d="M158.79,-209.56C113.04,-207.84 -0.62,-199.45 34.75,-158.5 64.32,-124.26 201.94,-119.53 266.45,-119.24"/>
<polygon fill="black" stroke="black" points="266.1,-122.74 276.09,-119.23 266.09,-115.74 266.1,-122.74"/>
<text text-anchor="middle" x="187.38" y="-161.7" font-family="Times,serif" font-size="14.00">caracter dado por isprint do &lt;ctype.h&gt;, diferente de \ e &#39;</text>
</g>
<!-- ch_A&#45;&gt;S -->
<g id="edge41" class="edge">
<title>ch_A&#45;&gt;S</title>
<path fill="none" stroke="black" d="M314.7,-101.96C320.73,-96.64 328.15,-91.32 336,-88.5 378.3,-73.29 1101.92,-91.31 1145,-78.5 1158.12,-74.6 1157.96,-66.16 1171,-62 1239.24,-40.25 1741.11,-27.18 1885.34,-23.85"/>
<polygon fill="black" stroke="black" points="1885.2,-27.36 1895.12,-23.63 1885.04,-20.36 1885.2,-27.36"/>
<text text-anchor="middle" x="1174" y="-65.2" font-family="Times,serif" font-size="14.00">ε</text>
</g>
<!-- ch_A&#45;&gt;A -->
<g id="edge33" class="edge">
<title>ch_A&#45;&gt;A</title>
<path fill="none" stroke="black" d="M315.17,-101.98C321.16,-96.8 328.41,-91.57 336,-88.5 461.54,-37.64 890.46,-25.89 1014.28,-23.54"/>
<polygon fill="black" stroke="black" points="1014.16,-27.04 1024.1,-23.36 1014.04,-20.04 1014.16,-27.04"/>
<text text-anchor="middle" x="439.98" y="-65.2" font-family="Times,serif" font-size="14.00">\0</text>
</g>
<!-- comentario_S -->
<g id="node15" class="node">
<title>comentario_S</title>
<ellipse fill="none" stroke="black" cx="1499" cy="-410.5" rx="18" ry="18"/>
<text text-anchor="middle" x="1499" y="-405.45" font-family="Times,serif" font-size="14.00">S</text>
</g>
<!-- comentario_A -->
<g id="node16" class="node">
<title>comentario_A</title>
<ellipse fill="none" stroke="black" cx="1457" cy="-322" rx="18" ry="18"/>
<text text-anchor="middle" x="1457" y="-316.95" font-family="Times,serif" font-size="14.00">A</text>
</g>
<!-- comentario_S&#45;&gt;comentario_A -->
<g id="edge13" class="edge">
<title>comentario_S&#45;&gt;comentario_A</title>
<path fill="none" stroke="black" d="M1491.49,-394.04C1485.38,-381.44 1476.62,-363.4 1469.46,-348.66"/>
<polygon fill="black" stroke="black" points="1472.76,-347.45 1465.25,-339.98 1466.47,-350.51 1472.76,-347.45"/>
<text text-anchor="middle" x="1483.64" y="-361.2" font-family="Times,serif" font-size="14.00">/</text>
</g>
<!-- comentario_B -->
<g id="node17" class="node">
<title>comentario_B</title>
<ellipse fill="none" stroke="black" cx="1286" cy="-211" rx="18" ry="18"/>
<text text-anchor="middle" x="1286" y="-205.95" font-family="Times,serif" font-size="14.00">B</text>
</g>
<!-- comentario_A&#45;&gt;comentario_B -->
<g id="edge14" class="edge">
<title>comentario_A&#45;&gt;comentario_B</title>
<path fill="none" stroke="black" d="M1442.12,-311.52C1412.56,-292.67 1346.19,-250.37 1310.24,-227.45"/>
<polygon fill="black" stroke="black" points="1312.55,-224.78 1302.24,-222.35 1308.79,-230.68 1312.55,-224.78"/>
<text text-anchor="middle" x="1403.56" y="-272.7" font-family="Times,serif" font-size="14.00">/</text>
</g>
<!-- comentario_B&#45;&gt;comentario_B -->
<g id="edge15" class="edge">
<title>comentario_B&#45;&gt;comentario_B</title>
<path fill="none" stroke="black" d="M1302.66,-218.78C1312.62,-220.51 1322,-217.91 1322,-211 1322,-206.89 1318.69,-204.31 1313.92,-203.25"/>
<polygon fill="black" stroke="black" points="1314.19,-199.76 1304.18,-203.23 1314.17,-206.76 1314.19,-199.76"/>
<text text-anchor="middle" x="1427" y="-205.95" font-family="Times,serif" font-size="14.00">caracter dado por isprint do &lt;ctype.h&gt;</text>
</g>
<!-- comentario_C -->
<g id="node18" class="node">
<title>comentario_C</title>
<ellipse fill="none" stroke="black" cx="1290" cy="-118.5" rx="18" ry="18"/>
<ellipse fill="none" stroke="black" cx="1290" cy="-118.5" rx="22" ry="22"/>
<text text-anchor="middle" x="1290" y="-113.45" font-family="Times,serif" font-size="14.00">C</text>
</g>
<!-- comentario_B&#45;&gt;comentario_C -->
<g id="edge16" class="edge">
<title>comentario_B&#45;&gt;comentario_C</title>
<path fill="none" stroke="black" d="M1286.77,-192.55C1287.28,-181.11 1287.95,-165.8 1288.56,-152.15"/>
<polygon fill="black" stroke="black" points="1292.05,-152.38 1289,-142.23 1285.06,-152.07 1292.05,-152.38"/>
<text text-anchor="middle" x="1293.49" y="-161.7" font-family="Times,serif" font-size="14.00">\0</text>
</g>
<!-- comentario_C&#45;&gt;S -->
<g id="edge42" class="edge">
<title>comentario_C&#45;&gt;S</title>
<path fill="none" stroke="black" d="M1311.82,-114.25C1404.76,-100.39 1768.21,-46.22 1886.54,-28.58"/>
<polygon fill="black" stroke="black" points="1886.97,-32.06 1896.35,-27.12 1885.94,-25.13 1886.97,-32.06"/>
<text text-anchor="middle" x="1647.96" y="-65.2" font-family="Times,serif" font-size="14.00">ε</text>
</g>
<!-- comentario_C&#45;&gt;A -->
<g id="edge34" class="edge">
<title>comentario_C&#45;&gt;A</title>
<path fill="none" stroke="black" d="M1274.67,-102.37C1268.21,-96.96 1260.28,-91.48 1252,-88.5 1225.48,-78.95 1018.04,-98.82 998.5,-78.5 985.97,-65.46 1001.97,-50.08 1019.03,-38.82"/>
<polygon fill="black" stroke="black" points="1020.47,-42.04 1027.15,-33.82 1016.8,-36.08 1020.47,-42.04"/>
<text text-anchor="middle" x="1003.75" y="-65.2" font-family="Times,serif" font-size="14.00">\0</text>
</g>
<!-- reservada_S -->
<g id="node19" class="node">
<title>reservada_S</title>
<ellipse fill="none" stroke="black" cx="803" cy="-211" rx="18" ry="18"/>
<text text-anchor="middle" x="803" y="-205.95" font-family="Times,serif" font-size="14.00">S</text>
</g>
<!-- reservada_A -->
<g id="node20" class="node">
<title>reservada_A</title>
<ellipse fill="none" stroke="black" cx="963" cy="-118.5" rx="18" ry="18"/>
<ellipse fill="none" stroke="black" cx="963" cy="-118.5" rx="22" ry="22"/>
<text text-anchor="middle" x="963" y="-113.45" font-family="Times,serif" font-size="14.00">A</text>
</g>
<!-- reservada_S&#45;&gt;reservada_A -->
<g id="edge17" class="edge">
<title>reservada_S&#45;&gt;reservada_A</title>
<path fill="none" stroke="black" d="M784.67,-209.83C709.25,-208.95 425.61,-203.75 399.25,-175 394.29,-169.6 394.25,-163.86 399.25,-158.5 435.45,-119.71 813.09,-118.63 929.21,-119.22"/>
<polygon fill="black" stroke="black" points="929,-122.72 939.02,-119.28 929.04,-115.72 929,-122.72"/>
<text text-anchor="middle" x="813.62" y="-161.7" font-family="Times,serif" font-size="14.00">pr, init, endp, const, char, int, read, bool, do, while, endw, var, from, by, endv, if, elif, else, endi, getout, getint, getreal, getchar, putint, putreal, putchar</text>
</g>
<!-- reservada_A&#45;&gt;S -->
<g id="edge43" class="edge">
<title>reservada_A&#45;&gt;S</title>
<path fill="none" stroke="black" d="M985.24,-116.77C1028.01,-114.73 1124.12,-107.08 1199,-78.5 1211.79,-73.62 1211.97,-66.18 1225,-62 1349.3,-22.1 1757.2,-21.7 1885.21,-22.61"/>
<polygon fill="black" stroke="black" points="1885.16,-26.11 1895.19,-22.68 1885.22,-19.11 1885.16,-26.11"/>
<text text-anchor="middle" x="1228" y="-65.2" font-family="Times,serif" font-size="14.00">ε</text>
</g>
<!-- reservada_A&#45;&gt;A -->
<g id="edge35" class="edge">
<title>reservada_A&#45;&gt;A</title>
<path fill="none" stroke="black" d="M958.59,-96.69C957.38,-85.54 957.89,-72.08 964.5,-62 975.78,-44.8 996.79,-35.04 1014.92,-29.58"/>
<polygon fill="black" stroke="black" points="1015.76,-32.98 1024.53,-27.04 1013.97,-26.21 1015.76,-32.98"/>
<text text-anchor="middle" x="969.75" y="-65.2" font-family="Times,serif" font-size="14.00">\0</text>
</g>
<!-- S&#45;&gt;id_S -->
<g id="edge20" class="edge">
<title>S&#45;&gt;id_S</title>
<path fill="none" stroke="black" d="M1898.76,-29.26C1867.16,-38.13 1812.73,-56.87 1776,-88.5 1755.26,-106.36 1762.37,-121.16 1743,-140.5 1718.18,-165.27 1683.02,-185.55 1659.18,-197.69"/>
<polygon fill="black" stroke="black" points="1657.87,-194.43 1650.46,-202 1660.97,-200.7 1657.87,-194.43"/>
<text text-anchor="middle" x="1779" y="-113.45" font-family="Times,serif" font-size="14.00">ε</text>
</g>
<!-- S&#45;&gt;intcon_S -->
<g id="edge21" class="edge">
<title>S&#45;&gt;intcon_S</title>
<path fill="none" stroke="black" d="M1921.89,-40.29C1918.62,-63.71 1911.18,-106.5 1897,-140.5 1890.12,-156.99 1879.46,-173.96 1870.35,-187.01"/>
<polygon fill="black" stroke="black" points="1867.66,-184.75 1864.66,-194.91 1873.34,-188.84 1867.66,-184.75"/>
<text text-anchor="middle" x="1915.76" y="-113.45" font-family="Times,serif" font-size="14.00">ε</text>
</g>
<!-- S&#45;&gt;realcon_S -->
<g id="edge22" class="edge">
<title>S&#45;&gt;realcon_S</title>
<path fill="none" stroke="black" d="M1951.47,-22.53C2053.25,-21.52 2403,-24.79 2403,-117.5 2403,-323 2403,-323 2403,-323 2403,-397.31 2131.64,-407.85 2039.9,-409.29"/>
<polygon fill="black" stroke="black" points="2039.9,-405.79 2029.94,-409.42 2039.99,-412.79 2039.9,-405.79"/>
<text text-anchor="middle" x="2406" y="-205.95" font-family="Times,serif" font-size="14.00">ε</text>
</g>
<!-- S&#45;&gt;charcon_S -->
<g id="edge23" class="edge">
<title>S&#45;&gt;charcon_S</title>
<path fill="none" stroke="black" d="M1950.84,-24.98C2015.19,-30.35 2175.25,-47.64 2206,-88.5 2219.9,-106.97 2217.28,-120.33 2206,-140.5 2188.01,-172.69 2148.31,-191.8 2121.1,-201.6"/>
<polygon fill="black" stroke="black" points="2120.1,-198.25 2111.74,-204.76 2122.34,-204.88 2120.1,-198.25"/>
<text text-anchor="middle" x="2218.47" y="-113.45" font-family="Times,serif" font-size="14.00">ε</text>
</g>
<!-- S&#45;&gt;stringcon_S -->
<g id="edge24" class="edge">
<title>S&#45;&gt;stringcon_S</title>
<path fill="none" stroke="black" d="M1951.2,-24.42C2025.53,-28.54 2230.76,-41.49 2295,-62 2317.84,-69.29 2329.9,-67.79 2342,-88.5 2360.42,-120.03 2339.82,-161.74 2323.06,-187.19"/>
<polygon fill="black" stroke="black" points="2320.36,-184.94 2317.55,-195.15 2326.12,-188.92 2320.36,-184.94"/>
<text text-anchor="middle" x="2352.23" y="-113.45" font-family="Times,serif" font-size="14.00">ε</text>
</g>
<!-- S&#45;&gt;ch_S -->
<g id="edge25" class="edge">
<title>S&#45;&gt;ch_S</title>
<path fill="none" stroke="black" d="M1896.63,-22.75C1781.39,-21.97 1335.54,-21.68 1202,-62 1188.17,-66.18 1187.91,-74.61 1174,-78.5 1152.27,-84.57 379.72,-74.54 362,-88.5 330.83,-113.04 368.57,-147.48 340,-175 321.22,-193.09 248.1,-203.06 206.46,-207.37"/>
<polygon fill="black" stroke="black" points="206.25,-203.87 196.64,-208.34 206.93,-210.84 206.25,-203.87"/>
<text text-anchor="middle" x="365" y="-113.45" font-family="Times,serif" font-size="14.00">ε</text>
</g>
<!-- S&#45;&gt;comentario_S -->
<g id="edge26" class="edge">
<title>S&#45;&gt;comentario_S</title>
<path fill="none" stroke="black" d="M1933.65,-39.1C1943.7,-57.41 1958,-88.56 1958,-117.5 1958,-323 1958,-323 1958,-323 1958,-366.88 1629.86,-398.4 1528.48,-407.09"/>
<polygon fill="black" stroke="black" points="1528.45,-403.58 1518.78,-407.9 1529.04,-410.55 1528.45,-403.58"/>
<text text-anchor="middle" x="1961" y="-205.95" font-family="Times,serif" font-size="14.00">ε</text>
</g>
<!-- S&#45;&gt;reservada_S -->
<g id="edge27" class="edge">
<title>S&#45;&gt;reservada_S</title>
<path fill="none" stroke="black" d="M1896.98,-23.82C1777.45,-27.67 1299.9,-45.67 1250,-88.5 1219.9,-114.34 1258.29,-149.39 1228,-175 1197.94,-200.42 924.38,-207.76 832.75,-209.52"/>
<polygon fill="black" stroke="black" points="832.76,-206.02 822.83,-209.7 832.89,-213.02 832.76,-206.02"/>
<text text-anchor="middle" x="1253" y="-113.45" font-family="Times,serif" font-size="14.00">ε</text>
</g>
<!-- S&#45;&gt;S -->
<g id="edge19" class="edge">
<title>S&#45;&gt;S</title>
<path fill="none" stroke="black" d="M1948.07,-30.87C1959.24,-31.84 1969,-28.88 1969,-22 1969,-17.59 1965,-14.8 1959.18,-13.61"/>
<polygon fill="black" stroke="black" points="1959.73,-10.13 1949.59,-13.2 1959.43,-17.12 1959.73,-10.13"/>
<text text-anchor="middle" x="2011" y="-16.95" font-family="Times,serif" font-size="14.00">Espaco, Tab, \n</text>
</g>
<!-- Inicio -->
<g id="node22" class="node">
<title>Inicio</title>
<text text-anchor="middle" x="2170" y="-113.45" font-family="Times,serif" font-size="14.00">Inicio</text>
</g>
<!-- Inicio&#45;&gt;S -->
<g id="edge18" class="edge">
<title>Inicio&#45;&gt;S</title>
<path fill="none" stroke="black" d="M2154.73,-100.62C2150.03,-96.19 2144.62,-91.74 2139,-88.5 2081.78,-55.44 2006.17,-37.45 1961.54,-29.07"/>
<polygon fill="black" stroke="black" points="1962.31,-25.65 1951.85,-27.32 1961.07,-32.54 1962.31,-25.65"/>
</g>
</g>
</svg>
