<?xml version="1.0" encoding="UTF-8" standalone="no"?>
<!DOCTYPE svg PUBLIC "-//W3C//DTD SVG 1.1//EN"
 "http://www.w3.org/Graphics/SVG/1.1/DTD/svg11.dtd">
<!-- Generated by graphviz version 2.43.0 (0)
 -->
<!-- Title: afd Pages: 1 -->
<svg width="1082pt" height="376pt"
 viewBox="0.00 0.00 1082.00 376.00" xmlns="http://www.w3.org/2000/svg" xmlns:xlink="http://www.w3.org/1999/xlink">
<g id="graph0" class="graph" transform="scale(1 1) rotate(0) translate(4 372)">
<title>afd</title>
<polygon fill="white" stroke="transparent" points="-4,4 -4,-372 1078,-372 1078,4 -4,4"/>
<g id="clust1" class="cluster">
<title>cluster_id</title>
<polygon fill="aqua" stroke="aqua" points="8,-190 8,-360 240,-360 240,-190 8,-190"/>
<text text-anchor="middle" x="124" y="-344.8" font-family="Times,serif" font-size="14.00">id</text>
</g>
<g id="clust2" class="cluster">
<title>cluster_intcon</title>
<polygon fill="brown" stroke="brown" points="248,-190 248,-360 368,-360 368,-190 248,-190"/>
<text text-anchor="middle" x="308" y="-344.8" font-family="Times,serif" font-size="14.00">intcon</text>
</g>
<g id="clust3" class="cluster">
<title>cluster_realcon</title>
<polygon fill="chocolate" stroke="chocolate" points="376,-8 376,-360 499,-360 499,-8 376,-8"/>
<text text-anchor="middle" x="437.5" y="-344.8" font-family="Times,serif" font-size="14.00">realcon</text>
</g>
<g id="clust4" class="cluster">
<title>cluster_charcon</title>
<polygon fill="darkorange" stroke="darkorange" points="507,-190 507,-360 603,-360 603,-190 507,-190"/>
<text text-anchor="middle" x="555" y="-344.8" font-family="Times,serif" font-size="14.00">charcon</text>
</g>
<g id="clust5" class="cluster">
<title>cluster_stringcon</title>
<polygon fill="seagreen" stroke="seagreen" points="611,-190 611,-360 706,-360 706,-190 611,-190"/>
<text text-anchor="middle" x="658.5" y="-344.8" font-family="Times,serif" font-size="14.00">stringcon</text>
</g>
<g id="clust6" class="cluster">
<title>cluster_comentario</title>
<polygon fill="hotpink" stroke="hotpink" points="714,-8 714,-360 1066,-360 1066,-8 714,-8"/>
<text text-anchor="middle" x="890" y="-344.8" font-family="Times,serif" font-size="14.00">comentario</text>
</g>
<!-- id_S -->
<g id="node1" class="node">
<title>id_S</title>
<ellipse fill="none" stroke="black" cx="38" cy="-311" rx="18" ry="18"/>
<text text-anchor="middle" x="38" y="-307.3" font-family="Times,serif" font-size="14.00">S</text>
</g>
<!-- id_S&#45;&gt;id_S -->
<g id="edge1" class="edge">
<title>id_S&#45;&gt;id_S</title>
<path fill="none" stroke="black" d="M54.66,-318.38C64.62,-320.02 74,-317.56 74,-311 74,-306.8 70.15,-304.28 64.77,-303.44"/>
<polygon fill="black" stroke="black" points="64.6,-299.94 54.66,-303.62 64.72,-306.94 64.6,-299.94"/>
<text text-anchor="middle" x="104.5" y="-307.3" font-family="Times,serif" font-size="14.00">sublinha</text>
</g>
<!-- id_A -->
<g id="node2" class="node">
<title>id_A</title>
<ellipse fill="none" stroke="black" cx="38" cy="-220" rx="18" ry="18"/>
<ellipse fill="none" stroke="black" cx="38" cy="-220" rx="22" ry="22"/>
<text text-anchor="middle" x="38" y="-216.3" font-family="Times,serif" font-size="14.00">A</text>
</g>
<!-- id_S&#45;&gt;id_A -->
<g id="edge2" class="edge">
<title>id_S&#45;&gt;id_A</title>
<path fill="none" stroke="black" d="M38,-292.84C38,-281.44 38,-266.13 38,-252.58"/>
<polygon fill="black" stroke="black" points="41.5,-252.19 38,-242.19 34.5,-252.19 41.5,-252.19"/>
<text text-anchor="middle" x="55" y="-263.8" font-family="Times,serif" font-size="14.00">letra</text>
</g>
<!-- id_A&#45;&gt;id_A -->
<g id="edge3" class="edge">
<title>id_A&#45;&gt;id_A</title>
<path fill="none" stroke="black" d="M58.58,-228.37C68.84,-229.53 78,-226.74 78,-220 78,-215.68 74.24,-212.99 68.84,-211.91"/>
<polygon fill="black" stroke="black" points="68.67,-208.41 58.58,-211.63 68.48,-215.4 68.67,-208.41"/>
<text text-anchor="middle" x="155" y="-216.3" font-family="Times,serif" font-size="14.00">letra, digito, sublinha</text>
</g>
<!-- intcon_S -->
<g id="node3" class="node">
<title>intcon_S</title>
<ellipse fill="none" stroke="black" cx="278" cy="-311" rx="18" ry="18"/>
<text text-anchor="middle" x="278" y="-307.3" font-family="Times,serif" font-size="14.00">S</text>
</g>
<!-- intcon_A -->
<g id="node4" class="node">
<title>intcon_A</title>
<ellipse fill="none" stroke="black" cx="278" cy="-220" rx="18" ry="18"/>
<ellipse fill="none" stroke="black" cx="278" cy="-220" rx="22" ry="22"/>
<text text-anchor="middle" x="278" y="-216.3" font-family="Times,serif" font-size="14.00">A</text>
</g>
<!-- intcon_S&#45;&gt;intcon_A -->
<g id="edge4" class="edge">
<title>intcon_S&#45;&gt;intcon_A</title>
<path fill="none" stroke="black" d="M278,-292.84C278,-281.44 278,-266.13 278,-252.58"/>
<polygon fill="black" stroke="black" points="281.5,-252.19 278,-242.19 274.5,-252.19 281.5,-252.19"/>
<text text-anchor="middle" x="299" y="-263.8" font-family="Times,serif" font-size="14.00">digito</text>
</g>
<!-- intcon_A&#45;&gt;intcon_A -->
<g id="edge5" class="edge">
<title>intcon_A&#45;&gt;intcon_A</title>
<path fill="none" stroke="black" d="M298.58,-228.37C308.84,-229.53 318,-226.74 318,-220 318,-215.68 314.24,-212.99 308.84,-211.91"/>
<polygon fill="black" stroke="black" points="308.67,-208.41 298.58,-211.63 308.48,-215.4 308.67,-208.41"/>
<text text-anchor="middle" x="339" y="-216.3" font-family="Times,serif" font-size="14.00">digito</text>
</g>
<!-- realcon_S -->
<g id="node5" class="node">
<title>realcon_S</title>
<ellipse fill="none" stroke="black" cx="406" cy="-311" rx="18" ry="18"/>
<text text-anchor="middle" x="406" y="-307.3" font-family="Times,serif" font-size="14.00">S</text>
</g>
<!-- realcon_A -->
<g id="node6" class="node">
<title>realcon_A</title>
<ellipse fill="none" stroke="black" cx="406" cy="-220" rx="18" ry="18"/>
<text text-anchor="middle" x="406" y="-216.3" font-family="Times,serif" font-size="14.00">A</text>
</g>
<!-- realcon_S&#45;&gt;realcon_A -->
<g id="edge6" class="edge">
<title>realcon_S&#45;&gt;realcon_A</title>
<path fill="none" stroke="black" d="M406,-292.84C406,-280.28 406,-262.98 406,-248.5"/>
<polygon fill="black" stroke="black" points="409.5,-248.11 406,-238.11 402.5,-248.11 409.5,-248.11"/>
<text text-anchor="middle" x="428.5" y="-263.8" font-family="Times,serif" font-size="14.00">intcon</text>
</g>
<!-- realcon_A&#45;&gt;realcon_A -->
<g id="edge7" class="edge">
<title>realcon_A&#45;&gt;realcon_A</title>
<path fill="none" stroke="black" d="M422.29,-228.02C432.39,-229.95 442,-227.28 442,-220 442,-215.34 438.06,-212.57 432.57,-211.68"/>
<polygon fill="black" stroke="black" points="432.18,-208.19 422.29,-211.98 432.39,-215.19 432.18,-208.19"/>
<text text-anchor="middle" x="464.5" y="-216.3" font-family="Times,serif" font-size="14.00">intcon</text>
</g>
<!-- realcon_B -->
<g id="node7" class="node">
<title>realcon_B</title>
<ellipse fill="none" stroke="black" cx="406" cy="-129" rx="18" ry="18"/>
<text text-anchor="middle" x="406" y="-125.3" font-family="Times,serif" font-size="14.00">B</text>
</g>
<!-- realcon_A&#45;&gt;realcon_B -->
<g id="edge8" class="edge">
<title>realcon_A&#45;&gt;realcon_B</title>
<path fill="none" stroke="black" d="M406,-201.84C406,-189.28 406,-171.98 406,-157.5"/>
<polygon fill="black" stroke="black" points="409.5,-157.11 406,-147.11 402.5,-157.11 409.5,-157.11"/>
<text text-anchor="middle" x="426.5" y="-168.8" font-family="Times,serif" font-size="14.00">ponto</text>
</g>
<!-- realcon_C -->
<g id="node8" class="node">
<title>realcon_C</title>
<ellipse fill="none" stroke="black" cx="406" cy="-38" rx="18" ry="18"/>
<ellipse fill="none" stroke="black" cx="406" cy="-38" rx="22" ry="22"/>
<text text-anchor="middle" x="406" y="-34.3" font-family="Times,serif" font-size="14.00">C</text>
</g>
<!-- realcon_B&#45;&gt;realcon_C -->
<g id="edge9" class="edge">
<title>realcon_B&#45;&gt;realcon_C</title>
<path fill="none" stroke="black" d="M406,-110.84C406,-99.44 406,-84.13 406,-70.58"/>
<polygon fill="black" stroke="black" points="409.5,-70.19 406,-60.19 402.5,-70.19 409.5,-70.19"/>
<text text-anchor="middle" x="428.5" y="-81.8" font-family="Times,serif" font-size="14.00">intcon</text>
</g>
<!-- realcon_C&#45;&gt;realcon_C -->
<g id="edge10" class="edge">
<title>realcon_C&#45;&gt;realcon_C</title>
<path fill="none" stroke="black" d="M426.58,-46.37C436.84,-47.53 446,-44.74 446,-38 446,-33.68 442.24,-30.99 436.84,-29.91"/>
<polygon fill="black" stroke="black" points="436.67,-26.41 426.58,-29.63 436.48,-33.4 436.67,-26.41"/>
<text text-anchor="middle" x="468.5" y="-34.3" font-family="Times,serif" font-size="14.00">intcon</text>
</g>
<!-- charcon_S -->
<g id="node9" class="node">
<title>charcon_S</title>
<ellipse fill="none" stroke="black" cx="533" cy="-311" rx="18" ry="18"/>
<text text-anchor="middle" x="533" y="-307.3" font-family="Times,serif" font-size="14.00">S</text>
</g>
<!-- charcon_A -->
<g id="node10" class="node">
<title>charcon_A</title>
<ellipse fill="none" stroke="black" cx="537" cy="-220" rx="18" ry="18"/>
<ellipse fill="none" stroke="black" cx="537" cy="-220" rx="22" ry="22"/>
<text text-anchor="middle" x="537" y="-216.3" font-family="Times,serif" font-size="14.00">A</text>
</g>
<!-- charcon_S&#45;&gt;charcon_A -->
<g id="edge11" class="edge">
<title>charcon_S&#45;&gt;charcon_A</title>
<path fill="none" stroke="black" d="M533.77,-292.84C534.28,-281.44 534.97,-266.13 535.58,-252.58"/>
<polygon fill="black" stroke="black" points="539.1,-252.34 536.05,-242.19 532.1,-252.02 539.1,-252.34"/>
<text text-anchor="middle" x="566" y="-263.8" font-family="Times,serif" font-size="14.00">ch, \n, \0</text>
</g>
<!-- stringcon_S -->
<g id="node11" class="node">
<title>stringcon_S</title>
<ellipse fill="none" stroke="black" cx="641" cy="-311" rx="18" ry="18"/>
<text text-anchor="middle" x="641" y="-307.3" font-family="Times,serif" font-size="14.00">S</text>
</g>
<!-- stringcon_A -->
<g id="node12" class="node">
<title>stringcon_A</title>
<ellipse fill="none" stroke="black" cx="641" cy="-220" rx="18" ry="18"/>
<ellipse fill="none" stroke="black" cx="641" cy="-220" rx="22" ry="22"/>
<text text-anchor="middle" x="641" y="-216.3" font-family="Times,serif" font-size="14.00">A</text>
</g>
<!-- stringcon_S&#45;&gt;stringcon_A -->
<g id="edge12" class="edge">
<title>stringcon_S&#45;&gt;stringcon_A</title>
<path fill="none" stroke="black" d="M641,-292.84C641,-281.44 641,-266.13 641,-252.58"/>
<polygon fill="black" stroke="black" points="644.5,-252.19 641,-242.19 637.5,-252.19 644.5,-252.19"/>
<text text-anchor="middle" x="649.5" y="-263.8" font-family="Times,serif" font-size="14.00">ch</text>
</g>
<!-- stringcon_A&#45;&gt;stringcon_A -->
<g id="edge13" class="edge">
<title>stringcon_A&#45;&gt;stringcon_A</title>
<path fill="none" stroke="black" d="M661.58,-228.37C671.84,-229.53 681,-226.74 681,-220 681,-215.68 677.24,-212.99 671.84,-211.91"/>
<polygon fill="black" stroke="black" points="671.67,-208.41 661.58,-211.63 671.48,-215.4 671.67,-208.41"/>
<text text-anchor="middle" x="689.5" y="-216.3" font-family="Times,serif" font-size="14.00">ch</text>
</g>
<!-- comentario_S -->
<g id="node13" class="node">
<title>comentario_S</title>
<ellipse fill="none" stroke="black" cx="740" cy="-311" rx="18" ry="18"/>
<text text-anchor="middle" x="740" y="-307.3" font-family="Times,serif" font-size="14.00">S</text>
</g>
<!-- comentario_A -->
<g id="node14" class="node">
<title>comentario_A</title>
<ellipse fill="none" stroke="black" cx="740" cy="-220" rx="18" ry="18"/>
<text text-anchor="middle" x="740" y="-216.3" font-family="Times,serif" font-size="14.00">A</text>
</g>
<!-- comentario_S&#45;&gt;comentario_A -->
<g id="edge14" class="edge">
<title>comentario_S&#45;&gt;comentario_A</title>
<path fill="none" stroke="black" d="M740,-292.84C740,-280.28 740,-262.98 740,-248.5"/>
<polygon fill="black" stroke="black" points="743.5,-248.11 740,-238.11 736.5,-248.11 743.5,-248.11"/>
<text text-anchor="middle" x="742.5" y="-263.8" font-family="Times,serif" font-size="14.00">/</text>
</g>
<!-- comentario_B -->
<g id="node15" class="node">
<title>comentario_B</title>
<ellipse fill="none" stroke="black" cx="740" cy="-129" rx="18" ry="18"/>
<text text-anchor="middle" x="740" y="-125.3" font-family="Times,serif" font-size="14.00">B</text>
</g>
<!-- comentario_A&#45;&gt;comentario_B -->
<g id="edge15" class="edge">
<title>comentario_A&#45;&gt;comentario_B</title>
<path fill="none" stroke="black" d="M740,-201.84C740,-189.28 740,-171.98 740,-157.5"/>
<polygon fill="black" stroke="black" points="743.5,-157.11 740,-147.11 736.5,-157.11 743.5,-157.11"/>
<text text-anchor="middle" x="742.5" y="-168.8" font-family="Times,serif" font-size="14.00">/</text>
</g>
<!-- comentario_B&#45;&gt;comentario_B -->
<g id="edge16" class="edge">
<title>comentario_B&#45;&gt;comentario_B</title>
<path fill="none" stroke="black" d="M756.66,-136.38C766.62,-138.02 776,-135.56 776,-129 776,-124.8 772.15,-122.28 766.77,-121.44"/>
<polygon fill="black" stroke="black" points="766.6,-117.94 756.66,-121.62 766.72,-124.94 766.6,-117.94"/>
<text text-anchor="middle" x="917" y="-125.3" font-family="Times,serif" font-size="14.00">caracter dado por isprint do &lt;ctype.h&gt;</text>
</g>
<!-- comentario_C -->
<g id="node16" class="node">
<title>comentario_C</title>
<ellipse fill="none" stroke="black" cx="744" cy="-38" rx="18" ry="18"/>
<ellipse fill="none" stroke="black" cx="744" cy="-38" rx="22" ry="22"/>
<text text-anchor="middle" x="744" y="-34.3" font-family="Times,serif" font-size="14.00">C</text>
</g>
<!-- comentario_B&#45;&gt;comentario_C -->
<g id="edge17" class="edge">
<title>comentario_B&#45;&gt;comentario_C</title>
<path fill="none" stroke="black" d="M740.77,-110.84C741.28,-99.44 741.97,-84.13 742.58,-70.58"/>
<polygon fill="black" stroke="black" points="746.1,-70.34 743.05,-60.19 739.1,-70.02 746.1,-70.34"/>
<text text-anchor="middle" x="749" y="-81.8" font-family="Times,serif" font-size="14.00">\0</text>
</g>
</g>
</svg>
