<?xml version="1.0" encoding="UTF-8" standalone="no"?>
<!DOCTYPE svg PUBLIC "-//W3C//DTD SVG 1.1//EN"
 "http://www.w3.org/Graphics/SVG/1.1/DTD/svg11.dtd">
<!-- Generated by graphviz version 2.43.0 (0)
 -->
<!-- Title: afd Pages: 1 -->
<svg width="886pt" height="376pt"
 viewBox="0.00 0.00 886.00 376.00" xmlns="http://www.w3.org/2000/svg" xmlns:xlink="http://www.w3.org/1999/xlink">
<g id="graph0" class="graph" transform="scale(1 1) rotate(0) translate(4 372)">
<title>afd</title>
<polygon fill="white" stroke="transparent" points="-4,4 -4,-372 882,-372 882,4 -4,4"/>
<g id="clust1" class="cluster">
<title>cluster_id</title>
<polygon fill="aqua" stroke="aqua" points="8,-190 8,-360 240,-360 240,-190 8,-190"/>
<text text-anchor="middle" x="124" y="-344.8" font-family="Times,serif" font-size="14.00">id</text>
</g>
<g id="clust2" class="cluster">
<title>cluster_intcon</title>
<polygon fill="brown" stroke="brown" points="248,-190 248,-360 368,-360 368,-190 248,-190"/>
<text text-anchor="middle" x="308" y="-344.8" font-family="Times,serif" font-size="14.00">intcon</text>
</g>
<g id="clust3" class="cluster">
<title>cluster_realcon</title>
<polygon fill="chocolate" stroke="chocolate" points="376,-8 376,-360 499,-360 499,-8 376,-8"/>
<text text-anchor="middle" x="437.5" y="-344.8" font-family="Times,serif" font-size="14.00">realcon</text>
</g>
<g id="clust4" class="cluster">
<title>cluster_charcon</title>
<polygon fill="darkorange" stroke="darkorange" points="507,-8 507,-360 609,-360 609,-8 507,-8"/>
<text text-anchor="middle" x="558" y="-344.8" font-family="Times,serif" font-size="14.00">charcon</text>
</g>
<g id="clust5" class="cluster">
<title>cluster_stringcon</title>
<polygon fill="seagreen" stroke="seagreen" points="617,-8 617,-360 746,-360 746,-8 617,-8"/>
<text text-anchor="middle" x="681.5" y="-344.8" font-family="Times,serif" font-size="14.00">stringcon</text>
</g>
<g id="clust6" class="cluster">
<title>cluster_comentario</title>
<polygon fill="hotpink" stroke="hotpink" points="754,-8 754,-360 870,-360 870,-8 754,-8"/>
<text text-anchor="middle" x="812" y="-344.8" font-family="Times,serif" font-size="14.00">comentario</text>
</g>
<!-- id_S -->
<g id="node1" class="node">
<title>id_S</title>
<ellipse fill="none" stroke="black" cx="38" cy="-311" rx="18" ry="18"/>
<text text-anchor="middle" x="38" y="-307.3" font-family="Times,serif" font-size="14.00">S</text>
</g>
<!-- id_S&#45;&gt;id_S -->
<g id="edge1" class="edge">
<title>id_S&#45;&gt;id_S</title>
<path fill="none" stroke="black" d="M54.66,-318.38C64.62,-320.02 74,-317.56 74,-311 74,-306.8 70.15,-304.28 64.77,-303.44"/>
<polygon fill="black" stroke="black" points="64.6,-299.94 54.66,-303.62 64.72,-306.94 64.6,-299.94"/>
<text text-anchor="middle" x="104.5" y="-307.3" font-family="Times,serif" font-size="14.00">sublinha</text>
</g>
<!-- id_A -->
<g id="node2" class="node">
<title>id_A</title>
<ellipse fill="none" stroke="black" cx="38" cy="-220" rx="18" ry="18"/>
<ellipse fill="none" stroke="black" cx="38" cy="-220" rx="22" ry="22"/>
<text text-anchor="middle" x="38" y="-216.3" font-family="Times,serif" font-size="14.00">A</text>
</g>
<!-- id_S&#45;&gt;id_A -->
<g id="edge2" class="edge">
<title>id_S&#45;&gt;id_A</title>
<path fill="none" stroke="black" d="M38,-292.84C38,-281.44 38,-266.13 38,-252.58"/>
<polygon fill="black" stroke="black" points="41.5,-252.19 38,-242.19 34.5,-252.19 41.5,-252.19"/>
<text text-anchor="middle" x="55" y="-263.8" font-family="Times,serif" font-size="14.00">letra</text>
</g>
<!-- id_A&#45;&gt;id_A -->
<g id="edge3" class="edge">
<title>id_A&#45;&gt;id_A</title>
<path fill="none" stroke="black" d="M58.58,-228.37C68.84,-229.53 78,-226.74 78,-220 78,-215.68 74.24,-212.99 68.84,-211.91"/>
<polygon fill="black" stroke="black" points="68.67,-208.41 58.58,-211.63 68.48,-215.4 68.67,-208.41"/>
<text text-anchor="middle" x="155" y="-216.3" font-family="Times,serif" font-size="14.00">letra, digito, sublinha</text>
</g>
<!-- intcon_S -->
<g id="node3" class="node">
<title>intcon_S</title>
<ellipse fill="none" stroke="black" cx="278" cy="-311" rx="18" ry="18"/>
<text text-anchor="middle" x="278" y="-307.3" font-family="Times,serif" font-size="14.00">S</text>
</g>
<!-- intcon_A -->
<g id="node4" class="node">
<title>intcon_A</title>
<ellipse fill="none" stroke="black" cx="278" cy="-220" rx="18" ry="18"/>
<ellipse fill="none" stroke="black" cx="278" cy="-220" rx="22" ry="22"/>
<text text-anchor="middle" x="278" y="-216.3" font-family="Times,serif" font-size="14.00">A</text>
</g>
<!-- intcon_S&#45;&gt;intcon_A -->
<g id="edge4" class="edge">
<title>intcon_S&#45;&gt;intcon_A</title>
<path fill="none" stroke="black" d="M278,-292.84C278,-281.44 278,-266.13 278,-252.58"/>
<polygon fill="black" stroke="black" points="281.5,-252.19 278,-242.19 274.5,-252.19 281.5,-252.19"/>
<text text-anchor="middle" x="299" y="-263.8" font-family="Times,serif" font-size="14.00">digito</text>
</g>
<!-- intcon_A&#45;&gt;intcon_A -->
<g id="edge5" class="edge">
<title>intcon_A&#45;&gt;intcon_A</title>
<path fill="none" stroke="black" d="M298.58,-228.37C308.84,-229.53 318,-226.74 318,-220 318,-215.68 314.24,-212.99 308.84,-211.91"/>
<polygon fill="black" stroke="black" points="308.67,-208.41 298.58,-211.63 308.48,-215.4 308.67,-208.41"/>
<text text-anchor="middle" x="339" y="-216.3" font-family="Times,serif" font-size="14.00">digito</text>
</g>
<!-- realcon_S -->
<g id="node5" class="node">
<title>realcon_S</title>
<ellipse fill="none" stroke="black" cx="406" cy="-311" rx="18" ry="18"/>
<text text-anchor="middle" x="406" y="-307.3" font-family="Times,serif" font-size="14.00">S</text>
</g>
<!-- realcon_A -->
<g id="node6" class="node">
<title>realcon_A</title>
<ellipse fill="none" stroke="black" cx="406" cy="-220" rx="18" ry="18"/>
<text text-anchor="middle" x="406" y="-216.3" font-family="Times,serif" font-size="14.00">A</text>
</g>
<!-- realcon_S&#45;&gt;realcon_A -->
<g id="edge6" class="edge">
<title>realcon_S&#45;&gt;realcon_A</title>
<path fill="none" stroke="black" d="M406,-292.84C406,-280.28 406,-262.98 406,-248.5"/>
<polygon fill="black" stroke="black" points="409.5,-248.11 406,-238.11 402.5,-248.11 409.5,-248.11"/>
<text text-anchor="middle" x="428.5" y="-263.8" font-family="Times,serif" font-size="14.00">intcon</text>
</g>
<!-- realcon_A&#45;&gt;realcon_A -->
<g id="edge7" class="edge">
<title>realcon_A&#45;&gt;realcon_A</title>
<path fill="none" stroke="black" d="M422.29,-228.02C432.39,-229.95 442,-227.28 442,-220 442,-215.34 438.06,-212.57 432.57,-211.68"/>
<polygon fill="black" stroke="black" points="432.18,-208.19 422.29,-211.98 432.39,-215.19 432.18,-208.19"/>
<text text-anchor="middle" x="464.5" y="-216.3" font-family="Times,serif" font-size="14.00">intcon</text>
</g>
<!-- realcon_B -->
<g id="node7" class="node">
<title>realcon_B</title>
<ellipse fill="none" stroke="black" cx="406" cy="-129" rx="18" ry="18"/>
<text text-anchor="middle" x="406" y="-125.3" font-family="Times,serif" font-size="14.00">B</text>
</g>
<!-- realcon_A&#45;&gt;realcon_B -->
<g id="edge8" class="edge">
<title>realcon_A&#45;&gt;realcon_B</title>
<path fill="none" stroke="black" d="M406,-201.84C406,-189.28 406,-171.98 406,-157.5"/>
<polygon fill="black" stroke="black" points="409.5,-157.11 406,-147.11 402.5,-157.11 409.5,-157.11"/>
<text text-anchor="middle" x="426.5" y="-168.8" font-family="Times,serif" font-size="14.00">ponto</text>
</g>
<!-- realcon_C -->
<g id="node8" class="node">
<title>realcon_C</title>
<ellipse fill="none" stroke="black" cx="406" cy="-38" rx="18" ry="18"/>
<ellipse fill="none" stroke="black" cx="406" cy="-38" rx="22" ry="22"/>
<text text-anchor="middle" x="406" y="-34.3" font-family="Times,serif" font-size="14.00">C</text>
</g>
<!-- realcon_B&#45;&gt;realcon_C -->
<g id="edge9" class="edge">
<title>realcon_B&#45;&gt;realcon_C</title>
<path fill="none" stroke="black" d="M406,-110.84C406,-99.44 406,-84.13 406,-70.58"/>
<polygon fill="black" stroke="black" points="409.5,-70.19 406,-60.19 402.5,-70.19 409.5,-70.19"/>
<text text-anchor="middle" x="428.5" y="-81.8" font-family="Times,serif" font-size="14.00">intcon</text>
</g>
<!-- realcon_C&#45;&gt;realcon_C -->
<g id="edge10" class="edge">
<title>realcon_C&#45;&gt;realcon_C</title>
<path fill="none" stroke="black" d="M426.58,-46.37C436.84,-47.53 446,-44.74 446,-38 446,-33.68 442.24,-30.99 436.84,-29.91"/>
<polygon fill="black" stroke="black" points="436.67,-26.41 426.58,-29.63 436.48,-33.4 436.67,-26.41"/>
<text text-anchor="middle" x="468.5" y="-34.3" font-family="Times,serif" font-size="14.00">intcon</text>
</g>
<!-- charcon_S -->
<g id="node9" class="node">
<title>charcon_S</title>
<ellipse fill="none" stroke="black" cx="533" cy="-311" rx="18" ry="18"/>
<text text-anchor="middle" x="533" y="-307.3" font-family="Times,serif" font-size="14.00">S</text>
</g>
<!-- charcon_A -->
<g id="node10" class="node">
<title>charcon_A</title>
<ellipse fill="none" stroke="black" cx="533" cy="-220" rx="18" ry="18"/>
<text text-anchor="middle" x="533" y="-216.3" font-family="Times,serif" font-size="14.00">A</text>
</g>
<!-- charcon_S&#45;&gt;charcon_A -->
<g id="edge11" class="edge">
<title>charcon_S&#45;&gt;charcon_A</title>
<path fill="none" stroke="black" d="M533,-292.84C533,-280.28 533,-262.98 533,-248.5"/>
<polygon fill="black" stroke="black" points="536.5,-248.11 533,-238.11 529.5,-248.11 536.5,-248.11"/>
<text text-anchor="middle" x="567" y="-263.8" font-family="Times,serif" font-size="14.00">apostrofo</text>
</g>
<!-- charcon_B -->
<g id="node11" class="node">
<title>charcon_B</title>
<ellipse fill="none" stroke="black" cx="533" cy="-129" rx="18" ry="18"/>
<text text-anchor="middle" x="533" y="-125.3" font-family="Times,serif" font-size="14.00">B</text>
</g>
<!-- charcon_A&#45;&gt;charcon_B -->
<g id="edge12" class="edge">
<title>charcon_A&#45;&gt;charcon_B</title>
<path fill="none" stroke="black" d="M533,-201.84C533,-189.28 533,-171.98 533,-157.5"/>
<polygon fill="black" stroke="black" points="536.5,-157.11 533,-147.11 529.5,-157.11 536.5,-157.11"/>
<text text-anchor="middle" x="564" y="-168.8" font-family="Times,serif" font-size="14.00">ch, \n, \0</text>
</g>
<!-- charcon_C -->
<g id="node12" class="node">
<title>charcon_C</title>
<ellipse fill="none" stroke="black" cx="537" cy="-38" rx="18" ry="18"/>
<ellipse fill="none" stroke="black" cx="537" cy="-38" rx="22" ry="22"/>
<text text-anchor="middle" x="537" y="-34.3" font-family="Times,serif" font-size="14.00">C</text>
</g>
<!-- charcon_B&#45;&gt;charcon_C -->
<g id="edge13" class="edge">
<title>charcon_B&#45;&gt;charcon_C</title>
<path fill="none" stroke="black" d="M533.77,-110.84C534.28,-99.44 534.97,-84.13 535.58,-70.58"/>
<polygon fill="black" stroke="black" points="539.1,-70.34 536.05,-60.19 532.1,-70.02 539.1,-70.34"/>
<text text-anchor="middle" x="569" y="-81.8" font-family="Times,serif" font-size="14.00">apostrofo</text>
</g>
<!-- stringcon_S -->
<g id="node13" class="node">
<title>stringcon_S</title>
<ellipse fill="none" stroke="black" cx="655" cy="-311" rx="18" ry="18"/>
<text text-anchor="middle" x="655" y="-307.3" font-family="Times,serif" font-size="14.00">S</text>
</g>
<!-- stringcon_A -->
<g id="node14" class="node">
<title>stringcon_A</title>
<ellipse fill="none" stroke="black" cx="655" cy="-220" rx="18" ry="18"/>
<text text-anchor="middle" x="655" y="-216.3" font-family="Times,serif" font-size="14.00">A</text>
</g>
<!-- stringcon_S&#45;&gt;stringcon_A -->
<g id="edge14" class="edge">
<title>stringcon_S&#45;&gt;stringcon_A</title>
<path fill="none" stroke="black" d="M655,-292.84C655,-280.28 655,-262.98 655,-248.5"/>
<polygon fill="black" stroke="black" points="658.5,-248.11 655,-238.11 651.5,-248.11 658.5,-248.11"/>
<text text-anchor="middle" x="675.5" y="-263.8" font-family="Times,serif" font-size="14.00">aspas</text>
</g>
<!-- stringcon_B -->
<g id="node15" class="node">
<title>stringcon_B</title>
<ellipse fill="none" stroke="black" cx="664" cy="-38" rx="18" ry="18"/>
<ellipse fill="none" stroke="black" cx="664" cy="-38" rx="22" ry="22"/>
<text text-anchor="middle" x="664" y="-34.3" font-family="Times,serif" font-size="14.00">B</text>
</g>
<!-- stringcon_A&#45;&gt;stringcon_B -->
<g id="edge15" class="edge">
<title>stringcon_A&#45;&gt;stringcon_B</title>
<path fill="none" stroke="black" d="M653.35,-201.76C651.58,-180.41 649.35,-142.97 652,-111 653.13,-97.38 655.43,-82.47 657.73,-69.76"/>
<polygon fill="black" stroke="black" points="661.21,-70.16 659.62,-59.68 654.33,-68.86 661.21,-70.16"/>
<text text-anchor="middle" x="672.5" y="-125.3" font-family="Times,serif" font-size="14.00">aspas</text>
</g>
<!-- stringcon_C -->
<g id="node16" class="node">
<title>stringcon_C</title>
<ellipse fill="none" stroke="black" cx="720" cy="-129" rx="18" ry="18"/>
<text text-anchor="middle" x="720" y="-125.3" font-family="Times,serif" font-size="14.00">C</text>
</g>
<!-- stringcon_A&#45;&gt;stringcon_C -->
<g id="edge16" class="edge">
<title>stringcon_A&#45;&gt;stringcon_C</title>
<path fill="none" stroke="black" d="M665.16,-205.09C675.49,-190.94 691.68,-168.78 703.79,-152.19"/>
<polygon fill="black" stroke="black" points="706.63,-154.24 709.7,-144.1 700.98,-150.11 706.63,-154.24"/>
<text text-anchor="middle" x="701.5" y="-168.8" font-family="Times,serif" font-size="14.00">ch</text>
</g>
<!-- stringcon_C&#45;&gt;stringcon_B -->
<g id="edge17" class="edge">
<title>stringcon_C&#45;&gt;stringcon_B</title>
<path fill="none" stroke="black" d="M710.75,-113.3C702.65,-100.43 690.67,-81.39 680.87,-65.81"/>
<polygon fill="black" stroke="black" points="683.68,-63.7 675.39,-57.1 677.75,-67.43 683.68,-63.7"/>
<text text-anchor="middle" x="717.5" y="-81.8" font-family="Times,serif" font-size="14.00">aspas</text>
</g>
<!-- comentario_S -->
<g id="node17" class="node">
<title>comentario_S</title>
<ellipse fill="none" stroke="black" cx="780" cy="-311" rx="18" ry="18"/>
<text text-anchor="middle" x="780" y="-307.3" font-family="Times,serif" font-size="14.00">S</text>
</g>
<!-- comentario_A -->
<g id="node18" class="node">
<title>comentario_A</title>
<ellipse fill="none" stroke="black" cx="780" cy="-220" rx="18" ry="18"/>
<text text-anchor="middle" x="780" y="-216.3" font-family="Times,serif" font-size="14.00">A</text>
</g>
<!-- comentario_S&#45;&gt;comentario_A -->
<g id="edge18" class="edge">
<title>comentario_S&#45;&gt;comentario_A</title>
<path fill="none" stroke="black" d="M780,-292.84C780,-280.28 780,-262.98 780,-248.5"/>
<polygon fill="black" stroke="black" points="783.5,-248.11 780,-238.11 776.5,-248.11 783.5,-248.11"/>
<text text-anchor="middle" x="800" y="-263.8" font-family="Times,serif" font-size="14.00">barra</text>
</g>
<!-- comentario_B -->
<g id="node19" class="node">
<title>comentario_B</title>
<ellipse fill="none" stroke="black" cx="780" cy="-129" rx="18" ry="18"/>
<text text-anchor="middle" x="780" y="-125.3" font-family="Times,serif" font-size="14.00">B</text>
</g>
<!-- comentario_A&#45;&gt;comentario_B -->
<g id="edge19" class="edge">
<title>comentario_A&#45;&gt;comentario_B</title>
<path fill="none" stroke="black" d="M780,-201.84C780,-189.28 780,-171.98 780,-157.5"/>
<polygon fill="black" stroke="black" points="783.5,-157.11 780,-147.11 776.5,-157.11 783.5,-157.11"/>
<text text-anchor="middle" x="800" y="-168.8" font-family="Times,serif" font-size="14.00">barra</text>
</g>
<!-- comentario_B&#45;&gt;comentario_B -->
<g id="edge20" class="edge">
<title>comentario_B&#45;&gt;comentario_B</title>
<path fill="none" stroke="black" d="M796.66,-136.38C806.62,-138.02 816,-135.56 816,-129 816,-124.8 812.15,-122.28 806.77,-121.44"/>
<polygon fill="black" stroke="black" points="806.6,-117.94 796.66,-121.62 806.72,-124.94 806.6,-117.94"/>
<text text-anchor="middle" x="839" y="-125.3" font-family="Times,serif" font-size="14.00">outro*</text>
</g>
<!-- comentario_C -->
<g id="node20" class="node">
<title>comentario_C</title>
<ellipse fill="none" stroke="black" cx="784" cy="-38" rx="18" ry="18"/>
<ellipse fill="none" stroke="black" cx="784" cy="-38" rx="22" ry="22"/>
<text text-anchor="middle" x="784" y="-34.3" font-family="Times,serif" font-size="14.00">C</text>
</g>
<!-- comentario_B&#45;&gt;comentario_C -->
<g id="edge21" class="edge">
<title>comentario_B&#45;&gt;comentario_C</title>
<path fill="none" stroke="black" d="M780.77,-110.84C781.28,-99.44 781.97,-84.13 782.58,-70.58"/>
<polygon fill="black" stroke="black" points="786.1,-70.34 783.05,-60.19 779.1,-70.02 786.1,-70.34"/>
<text text-anchor="middle" x="789" y="-81.8" font-family="Times,serif" font-size="14.00">\n</text>
</g>
</g>
</svg>
