<?xml version="1.0" encoding="UTF-8" standalone="no"?>
<!DOCTYPE svg PUBLIC "-//W3C//DTD SVG 1.1//EN"
 "http://www.w3.org/Graphics/SVG/1.1/DTD/svg11.dtd">
<!-- Generated by graphviz version 12.1.2 (0)
 -->
<!-- Title: afd Pages: 1 -->
<svg width="1215pt" height="569pt"
 viewBox="0.00 0.00 1215.00 568.50" xmlns="http://www.w3.org/2000/svg" xmlns:xlink="http://www.w3.org/1999/xlink">
<g id="graph0" class="graph" transform="scale(1 1) rotate(0) translate(4 564.5)">
<title>afd</title>
<polygon fill="white" stroke="none" points="-4,4 -4,-564.5 1211,-564.5 1211,4 -4,4"/>
<g id="clust1" class="cluster">
<title>cluster_id</title>
<polygon fill="aqua" stroke="aqua" points="8,-201 8,-482 194,-482 194,-201 8,-201"/>
<text text-anchor="middle" x="101" y="-464.7" font-family="Times,serif" font-size="14.00">id</text>
</g>
<g id="clust2" class="cluster">
<title>cluster_intcon</title>
<polygon fill="brown" stroke="brown" points="202,-201 202,-482 304,-482 304,-201 202,-201"/>
<text text-anchor="middle" x="253" y="-464.7" font-family="Times,serif" font-size="14.00">intcon</text>
</g>
<g id="clust3" class="cluster">
<title>cluster_realcon</title>
<polygon fill="chocolate" stroke="chocolate" points="312,-8 312,-482 416,-482 416,-8 312,-8"/>
<text text-anchor="middle" x="364" y="-464.7" font-family="Times,serif" font-size="14.00">realcon</text>
</g>
<g id="clust4" class="cluster">
<title>cluster_charcon</title>
<polygon fill="darkorange" stroke="darkorange" points="424,-8 424,-482 509,-482 509,-8 424,-8"/>
<text text-anchor="middle" x="466.5" y="-464.7" font-family="Times,serif" font-size="14.00">charcon</text>
</g>
<g id="clust5" class="cluster">
<title>cluster_stringcon</title>
<polygon fill="seagreen" stroke="seagreen" points="517,-8 517,-482 634,-482 634,-8 517,-8"/>
<text text-anchor="middle" x="575.5" y="-464.7" font-family="Times,serif" font-size="14.00">stringcon</text>
</g>
<g id="clust6" class="cluster">
<title>cluster_comentario</title>
<polygon fill="hotpink" stroke="hotpink" points="642,-104.5 642,-482 747,-482 747,-104.5 642,-104.5"/>
<text text-anchor="middle" x="694.5" y="-464.7" font-family="Times,serif" font-size="14.00">comentario</text>
</g>
<g id="clust7" class="cluster">
<title>cluster_sinal</title>
<polygon fill="#bf3eff" stroke="#bf3eff" points="755,-104.5 755,-482 1199,-482 1199,-104.5 755,-104.5"/>
<text text-anchor="middle" x="977" y="-464.7" font-family="Times,serif" font-size="14.00">sinal</text>
</g>
<!-- S -->
<g id="node1" class="node">
<title>S</title>
<ellipse fill="none" stroke="black" cx="450" cy="-542.5" rx="27" ry="18"/>
<text text-anchor="middle" x="450" y="-537.45" font-family="Times,serif" font-size="14.00">S</text>
</g>
<!-- id_S -->
<g id="node2" class="node">
<title>id_S</title>
<ellipse fill="none" stroke="black" cx="86" cy="-431.5" rx="18" ry="18"/>
<text text-anchor="middle" x="86" y="-426.45" font-family="Times,serif" font-size="14.00">S</text>
</g>
<!-- S&#45;&gt;id_S -->
<g id="edge1" class="edge">
<title>S&#45;&gt;id_S</title>
<path fill="none" stroke="black" d="M423.8,-536.96C377.51,-528.59 278.54,-509.05 198,-482 167.69,-471.82 134.34,-456.52 111.98,-445.63"/>
<polygon fill="black" stroke="black" points="113.82,-442.63 103.31,-441.34 110.73,-448.91 113.82,-442.63"/>
<text text-anchor="middle" x="282.95" y="-493.2" font-family="Times,serif" font-size="14.00">ε</text>
</g>
<!-- intcon_S -->
<g id="node3" class="node">
<title>intcon_S</title>
<ellipse fill="none" stroke="black" cx="262" cy="-431.5" rx="18" ry="18"/>
<text text-anchor="middle" x="262" y="-426.45" font-family="Times,serif" font-size="14.00">S</text>
</g>
<!-- S&#45;&gt;intcon_S -->
<g id="edge2" class="edge">
<title>S&#45;&gt;intcon_S</title>
<path fill="none" stroke="black" d="M425.31,-534.67C395.65,-525.71 345.26,-508.01 308,-482 297.47,-474.65 287.53,-464.53 279.6,-455.35"/>
<polygon fill="black" stroke="black" points="282.43,-453.28 273.36,-447.8 277.03,-457.74 282.43,-453.28"/>
<text text-anchor="middle" x="351.12" y="-493.2" font-family="Times,serif" font-size="14.00">ε</text>
</g>
<!-- realcon_S -->
<g id="node4" class="node">
<title>realcon_S</title>
<ellipse fill="none" stroke="black" cx="373" cy="-431.5" rx="18" ry="18"/>
<text text-anchor="middle" x="373" y="-426.45" font-family="Times,serif" font-size="14.00">S</text>
</g>
<!-- S&#45;&gt;realcon_S -->
<g id="edge3" class="edge">
<title>S&#45;&gt;realcon_S</title>
<path fill="none" stroke="black" d="M438.97,-525.88C426.04,-507.59 404.5,-477.1 389.57,-455.96"/>
<polygon fill="black" stroke="black" points="392.53,-454.09 383.91,-447.94 386.82,-458.12 392.53,-454.09"/>
<text text-anchor="middle" x="428.09" y="-493.2" font-family="Times,serif" font-size="14.00">ε</text>
</g>
<!-- charcon_S -->
<g id="node5" class="node">
<title>charcon_S</title>
<ellipse fill="none" stroke="black" cx="450" cy="-431.5" rx="18" ry="18"/>
<text text-anchor="middle" x="450" y="-426.45" font-family="Times,serif" font-size="14.00">S</text>
</g>
<!-- S&#45;&gt;charcon_S -->
<g id="edge4" class="edge">
<title>S&#45;&gt;charcon_S</title>
<path fill="none" stroke="black" d="M450,-524.47C450,-507.53 450,-481.23 450,-461.09"/>
<polygon fill="black" stroke="black" points="453.5,-461.28 450,-451.28 446.5,-461.28 453.5,-461.28"/>
<text text-anchor="middle" x="453" y="-493.2" font-family="Times,serif" font-size="14.00">ε</text>
</g>
<!-- stringcon_S -->
<g id="node6" class="node">
<title>stringcon_S</title>
<ellipse fill="none" stroke="black" cx="543" cy="-431.5" rx="18" ry="18"/>
<text text-anchor="middle" x="543" y="-426.45" font-family="Times,serif" font-size="14.00">S</text>
</g>
<!-- S&#45;&gt;stringcon_S -->
<g id="edge5" class="edge">
<title>S&#45;&gt;stringcon_S</title>
<path fill="none" stroke="black" d="M466.71,-527.91C480.14,-516.5 499.01,-499.32 513,-482 518.97,-474.61 524.62,-465.92 529.38,-457.91"/>
<polygon fill="black" stroke="black" points="532.41,-459.66 534.32,-449.24 526.33,-456.2 532.41,-459.66"/>
<text text-anchor="middle" x="508.36" y="-493.2" font-family="Times,serif" font-size="14.00">ε</text>
</g>
<!-- comentario_S -->
<g id="node7" class="node">
<title>comentario_S</title>
<ellipse fill="none" stroke="black" cx="668" cy="-431.5" rx="18" ry="18"/>
<text text-anchor="middle" x="668" y="-426.45" font-family="Times,serif" font-size="14.00">S</text>
</g>
<!-- S&#45;&gt;comentario_S -->
<g id="edge6" class="edge">
<title>S&#45;&gt;comentario_S</title>
<path fill="none" stroke="black" d="M476.73,-538.99C515.88,-534.11 589.42,-520.19 638,-482 645.67,-475.97 651.83,-467.4 656.53,-459.09"/>
<polygon fill="black" stroke="black" points="659.61,-460.74 661.02,-450.24 653.37,-457.58 659.61,-460.74"/>
<text text-anchor="middle" x="628.09" y="-493.2" font-family="Times,serif" font-size="14.00">ε</text>
</g>
<!-- sinal_S -->
<g id="node8" class="node">
<title>sinal_S</title>
<ellipse fill="none" stroke="black" cx="915" cy="-431.5" rx="18" ry="18"/>
<text text-anchor="middle" x="915" y="-426.45" font-family="Times,serif" font-size="14.00">S</text>
</g>
<!-- S&#45;&gt;sinal_S -->
<g id="edge7" class="edge">
<title>S&#45;&gt;sinal_S</title>
<path fill="none" stroke="black" d="M475.99,-537.36C528.4,-528.8 650.37,-507.76 751,-482 799.24,-469.65 854.53,-452.28 887.02,-441.74"/>
<polygon fill="black" stroke="black" points="888.04,-445.09 896.46,-438.66 885.87,-438.43 888.04,-445.09"/>
<text text-anchor="middle" x="713.47" y="-493.2" font-family="Times,serif" font-size="14.00">ε</text>
</g>
<!-- id_S&#45;&gt;id_S -->
<g id="edge8" class="edge">
<title>id_S&#45;&gt;id_S</title>
<path fill="none" stroke="black" d="M102.66,-439.28C112.62,-441.01 122,-438.41 122,-431.5 122,-427.39 118.69,-424.81 113.92,-423.75"/>
<polygon fill="black" stroke="black" points="114.19,-420.26 104.18,-423.73 114.17,-427.26 114.19,-420.26"/>
<text text-anchor="middle" x="144.88" y="-426.45" font-family="Times,serif" font-size="14.00">sublinha</text>
</g>
<!-- id_A -->
<g id="node9" class="node">
<title>id_A</title>
<ellipse fill="none" stroke="black" cx="34" cy="-343" rx="18" ry="18"/>
<text text-anchor="middle" x="34" y="-337.95" font-family="Times,serif" font-size="14.00">A</text>
</g>
<!-- id_S&#45;&gt;id_A -->
<g id="edge9" class="edge">
<title>id_S&#45;&gt;id_A</title>
<path fill="none" stroke="black" d="M76.94,-415.43C69.19,-402.53 57.87,-383.71 48.8,-368.62"/>
<polygon fill="black" stroke="black" points="51.89,-366.96 43.73,-360.19 45.89,-370.57 51.89,-366.96"/>
<text text-anchor="middle" x="76.66" y="-382.2" font-family="Times,serif" font-size="14.00">letra</text>
</g>
<!-- intcon_A -->
<g id="node11" class="node">
<title>intcon_A</title>
<ellipse fill="none" stroke="black" cx="228" cy="-343" rx="18" ry="18"/>
<text text-anchor="middle" x="228" y="-337.95" font-family="Times,serif" font-size="14.00">A</text>
</g>
<!-- intcon_S&#45;&gt;intcon_A -->
<g id="edge12" class="edge">
<title>intcon_S&#45;&gt;intcon_A</title>
<path fill="none" stroke="black" d="M255.6,-414.23C250.81,-402.03 244.14,-385.05 238.55,-370.85"/>
<polygon fill="black" stroke="black" points="241.84,-369.63 234.92,-361.61 235.32,-372.19 241.84,-369.63"/>
<text text-anchor="middle" x="263.8" y="-382.2" font-family="Times,serif" font-size="14.00">digito</text>
</g>
<!-- realcon_A -->
<g id="node13" class="node">
<title>realcon_A</title>
<ellipse fill="none" stroke="black" cx="338" cy="-343" rx="18" ry="18"/>
<text text-anchor="middle" x="338" y="-337.95" font-family="Times,serif" font-size="14.00">A</text>
</g>
<!-- realcon_S&#45;&gt;realcon_A -->
<g id="edge15" class="edge">
<title>realcon_S&#45;&gt;realcon_A</title>
<path fill="none" stroke="black" d="M366.42,-414.23C361.48,-402.03 354.61,-385.05 348.86,-370.85"/>
<polygon fill="black" stroke="black" points="352.12,-369.56 345.12,-361.6 345.63,-372.18 352.12,-369.56"/>
<text text-anchor="middle" x="375.51" y="-382.2" font-family="Times,serif" font-size="14.00">intcon</text>
</g>
<!-- charcon_A -->
<g id="node17" class="node">
<title>charcon_A</title>
<ellipse fill="none" stroke="black" cx="450" cy="-343" rx="18" ry="18"/>
<text text-anchor="middle" x="450" y="-337.95" font-family="Times,serif" font-size="14.00">A</text>
</g>
<!-- charcon_S&#45;&gt;charcon_A -->
<g id="edge21" class="edge">
<title>charcon_S&#45;&gt;charcon_A</title>
<path fill="none" stroke="black" d="M450,-413.41C450,-401.76 450,-386.05 450,-372.52"/>
<polygon fill="black" stroke="black" points="453.5,-372.86 450,-362.86 446.5,-372.86 453.5,-372.86"/>
<text text-anchor="middle" x="475.5" y="-382.2" font-family="Times,serif" font-size="14.00">apostrofo</text>
</g>
<!-- stringcon_A -->
<g id="node21" class="node">
<title>stringcon_A</title>
<ellipse fill="none" stroke="black" cx="543" cy="-343" rx="18" ry="18"/>
<text text-anchor="middle" x="543" y="-337.95" font-family="Times,serif" font-size="14.00">A</text>
</g>
<!-- stringcon_S&#45;&gt;stringcon_A -->
<g id="edge25" class="edge">
<title>stringcon_S&#45;&gt;stringcon_A</title>
<path fill="none" stroke="black" d="M543,-413.41C543,-401.76 543,-386.05 543,-372.52"/>
<polygon fill="black" stroke="black" points="546.5,-372.86 543,-362.86 539.5,-372.86 546.5,-372.86"/>
<text text-anchor="middle" x="557.62" y="-382.2" font-family="Times,serif" font-size="14.00">aspas</text>
</g>
<!-- comentario_A -->
<g id="node25" class="node">
<title>comentario_A</title>
<ellipse fill="none" stroke="black" cx="668" cy="-343" rx="18" ry="18"/>
<text text-anchor="middle" x="668" y="-337.95" font-family="Times,serif" font-size="14.00">A</text>
</g>
<!-- comentario_S&#45;&gt;comentario_A -->
<g id="edge30" class="edge">
<title>comentario_S&#45;&gt;comentario_A</title>
<path fill="none" stroke="black" d="M668,-413.41C668,-401.76 668,-386.05 668,-372.52"/>
<polygon fill="black" stroke="black" points="671.5,-372.86 668,-362.86 664.5,-372.86 671.5,-372.86"/>
<text text-anchor="middle" x="681.88" y="-382.2" font-family="Times,serif" font-size="14.00">barra</text>
</g>
<!-- sinal_A -->
<g id="node28" class="node">
<title>sinal_A</title>
<ellipse fill="none" stroke="black" cx="783" cy="-289" rx="18" ry="18"/>
<text text-anchor="middle" x="783" y="-283.95" font-family="Times,serif" font-size="14.00">A</text>
</g>
<!-- sinal_S&#45;&gt;sinal_A -->
<g id="edge34" class="edge">
<title>sinal_S&#45;&gt;sinal_A</title>
<path fill="none" stroke="black" d="M896.61,-429.97C872.22,-428.23 829.52,-421.39 806,-395.5 787.11,-374.7 782.45,-342.1 781.84,-318.64"/>
<polygon fill="black" stroke="black" points="785.34,-318.83 781.84,-308.83 778.34,-318.83 785.34,-318.83"/>
<text text-anchor="middle" x="858.5" y="-382.2" font-family="Times,serif" font-size="14.00">+, &#45;, *, /, (, ), [, ], ,</text>
</g>
<!-- sinal_C -->
<g id="node30" class="node">
<title>sinal_C</title>
<ellipse fill="none" stroke="black" cx="915" cy="-343" rx="18" ry="18"/>
<text text-anchor="middle" x="915" y="-337.95" font-family="Times,serif" font-size="14.00">C</text>
</g>
<!-- sinal_S&#45;&gt;sinal_C -->
<g id="edge36" class="edge">
<title>sinal_S&#45;&gt;sinal_C</title>
<path fill="none" stroke="black" d="M915,-413.41C915,-401.76 915,-386.05 915,-372.52"/>
<polygon fill="black" stroke="black" points="918.5,-372.86 915,-362.86 911.5,-372.86 918.5,-372.86"/>
<text text-anchor="middle" x="933" y="-382.2" font-family="Times,serif" font-size="14.00">&gt;, &lt;, !</text>
</g>
<!-- sinal_E -->
<g id="node32" class="node">
<title>sinal_E</title>
<ellipse fill="none" stroke="black" cx="977" cy="-343" rx="18" ry="18"/>
<text text-anchor="middle" x="977" y="-337.95" font-family="Times,serif" font-size="14.00">E</text>
</g>
<!-- sinal_S&#45;&gt;sinal_E -->
<g id="edge40" class="edge">
<title>sinal_S&#45;&gt;sinal_E</title>
<path fill="none" stroke="black" d="M929.36,-420.06C937.39,-413.66 947.14,-404.91 954,-395.5 959.45,-388.02 964.02,-379.03 967.6,-370.68"/>
<polygon fill="black" stroke="black" points="970.75,-372.24 971.19,-361.65 964.24,-369.65 970.75,-372.24"/>
<text text-anchor="middle" x="969.1" y="-382.2" font-family="Times,serif" font-size="14.00">&amp;</text>
</g>
<!-- sinal_G -->
<g id="node34" class="node">
<title>sinal_G</title>
<ellipse fill="none" stroke="black" cx="1102" cy="-343" rx="18" ry="18"/>
<text text-anchor="middle" x="1102" y="-337.95" font-family="Times,serif" font-size="14.00">G</text>
</g>
<!-- sinal_S&#45;&gt;sinal_G -->
<g id="edge44" class="edge">
<title>sinal_S&#45;&gt;sinal_G</title>
<path fill="none" stroke="black" d="M931.27,-422.98C963.53,-408.05 1035.87,-374.59 1075.24,-356.38"/>
<polygon fill="black" stroke="black" points="1076.66,-359.58 1084.26,-352.2 1073.72,-353.23 1076.66,-359.58"/>
<text text-anchor="middle" x="1026.75" y="-382.2" font-family="Times,serif" font-size="14.00">|</text>
</g>
<!-- id_A&#45;&gt;id_A -->
<g id="edge10" class="edge">
<title>id_A&#45;&gt;id_A</title>
<path fill="none" stroke="black" d="M50.66,-350.78C60.62,-352.51 70,-349.91 70,-343 70,-338.89 66.69,-336.31 61.92,-335.25"/>
<polygon fill="black" stroke="black" points="62.19,-331.76 52.18,-335.23 62.17,-338.76 62.19,-331.76"/>
<text text-anchor="middle" x="128.12" y="-337.95" font-family="Times,serif" font-size="14.00">letra, digito, sublinha</text>
</g>
<!-- id_B -->
<g id="node10" class="node">
<title>id_B</title>
<ellipse fill="none" stroke="black" cx="38" cy="-231" rx="18" ry="18"/>
<ellipse fill="none" stroke="black" cx="38" cy="-231" rx="22" ry="22"/>
<text text-anchor="middle" x="38" y="-225.95" font-family="Times,serif" font-size="14.00">B</text>
</g>
<!-- id_A&#45;&gt;id_B -->
<g id="edge11" class="edge">
<title>id_A&#45;&gt;id_B</title>
<path fill="none" stroke="black" d="M34.62,-324.81C35.21,-308.72 36.1,-284.27 36.82,-264.5"/>
<polygon fill="black" stroke="black" points="40.31,-264.84 37.17,-254.72 33.31,-264.59 40.31,-264.84"/>
<text text-anchor="middle" x="54.1" y="-283.95" font-family="Times,serif" font-size="14.00">outro*</text>
</g>
<!-- intcon_A&#45;&gt;intcon_A -->
<g id="edge13" class="edge">
<title>intcon_A&#45;&gt;intcon_A</title>
<path fill="none" stroke="black" d="M244.66,-350.78C254.62,-352.51 264,-349.91 264,-343 264,-338.89 260.69,-336.31 255.92,-335.25"/>
<polygon fill="black" stroke="black" points="256.19,-331.76 246.18,-335.23 256.17,-338.76 256.19,-331.76"/>
<text text-anchor="middle" x="279.75" y="-337.95" font-family="Times,serif" font-size="14.00">digito</text>
</g>
<!-- intcon_B -->
<g id="node12" class="node">
<title>intcon_B</title>
<ellipse fill="none" stroke="black" cx="232" cy="-231" rx="18" ry="18"/>
<ellipse fill="none" stroke="black" cx="232" cy="-231" rx="22" ry="22"/>
<text text-anchor="middle" x="232" y="-225.95" font-family="Times,serif" font-size="14.00">B</text>
</g>
<!-- intcon_A&#45;&gt;intcon_B -->
<g id="edge14" class="edge">
<title>intcon_A&#45;&gt;intcon_B</title>
<path fill="none" stroke="black" d="M228.62,-324.81C229.21,-308.72 230.1,-284.27 230.82,-264.5"/>
<polygon fill="black" stroke="black" points="234.31,-264.84 231.17,-254.72 227.31,-264.59 234.31,-264.84"/>
<text text-anchor="middle" x="248.1" y="-283.95" font-family="Times,serif" font-size="14.00">outro*</text>
</g>
<!-- realcon_A&#45;&gt;realcon_A -->
<g id="edge16" class="edge">
<title>realcon_A&#45;&gt;realcon_A</title>
<path fill="none" stroke="black" d="M354.66,-350.78C364.62,-352.51 374,-349.91 374,-343 374,-338.89 370.69,-336.31 365.92,-335.25"/>
<polygon fill="black" stroke="black" points="366.19,-331.76 356.18,-335.23 366.17,-338.76 366.19,-331.76"/>
<text text-anchor="middle" x="390.88" y="-337.95" font-family="Times,serif" font-size="14.00">intcon</text>
</g>
<!-- realcon_B -->
<g id="node14" class="node">
<title>realcon_B</title>
<ellipse fill="none" stroke="black" cx="338" cy="-231" rx="18" ry="18"/>
<text text-anchor="middle" x="338" y="-225.95" font-family="Times,serif" font-size="14.00">B</text>
</g>
<!-- realcon_A&#45;&gt;realcon_B -->
<g id="edge17" class="edge">
<title>realcon_A&#45;&gt;realcon_B</title>
<path fill="none" stroke="black" d="M338,-324.81C338,-307.72 338,-281.18 338,-260.85"/>
<polygon fill="black" stroke="black" points="341.5,-260.94 338,-250.94 334.5,-260.94 341.5,-260.94"/>
<text text-anchor="middle" x="353.38" y="-283.95" font-family="Times,serif" font-size="14.00">ponto</text>
</g>
<!-- realcon_C -->
<g id="node15" class="node">
<title>realcon_C</title>
<ellipse fill="none" stroke="black" cx="338" cy="-134.5" rx="18" ry="18"/>
<text text-anchor="middle" x="338" y="-129.45" font-family="Times,serif" font-size="14.00">C</text>
</g>
<!-- realcon_B&#45;&gt;realcon_C -->
<g id="edge18" class="edge">
<title>realcon_B&#45;&gt;realcon_C</title>
<path fill="none" stroke="black" d="M338,-212.67C338,-199.08 338,-179.89 338,-164.04"/>
<polygon fill="black" stroke="black" points="341.5,-164.24 338,-154.24 334.5,-164.24 341.5,-164.24"/>
<text text-anchor="middle" x="354.88" y="-177.7" font-family="Times,serif" font-size="14.00">intcon</text>
</g>
<!-- realcon_C&#45;&gt;realcon_C -->
<g id="edge19" class="edge">
<title>realcon_C&#45;&gt;realcon_C</title>
<path fill="none" stroke="black" d="M354.29,-142.91C364.39,-144.94 374,-142.13 374,-134.5 374,-129.97 370.61,-127.14 365.74,-126.01"/>
<polygon fill="black" stroke="black" points="365.78,-122.51 355.8,-126.08 365.83,-129.51 365.78,-122.51"/>
<text text-anchor="middle" x="390.88" y="-129.45" font-family="Times,serif" font-size="14.00">intcon</text>
</g>
<!-- realcon_D -->
<g id="node16" class="node">
<title>realcon_D</title>
<ellipse fill="none" stroke="black" cx="342" cy="-38" rx="18" ry="18"/>
<ellipse fill="none" stroke="black" cx="342" cy="-38" rx="22" ry="22"/>
<text text-anchor="middle" x="342" y="-32.95" font-family="Times,serif" font-size="14.00">D</text>
</g>
<!-- realcon_C&#45;&gt;realcon_D -->
<g id="edge20" class="edge">
<title>realcon_C&#45;&gt;realcon_D</title>
<path fill="none" stroke="black" d="M338.73,-116.17C339.26,-103.72 339.99,-86.57 340.62,-71.6"/>
<polygon fill="black" stroke="black" points="344.11,-71.84 341.04,-61.71 337.12,-71.55 344.11,-71.84"/>
<text text-anchor="middle" x="357.86" y="-81.2" font-family="Times,serif" font-size="14.00">outro*</text>
</g>
<!-- charcon_B -->
<g id="node18" class="node">
<title>charcon_B</title>
<ellipse fill="none" stroke="black" cx="450" cy="-231" rx="18" ry="18"/>
<text text-anchor="middle" x="450" y="-225.95" font-family="Times,serif" font-size="14.00">B</text>
</g>
<!-- charcon_A&#45;&gt;charcon_B -->
<g id="edge22" class="edge">
<title>charcon_A&#45;&gt;charcon_B</title>
<path fill="none" stroke="black" d="M450,-324.81C450,-307.72 450,-281.18 450,-260.85"/>
<polygon fill="black" stroke="black" points="453.5,-260.94 450,-250.94 446.5,-260.94 453.5,-260.94"/>
<text text-anchor="middle" x="474.38" y="-283.95" font-family="Times,serif" font-size="14.00">ch, \n, \0</text>
</g>
<!-- charcon_C -->
<g id="node19" class="node">
<title>charcon_C</title>
<ellipse fill="none" stroke="black" cx="450" cy="-134.5" rx="18" ry="18"/>
<text text-anchor="middle" x="450" y="-129.45" font-family="Times,serif" font-size="14.00">C</text>
</g>
<!-- charcon_B&#45;&gt;charcon_C -->
<g id="edge23" class="edge">
<title>charcon_B&#45;&gt;charcon_C</title>
<path fill="none" stroke="black" d="M450,-212.67C450,-199.08 450,-179.89 450,-164.04"/>
<polygon fill="black" stroke="black" points="453.5,-164.24 450,-154.24 446.5,-164.24 453.5,-164.24"/>
<text text-anchor="middle" x="475.5" y="-177.7" font-family="Times,serif" font-size="14.00">apostrofo</text>
</g>
<!-- charcon_D -->
<g id="node20" class="node">
<title>charcon_D</title>
<ellipse fill="none" stroke="black" cx="454" cy="-38" rx="18" ry="18"/>
<ellipse fill="none" stroke="black" cx="454" cy="-38" rx="22" ry="22"/>
<text text-anchor="middle" x="454" y="-32.95" font-family="Times,serif" font-size="14.00">D</text>
</g>
<!-- charcon_C&#45;&gt;charcon_D -->
<g id="edge24" class="edge">
<title>charcon_C&#45;&gt;charcon_D</title>
<path fill="none" stroke="black" d="M450.73,-116.17C451.26,-103.72 451.99,-86.57 452.62,-71.6"/>
<polygon fill="black" stroke="black" points="456.11,-71.84 453.04,-61.71 449.12,-71.55 456.11,-71.84"/>
<text text-anchor="middle" x="469.86" y="-81.2" font-family="Times,serif" font-size="14.00">outro*</text>
</g>
<!-- stringcon_B -->
<g id="node22" class="node">
<title>stringcon_B</title>
<ellipse fill="none" stroke="black" cx="564" cy="-134.5" rx="18" ry="18"/>
<text text-anchor="middle" x="564" y="-129.45" font-family="Times,serif" font-size="14.00">B</text>
</g>
<!-- stringcon_A&#45;&gt;stringcon_B -->
<g id="edge26" class="edge">
<title>stringcon_A&#45;&gt;stringcon_B</title>
<path fill="none" stroke="black" d="M543.39,-324.57C544.15,-297.88 546.25,-245.3 551.75,-201 553.28,-188.64 555.69,-175.1 557.97,-163.55"/>
<polygon fill="black" stroke="black" points="561.38,-164.36 559.95,-153.86 554.52,-162.95 561.38,-164.36"/>
<text text-anchor="middle" x="566.38" y="-225.95" font-family="Times,serif" font-size="14.00">aspas</text>
</g>
<!-- stringcon_C -->
<g id="node23" class="node">
<title>stringcon_C</title>
<ellipse fill="none" stroke="black" cx="608" cy="-231" rx="18" ry="18"/>
<text text-anchor="middle" x="608" y="-225.95" font-family="Times,serif" font-size="14.00">C</text>
</g>
<!-- stringcon_A&#45;&gt;stringcon_C -->
<g id="edge27" class="edge">
<title>stringcon_A&#45;&gt;stringcon_C</title>
<path fill="none" stroke="black" d="M551.77,-327.16C562.43,-309.12 580.58,-278.4 593.37,-256.75"/>
<polygon fill="black" stroke="black" points="596.32,-258.64 598.4,-248.25 590.29,-255.08 596.32,-258.64"/>
<text text-anchor="middle" x="589.61" y="-283.95" font-family="Times,serif" font-size="14.00">ch</text>
</g>
<!-- stringcon_D -->
<g id="node24" class="node">
<title>stringcon_D</title>
<ellipse fill="none" stroke="black" cx="564" cy="-38" rx="18" ry="18"/>
<ellipse fill="none" stroke="black" cx="564" cy="-38" rx="22" ry="22"/>
<text text-anchor="middle" x="564" y="-32.95" font-family="Times,serif" font-size="14.00">D</text>
</g>
<!-- stringcon_B&#45;&gt;stringcon_D -->
<g id="edge29" class="edge">
<title>stringcon_B&#45;&gt;stringcon_D</title>
<path fill="none" stroke="black" d="M564,-116.17C564,-103.72 564,-86.57 564,-71.6"/>
<polygon fill="black" stroke="black" points="567.5,-71.71 564,-61.71 560.5,-71.71 567.5,-71.71"/>
<text text-anchor="middle" x="581.62" y="-81.2" font-family="Times,serif" font-size="14.00">outro*</text>
</g>
<!-- stringcon_C&#45;&gt;stringcon_B -->
<g id="edge28" class="edge">
<title>stringcon_C&#45;&gt;stringcon_B</title>
<path fill="none" stroke="black" d="M600.73,-214.4C594.09,-200.12 584.12,-178.71 576.24,-161.79"/>
<polygon fill="black" stroke="black" points="579.46,-160.4 572.06,-152.82 573.11,-163.36 579.46,-160.4"/>
<text text-anchor="middle" x="603.26" y="-177.7" font-family="Times,serif" font-size="14.00">aspas</text>
</g>
<!-- comentario_B -->
<g id="node26" class="node">
<title>comentario_B</title>
<ellipse fill="none" stroke="black" cx="668" cy="-231" rx="18" ry="18"/>
<text text-anchor="middle" x="668" y="-225.95" font-family="Times,serif" font-size="14.00">B</text>
</g>
<!-- comentario_A&#45;&gt;comentario_B -->
<g id="edge31" class="edge">
<title>comentario_A&#45;&gt;comentario_B</title>
<path fill="none" stroke="black" d="M668,-324.81C668,-307.72 668,-281.18 668,-260.85"/>
<polygon fill="black" stroke="black" points="671.5,-260.94 668,-250.94 664.5,-260.94 671.5,-260.94"/>
<text text-anchor="middle" x="681.88" y="-283.95" font-family="Times,serif" font-size="14.00">barra</text>
</g>
<!-- comentario_B&#45;&gt;comentario_B -->
<g id="edge32" class="edge">
<title>comentario_B&#45;&gt;comentario_B</title>
<path fill="none" stroke="black" d="M684.29,-239.41C694.39,-241.44 704,-238.63 704,-231 704,-226.47 700.61,-223.64 695.74,-222.51"/>
<polygon fill="black" stroke="black" points="695.78,-219.01 685.8,-222.58 695.83,-226.01 695.78,-219.01"/>
<text text-anchor="middle" x="721.62" y="-225.95" font-family="Times,serif" font-size="14.00">outro*</text>
</g>
<!-- comentario_C -->
<g id="node27" class="node">
<title>comentario_C</title>
<ellipse fill="none" stroke="black" cx="672" cy="-134.5" rx="18" ry="18"/>
<ellipse fill="none" stroke="black" cx="672" cy="-134.5" rx="22" ry="22"/>
<text text-anchor="middle" x="672" y="-129.45" font-family="Times,serif" font-size="14.00">C</text>
</g>
<!-- comentario_B&#45;&gt;comentario_C -->
<g id="edge33" class="edge">
<title>comentario_B&#45;&gt;comentario_C</title>
<path fill="none" stroke="black" d="M668.73,-212.67C669.26,-200.22 669.99,-183.07 670.62,-168.1"/>
<polygon fill="black" stroke="black" points="674.11,-168.34 671.04,-158.21 667.12,-168.05 674.11,-168.34"/>
<text text-anchor="middle" x="675.49" y="-177.7" font-family="Times,serif" font-size="14.00">\n</text>
</g>
<!-- sinal_B -->
<g id="node29" class="node">
<title>sinal_B</title>
<ellipse fill="none" stroke="black" cx="977" cy="-134.5" rx="18" ry="18"/>
<ellipse fill="none" stroke="black" cx="977" cy="-134.5" rx="22" ry="22"/>
<text text-anchor="middle" x="977" y="-129.45" font-family="Times,serif" font-size="14.00">B</text>
</g>
<!-- sinal_A&#45;&gt;sinal_B -->
<g id="edge35" class="edge">
<title>sinal_A&#45;&gt;sinal_B</title>
<path fill="none" stroke="black" d="M780.9,-270.95C779.5,-252.08 780.09,-221.62 794.75,-201 828.59,-153.38 900.45,-140.23 943.13,-136.69"/>
<polygon fill="black" stroke="black" points="943.35,-140.19 953.09,-136.02 942.88,-133.2 943.35,-140.19"/>
<text text-anchor="middle" x="812.38" y="-225.95" font-family="Times,serif" font-size="14.00">outro*</text>
</g>
<!-- sinal_C&#45;&gt;sinal_B -->
<g id="edge37" class="edge">
<title>sinal_C&#45;&gt;sinal_B</title>
<path fill="none" stroke="black" d="M902.83,-329.32C879.93,-303.85 834.95,-245.16 860.75,-201 878.73,-170.24 917.07,-152.8 944.81,-143.77"/>
<polygon fill="black" stroke="black" points="945.59,-147.19 954.14,-140.95 943.56,-140.49 945.59,-147.19"/>
<text text-anchor="middle" x="878.38" y="-225.95" font-family="Times,serif" font-size="14.00">outro*</text>
</g>
<!-- sinal_D -->
<g id="node31" class="node">
<title>sinal_D</title>
<ellipse fill="none" stroke="black" cx="923" cy="-231" rx="18" ry="18"/>
<text text-anchor="middle" x="923" y="-225.95" font-family="Times,serif" font-size="14.00">D</text>
</g>
<!-- sinal_C&#45;&gt;sinal_D -->
<g id="edge38" class="edge">
<title>sinal_C&#45;&gt;sinal_D</title>
<path fill="none" stroke="black" d="M916.25,-324.81C917.49,-307.72 919.42,-281.18 920.9,-260.85"/>
<polygon fill="black" stroke="black" points="924.39,-261.17 921.62,-250.94 917.41,-260.66 924.39,-261.17"/>
<text text-anchor="middle" x="924.08" y="-283.95" font-family="Times,serif" font-size="14.00">=</text>
</g>
<!-- sinal_D&#45;&gt;sinal_B -->
<g id="edge39" class="edge">
<title>sinal_D&#45;&gt;sinal_B</title>
<path fill="none" stroke="black" d="M924.72,-213.06C926.46,-201.57 929.92,-186.37 936.75,-174.5 940.6,-167.81 945.92,-161.53 951.44,-156.04"/>
<polygon fill="black" stroke="black" points="953.41,-158.98 958.4,-149.63 948.67,-153.83 953.41,-158.98"/>
<text text-anchor="middle" x="954.38" y="-177.7" font-family="Times,serif" font-size="14.00">outro*</text>
</g>
<!-- sinal_E&#45;&gt;sinal_B -->
<g id="edge41" class="edge">
<title>sinal_E&#45;&gt;sinal_B</title>
<path fill="none" stroke="black" d="M977,-324.75C977,-290.3 977,-212.48 977,-168.11"/>
<polygon fill="black" stroke="black" points="980.5,-168.32 977,-158.32 973.5,-168.32 980.5,-168.32"/>
<text text-anchor="middle" x="994.62" y="-225.95" font-family="Times,serif" font-size="14.00">outro*</text>
</g>
<!-- sinal_F -->
<g id="node33" class="node">
<title>sinal_F</title>
<ellipse fill="none" stroke="black" cx="1048" cy="-231" rx="18" ry="18"/>
<text text-anchor="middle" x="1048" y="-225.95" font-family="Times,serif" font-size="14.00">F</text>
</g>
<!-- sinal_E&#45;&gt;sinal_F -->
<g id="edge42" class="edge">
<title>sinal_E&#45;&gt;sinal_F</title>
<path fill="none" stroke="black" d="M986.28,-327.62C997.96,-309.52 1018.2,-278.16 1032.31,-256.31"/>
<polygon fill="black" stroke="black" points="1035.19,-258.31 1037.67,-248.01 1029.3,-254.51 1035.19,-258.31"/>
<text text-anchor="middle" x="1026.57" y="-283.95" font-family="Times,serif" font-size="14.00">&amp;</text>
</g>
<!-- sinal_F&#45;&gt;sinal_B -->
<g id="edge43" class="edge">
<title>sinal_F&#45;&gt;sinal_B</title>
<path fill="none" stroke="black" d="M1037.52,-216.06C1026.85,-201.85 1010.03,-179.46 996.83,-161.89"/>
<polygon fill="black" stroke="black" points="999.64,-159.81 990.84,-153.92 994.05,-164.02 999.64,-159.81"/>
<text text-anchor="middle" x="1034.38" y="-177.7" font-family="Times,serif" font-size="14.00">outro*</text>
</g>
<!-- sinal_G&#45;&gt;sinal_B -->
<g id="edge45" class="edge">
<title>sinal_G&#45;&gt;sinal_B</title>
<path fill="none" stroke="black" d="M1101.09,-324.81C1099.13,-297.54 1093.1,-243.14 1075,-201 1069.28,-187.68 1067.05,-183.88 1056,-174.5 1042.02,-162.63 1023.8,-153.33 1008.39,-146.79"/>
<polygon fill="black" stroke="black" points="1009.75,-143.56 999.16,-143.08 1007.14,-150.06 1009.75,-143.56"/>
<text text-anchor="middle" x="1108.19" y="-225.95" font-family="Times,serif" font-size="14.00">outro*</text>
</g>
<!-- sinal_H -->
<g id="node35" class="node">
<title>sinal_H</title>
<ellipse fill="none" stroke="black" cx="1173" cy="-231" rx="18" ry="18"/>
<text text-anchor="middle" x="1173" y="-225.95" font-family="Times,serif" font-size="14.00">H</text>
</g>
<!-- sinal_G&#45;&gt;sinal_H -->
<g id="edge46" class="edge">
<title>sinal_G&#45;&gt;sinal_H</title>
<path fill="none" stroke="black" d="M1111.28,-327.62C1122.96,-309.52 1143.2,-278.16 1157.31,-256.31"/>
<polygon fill="black" stroke="black" points="1160.19,-258.31 1162.67,-248.01 1154.3,-254.51 1160.19,-258.31"/>
<text text-anchor="middle" x="1147.45" y="-283.95" font-family="Times,serif" font-size="14.00">|</text>
</g>
<!-- sinal_H&#45;&gt;sinal_B -->
<g id="edge47" class="edge">
<title>sinal_H&#45;&gt;sinal_B</title>
<path fill="none" stroke="black" d="M1161.1,-217.08C1148.74,-204.42 1128.28,-185.49 1107,-174.5 1075.81,-158.39 1036.91,-147.83 1009.82,-141.81"/>
<polygon fill="black" stroke="black" points="1010.63,-138.4 1000.12,-139.74 1009.17,-145.25 1010.63,-138.4"/>
<text text-anchor="middle" x="1148.37" y="-177.7" font-family="Times,serif" font-size="14.00">outro*</text>
</g>
</g>
</svg>
