<?xml version="1.0" encoding="UTF-8" standalone="no"?>
<!DOCTYPE svg PUBLIC "-//W3C//DTD SVG 1.1//EN"
 "http://www.w3.org/Graphics/SVG/1.1/DTD/svg11.dtd">
<!-- Generated by graphviz version 12.1.2 (0)
 -->
<!-- Pages: 1 -->
<svg width="731pt" height="726pt"
 viewBox="0.00 0.00 731.48 725.55" xmlns="http://www.w3.org/2000/svg" xmlns:xlink="http://www.w3.org/1999/xlink">
<g id="graph0" class="graph" transform="scale(1 1) rotate(0) translate(4 721.55)">
<polygon fill="white" stroke="none" points="-4,4 -4,-721.55 727.48,-721.55 727.48,4 -4,4"/>
<g id="clust1" class="cluster">
<title>cluster_start</title>
<polygon fill="none" stroke="black" points="263.48,-560.05 263.48,-709.55 333.48,-709.55 333.48,-560.05 263.48,-560.05"/>
<text text-anchor="middle" x="298.48" y="-692.25" font-family="Times,serif" font-size="14.00">INICIO</text>
</g>
<g id="clust2" class="cluster">
<title>cluster_id</title>
<polygon fill="lightgrey" stroke="black" points="38.48,-233.29 38.48,-523.42 154.48,-523.42 154.48,-233.29 38.48,-233.29"/>
<text text-anchor="middle" x="96.48" y="-506.12" font-family="Times,serif" font-size="14.00">ID</text>
</g>
<g id="clust3" class="cluster">
<title>cluster_intcon</title>
<polygon fill="#ffaaff" stroke="#ffaaff" points="272.48,-329.79 272.48,-523.42 374.48,-523.42 374.48,-329.79 272.48,-329.79"/>
<text text-anchor="middle" x="323.48" y="-506.12" font-family="Times,serif" font-size="14.00">INTCON</text>
</g>
<g id="clust4" class="cluster">
<title>cluster_realcon</title>
<polygon fill="#8888dd" stroke="#8888dd" points="162.48,-110.89 162.48,-410.29 264.48,-410.29 264.48,-110.89 162.48,-110.89"/>
<text text-anchor="middle" x="213.48" y="-392.99" font-family="Times,serif" font-size="14.00">REALCON</text>
</g>
<g id="clust5" class="cluster">
<title>cluster_charcon</title>
<polygon fill="#88dd88" stroke="#88dd88" points="382.48,-8 382.48,-523.42 586.48,-523.42 586.48,-8 382.48,-8"/>
<text text-anchor="middle" x="484.48" y="-506.12" font-family="Times,serif" font-size="14.00">CHARCON</text>
</g>
<g id="clust6" class="cluster">
<title>cluster_stringcon</title>
<polygon fill="#dd8888" stroke="#dd8888" points="594.48,-108.76 594.48,-525.55 715.48,-525.55 715.48,-108.76 594.48,-108.76"/>
<text text-anchor="middle" x="654.98" y="-508.25" font-family="Times,serif" font-size="14.00">STRINGCON</text>
</g>
<!-- Inicio -->
<g id="node1" class="node">
<title>Inicio</title>
</g>
<!-- 0 -->
<g id="node2" class="node">
<title>0</title>
<ellipse fill="none" stroke="black" cx="298.48" cy="-586.05" rx="18" ry="18"/>
<text text-anchor="middle" x="298.48" y="-581" font-family="Times,serif" font-size="14.00">0</text>
</g>
<!-- Inicio&#45;&gt;0 -->
<g id="edge1" class="edge">
<title>Inicio&#45;&gt;0</title>
<path fill="none" stroke="black" d="M298.48,-641.22C298.48,-633.61 298.48,-624.4 298.48,-615.74"/>
<polygon fill="black" stroke="black" points="301.98,-616.01 298.48,-606.01 294.98,-616.01 301.98,-616.01"/>
</g>
<!-- 1 -->
<g id="node3" class="node">
<title>1</title>
<ellipse fill="none" stroke="black" cx="64.48" cy="-472.92" rx="18" ry="18"/>
<text text-anchor="middle" x="64.48" y="-467.87" font-family="Times,serif" font-size="14.00">1</text>
</g>
<!-- 0&#45;&gt;1 -->
<g id="edge2" class="edge">
<title>0&#45;&gt;1</title>
<path fill="none" stroke="black" d="M282.4,-577.41C242.74,-558.58 139.95,-509.76 91.07,-486.54"/>
<polygon fill="black" stroke="black" points="92.58,-483.39 82.05,-482.26 89.58,-489.71 92.58,-483.39"/>
<text text-anchor="middle" x="245.67" y="-536.75" font-family="Times,serif" font-size="14.00">sublinha</text>
</g>
<!-- 2 -->
<g id="node4" class="node">
<title>2</title>
<ellipse fill="none" stroke="black" cx="64.48" cy="-359.79" rx="18" ry="18"/>
<text text-anchor="middle" x="64.48" y="-354.74" font-family="Times,serif" font-size="14.00">2</text>
</g>
<!-- 0&#45;&gt;2 -->
<g id="edge4" class="edge">
<title>0&#45;&gt;2</title>
<path fill="none" stroke="black" d="M280.34,-584.14C223.01,-580.84 47.52,-567.42 13.48,-525.55 -21.22,-482.86 20.16,-416.58 46.29,-382.56"/>
<polygon fill="black" stroke="black" points="48.77,-385.06 52.24,-375.05 43.28,-380.72 48.77,-385.06"/>
<text text-anchor="middle" x="25.48" y="-467.87" font-family="Times,serif" font-size="14.00">letra</text>
</g>
<!-- 4 -->
<g id="node6" class="node">
<title>4</title>
<ellipse fill="none" stroke="black" cx="298.48" cy="-472.92" rx="18" ry="18"/>
<text text-anchor="middle" x="298.48" y="-467.87" font-family="Times,serif" font-size="14.00">4</text>
</g>
<!-- 0&#45;&gt;4 -->
<g id="edge7" class="edge">
<title>0&#45;&gt;4</title>
<path fill="none" stroke="black" d="M298.48,-567.68C298.48,-550.23 298.48,-523.03 298.48,-502.42"/>
<polygon fill="black" stroke="black" points="301.98,-502.67 298.48,-492.67 294.98,-502.67 301.98,-502.67"/>
<text text-anchor="middle" x="314.23" y="-536.75" font-family="Times,serif" font-size="14.00">digito</text>
</g>
<!-- 9 -->
<g id="node11" class="node">
<title>9</title>
<ellipse fill="none" stroke="black" cx="410.48" cy="-472.92" rx="18" ry="18"/>
<text text-anchor="middle" x="410.48" y="-467.87" font-family="Times,serif" font-size="14.00">9</text>
</g>
<!-- 0&#45;&gt;9 -->
<g id="edge14" class="edge">
<title>0&#45;&gt;9</title>
<path fill="none" stroke="black" d="M313.99,-576C331.18,-565.44 359.04,-546.71 378.48,-525.55 385.66,-517.73 392.14,-508.09 397.36,-499.25"/>
<polygon fill="black" stroke="black" points="400.3,-501.17 402.14,-490.74 394.19,-497.75 400.3,-501.17"/>
<text text-anchor="middle" x="394.46" y="-536.75" font-family="Times,serif" font-size="14.00">apostrofo</text>
</g>
<!-- 17 -->
<g id="node19" class="node">
<title>17</title>
<ellipse fill="none" stroke="black" cx="622.48" cy="-472.92" rx="20.13" ry="20.13"/>
<text text-anchor="middle" x="622.48" y="-467.87" font-family="Times,serif" font-size="14.00">17</text>
</g>
<!-- 0&#45;&gt;17 -->
<g id="edge24" class="edge">
<title>0&#45;&gt;17</title>
<path fill="none" stroke="black" d="M316.6,-583.24C373.15,-577.32 545.27,-557.05 590.48,-525.55 598.88,-519.7 605.51,-510.87 610.5,-502.15"/>
<polygon fill="black" stroke="black" points="613.49,-504.01 614.93,-493.51 607.26,-500.81 613.49,-504.01"/>
<text text-anchor="middle" x="588.76" y="-536.75" font-family="Times,serif" font-size="14.00">aspas</text>
</g>
<!-- 1&#45;&gt;1 -->
<g id="edge3" class="edge">
<title>1&#45;&gt;1</title>
<path fill="none" stroke="black" d="M80.77,-481C90.87,-482.95 100.48,-480.26 100.48,-472.92 100.48,-468.56 97.1,-465.84 92.23,-464.76"/>
<polygon fill="black" stroke="black" points="92.26,-461.26 82.29,-464.82 92.31,-468.26 92.26,-461.26"/>
<text text-anchor="middle" x="123.36" y="-467.87" font-family="Times,serif" font-size="14.00">sublinha</text>
</g>
<!-- 1&#45;&gt;2 -->
<g id="edge5" class="edge">
<title>1&#45;&gt;2</title>
<path fill="none" stroke="black" d="M64.48,-454.55C64.48,-437.1 64.48,-409.9 64.48,-389.29"/>
<polygon fill="black" stroke="black" points="67.98,-389.54 64.48,-379.54 60.98,-389.54 67.98,-389.54"/>
<text text-anchor="middle" x="76.48" y="-421.49" font-family="Times,serif" font-size="14.00">letra</text>
</g>
<!-- 3 -->
<g id="node5" class="node">
<title>3</title>
<ellipse fill="none" stroke="black" cx="68.48" cy="-263.29" rx="18" ry="18"/>
<ellipse fill="none" stroke="black" cx="68.48" cy="-263.29" rx="22" ry="22"/>
<text text-anchor="middle" x="68.48" y="-258.24" font-family="Times,serif" font-size="14.00">3</text>
</g>
<!-- 2&#45;&gt;3 -->
<g id="edge6" class="edge">
<title>2&#45;&gt;3</title>
<path fill="none" stroke="black" d="M65.22,-341.45C65.74,-329.01 66.47,-311.86 67.1,-296.89"/>
<polygon fill="black" stroke="black" points="70.6,-297.13 67.52,-286.99 63.6,-296.83 70.6,-297.13"/>
<text text-anchor="middle" x="84.35" y="-306.49" font-family="Times,serif" font-size="14.00">outro*</text>
</g>
<!-- 4&#45;&gt;4 -->
<g id="edge8" class="edge">
<title>4&#45;&gt;4</title>
<path fill="none" stroke="black" d="M314.77,-481C324.87,-482.95 334.48,-480.26 334.48,-472.92 334.48,-468.56 331.1,-465.84 326.23,-464.76"/>
<polygon fill="black" stroke="black" points="326.26,-461.26 316.29,-464.82 326.31,-468.26 326.26,-461.26"/>
<text text-anchor="middle" x="350.23" y="-467.87" font-family="Times,serif" font-size="14.00">digito</text>
</g>
<!-- 5 -->
<g id="node7" class="node">
<title>5</title>
<ellipse fill="none" stroke="black" cx="302.48" cy="-359.79" rx="18" ry="18"/>
<ellipse fill="none" stroke="black" cx="302.48" cy="-359.79" rx="22" ry="22"/>
<text text-anchor="middle" x="302.48" y="-354.74" font-family="Times,serif" font-size="14.00">5</text>
</g>
<!-- 4&#45;&gt;5 -->
<g id="edge9" class="edge">
<title>4&#45;&gt;5</title>
<path fill="none" stroke="black" d="M299.11,-454.55C299.69,-438.3 300.58,-413.59 301.3,-393.62"/>
<polygon fill="black" stroke="black" points="304.8,-393.85 301.66,-383.73 297.8,-393.59 304.8,-393.85"/>
<text text-anchor="middle" x="317.99" y="-421.49" font-family="Times,serif" font-size="14.00">outro*</text>
</g>
<!-- 6 -->
<g id="node8" class="node">
<title>6</title>
<ellipse fill="none" stroke="black" cx="209.48" cy="-359.79" rx="18" ry="18"/>
<text text-anchor="middle" x="209.48" y="-354.74" font-family="Times,serif" font-size="14.00">6</text>
</g>
<!-- 4&#45;&gt;6 -->
<g id="edge10" class="edge">
<title>4&#45;&gt;6</title>
<path fill="none" stroke="black" d="M286.3,-459.13C279.74,-452.09 271.61,-443.12 264.73,-434.79 251.1,-418.25 236.63,-398.8 225.92,-383.99"/>
<polygon fill="black" stroke="black" points="229.03,-382.32 220.36,-376.24 223.35,-386.4 229.03,-382.32"/>
<text text-anchor="middle" x="280.11" y="-421.49" font-family="Times,serif" font-size="14.00">ponto</text>
</g>
<!-- 7 -->
<g id="node9" class="node">
<title>7</title>
<ellipse fill="none" stroke="black" cx="188.48" cy="-263.29" rx="18" ry="18"/>
<text text-anchor="middle" x="188.48" y="-258.24" font-family="Times,serif" font-size="14.00">7</text>
</g>
<!-- 6&#45;&gt;7 -->
<g id="edge11" class="edge">
<title>6&#45;&gt;7</title>
<path fill="none" stroke="black" d="M205.73,-341.89C202.67,-328.14 198.29,-308.43 194.71,-292.31"/>
<polygon fill="black" stroke="black" points="198.19,-291.83 192.6,-282.83 191.36,-293.35 198.19,-291.83"/>
<text text-anchor="middle" x="215.99" y="-306.49" font-family="Times,serif" font-size="14.00">digito</text>
</g>
<!-- 7&#45;&gt;7 -->
<g id="edge12" class="edge">
<title>7&#45;&gt;7</title>
<path fill="none" stroke="black" d="M204.77,-271.7C214.87,-273.72 224.48,-270.92 224.48,-263.29 224.48,-258.75 221.1,-255.93 216.23,-254.8"/>
<polygon fill="black" stroke="black" points="216.26,-251.3 206.29,-254.87 216.31,-258.3 216.26,-251.3"/>
<text text-anchor="middle" x="240.23" y="-258.24" font-family="Times,serif" font-size="14.00">digito</text>
</g>
<!-- 8 -->
<g id="node10" class="node">
<title>8</title>
<ellipse fill="none" stroke="black" cx="192.48" cy="-140.89" rx="18" ry="18"/>
<ellipse fill="none" stroke="black" cx="192.48" cy="-140.89" rx="22" ry="22"/>
<text text-anchor="middle" x="192.48" y="-135.84" font-family="Times,serif" font-size="14.00">8</text>
</g>
<!-- 7&#45;&gt;8 -->
<g id="edge13" class="edge">
<title>7&#45;&gt;8</title>
<path fill="none" stroke="black" d="M189.06,-245.04C189.66,-226.74 190.64,-197.39 191.39,-174.68"/>
<polygon fill="black" stroke="black" points="194.89,-174.79 191.73,-164.68 187.9,-174.56 194.89,-174.79"/>
<text text-anchor="middle" x="208.7" y="-198.11" font-family="Times,serif" font-size="14.00">outro*</text>
</g>
<!-- 10 -->
<g id="node12" class="node">
<title>10</title>
<ellipse fill="none" stroke="black" cx="410.48" cy="-359.79" rx="20.13" ry="20.13"/>
<text text-anchor="middle" x="410.48" y="-354.74" font-family="Times,serif" font-size="14.00">10</text>
</g>
<!-- 9&#45;&gt;10 -->
<g id="edge15" class="edge">
<title>9&#45;&gt;10</title>
<path fill="none" stroke="black" d="M410.48,-454.55C410.48,-437.79 410.48,-412.04 410.48,-391.76"/>
<polygon fill="black" stroke="black" points="413.98,-391.78 410.48,-381.78 406.98,-391.79 413.98,-391.78"/>
<text text-anchor="middle" x="416.86" y="-421.49" font-family="Times,serif" font-size="14.00">ch</text>
</g>
<!-- 13 -->
<g id="node15" class="node">
<title>13</title>
<ellipse fill="none" stroke="black" cx="484.48" cy="-359.79" rx="20.13" ry="20.13"/>
<text text-anchor="middle" x="484.48" y="-354.74" font-family="Times,serif" font-size="14.00">13</text>
</g>
<!-- 9&#45;&gt;13 -->
<g id="edge16" class="edge">
<title>9&#45;&gt;13</title>
<path fill="none" stroke="black" d="M420.16,-457.39C432.12,-439.43 452.68,-408.55 467.34,-386.54"/>
<polygon fill="black" stroke="black" points="470.14,-388.65 472.77,-378.38 464.31,-384.77 470.14,-388.65"/>
<text text-anchor="middle" x="476.01" y="-421.49" font-family="Times,serif" font-size="14.00">contrabarra</text>
</g>
<!-- 11 -->
<g id="node13" class="node">
<title>11</title>
<ellipse fill="none" stroke="black" cx="410.48" cy="-203.16" rx="20.13" ry="20.13"/>
<text text-anchor="middle" x="410.48" y="-198.11" font-family="Times,serif" font-size="14.00">11</text>
</g>
<!-- 10&#45;&gt;11 -->
<g id="edge17" class="edge">
<title>10&#45;&gt;11</title>
<path fill="none" stroke="black" d="M410.48,-339.2C410.48,-312.94 410.48,-266.04 410.48,-235.01"/>
<polygon fill="black" stroke="black" points="413.98,-235.09 410.48,-225.09 406.98,-235.09 413.98,-235.09"/>
<text text-anchor="middle" x="435.98" y="-306.49" font-family="Times,serif" font-size="14.00">apostrofo</text>
</g>
<!-- 12 -->
<g id="node14" class="node">
<title>12</title>
<ellipse fill="none" stroke="black" cx="436.48" cy="-40.13" rx="20.13" ry="20.13"/>
<ellipse fill="none" stroke="black" cx="436.48" cy="-40.13" rx="24.13" ry="24.13"/>
<text text-anchor="middle" x="436.48" y="-35.08" font-family="Times,serif" font-size="14.00">12</text>
</g>
<!-- 11&#45;&gt;12 -->
<g id="edge18" class="edge">
<title>11&#45;&gt;12</title>
<path fill="none" stroke="black" d="M411.42,-182.72C412.54,-163.75 414.84,-134.11 419.23,-108.76 421.16,-97.63 423.98,-85.63 426.77,-74.87"/>
<polygon fill="black" stroke="black" points="430.14,-75.82 429.37,-65.25 423.38,-74 430.14,-75.82"/>
<text text-anchor="middle" x="436.86" y="-135.84" font-family="Times,serif" font-size="14.00">outro*</text>
</g>
<!-- 14 -->
<g id="node16" class="node">
<title>14</title>
<ellipse fill="none" stroke="black" cx="457.48" cy="-263.29" rx="20.13" ry="20.13"/>
<text text-anchor="middle" x="457.48" y="-258.24" font-family="Times,serif" font-size="14.00">14</text>
</g>
<!-- 13&#45;&gt;14 -->
<g id="edge19" class="edge">
<title>13&#45;&gt;14</title>
<path fill="none" stroke="black" d="M479.15,-340.12C475.38,-326.91 470.24,-308.94 465.92,-293.81"/>
<polygon fill="black" stroke="black" points="469.34,-293.03 463.22,-284.37 462.6,-294.95 469.34,-293.03"/>
<text text-anchor="middle" x="475.98" y="-306.49" font-family="Times,serif" font-size="14.00">n</text>
</g>
<!-- 15 -->
<g id="node17" class="node">
<title>15</title>
<ellipse fill="none" stroke="black" cx="523.48" cy="-263.29" rx="20.13" ry="20.13"/>
<text text-anchor="middle" x="523.48" y="-258.24" font-family="Times,serif" font-size="14.00">15</text>
</g>
<!-- 13&#45;&gt;15 -->
<g id="edge20" class="edge">
<title>13&#45;&gt;15</title>
<path fill="none" stroke="black" d="M491.82,-341.01C497.45,-327.37 505.33,-308.27 511.82,-292.55"/>
<polygon fill="black" stroke="black" points="514.89,-294.28 515.47,-283.7 508.42,-291.61 514.89,-294.28"/>
<text text-anchor="middle" x="509.69" y="-306.49" font-family="Times,serif" font-size="14.00">0</text>
</g>
<!-- 16 -->
<g id="node18" class="node">
<title>16</title>
<ellipse fill="none" stroke="black" cx="483.48" cy="-140.89" rx="20.13" ry="20.13"/>
<text text-anchor="middle" x="483.48" y="-135.84" font-family="Times,serif" font-size="14.00">16</text>
</g>
<!-- 14&#45;&gt;16 -->
<g id="edge21" class="edge">
<title>14&#45;&gt;16</title>
<path fill="none" stroke="black" d="M453.21,-243.23C450.37,-226.86 448.2,-202.85 454.48,-183.02 456.43,-176.88 459.66,-170.87 463.28,-165.41"/>
<polygon fill="black" stroke="black" points="465.98,-167.64 469.11,-157.51 460.35,-163.48 465.98,-167.64"/>
<text text-anchor="middle" x="479.98" y="-198.11" font-family="Times,serif" font-size="14.00">apostrofo</text>
</g>
<!-- 15&#45;&gt;16 -->
<g id="edge22" class="edge">
<title>15&#45;&gt;16</title>
<path fill="none" stroke="black" d="M520.59,-242.97C517.79,-226.66 512.89,-202.85 505.48,-183.02 503.68,-178.2 501.42,-173.23 499.03,-168.49"/>
<polygon fill="black" stroke="black" points="502.27,-167.12 494.46,-159.96 496.1,-170.43 502.27,-167.12"/>
<text text-anchor="middle" x="541.89" y="-198.11" font-family="Times,serif" font-size="14.00">apostrofo</text>
</g>
<!-- 16&#45;&gt;12 -->
<g id="edge23" class="edge">
<title>16&#45;&gt;12</title>
<path fill="none" stroke="black" d="M475.08,-122.24C468.54,-108.49 459.29,-89.06 451.49,-72.66"/>
<polygon fill="black" stroke="black" points="454.72,-71.31 447.26,-63.78 448.4,-74.32 454.72,-71.31"/>
<text text-anchor="middle" x="480.42" y="-85.46" font-family="Times,serif" font-size="14.00">outro*</text>
</g>
<!-- 18 -->
<g id="node20" class="node">
<title>18</title>
<ellipse fill="none" stroke="black" cx="643.48" cy="-263.29" rx="20.13" ry="20.13"/>
<text text-anchor="middle" x="643.48" y="-258.24" font-family="Times,serif" font-size="14.00">18</text>
</g>
<!-- 17&#45;&gt;18 -->
<g id="edge25" class="edge">
<title>17&#45;&gt;18</title>
<path fill="none" stroke="black" d="M622.38,-452.52C622.47,-425.07 623.5,-373.38 629.23,-329.79 630.79,-317.97 633.38,-305.12 635.93,-293.96"/>
<polygon fill="black" stroke="black" points="639.26,-295.07 638.18,-284.53 632.46,-293.45 639.26,-295.07"/>
<text text-anchor="middle" x="643.86" y="-354.74" font-family="Times,serif" font-size="14.00">aspas</text>
</g>
<!-- 20 -->
<g id="node22" class="node">
<title>20</title>
<ellipse fill="none" stroke="black" cx="687.48" cy="-359.79" rx="20.13" ry="20.13"/>
<text text-anchor="middle" x="687.48" y="-354.74" font-family="Times,serif" font-size="14.00">20</text>
</g>
<!-- 17&#45;&gt;20 -->
<g id="edge26" class="edge">
<title>17&#45;&gt;20</title>
<path fill="none" stroke="black" d="M632.36,-455.04C642.81,-437.17 659.46,-408.71 671.73,-387.73"/>
<polygon fill="black" stroke="black" points="674.73,-389.53 676.75,-379.13 668.68,-386 674.73,-389.53"/>
<text text-anchor="middle" x="659.41" y="-421.49" font-family="Times,serif" font-size="14.00">ch</text>
</g>
<!-- 19 -->
<g id="node21" class="node">
<title>19</title>
<ellipse fill="none" stroke="black" cx="643.48" cy="-140.89" rx="20.13" ry="20.13"/>
<ellipse fill="none" stroke="black" cx="643.48" cy="-140.89" rx="24.13" ry="24.13"/>
<text text-anchor="middle" x="643.48" y="-135.84" font-family="Times,serif" font-size="14.00">19</text>
</g>
<!-- 18&#45;&gt;19 -->
<g id="edge27" class="edge">
<title>18&#45;&gt;19</title>
<path fill="none" stroke="black" d="M643.48,-242.68C643.48,-224.8 643.48,-197.98 643.48,-176.5"/>
<polygon fill="black" stroke="black" points="646.98,-176.72 643.48,-166.72 639.98,-176.72 646.98,-176.72"/>
<text text-anchor="middle" x="661.11" y="-198.11" font-family="Times,serif" font-size="14.00">outro*</text>
</g>
<!-- 20&#45;&gt;18 -->
<g id="edge28" class="edge">
<title>20&#45;&gt;18</title>
<path fill="none" stroke="black" d="M679.21,-341.01C672.82,-327.28 663.85,-308.03 656.5,-292.25"/>
<polygon fill="black" stroke="black" points="659.76,-290.94 652.36,-283.35 653.41,-293.9 659.76,-290.94"/>
<text text-anchor="middle" x="682.74" y="-306.49" font-family="Times,serif" font-size="14.00">aspas</text>
</g>
</g>
</svg>
