<?xml version="1.0" encoding="UTF-8" standalone="no"?>
<!DOCTYPE svg PUBLIC "-//W3C//DTD SVG 1.1//EN"
 "http://www.w3.org/Graphics/SVG/1.1/DTD/svg11.dtd">
<!-- Generated by graphviz version 12.1.2 (0)
 -->
<!-- Pages: 1 -->
<svg width="2288pt" height="637pt"
 viewBox="0.00 0.00 2288.00 637.05" xmlns="http://www.w3.org/2000/svg" xmlns:xlink="http://www.w3.org/1999/xlink">
<g id="graph0" class="graph" transform="scale(1 1) rotate(0) translate(4 633.05)">
<polygon fill="white" stroke="none" points="-4,4 -4,-633.05 2284,-633.05 2284,4 -4,4"/>
<g id="clust1" class="cluster">
<title>cluster_start</title>
<polygon fill="none" stroke="black" points="1405,-451.79 1405,-618.92 1560,-618.92 1560,-451.79 1405,-451.79"/>
<text text-anchor="middle" x="1482.5" y="-601.62" font-family="Times,serif" font-size="14.00">INICIO</text>
</g>
<g id="clust2" class="cluster">
<title>cluster_id</title>
<polygon fill="#dd8855" stroke="#dd8855" points="2086,-106.63 2086,-411.16 2202,-411.16 2202,-106.63 2086,-106.63"/>
<text text-anchor="middle" x="2144" y="-393.86" font-family="Times,serif" font-size="14.00">ID</text>
</g>
<g id="clust3" class="cluster">
<title>cluster_intcon</title>
<polygon fill="#ffaaff" stroke="#ffaaff" points="8,-207.39 8,-411.16 110,-411.16 110,-207.39 8,-207.39"/>
<text text-anchor="middle" x="59" y="-393.86" font-family="Times,serif" font-size="14.00">INTCON</text>
</g>
<g id="clust4" class="cluster">
<title>cluster_realcon</title>
<polygon fill="#8888dd" stroke="#8888dd" points="118,-8 118,-287.89 220,-287.89 220,-8 118,-8"/>
<text text-anchor="middle" x="169" y="-270.59" font-family="Times,serif" font-size="14.00">REALCON</text>
</g>
<g id="clust5" class="cluster">
<title>cluster_charcon</title>
<polygon fill="#88dd88" stroke="#88dd88" points="228,-104.5 228,-411.16 461,-411.16 461,-104.5 228,-104.5"/>
<text text-anchor="middle" x="344.5" y="-393.86" font-family="Times,serif" font-size="14.00">CHARCON</text>
</g>
<g id="clust6" class="cluster">
<title>cluster_stringcon</title>
<polygon fill="#dd8888" stroke="#dd8888" points="469,-104.5 469,-413.29 590,-413.29 590,-104.5 469,-104.5"/>
<text text-anchor="middle" x="529.5" y="-395.99" font-family="Times,serif" font-size="14.00">STRINGCON</text>
</g>
<g id="clust7" class="cluster">
<title>cluster_comentario</title>
<polygon fill="#dddd88" stroke="#dddd88" points="2092,-540.29 2092,-621.05 2272,-621.05 2272,-540.29 2092,-540.29"/>
<text text-anchor="middle" x="2182" y="-603.75" font-family="Times,serif" font-size="14.00">COMENTARIO (IGNORAR)</text>
</g>
<g id="clust8" class="cluster">
<title>cluster_mais</title>
<polygon fill="lightgrey" stroke="black" points="598,-328.52 598,-417.29 662,-417.29 662,-328.52 598,-328.52"/>
<text text-anchor="middle" x="630" y="-399.99" font-family="Times,serif" font-size="14.00">MAIS</text>
</g>
<g id="clust9" class="cluster">
<title>cluster_menos</title>
<polygon fill="lightgrey" stroke="black" points="736,-328.52 736,-417.29 800,-417.29 800,-328.52 736,-328.52"/>
<text text-anchor="middle" x="768" y="-399.99" font-family="Times,serif" font-size="14.00">MENOS</text>
</g>
<g id="clust10" class="cluster">
<title>cluster_multiplicacao</title>
<polygon fill="lightgrey" stroke="black" points="808,-328.52 808,-417.29 934,-417.29 934,-328.52 808,-328.52"/>
<text text-anchor="middle" x="871" y="-399.99" font-family="Times,serif" font-size="14.00">MULTIPLICACAO</text>
</g>
<g id="clust11" class="cluster">
<title>cluster_divisao</title>
<polygon fill="lightgrey" stroke="black" points="598,-205.26 598,-294.02 669,-294.02 669,-205.26 598,-205.26"/>
<text text-anchor="middle" x="633.5" y="-276.72" font-family="Times,serif" font-size="14.00">DIVISAO</text>
</g>
<g id="clust12" class="cluster">
<title>cluster_abreparenteses</title>
<polygon fill="lightgrey" stroke="black" points="942,-328.52 942,-417.29 1077,-417.29 1077,-328.52 942,-328.52"/>
<text text-anchor="middle" x="1009.5" y="-399.99" font-family="Times,serif" font-size="14.00">ABREPARENTESES</text>
</g>
<g id="clust13" class="cluster">
<title>cluster_fechaparenteses</title>
<polygon fill="lightgrey" stroke="black" points="1085,-328.52 1085,-417.29 1228,-417.29 1228,-328.52 1085,-328.52"/>
<text text-anchor="middle" x="1156.5" y="-399.99" font-family="Times,serif" font-size="14.00">FECHAPARENTESES</text>
</g>
<g id="clust14" class="cluster">
<title>cluster_abrecolchete</title>
<polygon fill="lightgrey" stroke="black" points="1236,-328.52 1236,-417.29 1358,-417.29 1358,-328.52 1236,-328.52"/>
<text text-anchor="middle" x="1297" y="-399.99" font-family="Times,serif" font-size="14.00">ABRECOLCHETE</text>
</g>
<g id="clust15" class="cluster">
<title>cluster_fechacolchete</title>
<polygon fill="lightgrey" stroke="black" points="1366,-328.52 1366,-417.29 1496,-417.29 1496,-328.52 1366,-328.52"/>
<text text-anchor="middle" x="1431" y="-399.99" font-family="Times,serif" font-size="14.00">FECHACOLCHETE</text>
</g>
<g id="clust16" class="cluster">
<title>cluster_virgula</title>
<polygon fill="lightgrey" stroke="black" points="1504,-328.52 1504,-417.29 1580,-417.29 1580,-328.52 1504,-328.52"/>
<text text-anchor="middle" x="1542" y="-399.99" font-family="Times,serif" font-size="14.00">VIRGULA</text>
</g>
<g id="clust17" class="cluster">
<title>cluster_comparacao</title>
<polygon fill="lightgrey" stroke="black" points="782,-205.26 782,-294.02 893,-294.02 893,-205.26 782,-205.26"/>
<text text-anchor="middle" x="837.5" y="-276.72" font-family="Times,serif" font-size="14.00">COMPARACAO</text>
</g>
<g id="clust18" class="cluster">
<title>cluster_atribuicao</title>
<polygon fill="lightgrey" stroke="black" points="677,-205.26 677,-294.02 774,-294.02 774,-205.26 677,-205.26"/>
<text text-anchor="middle" x="725.5" y="-276.72" font-family="Times,serif" font-size="14.00">ATRIBUICAO</text>
</g>
<g id="clust19" class="cluster">
<title>cluster_elogico</title>
<polygon fill="lightgrey" stroke="black" points="1349,-205.26 1349,-294.02 1424,-294.02 1424,-205.26 1349,-205.26"/>
<text text-anchor="middle" x="1386.5" y="-276.72" font-family="Times,serif" font-size="14.00">ELOGICO</text>
</g>
<g id="clust20" class="cluster">
<title>cluster_referencia</title>
<polygon fill="lightgrey" stroke="black" points="1242,-205.26 1242,-294.02 1341,-294.02 1341,-205.26 1242,-205.26"/>
<text text-anchor="middle" x="1291.5" y="-276.72" font-family="Times,serif" font-size="14.00">REFERENCIA</text>
</g>
<g id="clust21" class="cluster">
<title>cluster_oulogico</title>
<polygon fill="lightgrey" stroke="black" points="1432,-205.26 1432,-294.02 1518,-294.02 1518,-205.26 1432,-205.26"/>
<text text-anchor="middle" x="1475" y="-276.72" font-family="Times,serif" font-size="14.00">OULOGICO</text>
</g>
<g id="clust22" class="cluster">
<title>cluster_menorigual</title>
<polygon fill="lightgrey" stroke="black" points="1599,-205.26 1599,-294.02 1706,-294.02 1706,-205.26 1599,-205.26"/>
<text text-anchor="middle" x="1652.5" y="-276.72" font-family="Times,serif" font-size="14.00">MENORIGUAL</text>
</g>
<g id="clust23" class="cluster">
<title>cluster_menor</title>
<polygon fill="lightgrey" stroke="black" points="1526,-205.26 1526,-294.02 1591,-294.02 1591,-205.26 1526,-205.26"/>
<text text-anchor="middle" x="1558.5" y="-276.72" font-family="Times,serif" font-size="14.00">MENOR</text>
</g>
<g id="clust24" class="cluster">
<title>cluster_maiorigual</title>
<polygon fill="lightgrey" stroke="black" points="1786,-205.26 1786,-294.02 1889,-294.02 1889,-205.26 1786,-205.26"/>
<text text-anchor="middle" x="1837.5" y="-276.72" font-family="Times,serif" font-size="14.00">MAIORIGUAL</text>
</g>
<g id="clust25" class="cluster">
<title>cluster_maior</title>
<polygon fill="lightgrey" stroke="black" points="1714,-205.26 1714,-294.02 1778,-294.02 1778,-205.26 1714,-205.26"/>
<text text-anchor="middle" x="1746" y="-276.72" font-family="Times,serif" font-size="14.00">MAIOR</text>
</g>
<g id="clust26" class="cluster">
<title>cluster_diferenca</title>
<polygon fill="lightgrey" stroke="black" points="1987,-205.26 1987,-294.02 2078,-294.02 2078,-205.26 1987,-205.26"/>
<text text-anchor="middle" x="2032.5" y="-276.72" font-family="Times,serif" font-size="14.00">DIFERENCA</text>
</g>
<g id="clust27" class="cluster">
<title>cluster_negacao</title>
<polygon fill="lightgrey" stroke="black" points="1897,-205.26 1897,-294.02 1979,-294.02 1979,-205.26 1897,-205.26"/>
<text text-anchor="middle" x="1938" y="-276.72" font-family="Times,serif" font-size="14.00">NEGACAO</text>
</g>
<!-- Inicio -->
<g id="node1" class="node">
<title>Inicio</title>
</g>
<!-- 0 -->
<g id="node2" class="node">
<title>0</title>
<ellipse fill="none" stroke="black" cx="1431" cy="-477.79" rx="18" ry="18"/>
<text text-anchor="middle" x="1431" y="-472.74" font-family="Times,serif" font-size="14.00">0</text>
</g>
<!-- Inicio&#45;&gt;0 -->
<g id="edge1" class="edge">
<title>Inicio&#45;&gt;0</title>
<path fill="none" stroke="black" d="M1438.31,-550.75C1437.07,-538.52 1435.35,-521.63 1433.89,-507.28"/>
<polygon fill="black" stroke="black" points="1437.39,-507.09 1432.9,-497.49 1430.43,-507.8 1437.39,-507.09"/>
</g>
<!-- 0&#45;&gt;0 -->
<g id="edge2" class="edge">
<title>0&#45;&gt;0</title>
<path fill="none" stroke="black" d="M1447.66,-485.57C1457.62,-487.29 1467,-484.7 1467,-477.79 1467,-473.68 1463.69,-471.1 1458.92,-470.04"/>
<polygon fill="black" stroke="black" points="1459.19,-466.54 1449.18,-470.01 1459.17,-473.54 1459.19,-466.54"/>
<text text-anchor="middle" x="1509.38" y="-472.74" font-family="Times,serif" font-size="14.00">Tab, Espaco, \n</text>
</g>
<!-- 1 -->
<g id="node3" class="node">
<title>1</title>
<ellipse fill="none" stroke="black" cx="2112" cy="-360.66" rx="18" ry="18"/>
<text text-anchor="middle" x="2112" y="-355.61" font-family="Times,serif" font-size="14.00">1</text>
</g>
<!-- 0&#45;&gt;1 -->
<g id="edge3" class="edge">
<title>0&#45;&gt;1</title>
<path fill="none" stroke="black" d="M1449.31,-476.74C1547.05,-476.34 2004.9,-472.84 2059,-441.79 2079.46,-430.04 2093.49,-406.81 2101.95,-388.38"/>
<polygon fill="black" stroke="black" points="2105.11,-389.89 2105.81,-379.32 2098.67,-387.15 2105.11,-389.89"/>
<text text-anchor="middle" x="2101.61" y="-428.49" font-family="Times,serif" font-size="14.00">sublinha</text>
</g>
<!-- 2 -->
<g id="node4" class="node">
<title>2</title>
<ellipse fill="none" stroke="black" cx="2112" cy="-237.39" rx="18" ry="18"/>
<text text-anchor="middle" x="2112" y="-232.34" font-family="Times,serif" font-size="14.00">2</text>
</g>
<!-- 0&#45;&gt;2 -->
<g id="edge5" class="edge">
<title>0&#45;&gt;2</title>
<path fill="none" stroke="black" d="M1449.29,-476.49C1532.02,-474.87 1871.33,-465.37 1964,-417.29 2030.04,-383.02 2077.79,-305.17 2099.29,-264.4"/>
<polygon fill="black" stroke="black" points="2102.39,-266.02 2103.84,-255.52 2096.16,-262.82 2102.39,-266.02"/>
<text text-anchor="middle" x="2069.65" y="-355.61" font-family="Times,serif" font-size="14.00">letra</text>
</g>
<!-- 4 -->
<g id="node6" class="node">
<title>4</title>
<ellipse fill="none" stroke="black" cx="34" cy="-360.66" rx="18" ry="18"/>
<text text-anchor="middle" x="34" y="-355.61" font-family="Times,serif" font-size="14.00">4</text>
</g>
<!-- 0&#45;&gt;4 -->
<g id="edge8" class="edge">
<title>0&#45;&gt;4</title>
<path fill="none" stroke="black" d="M1412.85,-476.62C1280.76,-475.32 465.77,-465.42 224,-417.29 165.29,-405.6 98.53,-384.07 61.84,-371.49"/>
<polygon fill="black" stroke="black" points="63.06,-368.21 52.47,-368.25 60.77,-374.83 63.06,-368.21"/>
<text text-anchor="middle" x="438.62" y="-428.49" font-family="Times,serif" font-size="14.00">digito</text>
</g>
<!-- 9 -->
<g id="node11" class="node">
<title>9</title>
<ellipse fill="none" stroke="black" cx="366" cy="-360.66" rx="18" ry="18"/>
<text text-anchor="middle" x="366" y="-355.61" font-family="Times,serif" font-size="14.00">9</text>
</g>
<!-- 0&#45;&gt;9 -->
<g id="edge15" class="edge">
<title>0&#45;&gt;9</title>
<path fill="none" stroke="black" d="M1412.74,-476.68C1302.36,-475.92 723.03,-470.63 548,-441.79 510.05,-435.53 500.43,-432.25 465,-417.29 438.52,-406.11 410.09,-389.62 390.52,-377.49"/>
<polygon fill="black" stroke="black" points="392.5,-374.6 382.17,-372.24 388.77,-380.53 392.5,-374.6"/>
<text text-anchor="middle" x="573.5" y="-428.49" font-family="Times,serif" font-size="14.00">apostrofo</text>
</g>
<!-- 14 -->
<g id="node16" class="node">
<title>14</title>
<ellipse fill="none" stroke="black" cx="562" cy="-360.66" rx="20.13" ry="20.13"/>
<text text-anchor="middle" x="562" y="-355.61" font-family="Times,serif" font-size="14.00">14</text>
</g>
<!-- 0&#45;&gt;14 -->
<g id="edge22" class="edge">
<title>0&#45;&gt;14</title>
<path fill="none" stroke="black" d="M1412.78,-476.46C1301.67,-474.37 717.49,-462.49 640.75,-441.79 618.1,-435.68 610.91,-433.55 594,-417.29 586.06,-409.66 579.49,-399.63 574.4,-390.19"/>
<polygon fill="black" stroke="black" points="577.57,-388.69 569.98,-381.3 571.3,-391.81 577.57,-388.69"/>
<text text-anchor="middle" x="655.38" y="-428.49" font-family="Times,serif" font-size="14.00">aspas</text>
</g>
<!-- 17 -->
<g id="node19" class="node">
<title>17</title>
<ellipse fill="none" stroke="black" cx="2232" cy="-360.66" rx="20.13" ry="20.13"/>
<text text-anchor="middle" x="2232" y="-355.61" font-family="Times,serif" font-size="14.00">17</text>
</g>
<!-- 0&#45;&gt;17 -->
<g id="edge26" class="edge">
<title>0&#45;&gt;17</title>
<path fill="none" stroke="black" d="M1449.31,-476.5C1545.39,-474.88 1992.04,-466.14 2128,-441.79 2130.24,-441.39 2204.29,-418.78 2206,-417.29 2213.84,-410.42 2219.49,-400.69 2223.47,-391.28"/>
<polygon fill="black" stroke="black" points="2226.72,-392.59 2226.89,-381.99 2220.15,-390.17 2226.72,-392.59"/>
<text text-anchor="middle" x="2194.5" y="-428.49" font-family="Times,serif" font-size="14.00">barra</text>
</g>
<!-- 19 -->
<g id="node21" class="node">
<title>19</title>
<ellipse fill="none" stroke="black" cx="630" cy="-360.66" rx="20.13" ry="20.13"/>
<ellipse fill="none" stroke="black" cx="630" cy="-360.66" rx="24.13" ry="24.13"/>
<text text-anchor="middle" x="630" y="-355.61" font-family="Times,serif" font-size="14.00">19</text>
</g>
<!-- 0&#45;&gt;19 -->
<g id="edge30" class="edge">
<title>0&#45;&gt;19</title>
<path fill="none" stroke="black" d="M1412.61,-476.59C1316.13,-475.46 867.66,-468.8 731.75,-441.79 699.93,-435.46 688.04,-437.91 663,-417.29 655.21,-410.87 648.83,-402.11 643.82,-393.44"/>
<polygon fill="black" stroke="black" points="647.02,-392.01 639.27,-384.78 640.82,-395.26 647.02,-392.01"/>
<text text-anchor="middle" x="735.88" y="-428.49" font-family="Times,serif" font-size="14.00">+</text>
</g>
<!-- 20 -->
<g id="node22" class="node">
<title>20</title>
<ellipse fill="none" stroke="black" cx="768" cy="-360.66" rx="20.13" ry="20.13"/>
<ellipse fill="none" stroke="black" cx="768" cy="-360.66" rx="24.13" ry="24.13"/>
<text text-anchor="middle" x="768" y="-355.61" font-family="Times,serif" font-size="14.00">20</text>
</g>
<!-- 0&#45;&gt;20 -->
<g id="edge31" class="edge">
<title>0&#45;&gt;20</title>
<path fill="none" stroke="black" d="M1413.02,-476.09C1349.47,-473.51 1129.66,-463.45 949.5,-441.79 884.39,-433.96 858.79,-453.31 804,-417.29 795.06,-411.41 787.87,-402.46 782.33,-393.45"/>
<polygon fill="black" stroke="black" points="785.41,-391.79 777.5,-384.73 779.28,-395.17 785.41,-391.79"/>
<text text-anchor="middle" x="951.75" y="-428.49" font-family="Times,serif" font-size="14.00">&#45;</text>
</g>
<!-- 21 -->
<g id="node23" class="node">
<title>21</title>
<ellipse fill="none" stroke="black" cx="902" cy="-360.66" rx="20.13" ry="20.13"/>
<ellipse fill="none" stroke="black" cx="902" cy="-360.66" rx="24.13" ry="24.13"/>
<text text-anchor="middle" x="902" y="-355.61" font-family="Times,serif" font-size="14.00">21</text>
</g>
<!-- 0&#45;&gt;21 -->
<g id="edge32" class="edge">
<title>0&#45;&gt;21</title>
<path fill="none" stroke="black" d="M1412.55,-476.69C1332.85,-475.98 1018.51,-469.8 938,-417.29 929.04,-411.44 921.84,-402.5 916.3,-393.49"/>
<polygon fill="black" stroke="black" points="919.38,-391.82 911.48,-384.76 913.25,-395.21 919.38,-391.82"/>
<text text-anchor="middle" x="996.37" y="-428.49" font-family="Times,serif" font-size="14.00">*</text>
</g>
<!-- 23 -->
<g id="node25" class="node">
<title>23</title>
<ellipse fill="none" stroke="black" cx="1045" cy="-360.66" rx="20.13" ry="20.13"/>
<ellipse fill="none" stroke="black" cx="1045" cy="-360.66" rx="24.13" ry="24.13"/>
<text text-anchor="middle" x="1045" y="-355.61" font-family="Times,serif" font-size="14.00">23</text>
</g>
<!-- 0&#45;&gt;23 -->
<g id="edge34" class="edge">
<title>0&#45;&gt;23</title>
<path fill="none" stroke="black" d="M1412.99,-475.63C1349.5,-471.25 1136.85,-454.07 1081,-417.29 1072.07,-411.4 1064.87,-402.45 1059.33,-393.44"/>
<polygon fill="black" stroke="black" points="1062.41,-391.78 1054.51,-384.72 1056.29,-395.17 1062.41,-391.78"/>
<text text-anchor="middle" x="1144.95" y="-428.49" font-family="Times,serif" font-size="14.00">(</text>
</g>
<!-- 24 -->
<g id="node26" class="node">
<title>24</title>
<ellipse fill="none" stroke="black" cx="1196" cy="-360.66" rx="20.13" ry="20.13"/>
<ellipse fill="none" stroke="black" cx="1196" cy="-360.66" rx="24.13" ry="24.13"/>
<text text-anchor="middle" x="1196" y="-355.61" font-family="Times,serif" font-size="14.00">24</text>
</g>
<!-- 0&#45;&gt;24 -->
<g id="edge35" class="edge">
<title>0&#45;&gt;24</title>
<path fill="none" stroke="black" d="M1412.65,-475.5C1375.15,-472.04 1288.54,-459.69 1232,-417.29 1223.57,-410.97 1216.57,-402.05 1211.05,-393.21"/>
<polygon fill="black" stroke="black" points="1214.2,-391.66 1206.2,-384.71 1208.12,-395.13 1214.2,-391.66"/>
<text text-anchor="middle" x="1272.92" y="-428.49" font-family="Times,serif" font-size="14.00">)</text>
</g>
<!-- 25 -->
<g id="node27" class="node">
<title>25</title>
<ellipse fill="none" stroke="black" cx="1326" cy="-360.66" rx="20.13" ry="20.13"/>
<ellipse fill="none" stroke="black" cx="1326" cy="-360.66" rx="24.13" ry="24.13"/>
<text text-anchor="middle" x="1326" y="-355.61" font-family="Times,serif" font-size="14.00">25</text>
</g>
<!-- 0&#45;&gt;25 -->
<g id="edge36" class="edge">
<title>0&#45;&gt;25</title>
<path fill="none" stroke="black" d="M1416.73,-466.43C1401.99,-455.3 1378.83,-436.61 1362,-417.29 1355.26,-409.56 1348.86,-400.47 1343.36,-391.9"/>
<polygon fill="black" stroke="black" points="1346.4,-390.15 1338.16,-383.48 1340.44,-393.83 1346.4,-390.15"/>
<text text-anchor="middle" x="1387.18" y="-428.49" font-family="Times,serif" font-size="14.00">[</text>
</g>
<!-- 26 -->
<g id="node28" class="node">
<title>26</title>
<ellipse fill="none" stroke="black" cx="1431" cy="-360.66" rx="20.13" ry="20.13"/>
<ellipse fill="none" stroke="black" cx="1431" cy="-360.66" rx="24.13" ry="24.13"/>
<text text-anchor="middle" x="1431" y="-355.61" font-family="Times,serif" font-size="14.00">26</text>
</g>
<!-- 0&#45;&gt;26 -->
<g id="edge37" class="edge">
<title>0&#45;&gt;26</title>
<path fill="none" stroke="black" d="M1431,-459.3C1431,-442.61 1431,-416.98 1431,-396.17"/>
<polygon fill="black" stroke="black" points="1434.5,-396.4 1431,-386.4 1427.5,-396.4 1434.5,-396.4"/>
<text text-anchor="middle" x="1433.25" y="-428.49" font-family="Times,serif" font-size="14.00">]</text>
</g>
<!-- 27 -->
<g id="node29" class="node">
<title>27</title>
<ellipse fill="none" stroke="black" cx="1536" cy="-360.66" rx="20.13" ry="20.13"/>
<ellipse fill="none" stroke="black" cx="1536" cy="-360.66" rx="24.13" ry="24.13"/>
<text text-anchor="middle" x="1536" y="-355.61" font-family="Times,serif" font-size="14.00">27</text>
</g>
<!-- 0&#45;&gt;27 -->
<g id="edge38" class="edge">
<title>0&#45;&gt;27</title>
<path fill="none" stroke="black" d="M1445.27,-466.43C1460.01,-455.3 1483.17,-436.61 1500,-417.29 1506.74,-409.56 1513.14,-400.47 1518.64,-391.9"/>
<polygon fill="black" stroke="black" points="1521.56,-393.83 1523.84,-383.48 1515.6,-390.15 1521.56,-393.83"/>
<text text-anchor="middle" x="1493.48" y="-428.49" font-family="Times,serif" font-size="14.00">,</text>
</g>
<!-- 28 -->
<g id="node31" class="node">
<title>28</title>
<ellipse fill="none" stroke="black" cx="699" cy="-360.66" rx="27" ry="18"/>
<text text-anchor="middle" x="699" y="-355.61" font-family="Times,serif" font-size="14.00">28</text>
</g>
<!-- 0&#45;&gt;28 -->
<g id="edge39" class="edge">
<title>0&#45;&gt;28</title>
<path fill="none" stroke="black" d="M1412.59,-476.39C1322.57,-474.35 928.27,-464.27 807.75,-441.79 772.97,-435.3 759.64,-439.37 732,-417.29 722.62,-409.8 715.32,-398.86 710,-388.67"/>
<polygon fill="black" stroke="black" points="713.27,-387.39 705.82,-379.85 706.94,-390.39 713.27,-387.39"/>
<text text-anchor="middle" x="811.88" y="-428.49" font-family="Times,serif" font-size="14.00">=</text>
</g>
<!-- 31 -->
<g id="node33" class="node">
<title>31</title>
<ellipse fill="none" stroke="black" cx="1608" cy="-360.66" rx="20.13" ry="20.13"/>
<text text-anchor="middle" x="1608" y="-355.61" font-family="Times,serif" font-size="14.00">31</text>
</g>
<!-- 0&#45;&gt;31 -->
<g id="edge42" class="edge">
<title>0&#45;&gt;31</title>
<path fill="none" stroke="black" d="M1448.99,-474.38C1480.31,-469.29 1545.22,-454.68 1584,-417.29 1591.27,-410.28 1596.46,-400.71 1600.11,-391.48"/>
<polygon fill="black" stroke="black" points="1603.42,-392.61 1603.34,-382.02 1596.8,-390.35 1603.42,-392.61"/>
<text text-anchor="middle" x="1579.69" y="-428.49" font-family="Times,serif" font-size="14.00">&amp;</text>
</g>
<!-- 34 -->
<g id="node36" class="node">
<title>34</title>
<ellipse fill="none" stroke="black" cx="1666" cy="-360.66" rx="20.13" ry="20.13"/>
<text text-anchor="middle" x="1666" y="-355.61" font-family="Times,serif" font-size="14.00">34</text>
</g>
<!-- 0&#45;&gt;34 -->
<g id="edge45" class="edge">
<title>0&#45;&gt;34</title>
<path fill="none" stroke="black" d="M1449.27,-477.01C1489.1,-476.47 1584.39,-469.44 1637,-417.29 1644.5,-409.85 1650.49,-400.05 1655.02,-390.76"/>
<polygon fill="black" stroke="black" points="1658.21,-392.2 1659.07,-381.64 1651.82,-389.36 1658.21,-392.2"/>
<text text-anchor="middle" x="1625.6" y="-428.49" font-family="Times,serif" font-size="14.00">|</text>
</g>
<!-- 36 -->
<g id="node38" class="node">
<title>36</title>
<ellipse fill="none" stroke="black" cx="1724" cy="-360.66" rx="20.13" ry="20.13"/>
<text text-anchor="middle" x="1724" y="-355.61" font-family="Times,serif" font-size="14.00">36</text>
</g>
<!-- 0&#45;&gt;36 -->
<g id="edge47" class="edge">
<title>0&#45;&gt;36</title>
<path fill="none" stroke="black" d="M1449.17,-474.97C1502.65,-469.3 1658,-450.27 1695,-417.29 1703.03,-410.13 1709.19,-400.21 1713.71,-390.72"/>
<polygon fill="black" stroke="black" points="1716.83,-392.33 1717.55,-381.76 1710.4,-389.58 1716.83,-392.33"/>
<text text-anchor="middle" x="1685.21" y="-428.49" font-family="Times,serif" font-size="14.00">&lt;</text>
</g>
<!-- 39 -->
<g id="node41" class="node">
<title>39</title>
<ellipse fill="none" stroke="black" cx="1782" cy="-360.66" rx="20.13" ry="20.13"/>
<text text-anchor="middle" x="1782" y="-355.61" font-family="Times,serif" font-size="14.00">39</text>
</g>
<!-- 0&#45;&gt;39 -->
<g id="edge50" class="edge">
<title>0&#45;&gt;39</title>
<path fill="none" stroke="black" d="M1449.1,-475.96C1492.08,-473.64 1603.42,-465.64 1693,-441.79 1720.83,-434.38 1731.71,-436.69 1753,-417.29 1760.96,-410.04 1767.09,-400.1 1771.62,-390.62"/>
<polygon fill="black" stroke="black" points="1774.73,-392.25 1775.48,-381.68 1768.3,-389.48 1774.73,-392.25"/>
<text text-anchor="middle" x="1746.48" y="-428.49" font-family="Times,serif" font-size="14.00">&gt;</text>
</g>
<!-- 42 -->
<g id="node44" class="node">
<title>42</title>
<ellipse fill="none" stroke="black" cx="1935" cy="-360.66" rx="20.13" ry="20.13"/>
<text text-anchor="middle" x="1935" y="-355.61" font-family="Times,serif" font-size="14.00">42</text>
</g>
<!-- 0&#45;&gt;42 -->
<g id="edge53" class="edge">
<title>0&#45;&gt;42</title>
<path fill="none" stroke="black" d="M1449.26,-476.74C1499.15,-476.22 1641.55,-471.97 1755,-441.79 1781.25,-434.8 1786.16,-428.29 1811,-417.29 1843.89,-402.72 1881.58,-385.77 1906.69,-374.45"/>
<polygon fill="black" stroke="black" points="1907.9,-377.74 1915.57,-370.44 1905.02,-371.36 1907.9,-377.74"/>
<text text-anchor="middle" x="1796.17" y="-428.49" font-family="Times,serif" font-size="14.00">!</text>
</g>
<!-- 1&#45;&gt;1 -->
<g id="edge4" class="edge">
<title>1&#45;&gt;1</title>
<path fill="none" stroke="black" d="M2127.92,-369.35C2138.15,-371.62 2148,-368.72 2148,-360.66 2148,-355.74 2144.34,-352.74 2139.17,-351.66"/>
<polygon fill="black" stroke="black" points="2139.33,-348.16 2129.43,-351.92 2139.52,-355.16 2139.33,-348.16"/>
<text text-anchor="middle" x="2170.88" y="-355.61" font-family="Times,serif" font-size="14.00">sublinha</text>
</g>
<!-- 1&#45;&gt;2 -->
<g id="edge6" class="edge">
<title>1&#45;&gt;2</title>
<path fill="none" stroke="black" d="M2112,-342.28C2112,-322.65 2112,-290.4 2112,-267.03"/>
<polygon fill="black" stroke="black" points="2115.5,-267.25 2112,-257.25 2108.5,-267.25 2115.5,-267.25"/>
<text text-anchor="middle" x="2124" y="-305.22" font-family="Times,serif" font-size="14.00">letra</text>
</g>
<!-- 3 -->
<g id="node5" class="node">
<title>3</title>
<ellipse fill="none" stroke="black" cx="2116" cy="-136.63" rx="18" ry="18"/>
<ellipse fill="none" stroke="black" cx="2116" cy="-136.63" rx="22" ry="22"/>
<text text-anchor="middle" x="2116" y="-131.58" font-family="Times,serif" font-size="14.00">3</text>
</g>
<!-- 2&#45;&gt;3 -->
<g id="edge7" class="edge">
<title>2&#45;&gt;3</title>
<path fill="none" stroke="black" d="M2112.7,-219.19C2113.24,-205.67 2114.02,-186.45 2114.69,-170.07"/>
<polygon fill="black" stroke="black" points="2118.18,-170.4 2115.08,-160.27 2111.18,-170.12 2118.18,-170.4"/>
<text text-anchor="middle" x="2131.86" y="-181.96" font-family="Times,serif" font-size="14.00">outro*</text>
</g>
<!-- 4&#45;&gt;4 -->
<g id="edge9" class="edge">
<title>4&#45;&gt;4</title>
<path fill="none" stroke="black" d="M49.92,-369.35C60.15,-371.62 70,-368.72 70,-360.66 70,-355.74 66.34,-352.74 61.17,-351.66"/>
<polygon fill="black" stroke="black" points="61.33,-348.16 51.43,-351.92 61.52,-355.16 61.33,-348.16"/>
<text text-anchor="middle" x="85.75" y="-355.61" font-family="Times,serif" font-size="14.00">digito</text>
</g>
<!-- 5 -->
<g id="node7" class="node">
<title>5</title>
<ellipse fill="none" stroke="black" cx="38" cy="-237.39" rx="18" ry="18"/>
<ellipse fill="none" stroke="black" cx="38" cy="-237.39" rx="22" ry="22"/>
<text text-anchor="middle" x="38" y="-232.34" font-family="Times,serif" font-size="14.00">5</text>
</g>
<!-- 4&#45;&gt;5 -->
<g id="edge10" class="edge">
<title>4&#45;&gt;5</title>
<path fill="none" stroke="black" d="M34.57,-342.28C35.18,-323.77 36.16,-294.02 36.92,-271.1"/>
<polygon fill="black" stroke="black" points="40.41,-271.45 37.24,-261.34 33.42,-271.22 40.41,-271.45"/>
<text text-anchor="middle" x="53.51" y="-305.22" font-family="Times,serif" font-size="14.00">outro*</text>
</g>
<!-- 6 -->
<g id="node8" class="node">
<title>6</title>
<ellipse fill="none" stroke="black" cx="144" cy="-237.39" rx="18" ry="18"/>
<text text-anchor="middle" x="144" y="-232.34" font-family="Times,serif" font-size="14.00">6</text>
</g>
<!-- 4&#45;&gt;6 -->
<g id="edge11" class="edge">
<title>4&#45;&gt;6</title>
<path fill="none" stroke="black" d="M49.06,-349.98C66.35,-338.3 94.81,-317.32 114,-294.02 121.2,-285.29 127.47,-274.56 132.39,-264.86"/>
<polygon fill="black" stroke="black" points="135.53,-266.41 136.69,-255.87 129.21,-263.38 135.53,-266.41"/>
<text text-anchor="middle" x="121.98" y="-305.22" font-family="Times,serif" font-size="14.00">ponto</text>
</g>
<!-- 7 -->
<g id="node9" class="node">
<title>7</title>
<ellipse fill="none" stroke="black" cx="144" cy="-136.63" rx="18" ry="18"/>
<text text-anchor="middle" x="144" y="-131.58" font-family="Times,serif" font-size="14.00">7</text>
</g>
<!-- 6&#45;&gt;7 -->
<g id="edge12" class="edge">
<title>6&#45;&gt;7</title>
<path fill="none" stroke="black" d="M144,-219.19C144,-204.55 144,-183.23 144,-166.06"/>
<polygon fill="black" stroke="black" points="147.5,-166.48 144,-156.48 140.5,-166.48 147.5,-166.48"/>
<text text-anchor="middle" x="159.75" y="-181.96" font-family="Times,serif" font-size="14.00">digito</text>
</g>
<!-- 7&#45;&gt;7 -->
<g id="edge13" class="edge">
<title>7&#45;&gt;7</title>
<path fill="none" stroke="black" d="M159.92,-145.33C170.15,-147.6 180,-144.7 180,-136.63 180,-131.71 176.34,-128.72 171.17,-127.64"/>
<polygon fill="black" stroke="black" points="171.33,-124.13 161.43,-127.89 171.52,-131.13 171.33,-124.13"/>
<text text-anchor="middle" x="195.75" y="-131.58" font-family="Times,serif" font-size="14.00">digito</text>
</g>
<!-- 8 -->
<g id="node10" class="node">
<title>8</title>
<ellipse fill="none" stroke="black" cx="148" cy="-38" rx="18" ry="18"/>
<ellipse fill="none" stroke="black" cx="148" cy="-38" rx="22" ry="22"/>
<text text-anchor="middle" x="148" y="-32.95" font-family="Times,serif" font-size="14.00">8</text>
</g>
<!-- 7&#45;&gt;8 -->
<g id="edge14" class="edge">
<title>7&#45;&gt;8</title>
<path fill="none" stroke="black" d="M144.72,-118.36C145.25,-105.38 146,-87.22 146.65,-71.55"/>
<polygon fill="black" stroke="black" points="150.14,-71.82 147.06,-61.68 143.15,-71.53 150.14,-71.82"/>
<text text-anchor="middle" x="163.98" y="-81.2" font-family="Times,serif" font-size="14.00">outro*</text>
</g>
<!-- 10 -->
<g id="node12" class="node">
<title>10</title>
<ellipse fill="none" stroke="black" cx="260" cy="-237.39" rx="20.13" ry="20.13"/>
<text text-anchor="middle" x="260" y="-232.34" font-family="Times,serif" font-size="14.00">10</text>
</g>
<!-- 9&#45;&gt;10 -->
<g id="edge16" class="edge">
<title>9&#45;&gt;10</title>
<path fill="none" stroke="black" d="M353.78,-347.38C341.03,-334.41 320.61,-313.23 304,-294.02 295.33,-284 286.18,-272.58 278.48,-262.7"/>
<polygon fill="black" stroke="black" points="281.41,-260.77 272.53,-254.99 275.87,-265.05 281.41,-260.77"/>
<text text-anchor="middle" x="331.98" y="-305.22" font-family="Times,serif" font-size="14.00">ch</text>
</g>
<!-- 12 -->
<g id="node14" class="node">
<title>12</title>
<ellipse fill="none" stroke="black" cx="333" cy="-237.39" rx="20.13" ry="20.13"/>
<text text-anchor="middle" x="333" y="-232.34" font-family="Times,serif" font-size="14.00">12</text>
</g>
<!-- 9&#45;&gt;12 -->
<g id="edge18" class="edge">
<title>9&#45;&gt;12</title>
<path fill="none" stroke="black" d="M361.41,-342.79C356.17,-323.53 347.49,-291.65 341.1,-268.18"/>
<polygon fill="black" stroke="black" points="344.49,-267.29 338.49,-258.56 337.74,-269.13 344.49,-267.29"/>
<text text-anchor="middle" x="359.63" y="-305.22" font-family="Times,serif" font-size="14.00">\n</text>
</g>
<!-- 13 -->
<g id="node15" class="node">
<title>13</title>
<ellipse fill="none" stroke="black" cx="398" cy="-237.39" rx="20.13" ry="20.13"/>
<text text-anchor="middle" x="398" y="-232.34" font-family="Times,serif" font-size="14.00">13</text>
</g>
<!-- 9&#45;&gt;13 -->
<g id="edge19" class="edge">
<title>9&#45;&gt;13</title>
<path fill="none" stroke="black" d="M370.45,-342.79C375.53,-323.53 383.95,-291.65 390.14,-268.18"/>
<polygon fill="black" stroke="black" points="393.51,-269.13 392.68,-258.56 386.74,-267.34 393.51,-269.13"/>
<text text-anchor="middle" x="386.29" y="-305.22" font-family="Times,serif" font-size="14.00">\0</text>
</g>
<!-- 11 -->
<g id="node13" class="node">
<title>11</title>
<ellipse fill="none" stroke="black" cx="328" cy="-136.63" rx="20.13" ry="20.13"/>
<ellipse fill="none" stroke="black" cx="328" cy="-136.63" rx="24.13" ry="24.13"/>
<text text-anchor="middle" x="328" y="-131.58" font-family="Times,serif" font-size="14.00">11</text>
</g>
<!-- 10&#45;&gt;11 -->
<g id="edge17" class="edge">
<title>10&#45;&gt;11</title>
<path fill="none" stroke="black" d="M261.01,-216.92C262.41,-205.09 265.63,-190.12 273,-178.76 279.1,-169.36 288.13,-161.31 297.13,-154.9"/>
<polygon fill="black" stroke="black" points="299.03,-157.84 305.46,-149.42 295.18,-151.99 299.03,-157.84"/>
<text text-anchor="middle" x="298.5" y="-181.96" font-family="Times,serif" font-size="14.00">apostrofo</text>
</g>
<!-- 12&#45;&gt;11 -->
<g id="edge20" class="edge">
<title>12&#45;&gt;11</title>
<path fill="none" stroke="black" d="M330.81,-217.17C330.11,-210.27 329.41,-202.43 329,-195.26 328.58,-187.92 328.32,-180.04 328.16,-172.54"/>
<polygon fill="black" stroke="black" points="331.66,-172.66 328.01,-162.71 324.66,-172.77 331.66,-172.66"/>
<text text-anchor="middle" x="354.5" y="-181.96" font-family="Times,serif" font-size="14.00">apostrofo</text>
</g>
<!-- 13&#45;&gt;11 -->
<g id="edge21" class="edge">
<title>13&#45;&gt;11</title>
<path fill="none" stroke="black" d="M395,-217.22C392.45,-205.36 387.9,-190.25 380,-178.76 374.19,-170.31 366.12,-162.75 358.07,-156.5"/>
<polygon fill="black" stroke="black" points="360.15,-153.68 350,-150.66 356.05,-159.36 360.15,-153.68"/>
<text text-anchor="middle" x="413.83" y="-181.96" font-family="Times,serif" font-size="14.00">apostrofo</text>
</g>
<!-- 15 -->
<g id="node17" class="node">
<title>15</title>
<ellipse fill="none" stroke="black" cx="518" cy="-136.63" rx="20.13" ry="20.13"/>
<ellipse fill="none" stroke="black" cx="518" cy="-136.63" rx="24.13" ry="24.13"/>
<text text-anchor="middle" x="518" y="-131.58" font-family="Times,serif" font-size="14.00">15</text>
</g>
<!-- 14&#45;&gt;15 -->
<g id="edge23" class="edge">
<title>14&#45;&gt;15</title>
<path fill="none" stroke="black" d="M546.14,-347.61C531.97,-335.75 512.19,-316.24 503.75,-294.02 488.34,-253.44 497.61,-202.84 506.82,-170.38"/>
<polygon fill="black" stroke="black" points="510.07,-171.74 509.6,-161.15 503.37,-169.72 510.07,-171.74"/>
<text text-anchor="middle" x="518.38" y="-232.34" font-family="Times,serif" font-size="14.00">aspas</text>
</g>
<!-- 16 -->
<g id="node18" class="node">
<title>16</title>
<ellipse fill="none" stroke="black" cx="562" cy="-237.39" rx="20.13" ry="20.13"/>
<text text-anchor="middle" x="562" y="-232.34" font-family="Times,serif" font-size="14.00">16</text>
</g>
<!-- 14&#45;&gt;16 -->
<g id="edge24" class="edge">
<title>14&#45;&gt;16</title>
<path fill="none" stroke="black" d="M562,-340.17C562,-320.99 562,-291.41 562,-269.07"/>
<polygon fill="black" stroke="black" points="565.5,-269.34 562,-259.34 558.5,-269.34 565.5,-269.34"/>
<text text-anchor="middle" x="568.38" y="-305.22" font-family="Times,serif" font-size="14.00">ch</text>
</g>
<!-- 16&#45;&gt;15 -->
<g id="edge25" class="edge">
<title>16&#45;&gt;15</title>
<path fill="none" stroke="black" d="M554.13,-218.74C548.05,-205.08 539.47,-185.82 532.19,-169.49"/>
<polygon fill="black" stroke="black" points="535.52,-168.36 528.26,-160.65 529.13,-171.21 535.52,-168.36"/>
<text text-anchor="middle" x="557.26" y="-181.96" font-family="Times,serif" font-size="14.00">aspas</text>
</g>
<!-- 18 -->
<g id="node20" class="node">
<title>18</title>
<ellipse fill="none" stroke="black" cx="2155" cy="-568.42" rx="20.13" ry="20.13"/>
<text text-anchor="middle" x="2155" y="-563.37" font-family="Times,serif" font-size="14.00">18</text>
</g>
<!-- 17&#45;&gt;18 -->
<g id="edge27" class="edge">
<title>17&#45;&gt;18</title>
<path fill="none" stroke="black" d="M2227.93,-380.7C2224.21,-397.1 2218.2,-421.3 2211,-441.79 2198.87,-476.33 2181.18,-514.56 2168.95,-539.67"/>
<polygon fill="black" stroke="black" points="2165.85,-538.02 2164.58,-548.54 2172.13,-541.11 2165.85,-538.02"/>
<text text-anchor="middle" x="2220.63" y="-472.74" font-family="Times,serif" font-size="14.00">barra</text>
</g>
<!-- 18&#45;&gt;0 -->
<g id="edge29" class="edge">
<title>18&#45;&gt;0</title>
<path fill="none" stroke="black" d="M2134.88,-564.95C2033.64,-552.56 1580.1,-497.04 1460.17,-482.36"/>
<polygon fill="black" stroke="black" points="1460.87,-478.92 1450.52,-481.18 1460.02,-485.87 1460.87,-478.92"/>
<text text-anchor="middle" x="1841.6" y="-516.99" font-family="Times,serif" font-size="14.00">\n</text>
</g>
<!-- 18&#45;&gt;18 -->
<g id="edge28" class="edge">
<title>18&#45;&gt;18</title>
<path fill="none" stroke="black" d="M2173.83,-576.76C2183.93,-578.17 2193.13,-575.39 2193.13,-568.42 2193.13,-564.28 2189.89,-561.61 2185.14,-560.43"/>
<polygon fill="black" stroke="black" points="2185.45,-556.94 2175.35,-560.13 2185.23,-563.94 2185.45,-556.94"/>
<text text-anchor="middle" x="2210.76" y="-563.37" font-family="Times,serif" font-size="14.00">outro*</text>
</g>
<!-- 22 -->
<g id="node24" class="node">
<title>22</title>
<ellipse fill="none" stroke="black" cx="630" cy="-237.39" rx="20.13" ry="20.13"/>
<ellipse fill="none" stroke="black" cx="630" cy="-237.39" rx="24.13" ry="24.13"/>
<text text-anchor="middle" x="630" y="-232.34" font-family="Times,serif" font-size="14.00">22</text>
</g>
<!-- 19&#45;&gt;22 -->
<g id="edge33" class="edge">
<title>19&#45;&gt;22</title>
<path fill="none" stroke="black" d="M630,-336.28C630,-318.33 630,-293.26 630,-272.99"/>
<polygon fill="black" stroke="black" points="633.5,-273.22 630,-263.22 626.5,-273.22 633.5,-273.22"/>
<text text-anchor="middle" x="647.62" y="-305.22" font-family="Times,serif" font-size="14.00">outro*</text>
</g>
<!-- 29 -->
<g id="node30" class="node">
<title>29</title>
<ellipse fill="none" stroke="black" cx="814" cy="-237.39" rx="20.13" ry="20.13"/>
<ellipse fill="none" stroke="black" cx="814" cy="-237.39" rx="24.13" ry="24.13"/>
<text text-anchor="middle" x="814" y="-232.34" font-family="Times,serif" font-size="14.00">29</text>
</g>
<!-- 28&#45;&gt;29 -->
<g id="edge40" class="edge">
<title>28&#45;&gt;29</title>
<path fill="none" stroke="black" d="M713.46,-345.34C719.11,-339.93 725.73,-333.8 732,-328.52 751.55,-312.06 760.56,-312.71 778,-294.02 784.99,-286.53 791.48,-277.51 796.97,-268.94"/>
<polygon fill="black" stroke="black" points="799.9,-270.84 802.13,-260.49 793.93,-267.19 799.9,-270.84"/>
<text text-anchor="middle" x="773.42" y="-305.22" font-family="Times,serif" font-size="14.00">=</text>
</g>
<!-- 30 -->
<g id="node32" class="node">
<title>30</title>
<ellipse fill="none" stroke="black" cx="709" cy="-237.39" rx="20.13" ry="20.13"/>
<ellipse fill="none" stroke="black" cx="709" cy="-237.39" rx="24.13" ry="24.13"/>
<text text-anchor="middle" x="709" y="-232.34" font-family="Times,serif" font-size="14.00">30</text>
</g>
<!-- 28&#45;&gt;30 -->
<g id="edge41" class="edge">
<title>28&#45;&gt;30</title>
<path fill="none" stroke="black" d="M700.43,-342.28C701.92,-324.21 704.29,-295.45 706.17,-272.77"/>
<polygon fill="black" stroke="black" points="709.63,-273.31 706.97,-263.05 702.66,-272.73 709.63,-273.31"/>
<text text-anchor="middle" x="721.33" y="-305.22" font-family="Times,serif" font-size="14.00">outro*</text>
</g>
<!-- 32 -->
<g id="node34" class="node">
<title>32</title>
<ellipse fill="none" stroke="black" cx="1392" cy="-237.39" rx="20.13" ry="20.13"/>
<ellipse fill="none" stroke="black" cx="1392" cy="-237.39" rx="24.13" ry="24.13"/>
<text text-anchor="middle" x="1392" y="-232.34" font-family="Times,serif" font-size="14.00">32</text>
</g>
<!-- 31&#45;&gt;32 -->
<g id="edge43" class="edge">
<title>31&#45;&gt;32</title>
<path fill="none" stroke="black" d="M1598.44,-342.61C1594.62,-337.29 1589.76,-331.93 1584,-328.52 1559.13,-313.81 1548.03,-324.48 1519.75,-318.52 1478.45,-309.82 1462.14,-318.85 1428,-294.02 1419.41,-287.78 1412.34,-278.81 1406.81,-269.89"/>
<polygon fill="black" stroke="black" points="1409.92,-268.29 1401.95,-261.31 1403.83,-271.74 1409.92,-268.29"/>
<text text-anchor="middle" x="1525.38" y="-305.22" font-family="Times,serif" font-size="14.00">&amp;</text>
</g>
<!-- 33 -->
<g id="node35" class="node">
<title>33</title>
<ellipse fill="none" stroke="black" cx="1309" cy="-237.39" rx="20.13" ry="20.13"/>
<ellipse fill="none" stroke="black" cx="1309" cy="-237.39" rx="24.13" ry="24.13"/>
<text text-anchor="middle" x="1309" y="-232.34" font-family="Times,serif" font-size="14.00">33</text>
</g>
<!-- 31&#45;&gt;33 -->
<g id="edge44" class="edge">
<title>31&#45;&gt;33</title>
<path fill="none" stroke="black" d="M1598.85,-342.6C1595.02,-337.15 1590.04,-331.7 1584,-328.52 1548.11,-309.64 1441.23,-327.82 1401.75,-318.52 1375.01,-312.23 1365.98,-311.76 1345,-294.02 1337.02,-287.28 1330.17,-278.32 1324.66,-269.56"/>
<polygon fill="black" stroke="black" points="1327.84,-268.07 1319.77,-261.2 1321.8,-271.6 1327.84,-268.07"/>
<text text-anchor="middle" x="1419.38" y="-305.22" font-family="Times,serif" font-size="14.00">outro*</text>
</g>
<!-- 35 -->
<g id="node37" class="node">
<title>35</title>
<ellipse fill="none" stroke="black" cx="1486" cy="-237.39" rx="20.13" ry="20.13"/>
<ellipse fill="none" stroke="black" cx="1486" cy="-237.39" rx="24.13" ry="24.13"/>
<text text-anchor="middle" x="1486" y="-232.34" font-family="Times,serif" font-size="14.00">35</text>
</g>
<!-- 34&#45;&gt;35 -->
<g id="edge46" class="edge">
<title>34&#45;&gt;35</title>
<path fill="none" stroke="black" d="M1654.43,-343.96C1649.6,-338.37 1643.58,-332.49 1637,-328.52 1622.41,-319.73 1616.35,-323.3 1600,-318.52 1565.12,-308.34 1550.92,-316.03 1522,-294.02 1513.62,-287.65 1506.63,-278.72 1501.11,-269.88"/>
<polygon fill="black" stroke="black" points="1504.25,-268.33 1496.25,-261.38 1498.18,-271.8 1504.25,-268.33"/>
<text text-anchor="middle" x="1601.5" y="-305.22" font-family="Times,serif" font-size="14.00">|</text>
</g>
<!-- 37 -->
<g id="node39" class="node">
<title>37</title>
<ellipse fill="none" stroke="black" cx="1674" cy="-237.39" rx="20.13" ry="20.13"/>
<ellipse fill="none" stroke="black" cx="1674" cy="-237.39" rx="24.13" ry="24.13"/>
<text text-anchor="middle" x="1674" y="-232.34" font-family="Times,serif" font-size="14.00">37</text>
</g>
<!-- 36&#45;&gt;37 -->
<g id="edge48" class="edge">
<title>36&#45;&gt;37</title>
<path fill="none" stroke="black" d="M1716.51,-341.5C1708.79,-322.76 1696.58,-293.15 1687.22,-270.46"/>
<polygon fill="black" stroke="black" points="1690.51,-269.26 1683.47,-261.35 1684.04,-271.93 1690.51,-269.26"/>
<text text-anchor="middle" x="1710.53" y="-305.22" font-family="Times,serif" font-size="14.00">=</text>
</g>
<!-- 38 -->
<g id="node40" class="node">
<title>38</title>
<ellipse fill="none" stroke="black" cx="1559" cy="-237.39" rx="20.13" ry="20.13"/>
<ellipse fill="none" stroke="black" cx="1559" cy="-237.39" rx="24.13" ry="24.13"/>
<text text-anchor="middle" x="1559" y="-232.34" font-family="Times,serif" font-size="14.00">38</text>
</g>
<!-- 36&#45;&gt;38 -->
<g id="edge49" class="edge">
<title>36&#45;&gt;38</title>
<path fill="none" stroke="black" d="M1712.39,-344.03C1707.55,-338.45 1701.54,-332.56 1695,-328.52 1681.5,-320.2 1675.8,-323.52 1660.75,-318.52 1631.15,-308.7 1619.32,-313.55 1595,-294.02 1586.79,-287.43 1579.85,-278.44 1574.32,-269.61"/>
<polygon fill="black" stroke="black" points="1577.46,-268.06 1569.43,-261.15 1571.4,-271.56 1577.46,-268.06"/>
<text text-anchor="middle" x="1678.38" y="-305.22" font-family="Times,serif" font-size="14.00">outro*</text>
</g>
<!-- 40 -->
<g id="node42" class="node">
<title>40</title>
<ellipse fill="none" stroke="black" cx="1818" cy="-237.39" rx="20.13" ry="20.13"/>
<ellipse fill="none" stroke="black" cx="1818" cy="-237.39" rx="24.13" ry="24.13"/>
<text text-anchor="middle" x="1818" y="-232.34" font-family="Times,serif" font-size="14.00">40</text>
</g>
<!-- 39&#45;&gt;40 -->
<g id="edge51" class="edge">
<title>39&#45;&gt;40</title>
<path fill="none" stroke="black" d="M1787.55,-340.97C1792.99,-322.64 1801.41,-294.28 1808.02,-272.02"/>
<polygon fill="black" stroke="black" points="1811.36,-273.06 1810.85,-262.47 1804.65,-271.06 1811.36,-273.06"/>
<text text-anchor="middle" x="1803.05" y="-305.22" font-family="Times,serif" font-size="14.00">=</text>
</g>
<!-- 41 -->
<g id="node43" class="node">
<title>41</title>
<ellipse fill="none" stroke="black" cx="1746" cy="-237.39" rx="20.13" ry="20.13"/>
<ellipse fill="none" stroke="black" cx="1746" cy="-237.39" rx="24.13" ry="24.13"/>
<text text-anchor="middle" x="1746" y="-232.34" font-family="Times,serif" font-size="14.00">41</text>
</g>
<!-- 39&#45;&gt;41 -->
<g id="edge52" class="edge">
<title>39&#45;&gt;41</title>
<path fill="none" stroke="black" d="M1769.74,-344.12C1764.57,-336.76 1759.01,-327.61 1755.75,-318.52 1750.61,-304.2 1748.08,-287.61 1746.86,-273.25"/>
<polygon fill="black" stroke="black" points="1750.36,-273.08 1746.22,-263.33 1743.37,-273.53 1750.36,-273.08"/>
<text text-anchor="middle" x="1773.38" y="-305.22" font-family="Times,serif" font-size="14.00">outro*</text>
</g>
<!-- 43 -->
<g id="node45" class="node">
<title>43</title>
<ellipse fill="none" stroke="black" cx="2019" cy="-237.39" rx="20.13" ry="20.13"/>
<ellipse fill="none" stroke="black" cx="2019" cy="-237.39" rx="24.13" ry="24.13"/>
<text text-anchor="middle" x="2019" y="-232.34" font-family="Times,serif" font-size="14.00">43</text>
</g>
<!-- 42&#45;&gt;43 -->
<g id="edge54" class="edge">
<title>42&#45;&gt;43</title>
<path fill="none" stroke="black" d="M1949.27,-346.33C1957.08,-338.62 1966.64,-328.5 1974,-318.52 1985.23,-303.29 1995.72,-284.97 2003.73,-269.69"/>
<polygon fill="black" stroke="black" points="2006.73,-271.52 2008.18,-261.02 2000.5,-268.32 2006.73,-271.52"/>
<text text-anchor="middle" x="1988.05" y="-305.22" font-family="Times,serif" font-size="14.00">=</text>
</g>
<!-- 44 -->
<g id="node46" class="node">
<title>44</title>
<ellipse fill="none" stroke="black" cx="1935" cy="-237.39" rx="20.13" ry="20.13"/>
<ellipse fill="none" stroke="black" cx="1935" cy="-237.39" rx="24.13" ry="24.13"/>
<text text-anchor="middle" x="1935" y="-232.34" font-family="Times,serif" font-size="14.00">44</text>
</g>
<!-- 42&#45;&gt;44 -->
<g id="edge55" class="edge">
<title>42&#45;&gt;44</title>
<path fill="none" stroke="black" d="M1935,-340.17C1935,-322.21 1935,-295.12 1935,-273.41"/>
<polygon fill="black" stroke="black" points="1938.5,-273.5 1935,-263.5 1931.5,-273.5 1938.5,-273.5"/>
<text text-anchor="middle" x="1952.62" y="-305.22" font-family="Times,serif" font-size="14.00">outro*</text>
</g>
</g>
</svg>
