<?xml version="1.0" encoding="UTF-8" standalone="no"?>
<!DOCTYPE svg PUBLIC "-//W3C//DTD SVG 1.1//EN"
 "http://www.w3.org/Graphics/SVG/1.1/DTD/svg11.dtd">
<!-- Generated by graphviz version 12.1.2 (0)
 -->
<!-- Pages: 1 -->
<svg width="2383pt" height="762pt"
 viewBox="0.00 0.00 2383.00 761.57" xmlns="http://www.w3.org/2000/svg" xmlns:xlink="http://www.w3.org/1999/xlink">
<g id="graph0" class="graph" transform="scale(1 1) rotate(0) translate(4 757.57)">
<polygon fill="white" stroke="none" points="-4,4 -4,-757.57 2379,-757.57 2379,4 -4,4"/>
<g id="clust1" class="cluster">
<title>cluster_start</title>
<polygon fill="none" stroke="black" points="1167,-576.31 1167,-743.44 1322,-743.44 1322,-576.31 1167,-576.31"/>
<text text-anchor="middle" x="1244.5" y="-726.14" font-family="Times,serif" font-size="14.00">INICIO</text>
</g>
<g id="clust2" class="cluster">
<title>cluster_id</title>
<polygon fill="#dd8855" stroke="#dd8855" points="2031,-209.52 2031,-535.68 2147,-535.68 2147,-209.52 2031,-209.52"/>
<text text-anchor="middle" x="2089" y="-518.38" font-family="Times,serif" font-size="14.00">ID</text>
</g>
<g id="clust3" class="cluster">
<title>cluster_intcon</title>
<polygon fill="#ffaaff" stroke="#ffaaff" points="2155,-331.92 2155,-535.68 2257,-535.68 2257,-331.92 2155,-331.92"/>
<text text-anchor="middle" x="2206" y="-518.38" font-family="Times,serif" font-size="14.00">INTCON</text>
</g>
<g id="clust4" class="cluster">
<title>cluster_realcon</title>
<polygon fill="#8888dd" stroke="#8888dd" points="2265,-110.89 2265,-412.42 2367,-412.42 2367,-110.89 2265,-110.89"/>
<text text-anchor="middle" x="2316" y="-395.12" font-family="Times,serif" font-size="14.00">REALCON</text>
</g>
<g id="clust5" class="cluster">
<title>cluster_charcon</title>
<polygon fill="#88dd88" stroke="#88dd88" points="88,-8 88,-535.68 289,-535.68 289,-8 88,-8"/>
<text text-anchor="middle" x="188.5" y="-518.38" font-family="Times,serif" font-size="14.00">CHARCON</text>
</g>
<g id="clust6" class="cluster">
<title>cluster_stringcon</title>
<polygon fill="#dd8888" stroke="#dd8888" points="297,-108.76 297,-537.81 418,-537.81 418,-108.76 297,-108.76"/>
<text text-anchor="middle" x="357.5" y="-520.51" font-family="Times,serif" font-size="14.00">STRINGCON</text>
</g>
<g id="clust7" class="cluster">
<title>cluster_comentario</title>
<polygon fill="#dddd88" stroke="#dddd88" points="897,-664.81 897,-745.57 1077,-745.57 1077,-664.81 897,-664.81"/>
<text text-anchor="middle" x="987" y="-728.27" font-family="Times,serif" font-size="14.00">COMENTARIO (IGNORAR)</text>
</g>
<g id="clust8" class="cluster">
<title>cluster_mais</title>
<polygon fill="lightgrey" stroke="black" points="426,-453.05 426,-541.81 490,-541.81 490,-453.05 426,-453.05"/>
<text text-anchor="middle" x="458" y="-524.51" font-family="Times,serif" font-size="14.00">MAIS</text>
</g>
<g id="clust9" class="cluster">
<title>cluster_menos</title>
<polygon fill="lightgrey" stroke="black" points="498,-453.05 498,-541.81 562,-541.81 562,-453.05 498,-453.05"/>
<text text-anchor="middle" x="530" y="-524.51" font-family="Times,serif" font-size="14.00">MENOS</text>
</g>
<g id="clust10" class="cluster">
<title>cluster_multiplicacao</title>
<polygon fill="lightgrey" stroke="black" points="570,-453.05 570,-541.81 696,-541.81 696,-453.05 570,-453.05"/>
<text text-anchor="middle" x="633" y="-524.51" font-family="Times,serif" font-size="14.00">MULTIPLICACAO</text>
</g>
<g id="clust11" class="cluster">
<title>cluster_divisao</title>
<polygon fill="lightgrey" stroke="black" points="8,-329.79 8,-418.55 79,-418.55 79,-329.79 8,-329.79"/>
<text text-anchor="middle" x="43.5" y="-401.25" font-family="Times,serif" font-size="14.00">DIVISAO</text>
</g>
<g id="clust12" class="cluster">
<title>cluster_abreparenteses</title>
<polygon fill="lightgrey" stroke="black" points="704,-453.05 704,-541.81 839,-541.81 839,-453.05 704,-453.05"/>
<text text-anchor="middle" x="771.5" y="-524.51" font-family="Times,serif" font-size="14.00">ABREPARENTESES</text>
</g>
<g id="clust13" class="cluster">
<title>cluster_fechaparenteses</title>
<polygon fill="lightgrey" stroke="black" points="847,-453.05 847,-541.81 990,-541.81 990,-453.05 847,-453.05"/>
<text text-anchor="middle" x="918.5" y="-524.51" font-family="Times,serif" font-size="14.00">FECHAPARENTESES</text>
</g>
<g id="clust14" class="cluster">
<title>cluster_abrecolchete</title>
<polygon fill="lightgrey" stroke="black" points="998,-453.05 998,-541.81 1120,-541.81 1120,-453.05 998,-453.05"/>
<text text-anchor="middle" x="1059" y="-524.51" font-family="Times,serif" font-size="14.00">ABRECOLCHETE</text>
</g>
<g id="clust15" class="cluster">
<title>cluster_fechacolchete</title>
<polygon fill="lightgrey" stroke="black" points="1128,-453.05 1128,-541.81 1258,-541.81 1258,-453.05 1128,-453.05"/>
<text text-anchor="middle" x="1193" y="-524.51" font-family="Times,serif" font-size="14.00">FECHACOLCHETE</text>
</g>
<g id="clust16" class="cluster">
<title>cluster_virgula</title>
<polygon fill="lightgrey" stroke="black" points="1266,-453.05 1266,-541.81 1342,-541.81 1342,-453.05 1266,-453.05"/>
<text text-anchor="middle" x="1304" y="-524.51" font-family="Times,serif" font-size="14.00">VIRGULA</text>
</g>
<g id="clust17" class="cluster">
<title>cluster_comparacao</title>
<polygon fill="lightgrey" stroke="black" points="1068,-329.79 1068,-418.55 1179,-418.55 1179,-329.79 1068,-329.79"/>
<text text-anchor="middle" x="1123.5" y="-401.25" font-family="Times,serif" font-size="14.00">COMPARACAO</text>
</g>
<g id="clust18" class="cluster">
<title>cluster_atribuicao</title>
<polygon fill="lightgrey" stroke="black" points="963,-329.79 963,-418.55 1060,-418.55 1060,-329.79 963,-329.79"/>
<text text-anchor="middle" x="1011.5" y="-401.25" font-family="Times,serif" font-size="14.00">ATRIBUICAO</text>
</g>
<g id="clust19" class="cluster">
<title>cluster_elogico</title>
<polygon fill="lightgrey" stroke="black" points="1294,-329.79 1294,-418.55 1369,-418.55 1369,-329.79 1294,-329.79"/>
<text text-anchor="middle" x="1331.5" y="-401.25" font-family="Times,serif" font-size="14.00">ELOGICO</text>
</g>
<g id="clust20" class="cluster">
<title>cluster_referencia</title>
<polygon fill="lightgrey" stroke="black" points="1187,-329.79 1187,-418.55 1286,-418.55 1286,-329.79 1187,-329.79"/>
<text text-anchor="middle" x="1236.5" y="-401.25" font-family="Times,serif" font-size="14.00">REFERENCIA</text>
</g>
<g id="clust21" class="cluster">
<title>cluster_oulogico</title>
<polygon fill="lightgrey" stroke="black" points="1377,-329.79 1377,-418.55 1463,-418.55 1463,-329.79 1377,-329.79"/>
<text text-anchor="middle" x="1420" y="-401.25" font-family="Times,serif" font-size="14.00">OULOGICO</text>
</g>
<g id="clust22" class="cluster">
<title>cluster_menorigual</title>
<polygon fill="lightgrey" stroke="black" points="1544,-329.79 1544,-418.55 1651,-418.55 1651,-329.79 1544,-329.79"/>
<text text-anchor="middle" x="1597.5" y="-401.25" font-family="Times,serif" font-size="14.00">MENORIGUAL</text>
</g>
<g id="clust23" class="cluster">
<title>cluster_menor</title>
<polygon fill="lightgrey" stroke="black" points="1471,-329.79 1471,-418.55 1536,-418.55 1536,-329.79 1471,-329.79"/>
<text text-anchor="middle" x="1503.5" y="-401.25" font-family="Times,serif" font-size="14.00">MENOR</text>
</g>
<g id="clust24" class="cluster">
<title>cluster_maiorigual</title>
<polygon fill="lightgrey" stroke="black" points="1731,-329.79 1731,-418.55 1834,-418.55 1834,-329.79 1731,-329.79"/>
<text text-anchor="middle" x="1782.5" y="-401.25" font-family="Times,serif" font-size="14.00">MAIORIGUAL</text>
</g>
<g id="clust25" class="cluster">
<title>cluster_maior</title>
<polygon fill="lightgrey" stroke="black" points="1659,-329.79 1659,-418.55 1723,-418.55 1723,-329.79 1659,-329.79"/>
<text text-anchor="middle" x="1691" y="-401.25" font-family="Times,serif" font-size="14.00">MAIOR</text>
</g>
<g id="clust26" class="cluster">
<title>cluster_diferenca</title>
<polygon fill="lightgrey" stroke="black" points="1932,-329.79 1932,-418.55 2023,-418.55 2023,-329.79 1932,-329.79"/>
<text text-anchor="middle" x="1977.5" y="-401.25" font-family="Times,serif" font-size="14.00">DIFERENCA</text>
</g>
<g id="clust27" class="cluster">
<title>cluster_negacao</title>
<polygon fill="lightgrey" stroke="black" points="1842,-329.79 1842,-418.55 1924,-418.55 1924,-329.79 1842,-329.79"/>
<text text-anchor="middle" x="1883" y="-401.25" font-family="Times,serif" font-size="14.00">NEGACAO</text>
</g>
<!-- Inicio -->
<g id="node1" class="node">
<title>Inicio</title>
</g>
<!-- 0 -->
<g id="node2" class="node">
<title>0</title>
<ellipse fill="none" stroke="black" cx="1193" cy="-602.31" rx="18" ry="18"/>
<text text-anchor="middle" x="1193" y="-597.26" font-family="Times,serif" font-size="14.00">0</text>
</g>
<!-- Inicio&#45;&gt;0 -->
<g id="edge1" class="edge">
<title>Inicio&#45;&gt;0</title>
<path fill="none" stroke="black" d="M1200.31,-675.27C1199.07,-663.05 1197.35,-646.15 1195.89,-631.81"/>
<polygon fill="black" stroke="black" points="1199.39,-631.61 1194.9,-622.02 1192.43,-632.32 1199.39,-631.61"/>
</g>
<!-- 0&#45;&gt;0 -->
<g id="edge2" class="edge">
<title>0&#45;&gt;0</title>
<path fill="none" stroke="black" d="M1209.66,-610.09C1219.62,-611.82 1229,-609.23 1229,-602.31 1229,-598.21 1225.69,-595.62 1220.92,-594.57"/>
<polygon fill="black" stroke="black" points="1221.19,-591.07 1211.18,-594.54 1221.17,-598.07 1221.19,-591.07"/>
<text text-anchor="middle" x="1271.38" y="-597.26" font-family="Times,serif" font-size="14.00">Tab, Espaco, \n</text>
</g>
<!-- 1 -->
<g id="node3" class="node">
<title>1</title>
<ellipse fill="none" stroke="black" cx="2057" cy="-485.18" rx="18" ry="18"/>
<text text-anchor="middle" x="2057" y="-480.13" font-family="Times,serif" font-size="14.00">1</text>
</g>
<!-- 0&#45;&gt;1 -->
<g id="edge3" class="edge">
<title>0&#45;&gt;1</title>
<path fill="none" stroke="black" d="M1211.17,-601.51C1324.59,-602.6 1932.85,-606.56 2004,-566.31 2024.53,-554.7 2038.56,-531.45 2047,-512.98"/>
<polygon fill="black" stroke="black" points="2050.16,-514.47 2050.84,-503.9 2043.72,-511.74 2050.16,-514.47"/>
<text text-anchor="middle" x="2046.66" y="-553.01" font-family="Times,serif" font-size="14.00">sublinha</text>
</g>
<!-- 2 -->
<g id="node4" class="node">
<title>2</title>
<ellipse fill="none" stroke="black" cx="2057" cy="-361.92" rx="18" ry="18"/>
<text text-anchor="middle" x="2057" y="-356.87" font-family="Times,serif" font-size="14.00">2</text>
</g>
<!-- 0&#45;&gt;2 -->
<g id="edge5" class="edge">
<title>0&#45;&gt;2</title>
<path fill="none" stroke="black" d="M1211.26,-601.58C1310.08,-602.76 1781.07,-604.96 1909,-541.81 1976.02,-508.72 2023.6,-429.71 2044.74,-388.66"/>
<polygon fill="black" stroke="black" points="2047.74,-390.49 2049.09,-379.98 2041.48,-387.35 2047.74,-390.49"/>
<text text-anchor="middle" x="2017" y="-480.13" font-family="Times,serif" font-size="14.00">letra</text>
</g>
<!-- 4 -->
<g id="node6" class="node">
<title>4</title>
<ellipse fill="none" stroke="black" cx="2181" cy="-485.18" rx="18" ry="18"/>
<text text-anchor="middle" x="2181" y="-480.13" font-family="Times,serif" font-size="14.00">4</text>
</g>
<!-- 0&#45;&gt;4 -->
<g id="edge8" class="edge">
<title>0&#45;&gt;4</title>
<path fill="none" stroke="black" d="M1211.22,-601.25C1321.41,-600.79 1899.68,-596.93 2074,-566.31 2109.37,-560.1 2123.35,-564.73 2151,-541.81 2160,-534.35 2166.7,-523.48 2171.46,-513.31"/>
<polygon fill="black" stroke="black" points="2174.66,-514.73 2175.29,-504.16 2168.2,-512.03 2174.66,-514.73"/>
<text text-anchor="middle" x="2155.85" y="-553.01" font-family="Times,serif" font-size="14.00">digito</text>
</g>
<!-- 9 -->
<g id="node11" class="node">
<title>9</title>
<ellipse fill="none" stroke="black" cx="214" cy="-485.18" rx="18" ry="18"/>
<text text-anchor="middle" x="214" y="-480.13" font-family="Times,serif" font-size="14.00">9</text>
</g>
<!-- 0&#45;&gt;9 -->
<g id="edge15" class="edge">
<title>0&#45;&gt;9</title>
<path fill="none" stroke="black" d="M1174.9,-600.06C1110.95,-595.63 889.62,-580.2 707,-566.31 615.42,-559.35 592.69,-555.24 501,-549.81 477.91,-548.44 314.91,-549.22 293,-541.81 271.15,-534.43 249.99,-518.93 235.08,-506.17"/>
<polygon fill="black" stroke="black" points="237.57,-503.7 227.78,-499.67 232.92,-508.93 237.57,-503.7"/>
<text text-anchor="middle" x="732.5" y="-553.01" font-family="Times,serif" font-size="14.00">apostrofo</text>
</g>
<!-- 16 -->
<g id="node18" class="node">
<title>16</title>
<ellipse fill="none" stroke="black" cx="390" cy="-485.18" rx="20.13" ry="20.13"/>
<text text-anchor="middle" x="390" y="-480.13" font-family="Times,serif" font-size="14.00">16</text>
</g>
<!-- 0&#45;&gt;16 -->
<g id="edge24" class="edge">
<title>0&#45;&gt;16</title>
<path fill="none" stroke="black" d="M1175.03,-599.56C1126.52,-594.79 988.88,-580.93 874.75,-566.31 824.52,-559.88 812.46,-554.08 762,-549.81 743.17,-548.22 438.24,-551.46 422,-541.81 411.98,-535.85 404.8,-525.47 399.82,-515.28"/>
<polygon fill="black" stroke="black" points="403.13,-514.13 395.99,-506.31 396.7,-516.88 403.13,-514.13"/>
<text text-anchor="middle" x="889.38" y="-553.01" font-family="Times,serif" font-size="14.00">aspas</text>
</g>
<!-- 20 -->
<g id="node22" class="node">
<title>20</title>
<ellipse fill="none" stroke="black" cx="60" cy="-485.18" rx="20.13" ry="20.13"/>
<text text-anchor="middle" x="60" y="-480.13" font-family="Times,serif" font-size="14.00">20</text>
</g>
<!-- 0&#45;&gt;20 -->
<g id="edge29" class="edge">
<title>0&#45;&gt;20</title>
<path fill="none" stroke="black" d="M1174.82,-600.53C1092.94,-597.01 750.28,-582.04 469.25,-566.31 297.95,-556.72 224.28,-640.59 84,-541.81 75.38,-535.74 69.83,-525.89 66.27,-516.15"/>
<polygon fill="black" stroke="black" points="69.7,-515.43 63.47,-506.87 63,-517.45 69.7,-515.43"/>
<text text-anchor="middle" x="483.12" y="-553.01" font-family="Times,serif" font-size="14.00">barra</text>
</g>
<!-- 22 -->
<g id="node24" class="node">
<title>22</title>
<ellipse fill="none" stroke="black" cx="458" cy="-485.18" rx="20.13" ry="20.13"/>
<ellipse fill="none" stroke="black" cx="458" cy="-485.18" rx="24.13" ry="24.13"/>
<text text-anchor="middle" x="458" y="-480.13" font-family="Times,serif" font-size="14.00">22</text>
</g>
<!-- 0&#45;&gt;22 -->
<g id="edge33" class="edge">
<title>0&#45;&gt;22</title>
<path fill="none" stroke="black" d="M1174.89,-598.89C1137.5,-593.78 1049.15,-581.14 975.75,-566.31 945.37,-560.18 938.73,-553.8 908,-549.81 885.19,-546.85 514.1,-553 494,-541.81 484.48,-536.51 477.07,-527.52 471.52,-518.29"/>
<polygon fill="black" stroke="black" points="474.72,-516.85 466.93,-509.68 468.55,-520.15 474.72,-516.85"/>
<text text-anchor="middle" x="979.88" y="-553.01" font-family="Times,serif" font-size="14.00">+</text>
</g>
<!-- 23 -->
<g id="node25" class="node">
<title>23</title>
<ellipse fill="none" stroke="black" cx="530" cy="-485.18" rx="20.13" ry="20.13"/>
<ellipse fill="none" stroke="black" cx="530" cy="-485.18" rx="24.13" ry="24.13"/>
<text text-anchor="middle" x="530" y="-480.13" font-family="Times,serif" font-size="14.00">23</text>
</g>
<!-- 0&#45;&gt;23 -->
<g id="edge34" class="edge">
<title>0&#45;&gt;23</title>
<path fill="none" stroke="black" d="M1175.13,-598.11C1145.45,-592.62 1084.25,-580.64 1033.5,-566.31 1011.99,-560.24 1008,-553.74 986,-549.81 963.03,-545.71 586.39,-553.16 566,-541.81 556.48,-536.51 549.07,-527.52 543.52,-518.29"/>
<polygon fill="black" stroke="black" points="546.72,-516.85 538.93,-509.68 540.55,-520.15 546.72,-516.85"/>
<text text-anchor="middle" x="1035.75" y="-553.01" font-family="Times,serif" font-size="14.00">&#45;</text>
</g>
<!-- 24 -->
<g id="node26" class="node">
<title>24</title>
<ellipse fill="none" stroke="black" cx="664" cy="-485.18" rx="20.13" ry="20.13"/>
<ellipse fill="none" stroke="black" cx="664" cy="-485.18" rx="24.13" ry="24.13"/>
<text text-anchor="middle" x="664" y="-480.13" font-family="Times,serif" font-size="14.00">24</text>
</g>
<!-- 0&#45;&gt;24 -->
<g id="edge35" class="edge">
<title>0&#45;&gt;24</title>
<path fill="none" stroke="black" d="M1175.36,-597.24C1151.4,-591.48 1107.42,-580.11 1071.25,-566.31 1055.46,-560.29 1053.43,-553.77 1037,-549.81 1018.79,-545.43 716.34,-550.96 700,-541.81 690.49,-536.49 683.09,-527.49 677.54,-518.26"/>
<polygon fill="black" stroke="black" points="680.74,-516.83 672.94,-509.65 674.56,-520.12 680.74,-516.83"/>
<text text-anchor="middle" x="1074.62" y="-553.01" font-family="Times,serif" font-size="14.00">*</text>
</g>
<!-- 26 -->
<g id="node28" class="node">
<title>26</title>
<ellipse fill="none" stroke="black" cx="807" cy="-485.18" rx="20.13" ry="20.13"/>
<ellipse fill="none" stroke="black" cx="807" cy="-485.18" rx="24.13" ry="24.13"/>
<text text-anchor="middle" x="807" y="-480.13" font-family="Times,serif" font-size="14.00">26</text>
</g>
<!-- 0&#45;&gt;26 -->
<g id="edge37" class="edge">
<title>0&#45;&gt;26</title>
<path fill="none" stroke="black" d="M1176.15,-594.82C1159.13,-588.13 1132.19,-577.17 1109.5,-566.31 1095.6,-559.66 1093.87,-553.85 1079,-549.81 1053.68,-542.94 865.83,-554.74 843,-541.81 833.52,-536.44 826.12,-527.43 820.57,-518.2"/>
<polygon fill="black" stroke="black" points="823.77,-516.77 815.97,-509.61 817.6,-520.07 823.77,-516.77"/>
<text text-anchor="middle" x="1111.75" y="-553.01" font-family="Times,serif" font-size="14.00">(</text>
</g>
<!-- 27 -->
<g id="node29" class="node">
<title>27</title>
<ellipse fill="none" stroke="black" cx="958" cy="-485.18" rx="20.13" ry="20.13"/>
<ellipse fill="none" stroke="black" cx="958" cy="-485.18" rx="24.13" ry="24.13"/>
<text text-anchor="middle" x="958" y="-480.13" font-family="Times,serif" font-size="14.00">27</text>
</g>
<!-- 0&#45;&gt;27 -->
<g id="edge38" class="edge">
<title>0&#45;&gt;27</title>
<path fill="none" stroke="black" d="M1178.07,-591.43C1155.93,-576.8 1116.59,-551 1113,-549.81 1087.84,-541.49 1016.84,-555.25 994,-541.81 984.61,-536.28 977.24,-527.23 971.68,-518.02"/>
<polygon fill="black" stroke="black" points="974.88,-516.59 967.06,-509.45 968.72,-519.91 974.88,-516.59"/>
<text text-anchor="middle" x="1141.11" y="-553.01" font-family="Times,serif" font-size="14.00">)</text>
</g>
<!-- 28 -->
<g id="node30" class="node">
<title>28</title>
<ellipse fill="none" stroke="black" cx="1088" cy="-485.18" rx="20.13" ry="20.13"/>
<ellipse fill="none" stroke="black" cx="1088" cy="-485.18" rx="24.13" ry="24.13"/>
<text text-anchor="middle" x="1088" y="-480.13" font-family="Times,serif" font-size="14.00">28</text>
</g>
<!-- 0&#45;&gt;28 -->
<g id="edge39" class="edge">
<title>0&#45;&gt;28</title>
<path fill="none" stroke="black" d="M1182,-587.65C1172.37,-576.37 1157.53,-560.53 1142,-549.81 1134.8,-544.84 1130.65,-547.5 1124,-541.81 1116.06,-535.02 1109.22,-526.05 1103.7,-517.29"/>
<polygon fill="black" stroke="black" points="1106.88,-515.8 1098.81,-508.94 1100.84,-519.34 1106.88,-515.8"/>
<text text-anchor="middle" x="1164.12" y="-553.01" font-family="Times,serif" font-size="14.00">[</text>
</g>
<!-- 29 -->
<g id="node31" class="node">
<title>29</title>
<ellipse fill="none" stroke="black" cx="1193" cy="-485.18" rx="20.13" ry="20.13"/>
<ellipse fill="none" stroke="black" cx="1193" cy="-485.18" rx="24.13" ry="24.13"/>
<text text-anchor="middle" x="1193" y="-480.13" font-family="Times,serif" font-size="14.00">29</text>
</g>
<!-- 0&#45;&gt;29 -->
<g id="edge40" class="edge">
<title>0&#45;&gt;29</title>
<path fill="none" stroke="black" d="M1193,-583.83C1193,-567.13 1193,-541.51 1193,-520.7"/>
<polygon fill="black" stroke="black" points="1196.5,-520.93 1193,-510.93 1189.5,-520.93 1196.5,-520.93"/>
<text text-anchor="middle" x="1195.25" y="-553.01" font-family="Times,serif" font-size="14.00">]</text>
</g>
<!-- 30 -->
<g id="node32" class="node">
<title>30</title>
<ellipse fill="none" stroke="black" cx="1298" cy="-485.18" rx="20.13" ry="20.13"/>
<ellipse fill="none" stroke="black" cx="1298" cy="-485.18" rx="24.13" ry="24.13"/>
<text text-anchor="middle" x="1298" y="-480.13" font-family="Times,serif" font-size="14.00">30</text>
</g>
<!-- 0&#45;&gt;30 -->
<g id="edge41" class="edge">
<title>0&#45;&gt;30</title>
<path fill="none" stroke="black" d="M1207.27,-590.95C1222.01,-579.83 1245.17,-561.13 1262,-541.81 1268.74,-534.08 1275.14,-524.99 1280.64,-516.42"/>
<polygon fill="black" stroke="black" points="1283.56,-518.36 1285.84,-508.01 1277.6,-514.68 1283.56,-518.36"/>
<text text-anchor="middle" x="1255.48" y="-553.01" font-family="Times,serif" font-size="14.00">,</text>
</g>
<!-- 31 -->
<g id="node34" class="node">
<title>31</title>
<ellipse fill="none" stroke="black" cx="1377" cy="-485.18" rx="27" ry="18"/>
<text text-anchor="middle" x="1377" y="-480.13" font-family="Times,serif" font-size="14.00">31</text>
</g>
<!-- 0&#45;&gt;31 -->
<g id="edge42" class="edge">
<title>0&#45;&gt;31</title>
<path fill="none" stroke="black" d="M1210.61,-598.49C1241.35,-592.76 1305.38,-577.19 1346,-541.81 1354.75,-534.18 1361.54,-523.45 1366.51,-513.45"/>
<polygon fill="black" stroke="black" points="1369.65,-514.99 1370.56,-504.44 1363.26,-512.12 1369.65,-514.99"/>
<text text-anchor="middle" x="1339.79" y="-553.01" font-family="Times,serif" font-size="14.00">=</text>
</g>
<!-- 34 -->
<g id="node36" class="node">
<title>34</title>
<ellipse fill="none" stroke="black" cx="1442" cy="-485.18" rx="20.13" ry="20.13"/>
<text text-anchor="middle" x="1442" y="-480.13" font-family="Times,serif" font-size="14.00">34</text>
</g>
<!-- 0&#45;&gt;34 -->
<g id="edge45" class="edge">
<title>0&#45;&gt;34</title>
<path fill="none" stroke="black" d="M1211.48,-601.55C1252.82,-601.09 1353.79,-594.31 1413,-541.81 1421.05,-534.67 1427.21,-524.76 1431.73,-515.27"/>
<polygon fill="black" stroke="black" points="1434.85,-516.88 1435.57,-506.31 1428.42,-514.12 1434.85,-516.88"/>
<text text-anchor="middle" x="1404.29" y="-553.01" font-family="Times,serif" font-size="14.00">&amp;</text>
</g>
<!-- 37 -->
<g id="node39" class="node">
<title>37</title>
<ellipse fill="none" stroke="black" cx="1500" cy="-485.18" rx="20.13" ry="20.13"/>
<text text-anchor="middle" x="1500" y="-480.13" font-family="Times,serif" font-size="14.00">37</text>
</g>
<!-- 0&#45;&gt;37 -->
<g id="edge48" class="edge">
<title>0&#45;&gt;37</title>
<path fill="none" stroke="black" d="M1211.09,-599.98C1249.24,-596.84 1340.49,-587.57 1414,-566.31 1440.49,-558.65 1450.79,-560.57 1471,-541.81 1478.89,-534.49 1485.01,-524.53 1489.55,-515.06"/>
<polygon fill="black" stroke="black" points="1492.65,-516.71 1493.41,-506.14 1486.23,-513.92 1492.65,-516.71"/>
<text text-anchor="middle" x="1462.4" y="-553.01" font-family="Times,serif" font-size="14.00">|</text>
</g>
<!-- 39 -->
<g id="node41" class="node">
<title>39</title>
<ellipse fill="none" stroke="black" cx="1558" cy="-485.18" rx="20.13" ry="20.13"/>
<text text-anchor="middle" x="1558" y="-480.13" font-family="Times,serif" font-size="14.00">39</text>
</g>
<!-- 0&#45;&gt;39 -->
<g id="edge50" class="edge">
<title>0&#45;&gt;39</title>
<path fill="none" stroke="black" d="M1211.32,-600.59C1255.93,-598.49 1373.44,-590.89 1468,-566.31 1496.28,-558.96 1507.35,-561.43 1529,-541.81 1536.98,-534.59 1543.12,-524.65 1547.65,-515.17"/>
<polygon fill="black" stroke="black" points="1550.76,-516.8 1551.5,-506.23 1544.33,-514.03 1550.76,-516.8"/>
<text text-anchor="middle" x="1522.3" y="-553.01" font-family="Times,serif" font-size="14.00">&lt;</text>
</g>
<!-- 42 -->
<g id="node44" class="node">
<title>42</title>
<ellipse fill="none" stroke="black" cx="1691" cy="-485.18" rx="20.13" ry="20.13"/>
<text text-anchor="middle" x="1691" y="-480.13" font-family="Times,serif" font-size="14.00">42</text>
</g>
<!-- 0&#45;&gt;42 -->
<g id="edge53" class="edge">
<title>0&#45;&gt;42</title>
<path fill="none" stroke="black" d="M1211.24,-601.34C1262.41,-601 1411.31,-597.21 1530,-566.31 1556.68,-559.36 1562.15,-553.77 1587,-541.81 1613.4,-529.11 1642.77,-513.23 1663.55,-501.69"/>
<polygon fill="black" stroke="black" points="1665.22,-504.76 1672.25,-496.83 1661.81,-498.65 1665.22,-504.76"/>
<text text-anchor="middle" x="1574.96" y="-553.01" font-family="Times,serif" font-size="14.00">&gt;</text>
</g>
<!-- 45 -->
<g id="node47" class="node">
<title>45</title>
<ellipse fill="none" stroke="black" cx="1880" cy="-485.18" rx="20.13" ry="20.13"/>
<text text-anchor="middle" x="1880" y="-480.13" font-family="Times,serif" font-size="14.00">45</text>
</g>
<!-- 0&#45;&gt;45 -->
<g id="edge56" class="edge">
<title>0&#45;&gt;45</title>
<path fill="none" stroke="black" d="M1211.08,-601.13C1279.06,-600.07 1525.36,-592.71 1720,-541.81 1766.63,-529.62 1819.12,-510.24 1850.87,-497.87"/>
<polygon fill="black" stroke="black" points="1852.14,-501.13 1860.17,-494.21 1849.58,-494.62 1852.14,-501.13"/>
<text text-anchor="middle" x="1680.52" y="-553.01" font-family="Times,serif" font-size="14.00">!</text>
</g>
<!-- 1&#45;&gt;1 -->
<g id="edge4" class="edge">
<title>1&#45;&gt;1</title>
<path fill="none" stroke="black" d="M2072.92,-493.88C2083.15,-496.15 2093,-493.25 2093,-485.18 2093,-480.26 2089.34,-477.27 2084.17,-476.19"/>
<polygon fill="black" stroke="black" points="2084.33,-472.68 2074.43,-476.44 2084.52,-479.68 2084.33,-472.68"/>
<text text-anchor="middle" x="2115.88" y="-480.13" font-family="Times,serif" font-size="14.00">sublinha</text>
</g>
<!-- 1&#45;&gt;2 -->
<g id="edge6" class="edge">
<title>1&#45;&gt;2</title>
<path fill="none" stroke="black" d="M2057,-466.81C2057,-447.18 2057,-414.92 2057,-391.56"/>
<polygon fill="black" stroke="black" points="2060.5,-391.77 2057,-381.77 2053.5,-391.77 2060.5,-391.77"/>
<text text-anchor="middle" x="2069" y="-429.75" font-family="Times,serif" font-size="14.00">letra</text>
</g>
<!-- 3 -->
<g id="node5" class="node">
<title>3</title>
<ellipse fill="none" stroke="black" cx="2061" cy="-239.52" rx="18" ry="18"/>
<ellipse fill="none" stroke="black" cx="2061" cy="-239.52" rx="22" ry="22"/>
<text text-anchor="middle" x="2061" y="-234.47" font-family="Times,serif" font-size="14.00">3</text>
</g>
<!-- 2&#45;&gt;3 -->
<g id="edge7" class="edge">
<title>2&#45;&gt;3</title>
<path fill="none" stroke="black" d="M2057.57,-343.67C2058.18,-325.37 2059.16,-296.03 2059.91,-273.31"/>
<polygon fill="black" stroke="black" points="2063.41,-273.42 2060.24,-263.31 2056.41,-273.19 2063.41,-273.42"/>
<text text-anchor="middle" x="2077.22" y="-294.61" font-family="Times,serif" font-size="14.00">outro*</text>
</g>
<!-- 4&#45;&gt;4 -->
<g id="edge9" class="edge">
<title>4&#45;&gt;4</title>
<path fill="none" stroke="black" d="M2196.92,-493.88C2207.15,-496.15 2217,-493.25 2217,-485.18 2217,-480.26 2213.34,-477.27 2208.17,-476.19"/>
<polygon fill="black" stroke="black" points="2208.33,-472.68 2198.43,-476.44 2208.52,-479.68 2208.33,-472.68"/>
<text text-anchor="middle" x="2232.75" y="-480.13" font-family="Times,serif" font-size="14.00">digito</text>
</g>
<!-- 5 -->
<g id="node7" class="node">
<title>5</title>
<ellipse fill="none" stroke="black" cx="2185" cy="-361.92" rx="18" ry="18"/>
<ellipse fill="none" stroke="black" cx="2185" cy="-361.92" rx="22" ry="22"/>
<text text-anchor="middle" x="2185" y="-356.87" font-family="Times,serif" font-size="14.00">5</text>
</g>
<!-- 4&#45;&gt;5 -->
<g id="edge10" class="edge">
<title>4&#45;&gt;5</title>
<path fill="none" stroke="black" d="M2181.57,-466.81C2182.18,-448.29 2183.16,-418.55 2183.92,-395.62"/>
<polygon fill="black" stroke="black" points="2187.41,-395.97 2184.24,-385.86 2180.42,-395.74 2187.41,-395.97"/>
<text text-anchor="middle" x="2200.51" y="-429.75" font-family="Times,serif" font-size="14.00">outro*</text>
</g>
<!-- 6 -->
<g id="node8" class="node">
<title>6</title>
<ellipse fill="none" stroke="black" cx="2291" cy="-361.92" rx="18" ry="18"/>
<text text-anchor="middle" x="2291" y="-356.87" font-family="Times,serif" font-size="14.00">6</text>
</g>
<!-- 4&#45;&gt;6 -->
<g id="edge11" class="edge">
<title>4&#45;&gt;6</title>
<path fill="none" stroke="black" d="M2196.06,-474.5C2213.35,-462.83 2241.81,-441.84 2261,-418.55 2268.2,-409.81 2274.47,-399.08 2279.39,-389.38"/>
<polygon fill="black" stroke="black" points="2282.53,-390.93 2283.69,-380.4 2276.21,-387.91 2282.53,-390.93"/>
<text text-anchor="middle" x="2268.98" y="-429.75" font-family="Times,serif" font-size="14.00">ponto</text>
</g>
<!-- 7 -->
<g id="node9" class="node">
<title>7</title>
<ellipse fill="none" stroke="black" cx="2291" cy="-239.52" rx="18" ry="18"/>
<text text-anchor="middle" x="2291" y="-234.47" font-family="Times,serif" font-size="14.00">7</text>
</g>
<!-- 6&#45;&gt;7 -->
<g id="edge12" class="edge">
<title>6&#45;&gt;7</title>
<path fill="none" stroke="black" d="M2291,-343.67C2291,-324.18 2291,-292.16 2291,-268.96"/>
<polygon fill="black" stroke="black" points="2294.5,-269.26 2291,-259.26 2287.5,-269.26 2294.5,-269.26"/>
<text text-anchor="middle" x="2306.75" y="-294.61" font-family="Times,serif" font-size="14.00">digito</text>
</g>
<!-- 7&#45;&gt;7 -->
<g id="edge13" class="edge">
<title>7&#45;&gt;7</title>
<path fill="none" stroke="black" d="M2307.29,-247.93C2317.39,-249.96 2327,-247.16 2327,-239.52 2327,-234.99 2323.61,-232.16 2318.74,-231.04"/>
<polygon fill="black" stroke="black" points="2318.78,-227.54 2308.8,-231.11 2318.83,-234.54 2318.78,-227.54"/>
<text text-anchor="middle" x="2342.75" y="-234.47" font-family="Times,serif" font-size="14.00">digito</text>
</g>
<!-- 8 -->
<g id="node10" class="node">
<title>8</title>
<ellipse fill="none" stroke="black" cx="2295" cy="-140.89" rx="18" ry="18"/>
<ellipse fill="none" stroke="black" cx="2295" cy="-140.89" rx="22" ry="22"/>
<text text-anchor="middle" x="2295" y="-135.84" font-family="Times,serif" font-size="14.00">8</text>
</g>
<!-- 7&#45;&gt;8 -->
<g id="edge14" class="edge">
<title>7&#45;&gt;8</title>
<path fill="none" stroke="black" d="M2291.72,-221.25C2292.25,-208.27 2293,-190.11 2293.65,-174.44"/>
<polygon fill="black" stroke="black" points="2297.14,-174.71 2294.06,-164.58 2290.15,-174.42 2297.14,-174.71"/>
<text text-anchor="middle" x="2310.86" y="-186.22" font-family="Times,serif" font-size="14.00">outro*</text>
</g>
<!-- 10 -->
<g id="node12" class="node">
<title>10</title>
<ellipse fill="none" stroke="black" cx="145" cy="-299.66" rx="20.13" ry="20.13"/>
<text text-anchor="middle" x="145" y="-294.61" font-family="Times,serif" font-size="14.00">10</text>
</g>
<!-- 9&#45;&gt;10 -->
<g id="edge16" class="edge">
<title>9&#45;&gt;10</title>
<path fill="none" stroke="black" d="M206.57,-468.43C200.46,-455.24 191.74,-435.84 185,-418.55 173.4,-388.78 161.86,-354.09 154.18,-330.08"/>
<polygon fill="black" stroke="black" points="157.55,-329.13 151.19,-320.66 150.88,-331.25 157.55,-329.13"/>
<text text-anchor="middle" x="201.07" y="-429.75" font-family="Times,serif" font-size="14.00">ch</text>
</g>
<!-- 11 -->
<g id="node13" class="node">
<title>11</title>
<ellipse fill="none" stroke="black" cx="214" cy="-361.92" rx="20.13" ry="20.13"/>
<text text-anchor="middle" x="214" y="-356.87" font-family="Times,serif" font-size="14.00">11</text>
</g>
<!-- 9&#45;&gt;11 -->
<g id="edge17" class="edge">
<title>9&#45;&gt;11</title>
<path fill="none" stroke="black" d="M214,-466.81C214,-447.73 214,-416.75 214,-393.57"/>
<polygon fill="black" stroke="black" points="217.5,-393.78 214,-383.78 210.5,-393.78 217.5,-393.78"/>
<text text-anchor="middle" x="244.75" y="-429.75" font-family="Times,serif" font-size="14.00">contrabarra</text>
</g>
<!-- 15 -->
<g id="node17" class="node">
<title>15</title>
<ellipse fill="none" stroke="black" cx="156" cy="-140.89" rx="20.13" ry="20.13"/>
<text text-anchor="middle" x="156" y="-135.84" font-family="Times,serif" font-size="14.00">15</text>
</g>
<!-- 10&#45;&gt;15 -->
<g id="edge18" class="edge">
<title>10&#45;&gt;15</title>
<path fill="none" stroke="black" d="M133.12,-282.88C129.08,-276.58 125.06,-269.04 123,-261.52 116.89,-239.23 117.8,-232.04 123,-209.52 126.32,-195.15 133.13,-180.3 139.71,-168.19"/>
<polygon fill="black" stroke="black" points="142.67,-170.06 144.58,-159.64 136.59,-166.59 142.67,-170.06"/>
<text text-anchor="middle" x="148.5" y="-234.47" font-family="Times,serif" font-size="14.00">apostrofo</text>
</g>
<!-- 13 -->
<g id="node15" class="node">
<title>13</title>
<ellipse fill="none" stroke="black" cx="203" cy="-239.52" rx="20.13" ry="20.13"/>
<text text-anchor="middle" x="203" y="-234.47" font-family="Times,serif" font-size="14.00">13</text>
</g>
<!-- 11&#45;&gt;13 -->
<g id="edge21" class="edge">
<title>11&#45;&gt;13</title>
<path fill="none" stroke="black" d="M212.23,-341.57C210.49,-322.53 207.81,-293.16 205.78,-270.98"/>
<polygon fill="black" stroke="black" points="209.3,-270.97 204.9,-261.33 202.33,-271.6 209.3,-270.97"/>
<text text-anchor="middle" x="213.5" y="-294.61" font-family="Times,serif" font-size="14.00">0</text>
</g>
<!-- 14 -->
<g id="node16" class="node">
<title>14</title>
<ellipse fill="none" stroke="black" cx="261" cy="-239.52" rx="20.13" ry="20.13"/>
<text text-anchor="middle" x="261" y="-234.47" font-family="Times,serif" font-size="14.00">14</text>
</g>
<!-- 11&#45;&gt;14 -->
<g id="edge20" class="edge">
<title>11&#45;&gt;14</title>
<path fill="none" stroke="black" d="M221.14,-342.63C228.77,-323.07 240.99,-291.79 249.88,-269"/>
<polygon fill="black" stroke="black" points="253.02,-270.59 253.4,-260 246.5,-268.04 253.02,-270.59"/>
<text text-anchor="middle" x="247.83" y="-294.61" font-family="Times,serif" font-size="14.00">n</text>
</g>
<!-- 12 -->
<g id="node14" class="node">
<title>12</title>
<ellipse fill="none" stroke="black" cx="156" cy="-40.13" rx="20.13" ry="20.13"/>
<ellipse fill="none" stroke="black" cx="156" cy="-40.13" rx="24.13" ry="24.13"/>
<text text-anchor="middle" x="156" y="-35.08" font-family="Times,serif" font-size="14.00">12</text>
</g>
<!-- 13&#45;&gt;15 -->
<g id="edge23" class="edge">
<title>13&#45;&gt;15</title>
<path fill="none" stroke="black" d="M188.14,-225.78C182.2,-220.71 175.29,-214.83 169,-209.52 163.69,-205.05 160,-205.79 157,-199.52 153.03,-191.24 151.78,-181.49 151.81,-172.39"/>
<polygon fill="black" stroke="black" points="155.3,-172.67 152.37,-162.48 148.31,-172.27 155.3,-172.67"/>
<text text-anchor="middle" x="182.5" y="-186.22" font-family="Times,serif" font-size="14.00">apostrofo</text>
</g>
<!-- 14&#45;&gt;15 -->
<g id="edge22" class="edge">
<title>14&#45;&gt;15</title>
<path fill="none" stroke="black" d="M248.02,-223.85C237.6,-212.33 222.38,-196.12 208,-183.02 199.5,-175.28 189.72,-167.32 180.95,-160.49"/>
<polygon fill="black" stroke="black" points="183.21,-157.81 173.14,-154.5 178.95,-163.37 183.21,-157.81"/>
<text text-anchor="middle" x="250.19" y="-186.22" font-family="Times,serif" font-size="14.00">apostrofo</text>
</g>
<!-- 15&#45;&gt;12 -->
<g id="edge19" class="edge">
<title>15&#45;&gt;12</title>
<path fill="none" stroke="black" d="M156,-120.38C156,-107.69 156,-90.8 156,-75.86"/>
<polygon fill="black" stroke="black" points="159.5,-75.94 156,-65.94 152.5,-75.94 159.5,-75.94"/>
<text text-anchor="middle" x="173.62" y="-85.46" font-family="Times,serif" font-size="14.00">outro*</text>
</g>
<!-- 17 -->
<g id="node19" class="node">
<title>17</title>
<ellipse fill="none" stroke="black" cx="346" cy="-239.52" rx="20.13" ry="20.13"/>
<text text-anchor="middle" x="346" y="-234.47" font-family="Times,serif" font-size="14.00">17</text>
</g>
<!-- 16&#45;&gt;17 -->
<g id="edge25" class="edge">
<title>16&#45;&gt;17</title>
<path fill="none" stroke="black" d="M374.14,-472.13C359.97,-460.28 340.19,-440.77 331.75,-418.55 312.88,-368.85 325.67,-305.88 336.19,-269.69"/>
<polygon fill="black" stroke="black" points="339.46,-270.97 339.03,-260.39 332.76,-268.93 339.46,-270.97"/>
<text text-anchor="middle" x="346.38" y="-356.87" font-family="Times,serif" font-size="14.00">aspas</text>
</g>
<!-- 19 -->
<g id="node21" class="node">
<title>19</title>
<ellipse fill="none" stroke="black" cx="390" cy="-361.92" rx="20.13" ry="20.13"/>
<text text-anchor="middle" x="390" y="-356.87" font-family="Times,serif" font-size="14.00">19</text>
</g>
<!-- 16&#45;&gt;19 -->
<g id="edge26" class="edge">
<title>16&#45;&gt;19</title>
<path fill="none" stroke="black" d="M390,-464.7C390,-445.52 390,-415.93 390,-393.59"/>
<polygon fill="black" stroke="black" points="393.5,-393.87 390,-383.87 386.5,-393.87 393.5,-393.87"/>
<text text-anchor="middle" x="396.38" y="-429.75" font-family="Times,serif" font-size="14.00">ch</text>
</g>
<!-- 18 -->
<g id="node20" class="node">
<title>18</title>
<ellipse fill="none" stroke="black" cx="346" cy="-140.89" rx="20.13" ry="20.13"/>
<ellipse fill="none" stroke="black" cx="346" cy="-140.89" rx="24.13" ry="24.13"/>
<text text-anchor="middle" x="346" y="-135.84" font-family="Times,serif" font-size="14.00">18</text>
</g>
<!-- 17&#45;&gt;18 -->
<g id="edge27" class="edge">
<title>17&#45;&gt;18</title>
<path fill="none" stroke="black" d="M346,-218.97C346,-206.91 346,-191.08 346,-176.91"/>
<polygon fill="black" stroke="black" points="349.5,-177.03 346,-167.03 342.5,-177.03 349.5,-177.03"/>
<text text-anchor="middle" x="363.62" y="-186.22" font-family="Times,serif" font-size="14.00">outro*</text>
</g>
<!-- 19&#45;&gt;17 -->
<g id="edge28" class="edge">
<title>19&#45;&gt;17</title>
<path fill="none" stroke="black" d="M383.32,-342.63C376.24,-323.27 364.97,-292.44 356.67,-269.71"/>
<polygon fill="black" stroke="black" points="359.99,-268.59 353.27,-260.4 353.41,-271 359.99,-268.59"/>
<text text-anchor="middle" x="389.14" y="-294.61" font-family="Times,serif" font-size="14.00">aspas</text>
</g>
<!-- 21 -->
<g id="node23" class="node">
<title>21</title>
<ellipse fill="none" stroke="black" cx="960" cy="-692.94" rx="20.13" ry="20.13"/>
<text text-anchor="middle" x="960" y="-687.89" font-family="Times,serif" font-size="14.00">21</text>
</g>
<!-- 20&#45;&gt;21 -->
<g id="edge30" class="edge">
<title>20&#45;&gt;21</title>
<path fill="none" stroke="black" d="M63.17,-505.22C67.4,-524.07 76.83,-552.1 97,-566.31 235.17,-663.65 788.73,-686.76 928.05,-691.08"/>
<polygon fill="black" stroke="black" points="927.89,-694.58 937.99,-691.38 928.1,-687.58 927.89,-694.58"/>
<text text-anchor="middle" x="250.68" y="-597.26" font-family="Times,serif" font-size="14.00">barra</text>
</g>
<!-- 25 -->
<g id="node27" class="node">
<title>25</title>
<ellipse fill="none" stroke="black" cx="45" cy="-361.92" rx="20.13" ry="20.13"/>
<ellipse fill="none" stroke="black" cx="45" cy="-361.92" rx="24.13" ry="24.13"/>
<text text-anchor="middle" x="45" y="-356.87" font-family="Times,serif" font-size="14.00">25</text>
</g>
<!-- 20&#45;&gt;25 -->
<g id="edge36" class="edge">
<title>20&#45;&gt;25</title>
<path fill="none" stroke="black" d="M53.97,-465.53C51.96,-458.55 49.93,-450.51 48.75,-443.05 46.4,-428.22 45.37,-411.67 44.96,-397.48"/>
<polygon fill="black" stroke="black" points="48.46,-397.64 44.77,-387.71 41.46,-397.78 48.46,-397.64"/>
<text text-anchor="middle" x="66.38" y="-429.75" font-family="Times,serif" font-size="14.00">outro*</text>
</g>
<!-- 21&#45;&gt;0 -->
<g id="edge32" class="edge">
<title>21&#45;&gt;0</title>
<path fill="none" stroke="black" d="M978.67,-684.84C1019.66,-669.25 1117.67,-631.97 1165.63,-613.72"/>
<polygon fill="black" stroke="black" points="1166.63,-617.09 1174.73,-610.26 1164.14,-610.55 1166.63,-617.09"/>
<text text-anchor="middle" x="1102.62" y="-641.51" font-family="Times,serif" font-size="14.00">\n</text>
</g>
<!-- 21&#45;&gt;21 -->
<g id="edge31" class="edge">
<title>21&#45;&gt;21</title>
<path fill="none" stroke="black" d="M978.83,-701.28C988.93,-702.7 998.13,-699.92 998.13,-692.94 998.13,-688.8 994.89,-686.14 990.14,-684.96"/>
<polygon fill="black" stroke="black" points="990.45,-681.46 980.35,-684.65 990.23,-688.46 990.45,-681.46"/>
<text text-anchor="middle" x="1015.76" y="-687.89" font-family="Times,serif" font-size="14.00">outro*</text>
</g>
<!-- 32 -->
<g id="node33" class="node">
<title>32</title>
<ellipse fill="none" stroke="black" cx="1147" cy="-361.92" rx="20.13" ry="20.13"/>
<ellipse fill="none" stroke="black" cx="1147" cy="-361.92" rx="24.13" ry="24.13"/>
<text text-anchor="middle" x="1147" y="-356.87" font-family="Times,serif" font-size="14.00">32</text>
</g>
<!-- 31&#45;&gt;32 -->
<g id="edge43" class="edge">
<title>31&#45;&gt;32</title>
<path fill="none" stroke="black" d="M1365.23,-468.8C1359.97,-462.98 1353.31,-456.84 1346,-453.05 1322.69,-440.95 1313.49,-448.26 1287.75,-443.05 1240.89,-433.56 1222.1,-446.06 1183,-418.55 1174.32,-412.44 1167.22,-403.51 1161.69,-394.58"/>
<polygon fill="black" stroke="black" points="1164.8,-392.98 1156.85,-385.97 1158.7,-396.41 1164.8,-392.98"/>
<text text-anchor="middle" x="1291.88" y="-429.75" font-family="Times,serif" font-size="14.00">=</text>
</g>
<!-- 33 -->
<g id="node35" class="node">
<title>33</title>
<ellipse fill="none" stroke="black" cx="1028" cy="-361.92" rx="20.13" ry="20.13"/>
<ellipse fill="none" stroke="black" cx="1028" cy="-361.92" rx="24.13" ry="24.13"/>
<text text-anchor="middle" x="1028" y="-356.87" font-family="Times,serif" font-size="14.00">33</text>
</g>
<!-- 31&#45;&gt;33 -->
<g id="edge44" class="edge">
<title>31&#45;&gt;33</title>
<path fill="none" stroke="black" d="M1365.73,-468.69C1360.46,-462.7 1353.66,-456.47 1346,-453.05 1307.55,-435.87 1198.36,-449.57 1156.75,-443.05 1114.63,-436.44 1098.52,-443.58 1064,-418.55 1055.41,-412.32 1048.33,-403.35 1042.79,-394.43"/>
<polygon fill="black" stroke="black" points="1045.91,-392.83 1037.95,-385.84 1039.82,-396.27 1045.91,-392.83"/>
<text text-anchor="middle" x="1174.38" y="-429.75" font-family="Times,serif" font-size="14.00">outro*</text>
</g>
<!-- 35 -->
<g id="node37" class="node">
<title>35</title>
<ellipse fill="none" stroke="black" cx="1337" cy="-361.92" rx="20.13" ry="20.13"/>
<ellipse fill="none" stroke="black" cx="1337" cy="-361.92" rx="24.13" ry="24.13"/>
<text text-anchor="middle" x="1337" y="-356.87" font-family="Times,serif" font-size="14.00">35</text>
</g>
<!-- 34&#45;&gt;35 -->
<g id="edge46" class="edge">
<title>34&#45;&gt;35</title>
<path fill="none" stroke="black" d="M1429.04,-469.61C1424.13,-464.28 1418.43,-458.27 1413,-453.05 1396.08,-436.77 1388.42,-436.25 1373,-418.55 1366.26,-410.82 1359.86,-401.73 1354.36,-393.16"/>
<polygon fill="black" stroke="black" points="1357.4,-391.41 1349.16,-384.75 1351.44,-395.09 1357.4,-391.41"/>
<text text-anchor="middle" x="1407.01" y="-429.75" font-family="Times,serif" font-size="14.00">&amp;</text>
</g>
<!-- 36 -->
<g id="node38" class="node">
<title>36</title>
<ellipse fill="none" stroke="black" cx="1254" cy="-361.92" rx="20.13" ry="20.13"/>
<ellipse fill="none" stroke="black" cx="1254" cy="-361.92" rx="24.13" ry="24.13"/>
<text text-anchor="middle" x="1254" y="-356.87" font-family="Times,serif" font-size="14.00">36</text>
</g>
<!-- 34&#45;&gt;36 -->
<g id="edge47" class="edge">
<title>34&#45;&gt;36</title>
<path fill="none" stroke="black" d="M1430.68,-468.04C1425.88,-462.4 1419.81,-456.6 1413,-453.05 1384.64,-438.28 1372.38,-452.22 1341.75,-443.05 1317.37,-435.75 1309.14,-435.32 1290,-418.55 1282.14,-411.67 1275.33,-402.66 1269.81,-393.91"/>
<polygon fill="black" stroke="black" points="1272.99,-392.42 1264.9,-385.57 1266.95,-395.97 1272.99,-392.42"/>
<text text-anchor="middle" x="1359.38" y="-429.75" font-family="Times,serif" font-size="14.00">outro*</text>
</g>
<!-- 38 -->
<g id="node40" class="node">
<title>38</title>
<ellipse fill="none" stroke="black" cx="1431" cy="-361.92" rx="20.13" ry="20.13"/>
<ellipse fill="none" stroke="black" cx="1431" cy="-361.92" rx="24.13" ry="24.13"/>
<text text-anchor="middle" x="1431" y="-356.87" font-family="Times,serif" font-size="14.00">38</text>
</g>
<!-- 37&#45;&gt;38 -->
<g id="edge49" class="edge">
<title>37&#45;&gt;38</title>
<path fill="none" stroke="black" d="M1490.26,-467.06C1479.32,-447.84 1461.37,-416.29 1448.08,-392.94"/>
<polygon fill="black" stroke="black" points="1451.27,-391.46 1443.28,-384.5 1445.18,-394.92 1451.27,-391.46"/>
<text text-anchor="middle" x="1477.21" y="-429.75" font-family="Times,serif" font-size="14.00">|</text>
</g>
<!-- 40 -->
<g id="node42" class="node">
<title>40</title>
<ellipse fill="none" stroke="black" cx="1576" cy="-361.92" rx="20.13" ry="20.13"/>
<ellipse fill="none" stroke="black" cx="1576" cy="-361.92" rx="24.13" ry="24.13"/>
<text text-anchor="middle" x="1576" y="-356.87" font-family="Times,serif" font-size="14.00">40</text>
</g>
<!-- 39&#45;&gt;40 -->
<g id="edge51" class="edge">
<title>39&#45;&gt;40</title>
<path fill="none" stroke="black" d="M1560.85,-464.97C1563.54,-446.85 1567.63,-419.29 1570.89,-397.37"/>
<polygon fill="black" stroke="black" points="1574.32,-398.09 1572.32,-387.69 1567.39,-397.07 1574.32,-398.09"/>
<text text-anchor="middle" x="1570.59" y="-429.75" font-family="Times,serif" font-size="14.00">=</text>
</g>
<!-- 41 -->
<g id="node43" class="node">
<title>41</title>
<ellipse fill="none" stroke="black" cx="1504" cy="-361.92" rx="20.13" ry="20.13"/>
<ellipse fill="none" stroke="black" cx="1504" cy="-361.92" rx="24.13" ry="24.13"/>
<text text-anchor="middle" x="1504" y="-356.87" font-family="Times,serif" font-size="14.00">41</text>
</g>
<!-- 39&#45;&gt;41 -->
<g id="edge52" class="edge">
<title>39&#45;&gt;41</title>
<path fill="none" stroke="black" d="M1544.02,-470.02C1537.32,-462.54 1529.71,-452.89 1524.75,-443.05 1517.61,-428.87 1512.77,-412.01 1509.57,-397.42"/>
<polygon fill="black" stroke="black" points="1513.04,-396.9 1507.64,-387.78 1506.17,-398.27 1513.04,-396.9"/>
<text text-anchor="middle" x="1542.38" y="-429.75" font-family="Times,serif" font-size="14.00">outro*</text>
</g>
<!-- 43 -->
<g id="node45" class="node">
<title>43</title>
<ellipse fill="none" stroke="black" cx="1763" cy="-361.92" rx="20.13" ry="20.13"/>
<ellipse fill="none" stroke="black" cx="1763" cy="-361.92" rx="24.13" ry="24.13"/>
<text text-anchor="middle" x="1763" y="-356.87" font-family="Times,serif" font-size="14.00">43</text>
</g>
<!-- 42&#45;&gt;43 -->
<g id="edge54" class="edge">
<title>42&#45;&gt;43</title>
<path fill="none" stroke="black" d="M1705.74,-471.18C1713.71,-463.58 1723.26,-453.46 1730,-443.05 1739.32,-428.66 1746.88,-411.2 1752.4,-396.26"/>
<polygon fill="black" stroke="black" points="1755.7,-397.44 1755.72,-386.85 1749.1,-395.11 1755.7,-397.44"/>
<text text-anchor="middle" x="1743.48" y="-429.75" font-family="Times,serif" font-size="14.00">=</text>
</g>
<!-- 44 -->
<g id="node46" class="node">
<title>44</title>
<ellipse fill="none" stroke="black" cx="1691" cy="-361.92" rx="20.13" ry="20.13"/>
<ellipse fill="none" stroke="black" cx="1691" cy="-361.92" rx="24.13" ry="24.13"/>
<text text-anchor="middle" x="1691" y="-356.87" font-family="Times,serif" font-size="14.00">44</text>
</g>
<!-- 42&#45;&gt;44 -->
<g id="edge55" class="edge">
<title>42&#45;&gt;44</title>
<path fill="none" stroke="black" d="M1691,-464.7C1691,-446.73 1691,-419.65 1691,-397.93"/>
<polygon fill="black" stroke="black" points="1694.5,-398.03 1691,-388.03 1687.5,-398.03 1694.5,-398.03"/>
<text text-anchor="middle" x="1708.62" y="-429.75" font-family="Times,serif" font-size="14.00">outro*</text>
</g>
<!-- 46 -->
<g id="node48" class="node">
<title>46</title>
<ellipse fill="none" stroke="black" cx="1964" cy="-361.92" rx="20.13" ry="20.13"/>
<ellipse fill="none" stroke="black" cx="1964" cy="-361.92" rx="24.13" ry="24.13"/>
<text text-anchor="middle" x="1964" y="-356.87" font-family="Times,serif" font-size="14.00">46</text>
</g>
<!-- 45&#45;&gt;46 -->
<g id="edge57" class="edge">
<title>45&#45;&gt;46</title>
<path fill="none" stroke="black" d="M1894.27,-470.85C1902.08,-463.15 1911.64,-453.03 1919,-443.05 1930.23,-427.81 1940.72,-409.49 1948.73,-394.22"/>
<polygon fill="black" stroke="black" points="1951.73,-396.04 1953.18,-385.55 1945.5,-392.85 1951.73,-396.04"/>
<text text-anchor="middle" x="1933.05" y="-429.75" font-family="Times,serif" font-size="14.00">=</text>
</g>
<!-- 47 -->
<g id="node49" class="node">
<title>47</title>
<ellipse fill="none" stroke="black" cx="1880" cy="-361.92" rx="20.13" ry="20.13"/>
<ellipse fill="none" stroke="black" cx="1880" cy="-361.92" rx="24.13" ry="24.13"/>
<text text-anchor="middle" x="1880" y="-356.87" font-family="Times,serif" font-size="14.00">47</text>
</g>
<!-- 45&#45;&gt;47 -->
<g id="edge58" class="edge">
<title>45&#45;&gt;47</title>
<path fill="none" stroke="black" d="M1880,-464.7C1880,-446.73 1880,-419.65 1880,-397.93"/>
<polygon fill="black" stroke="black" points="1883.5,-398.03 1880,-388.03 1876.5,-398.03 1883.5,-398.03"/>
<text text-anchor="middle" x="1897.62" y="-429.75" font-family="Times,serif" font-size="14.00">outro*</text>
</g>
</g>
</svg>
