<?xml version="1.0" encoding="UTF-8" standalone="no"?>
<!DOCTYPE svg PUBLIC "-//W3C//DTD SVG 1.1//EN"
 "http://www.w3.org/Graphics/SVG/1.1/DTD/svg11.dtd">
<!-- Generated by graphviz version 12.1.2 (0)
 -->
<!-- Pages: 1 -->
<svg width="858pt" height="732pt"
 viewBox="0.00 0.00 858.00 731.94" xmlns="http://www.w3.org/2000/svg" xmlns:xlink="http://www.w3.org/1999/xlink">
<g id="graph0" class="graph" transform="scale(1 1) rotate(0) translate(4 727.94)">
<polygon fill="white" stroke="none" points="-4,4 -4,-727.94 854,-727.94 854,4 -4,4"/>
<g id="clust1" class="cluster">
<title>cluster_start</title>
<polygon fill="none" stroke="black" points="281,-566.44 281,-715.94 351,-715.94 351,-566.44 281,-566.44"/>
<text text-anchor="middle" x="316" y="-698.64" font-family="Times,serif" font-size="14.00">INICIO</text>
</g>
<g id="clust2" class="cluster">
<title>cluster_id</title>
<polygon fill="lightgrey" stroke="black" points="228,-211.66 228,-529.81 344,-529.81 344,-211.66 228,-211.66"/>
<text text-anchor="middle" x="286" y="-512.51" font-family="Times,serif" font-size="14.00">ID</text>
</g>
<g id="clust3" class="cluster">
<title>cluster_intcon</title>
<polygon fill="#ffaaff" stroke="#ffaaff" points="8,-334.05 8,-529.81 110,-529.81 110,-334.05 8,-334.05"/>
<text text-anchor="middle" x="59" y="-512.51" font-family="Times,serif" font-size="14.00">INTCON</text>
</g>
<g id="clust4" class="cluster">
<title>cluster_realcon</title>
<polygon fill="#8888dd" stroke="#8888dd" points="118,-110.89 118,-414.55 220,-414.55 220,-110.89 118,-110.89"/>
<text text-anchor="middle" x="169" y="-397.25" font-family="Times,serif" font-size="14.00">REALCON</text>
</g>
<g id="clust5" class="cluster">
<title>cluster_charcon</title>
<polygon fill="#88dd88" stroke="#88dd88" points="352,-8 352,-529.81 596,-529.81 596,-8 352,-8"/>
<text text-anchor="middle" x="474" y="-512.51" font-family="Times,serif" font-size="14.00">CHARCON</text>
</g>
<g id="clust6" class="cluster">
<title>cluster_stringcon</title>
<polygon fill="#dd8888" stroke="#dd8888" points="604,-108.76 604,-531.94 725,-531.94 725,-108.76 604,-108.76"/>
<text text-anchor="middle" x="664.5" y="-514.64" font-family="Times,serif" font-size="14.00">STRINGCON</text>
</g>
<g id="clust7" class="cluster">
<title>cluster_comentario</title>
<polygon fill="#dddd88" stroke="#dddd88" points="733,-209.52 733,-416.68 842,-416.68 842,-209.52 733,-209.52"/>
<text text-anchor="middle" x="787.5" y="-399.38" font-family="Times,serif" font-size="14.00">COMENTARIO</text>
</g>
<!-- Inicio -->
<g id="node1" class="node">
<title>Inicio</title>
</g>
<!-- 0 -->
<g id="node2" class="node">
<title>0</title>
<ellipse fill="none" stroke="black" cx="316" cy="-592.44" rx="18" ry="18"/>
<text text-anchor="middle" x="316" y="-587.39" font-family="Times,serif" font-size="14.00">0</text>
</g>
<!-- Inicio&#45;&gt;0 -->
<g id="edge1" class="edge">
<title>Inicio&#45;&gt;0</title>
<path fill="none" stroke="black" d="M316,-647.62C316,-640 316,-630.79 316,-622.14"/>
<polygon fill="black" stroke="black" points="319.5,-622.4 316,-612.4 312.5,-622.4 319.5,-622.4"/>
</g>
<!-- 1 -->
<g id="node3" class="node">
<title>1</title>
<ellipse fill="none" stroke="black" cx="254" cy="-479.31" rx="18" ry="18"/>
<text text-anchor="middle" x="254" y="-474.26" font-family="Times,serif" font-size="14.00">1</text>
</g>
<!-- 0&#45;&gt;1 -->
<g id="edge2" class="edge">
<title>0&#45;&gt;1</title>
<path fill="none" stroke="black" d="M307.64,-576.45C297.47,-558.23 280.15,-527.19 267.95,-505.32"/>
<polygon fill="black" stroke="black" points="271.09,-503.77 263.16,-496.74 264.98,-507.18 271.09,-503.77"/>
<text text-anchor="middle" x="318.82" y="-543.14" font-family="Times,serif" font-size="14.00">sublinha</text>
</g>
<!-- 2 -->
<g id="node4" class="node">
<title>2</title>
<ellipse fill="none" stroke="black" cx="254" cy="-364.05" rx="18" ry="18"/>
<text text-anchor="middle" x="254" y="-359" font-family="Times,serif" font-size="14.00">2</text>
</g>
<!-- 0&#45;&gt;2 -->
<g id="edge4" class="edge">
<title>0&#45;&gt;2</title>
<path fill="none" stroke="black" d="M298.36,-588.06C272.17,-581.99 223.85,-566.49 203,-531.94 186.29,-504.26 195.05,-490.53 203,-459.18 204.88,-451.78 225.36,-415.08 239.79,-389.76"/>
<polygon fill="black" stroke="black" points="242.67,-391.77 244.6,-381.36 236.59,-388.3 242.67,-391.77"/>
<text text-anchor="middle" x="215" y="-474.26" font-family="Times,serif" font-size="14.00">letra</text>
</g>
<!-- 4 -->
<g id="node6" class="node">
<title>4</title>
<ellipse fill="none" stroke="black" cx="34" cy="-479.31" rx="18" ry="18"/>
<text text-anchor="middle" x="34" y="-474.26" font-family="Times,serif" font-size="14.00">4</text>
</g>
<!-- 0&#45;&gt;4 -->
<g id="edge7" class="edge">
<title>0&#45;&gt;4</title>
<path fill="none" stroke="black" d="M297.73,-589.91C266.2,-586.77 200.02,-578.01 148.5,-556.44 113.78,-541.91 78.4,-516.4 56.33,-498.95"/>
<polygon fill="black" stroke="black" points="58.62,-496.29 48.64,-492.74 54.23,-501.74 58.62,-496.29"/>
<text text-anchor="middle" x="164.25" y="-543.14" font-family="Times,serif" font-size="14.00">digito</text>
</g>
<!-- 9 -->
<g id="node11" class="node">
<title>9</title>
<ellipse fill="none" stroke="black" cx="380" cy="-479.31" rx="18" ry="18"/>
<text text-anchor="middle" x="380" y="-474.26" font-family="Times,serif" font-size="14.00">9</text>
</g>
<!-- 0&#45;&gt;9 -->
<g id="edge14" class="edge">
<title>0&#45;&gt;9</title>
<path fill="none" stroke="black" d="M327.45,-577.95C332.53,-571.63 338.39,-563.88 343,-556.44 352.9,-540.46 362.15,-521.44 368.92,-506.4"/>
<polygon fill="black" stroke="black" points="371.95,-508.21 372.78,-497.65 365.54,-505.39 371.95,-508.21"/>
<text text-anchor="middle" x="377.75" y="-543.14" font-family="Times,serif" font-size="14.00">apostrofo</text>
</g>
<!-- 16 -->
<g id="node18" class="node">
<title>16</title>
<ellipse fill="none" stroke="black" cx="632" cy="-479.31" rx="20.13" ry="20.13"/>
<text text-anchor="middle" x="632" y="-474.26" font-family="Times,serif" font-size="14.00">16</text>
</g>
<!-- 0&#45;&gt;16 -->
<g id="edge23" class="edge">
<title>0&#45;&gt;16</title>
<path fill="none" stroke="black" d="M334.02,-589.53C389.42,-583.38 556.17,-562.66 600,-531.94 608.38,-526.07 615,-517.23 620,-508.52"/>
<polygon fill="black" stroke="black" points="622.98,-510.38 624.43,-499.88 616.75,-507.18 622.98,-510.38"/>
<text text-anchor="middle" x="598.74" y="-543.14" font-family="Times,serif" font-size="14.00">aspas</text>
</g>
<!-- 20 -->
<g id="node22" class="node">
<title>20</title>
<ellipse fill="none" stroke="black" cx="757" cy="-479.31" rx="20.13" ry="20.13"/>
<text text-anchor="middle" x="757" y="-474.26" font-family="Times,serif" font-size="14.00">20</text>
</g>
<!-- 0&#45;&gt;20 -->
<g id="edge28" class="edge">
<title>0&#45;&gt;20</title>
<path fill="none" stroke="black" d="M334.43,-591.08C406.07,-589.35 665.3,-579.82 729,-531.94 736.62,-526.21 742.41,-517.78 746.69,-509.38"/>
<polygon fill="black" stroke="black" points="749.84,-510.91 750.71,-500.35 743.45,-508.06 749.84,-510.91"/>
<text text-anchor="middle" x="726.8" y="-543.14" font-family="Times,serif" font-size="14.00">barra</text>
</g>
<!-- 1&#45;&gt;1 -->
<g id="edge3" class="edge">
<title>1&#45;&gt;1</title>
<path fill="none" stroke="black" d="M270.29,-487.39C280.39,-489.34 290,-486.65 290,-479.31 290,-474.95 286.61,-472.23 281.74,-471.15"/>
<polygon fill="black" stroke="black" points="281.78,-467.65 271.8,-471.22 281.83,-474.65 281.78,-467.65"/>
<text text-anchor="middle" x="312.88" y="-474.26" font-family="Times,serif" font-size="14.00">sublinha</text>
</g>
<!-- 1&#45;&gt;2 -->
<g id="edge5" class="edge">
<title>1&#45;&gt;2</title>
<path fill="none" stroke="black" d="M254,-461.11C254,-443.23 254,-414.94 254,-393.69"/>
<polygon fill="black" stroke="black" points="257.5,-393.93 254,-383.93 250.5,-393.93 257.5,-393.93"/>
<text text-anchor="middle" x="266" y="-427.88" font-family="Times,serif" font-size="14.00">letra</text>
</g>
<!-- 3 -->
<g id="node5" class="node">
<title>3</title>
<ellipse fill="none" stroke="black" cx="258" cy="-241.66" rx="18" ry="18"/>
<ellipse fill="none" stroke="black" cx="258" cy="-241.66" rx="22" ry="22"/>
<text text-anchor="middle" x="258" y="-236.61" font-family="Times,serif" font-size="14.00">3</text>
</g>
<!-- 2&#45;&gt;3 -->
<g id="edge6" class="edge">
<title>2&#45;&gt;3</title>
<path fill="none" stroke="black" d="M254.57,-345.8C255.18,-327.5 256.16,-298.16 256.91,-275.44"/>
<polygon fill="black" stroke="black" points="260.41,-275.56 257.24,-265.45 253.41,-275.32 260.41,-275.56"/>
<text text-anchor="middle" x="274.22" y="-298.87" font-family="Times,serif" font-size="14.00">outro*</text>
</g>
<!-- 4&#45;&gt;4 -->
<g id="edge8" class="edge">
<title>4&#45;&gt;4</title>
<path fill="none" stroke="black" d="M50.29,-487.39C60.39,-489.34 70,-486.65 70,-479.31 70,-474.95 66.61,-472.23 61.74,-471.15"/>
<polygon fill="black" stroke="black" points="61.78,-467.65 51.8,-471.22 61.83,-474.65 61.78,-467.65"/>
<text text-anchor="middle" x="85.75" y="-474.26" font-family="Times,serif" font-size="14.00">digito</text>
</g>
<!-- 5 -->
<g id="node7" class="node">
<title>5</title>
<ellipse fill="none" stroke="black" cx="38" cy="-364.05" rx="18" ry="18"/>
<ellipse fill="none" stroke="black" cx="38" cy="-364.05" rx="22" ry="22"/>
<text text-anchor="middle" x="38" y="-359" font-family="Times,serif" font-size="14.00">5</text>
</g>
<!-- 4&#45;&gt;5 -->
<g id="edge9" class="edge">
<title>4&#45;&gt;5</title>
<path fill="none" stroke="black" d="M34.61,-461.11C35.2,-444.35 36.11,-418.44 36.85,-397.75"/>
<polygon fill="black" stroke="black" points="40.34,-397.91 37.2,-387.79 33.35,-397.66 40.34,-397.91"/>
<text text-anchor="middle" x="53.51" y="-427.88" font-family="Times,serif" font-size="14.00">outro*</text>
</g>
<!-- 6 -->
<g id="node8" class="node">
<title>6</title>
<ellipse fill="none" stroke="black" cx="144" cy="-364.05" rx="18" ry="18"/>
<text text-anchor="middle" x="144" y="-359" font-family="Times,serif" font-size="14.00">6</text>
</g>
<!-- 4&#45;&gt;6 -->
<g id="edge10" class="edge">
<title>4&#45;&gt;6</title>
<path fill="none" stroke="black" d="M49.28,-469.12C66.53,-458.21 94.69,-438.69 114,-416.68 120.71,-409.04 126.68,-399.67 131.5,-391.02"/>
<polygon fill="black" stroke="black" points="134.51,-392.81 136.07,-382.33 128.31,-389.55 134.51,-392.81"/>
<text text-anchor="middle" x="119.94" y="-427.88" font-family="Times,serif" font-size="14.00">ponto</text>
</g>
<!-- 7 -->
<g id="node9" class="node">
<title>7</title>
<ellipse fill="none" stroke="black" cx="144" cy="-241.66" rx="18" ry="18"/>
<text text-anchor="middle" x="144" y="-236.61" font-family="Times,serif" font-size="14.00">7</text>
</g>
<!-- 6&#45;&gt;7 -->
<g id="edge11" class="edge">
<title>6&#45;&gt;7</title>
<path fill="none" stroke="black" d="M144,-345.8C144,-326.31 144,-294.29 144,-271.09"/>
<polygon fill="black" stroke="black" points="147.5,-271.39 144,-261.39 140.5,-271.39 147.5,-271.39"/>
<text text-anchor="middle" x="159.75" y="-298.87" font-family="Times,serif" font-size="14.00">digito</text>
</g>
<!-- 7&#45;&gt;7 -->
<g id="edge12" class="edge">
<title>7&#45;&gt;7</title>
<path fill="none" stroke="black" d="M159.92,-250.35C170.15,-252.62 180,-249.72 180,-241.66 180,-236.74 176.34,-233.74 171.17,-232.66"/>
<polygon fill="black" stroke="black" points="171.33,-229.16 161.43,-232.92 171.52,-236.16 171.33,-229.16"/>
<text text-anchor="middle" x="195.75" y="-236.61" font-family="Times,serif" font-size="14.00">digito</text>
</g>
<!-- 8 -->
<g id="node10" class="node">
<title>8</title>
<ellipse fill="none" stroke="black" cx="148" cy="-140.89" rx="18" ry="18"/>
<ellipse fill="none" stroke="black" cx="148" cy="-140.89" rx="22" ry="22"/>
<text text-anchor="middle" x="148" y="-135.84" font-family="Times,serif" font-size="14.00">8</text>
</g>
<!-- 7&#45;&gt;8 -->
<g id="edge13" class="edge">
<title>7&#45;&gt;8</title>
<path fill="none" stroke="black" d="M144.7,-223.45C145.24,-209.93 146.02,-190.71 146.69,-174.33"/>
<polygon fill="black" stroke="black" points="150.18,-174.67 147.08,-164.53 143.18,-174.38 150.18,-174.67"/>
<text text-anchor="middle" x="163.86" y="-186.22" font-family="Times,serif" font-size="14.00">outro*</text>
</g>
<!-- 10 -->
<g id="node12" class="node">
<title>10</title>
<ellipse fill="none" stroke="black" cx="380" cy="-303.92" rx="20.13" ry="20.13"/>
<text text-anchor="middle" x="380" y="-298.87" font-family="Times,serif" font-size="14.00">10</text>
</g>
<!-- 9&#45;&gt;10 -->
<g id="edge15" class="edge">
<title>9&#45;&gt;10</title>
<path fill="none" stroke="black" d="M380,-461.05C380,-431.88 380,-372.45 380,-335.92"/>
<polygon fill="black" stroke="black" points="383.5,-335.99 380,-325.99 376.5,-335.99 383.5,-335.99"/>
<text text-anchor="middle" x="386.38" y="-427.88" font-family="Times,serif" font-size="14.00">ch</text>
</g>
<!-- 11 -->
<g id="node13" class="node">
<title>11</title>
<ellipse fill="none" stroke="black" cx="467" cy="-364.05" rx="20.13" ry="20.13"/>
<text text-anchor="middle" x="467" y="-359" font-family="Times,serif" font-size="14.00">11</text>
</g>
<!-- 9&#45;&gt;11 -->
<g id="edge16" class="edge">
<title>9&#45;&gt;11</title>
<path fill="none" stroke="black" d="M390.67,-464.42C404.96,-445.82 430.56,-412.49 448.14,-389.6"/>
<polygon fill="black" stroke="black" points="450.89,-391.76 454.21,-381.7 445.34,-387.5 450.89,-391.76"/>
<text text-anchor="middle" x="451.64" y="-427.88" font-family="Times,serif" font-size="14.00">contrabarra</text>
</g>
<!-- 15 -->
<g id="node17" class="node">
<title>15</title>
<ellipse fill="none" stroke="black" cx="484" cy="-140.89" rx="20.13" ry="20.13"/>
<text text-anchor="middle" x="484" y="-135.84" font-family="Times,serif" font-size="14.00">15</text>
</g>
<!-- 10&#45;&gt;15 -->
<g id="edge17" class="edge">
<title>10&#45;&gt;15</title>
<path fill="none" stroke="black" d="M376.86,-283.64C374.61,-263.73 373.95,-232.4 387,-209.52 402.03,-183.17 432.05,-164.7 454.73,-153.8"/>
<polygon fill="black" stroke="black" points="456.14,-157 463.8,-149.68 453.24,-150.63 456.14,-157"/>
<text text-anchor="middle" x="412.5" y="-236.61" font-family="Times,serif" font-size="14.00">apostrofo</text>
</g>
<!-- 14 -->
<g id="node16" class="node">
<title>14</title>
<ellipse fill="none" stroke="black" cx="467" cy="-241.66" rx="20.13" ry="20.13"/>
<text text-anchor="middle" x="467" y="-236.61" font-family="Times,serif" font-size="14.00">14</text>
</g>
<!-- 11&#45;&gt;14 -->
<g id="edge19" class="edge">
<title>11&#45;&gt;14</title>
<path fill="none" stroke="black" d="M467,-343.44C467,-324.55 467,-295.68 467,-273.67"/>
<polygon fill="black" stroke="black" points="470.5,-273.77 467,-263.77 463.5,-273.77 470.5,-273.77"/>
<text text-anchor="middle" x="470.38" y="-298.87" font-family="Times,serif" font-size="14.00">n</text>
</g>
<!-- 11&#45;&gt;15 -->
<g id="edge20" class="edge">
<title>11&#45;&gt;15</title>
<path fill="none" stroke="black" d="M473.59,-344.74C483.9,-314.84 503.16,-253.45 508,-199.52 508.66,-192.22 509.91,-190.1 508,-183.02 506.54,-177.62 504.17,-172.2 501.48,-167.15"/>
<polygon fill="black" stroke="black" points="504.59,-165.52 496.46,-158.72 498.57,-169.1 504.59,-165.52"/>
<text text-anchor="middle" x="510.32" y="-236.61" font-family="Times,serif" font-size="14.00">0</text>
</g>
<!-- 12 -->
<g id="node14" class="node">
<title>12</title>
<ellipse fill="none" stroke="black" cx="484" cy="-40.13" rx="20.13" ry="20.13"/>
<ellipse fill="none" stroke="black" cx="484" cy="-40.13" rx="24.13" ry="24.13"/>
<text text-anchor="middle" x="484" y="-35.08" font-family="Times,serif" font-size="14.00">12</text>
</g>
<!-- 13 -->
<g id="node15" class="node">
<title>13</title>
<ellipse fill="none" stroke="black" cx="568" cy="-241.66" rx="20.13" ry="20.13"/>
<text text-anchor="middle" x="568" y="-236.61" font-family="Times,serif" font-size="14.00">13</text>
</g>
<!-- 13&#45;&gt;15 -->
<g id="edge22" class="edge">
<title>13&#45;&gt;15</title>
<path fill="none" stroke="black" d="M555.24,-225.66C541.6,-209.61 519.77,-183.95 503.87,-165.26"/>
<polygon fill="black" stroke="black" points="506.73,-163.21 497.58,-157.86 501.4,-167.75 506.73,-163.21"/>
<text text-anchor="middle" x="556.53" y="-186.22" font-family="Times,serif" font-size="14.00">apostrofo</text>
</g>
<!-- 14&#45;&gt;15 -->
<g id="edge21" class="edge">
<title>14&#45;&gt;15</title>
<path fill="none" stroke="black" d="M459.61,-222.49C455.98,-211.01 453.13,-195.96 457,-183.02 458.73,-177.24 461.56,-171.51 464.76,-166.25"/>
<polygon fill="black" stroke="black" points="467.59,-168.32 470.3,-158.08 461.79,-164.39 467.59,-168.32"/>
<text text-anchor="middle" x="482.5" y="-186.22" font-family="Times,serif" font-size="14.00">apostrofo</text>
</g>
<!-- 15&#45;&gt;12 -->
<g id="edge18" class="edge">
<title>15&#45;&gt;12</title>
<path fill="none" stroke="black" d="M484,-120.38C484,-107.69 484,-90.8 484,-75.86"/>
<polygon fill="black" stroke="black" points="487.5,-75.94 484,-65.94 480.5,-75.94 487.5,-75.94"/>
<text text-anchor="middle" x="501.62" y="-85.46" font-family="Times,serif" font-size="14.00">outro*</text>
</g>
<!-- 17 -->
<g id="node19" class="node">
<title>17</title>
<ellipse fill="none" stroke="black" cx="653" cy="-241.66" rx="20.13" ry="20.13"/>
<text text-anchor="middle" x="653" y="-236.61" font-family="Times,serif" font-size="14.00">17</text>
</g>
<!-- 16&#45;&gt;17 -->
<g id="edge24" class="edge">
<title>16&#45;&gt;17</title>
<path fill="none" stroke="black" d="M632.24,-459.13C632.74,-431.44 634.24,-378.7 638.75,-334.05 640.82,-313.57 644.39,-290.69 647.44,-272.94"/>
<polygon fill="black" stroke="black" points="650.84,-273.78 649.13,-263.32 643.95,-272.57 650.84,-273.78"/>
<text text-anchor="middle" x="653.38" y="-359" font-family="Times,serif" font-size="14.00">aspas</text>
</g>
<!-- 19 -->
<g id="node21" class="node">
<title>19</title>
<ellipse fill="none" stroke="black" cx="697" cy="-364.05" rx="20.13" ry="20.13"/>
<text text-anchor="middle" x="697" y="-359" font-family="Times,serif" font-size="14.00">19</text>
</g>
<!-- 16&#45;&gt;19 -->
<g id="edge25" class="edge">
<title>16&#45;&gt;19</title>
<path fill="none" stroke="black" d="M641.59,-461.6C652.15,-443.2 669.28,-413.35 681.7,-391.71"/>
<polygon fill="black" stroke="black" points="684.67,-393.56 686.62,-383.14 678.6,-390.07 684.67,-393.56"/>
<text text-anchor="middle" x="668.93" y="-427.88" font-family="Times,serif" font-size="14.00">ch</text>
</g>
<!-- 18 -->
<g id="node20" class="node">
<title>18</title>
<ellipse fill="none" stroke="black" cx="653" cy="-140.89" rx="20.13" ry="20.13"/>
<ellipse fill="none" stroke="black" cx="653" cy="-140.89" rx="24.13" ry="24.13"/>
<text text-anchor="middle" x="653" y="-135.84" font-family="Times,serif" font-size="14.00">18</text>
</g>
<!-- 17&#45;&gt;18 -->
<g id="edge26" class="edge">
<title>17&#45;&gt;18</title>
<path fill="none" stroke="black" d="M653,-221.14C653,-208.46 653,-191.56 653,-176.62"/>
<polygon fill="black" stroke="black" points="656.5,-176.7 653,-166.7 649.5,-176.7 656.5,-176.7"/>
<text text-anchor="middle" x="670.62" y="-186.22" font-family="Times,serif" font-size="14.00">outro*</text>
</g>
<!-- 19&#45;&gt;17 -->
<g id="edge27" class="edge">
<title>19&#45;&gt;17</title>
<path fill="none" stroke="black" d="M690.32,-344.76C683.24,-325.41 671.97,-294.57 663.67,-271.84"/>
<polygon fill="black" stroke="black" points="666.99,-270.73 660.27,-262.53 660.41,-273.13 666.99,-270.73"/>
<text text-anchor="middle" x="696.14" y="-298.87" font-family="Times,serif" font-size="14.00">aspas</text>
</g>
<!-- 21 -->
<g id="node23" class="node">
<title>21</title>
<ellipse fill="none" stroke="black" cx="761" cy="-364.05" rx="20.13" ry="20.13"/>
<text text-anchor="middle" x="761" y="-359" font-family="Times,serif" font-size="14.00">21</text>
</g>
<!-- 20&#45;&gt;21 -->
<g id="edge29" class="edge">
<title>20&#45;&gt;21</title>
<path fill="none" stroke="black" d="M757.69,-458.84C758.3,-441.58 759.2,-416.07 759.91,-396.01"/>
<polygon fill="black" stroke="black" points="763.4,-396.27 760.25,-386.16 756.4,-396.03 763.4,-396.27"/>
<text text-anchor="middle" x="772.76" y="-427.88" font-family="Times,serif" font-size="14.00">barra</text>
</g>
<!-- 21&#45;&gt;21 -->
<g id="edge30" class="edge">
<title>21&#45;&gt;21</title>
<path fill="none" stroke="black" d="M778.65,-374.62C789.2,-376.97 799.13,-373.44 799.13,-364.05 799.13,-358.18 795.25,-354.6 789.77,-353.31"/>
<polygon fill="black" stroke="black" points="790.11,-349.81 780.16,-353.46 790.21,-356.81 790.11,-349.81"/>
<text text-anchor="middle" x="816.76" y="-359" font-family="Times,serif" font-size="14.00">outro*</text>
</g>
<!-- 22 -->
<g id="node24" class="node">
<title>22</title>
<ellipse fill="none" stroke="black" cx="765" cy="-241.66" rx="20.13" ry="20.13"/>
<ellipse fill="none" stroke="black" cx="765" cy="-241.66" rx="24.13" ry="24.13"/>
<text text-anchor="middle" x="765" y="-236.61" font-family="Times,serif" font-size="14.00">22</text>
</g>
<!-- 21&#45;&gt;22 -->
<g id="edge31" class="edge">
<title>21&#45;&gt;22</title>
<path fill="none" stroke="black" d="M761.65,-343.44C762.25,-325.56 763.14,-298.74 763.85,-277.26"/>
<polygon fill="black" stroke="black" points="767.34,-277.6 764.18,-267.49 760.34,-277.36 767.34,-277.6"/>
<text text-anchor="middle" x="768.84" y="-298.87" font-family="Times,serif" font-size="14.00">\n</text>
</g>
</g>
</svg>
