<?xml version="1.0" encoding="UTF-8" standalone="no"?>
<!DOCTYPE svg PUBLIC "-//W3C//DTD SVG 1.1//EN"
 "http://www.w3.org/Graphics/SVG/1.1/DTD/svg11.dtd">
<!-- Generated by graphviz version 12.1.2 (0)
 -->
<!-- Pages: 1 -->
<svg width="2431pt" height="637pt"
 viewBox="0.00 0.00 2431.00 637.05" xmlns="http://www.w3.org/2000/svg" xmlns:xlink="http://www.w3.org/1999/xlink">
<g id="graph0" class="graph" transform="scale(1 1) rotate(0) translate(4 633.05)">
<polygon fill="white" stroke="none" points="-4,4 -4,-633.05 2427,-633.05 2427,4 -4,4"/>
<g id="clust1" class="cluster">
<title>cluster_start</title>
<polygon fill="none" stroke="black" points="1199,-451.79 1199,-618.92 1354,-618.92 1354,-451.79 1199,-451.79"/>
<text text-anchor="middle" x="1276.5" y="-601.62" font-family="Times,serif" font-size="14.00">INICIO</text>
</g>
<g id="clust2" class="cluster">
<title>cluster_id</title>
<polygon fill="#dd8855" stroke="#dd8855" points="2079,-108.76 2079,-411.16 2195,-411.16 2195,-108.76 2079,-108.76"/>
<text text-anchor="middle" x="2137" y="-393.86" font-family="Times,serif" font-size="14.00">ID</text>
</g>
<g id="clust3" class="cluster">
<title>cluster_intcon</title>
<polygon fill="#ffaaff" stroke="#ffaaff" points="2203,-207.39 2203,-411.16 2305,-411.16 2305,-207.39 2203,-207.39"/>
<text text-anchor="middle" x="2254" y="-393.86" font-family="Times,serif" font-size="14.00">INTCON</text>
</g>
<g id="clust4" class="cluster">
<title>cluster_realcon</title>
<polygon fill="#8888dd" stroke="#8888dd" points="2313,-10.13 2313,-287.89 2415,-287.89 2415,-10.13 2313,-10.13"/>
<text text-anchor="middle" x="2364" y="-270.59" font-family="Times,serif" font-size="14.00">REALCON</text>
</g>
<g id="clust5" class="cluster">
<title>cluster_charcon</title>
<polygon fill="#88dd88" stroke="#88dd88" points="88,-8 88,-411.16 321,-411.16 321,-8 88,-8"/>
<text text-anchor="middle" x="204.5" y="-393.86" font-family="Times,serif" font-size="14.00">CHARCON</text>
</g>
<g id="clust6" class="cluster">
<title>cluster_stringcon</title>
<polygon fill="#dd8888" stroke="#dd8888" points="329,-8 329,-413.29 450,-413.29 450,-8 329,-8"/>
<text text-anchor="middle" x="389.5" y="-395.99" font-family="Times,serif" font-size="14.00">STRINGCON</text>
</g>
<g id="clust7" class="cluster">
<title>cluster_comentario</title>
<polygon fill="#dddd88" stroke="#dddd88" points="69,-540.29 69,-621.05 249,-621.05 249,-540.29 69,-540.29"/>
<text text-anchor="middle" x="159" y="-603.75" font-family="Times,serif" font-size="14.00">COMENTARIO (IGNORAR)</text>
</g>
<g id="clust8" class="cluster">
<title>cluster_mais</title>
<polygon fill="lightgrey" stroke="black" points="458,-328.52 458,-417.29 522,-417.29 522,-328.52 458,-328.52"/>
<text text-anchor="middle" x="490" y="-399.99" font-family="Times,serif" font-size="14.00">MAIS</text>
</g>
<g id="clust9" class="cluster">
<title>cluster_menos</title>
<polygon fill="lightgrey" stroke="black" points="530,-328.52 530,-417.29 594,-417.29 594,-328.52 530,-328.52"/>
<text text-anchor="middle" x="562" y="-399.99" font-family="Times,serif" font-size="14.00">MENOS</text>
</g>
<g id="clust10" class="cluster">
<title>cluster_multiplicacao</title>
<polygon fill="lightgrey" stroke="black" points="602,-328.52 602,-417.29 728,-417.29 728,-328.52 602,-328.52"/>
<text text-anchor="middle" x="665" y="-399.99" font-family="Times,serif" font-size="14.00">MULTIPLICACAO</text>
</g>
<g id="clust11" class="cluster">
<title>cluster_divisao</title>
<polygon fill="lightgrey" stroke="black" points="8,-205.26 8,-294.02 79,-294.02 79,-205.26 8,-205.26"/>
<text text-anchor="middle" x="43.5" y="-276.72" font-family="Times,serif" font-size="14.00">DIVISAO</text>
</g>
<g id="clust12" class="cluster">
<title>cluster_abreparenteses</title>
<polygon fill="lightgrey" stroke="black" points="736,-328.52 736,-417.29 871,-417.29 871,-328.52 736,-328.52"/>
<text text-anchor="middle" x="803.5" y="-399.99" font-family="Times,serif" font-size="14.00">ABREPARENTESES</text>
</g>
<g id="clust13" class="cluster">
<title>cluster_fechaparenteses</title>
<polygon fill="lightgrey" stroke="black" points="879,-328.52 879,-417.29 1022,-417.29 1022,-328.52 879,-328.52"/>
<text text-anchor="middle" x="950.5" y="-399.99" font-family="Times,serif" font-size="14.00">FECHAPARENTESES</text>
</g>
<g id="clust14" class="cluster">
<title>cluster_abrecolchete</title>
<polygon fill="lightgrey" stroke="black" points="1030,-328.52 1030,-417.29 1152,-417.29 1152,-328.52 1030,-328.52"/>
<text text-anchor="middle" x="1091" y="-399.99" font-family="Times,serif" font-size="14.00">ABRECOLCHETE</text>
</g>
<g id="clust15" class="cluster">
<title>cluster_fechacolchete</title>
<polygon fill="lightgrey" stroke="black" points="1160,-328.52 1160,-417.29 1290,-417.29 1290,-328.52 1160,-328.52"/>
<text text-anchor="middle" x="1225" y="-399.99" font-family="Times,serif" font-size="14.00">FECHACOLCHETE</text>
</g>
<g id="clust16" class="cluster">
<title>cluster_virgula</title>
<polygon fill="lightgrey" stroke="black" points="1298,-328.52 1298,-417.29 1374,-417.29 1374,-328.52 1298,-328.52"/>
<text text-anchor="middle" x="1336" y="-399.99" font-family="Times,serif" font-size="14.00">VIRGULA</text>
</g>
<g id="clust17" class="cluster">
<title>cluster_comparacao</title>
<polygon fill="lightgrey" stroke="black" points="1116,-205.26 1116,-294.02 1227,-294.02 1227,-205.26 1116,-205.26"/>
<text text-anchor="middle" x="1171.5" y="-276.72" font-family="Times,serif" font-size="14.00">COMPARACAO</text>
</g>
<g id="clust18" class="cluster">
<title>cluster_atribuicao</title>
<polygon fill="lightgrey" stroke="black" points="1011,-205.26 1011,-294.02 1108,-294.02 1108,-205.26 1011,-205.26"/>
<text text-anchor="middle" x="1059.5" y="-276.72" font-family="Times,serif" font-size="14.00">ATRIBUICAO</text>
</g>
<g id="clust19" class="cluster">
<title>cluster_elogico</title>
<polygon fill="lightgrey" stroke="black" points="1342,-205.26 1342,-294.02 1417,-294.02 1417,-205.26 1342,-205.26"/>
<text text-anchor="middle" x="1379.5" y="-276.72" font-family="Times,serif" font-size="14.00">ELOGICO</text>
</g>
<g id="clust20" class="cluster">
<title>cluster_referencia</title>
<polygon fill="lightgrey" stroke="black" points="1235,-205.26 1235,-294.02 1334,-294.02 1334,-205.26 1235,-205.26"/>
<text text-anchor="middle" x="1284.5" y="-276.72" font-family="Times,serif" font-size="14.00">REFERENCIA</text>
</g>
<g id="clust21" class="cluster">
<title>cluster_oulogico</title>
<polygon fill="lightgrey" stroke="black" points="1425,-205.26 1425,-294.02 1511,-294.02 1511,-205.26 1425,-205.26"/>
<text text-anchor="middle" x="1468" y="-276.72" font-family="Times,serif" font-size="14.00">OULOGICO</text>
</g>
<g id="clust22" class="cluster">
<title>cluster_menorigual</title>
<polygon fill="lightgrey" stroke="black" points="1592,-205.26 1592,-294.02 1699,-294.02 1699,-205.26 1592,-205.26"/>
<text text-anchor="middle" x="1645.5" y="-276.72" font-family="Times,serif" font-size="14.00">MENORIGUAL</text>
</g>
<g id="clust23" class="cluster">
<title>cluster_menor</title>
<polygon fill="lightgrey" stroke="black" points="1519,-205.26 1519,-294.02 1584,-294.02 1584,-205.26 1519,-205.26"/>
<text text-anchor="middle" x="1551.5" y="-276.72" font-family="Times,serif" font-size="14.00">MENOR</text>
</g>
<g id="clust24" class="cluster">
<title>cluster_maiorigual</title>
<polygon fill="lightgrey" stroke="black" points="1779,-205.26 1779,-294.02 1882,-294.02 1882,-205.26 1779,-205.26"/>
<text text-anchor="middle" x="1830.5" y="-276.72" font-family="Times,serif" font-size="14.00">MAIORIGUAL</text>
</g>
<g id="clust25" class="cluster">
<title>cluster_maior</title>
<polygon fill="lightgrey" stroke="black" points="1707,-205.26 1707,-294.02 1771,-294.02 1771,-205.26 1707,-205.26"/>
<text text-anchor="middle" x="1739" y="-276.72" font-family="Times,serif" font-size="14.00">MAIOR</text>
</g>
<g id="clust26" class="cluster">
<title>cluster_diferenca</title>
<polygon fill="lightgrey" stroke="black" points="1980,-205.26 1980,-294.02 2071,-294.02 2071,-205.26 1980,-205.26"/>
<text text-anchor="middle" x="2025.5" y="-276.72" font-family="Times,serif" font-size="14.00">DIFERENCA</text>
</g>
<g id="clust27" class="cluster">
<title>cluster_negacao</title>
<polygon fill="lightgrey" stroke="black" points="1890,-205.26 1890,-294.02 1972,-294.02 1972,-205.26 1890,-205.26"/>
<text text-anchor="middle" x="1931" y="-276.72" font-family="Times,serif" font-size="14.00">NEGACAO</text>
</g>
<!-- Inicio -->
<g id="node1" class="node">
<title>Inicio</title>
</g>
<!-- 0 -->
<g id="node2" class="node">
<title>0</title>
<ellipse fill="none" stroke="black" cx="1225" cy="-477.79" rx="18" ry="18"/>
<text text-anchor="middle" x="1225" y="-472.74" font-family="Times,serif" font-size="14.00">0</text>
</g>
<!-- Inicio&#45;&gt;0 -->
<g id="edge1" class="edge">
<title>Inicio&#45;&gt;0</title>
<path fill="none" stroke="black" d="M1232.31,-550.75C1231.07,-538.52 1229.35,-521.63 1227.89,-507.28"/>
<polygon fill="black" stroke="black" points="1231.39,-507.09 1226.9,-497.49 1224.43,-507.8 1231.39,-507.09"/>
</g>
<!-- 0&#45;&gt;0 -->
<g id="edge2" class="edge">
<title>0&#45;&gt;0</title>
<path fill="none" stroke="black" d="M1241.66,-485.57C1251.62,-487.29 1261,-484.7 1261,-477.79 1261,-473.68 1257.69,-471.1 1252.92,-470.04"/>
<polygon fill="black" stroke="black" points="1253.19,-466.54 1243.18,-470.01 1253.17,-473.54 1253.19,-466.54"/>
<text text-anchor="middle" x="1303.38" y="-472.74" font-family="Times,serif" font-size="14.00">Tab, Espaco, \n</text>
</g>
<!-- 1 -->
<g id="node3" class="node">
<title>1</title>
<ellipse fill="none" stroke="black" cx="2105" cy="-360.66" rx="18" ry="18"/>
<text text-anchor="middle" x="2105" y="-355.61" font-family="Times,serif" font-size="14.00">1</text>
</g>
<!-- 0&#45;&gt;1 -->
<g id="edge3" class="edge">
<title>0&#45;&gt;1</title>
<path fill="none" stroke="black" d="M1243.16,-477C1357.85,-478.21 1979.36,-482.84 2052,-441.79 2072.54,-430.18 2086.56,-406.94 2095,-388.46"/>
<polygon fill="black" stroke="black" points="2098.17,-389.95 2098.84,-379.38 2091.72,-387.22 2098.17,-389.95"/>
<text text-anchor="middle" x="2094.66" y="-428.49" font-family="Times,serif" font-size="14.00">sublinha</text>
</g>
<!-- 2 -->
<g id="node4" class="node">
<title>2</title>
<ellipse fill="none" stroke="black" cx="2105" cy="-237.39" rx="18" ry="18"/>
<text text-anchor="middle" x="2105" y="-232.34" font-family="Times,serif" font-size="14.00">2</text>
</g>
<!-- 0&#45;&gt;2 -->
<g id="edge5" class="edge">
<title>0&#45;&gt;2</title>
<path fill="none" stroke="black" d="M1243.34,-477.1C1343.64,-478.52 1826.06,-481.85 1957,-417.29 2024.04,-384.23 2071.61,-305.2 2092.74,-264.15"/>
<polygon fill="black" stroke="black" points="2095.74,-265.97 2097.09,-255.46 2089.49,-262.84 2095.74,-265.97"/>
<text text-anchor="middle" x="2065.01" y="-355.61" font-family="Times,serif" font-size="14.00">letra</text>
</g>
<!-- 4 -->
<g id="node6" class="node">
<title>4</title>
<ellipse fill="none" stroke="black" cx="2229" cy="-360.66" rx="18" ry="18"/>
<text text-anchor="middle" x="2229" y="-355.61" font-family="Times,serif" font-size="14.00">4</text>
</g>
<!-- 0&#45;&gt;4 -->
<g id="edge8" class="edge">
<title>0&#45;&gt;4</title>
<path fill="none" stroke="black" d="M1243.19,-476.74C1354.47,-476.37 1944.32,-472.93 2122,-441.79 2157.37,-435.59 2171.35,-440.21 2199,-417.29 2208,-409.83 2214.7,-398.95 2219.46,-388.79"/>
<polygon fill="black" stroke="black" points="2222.66,-390.21 2223.29,-379.63 2216.2,-387.5 2222.66,-390.21"/>
<text text-anchor="middle" x="2203.85" y="-428.49" font-family="Times,serif" font-size="14.00">digito</text>
</g>
<!-- 9 -->
<g id="node11" class="node">
<title>9</title>
<ellipse fill="none" stroke="black" cx="225" cy="-360.66" rx="18" ry="18"/>
<text text-anchor="middle" x="225" y="-355.61" font-family="Times,serif" font-size="14.00">9</text>
</g>
<!-- 0&#45;&gt;9 -->
<g id="edge15" class="edge">
<title>0&#45;&gt;9</title>
<path fill="none" stroke="black" d="M1207.05,-475.56C1142.64,-471.13 917.07,-455.55 731,-441.79 635.87,-434.75 612.23,-430.94 517,-425.29 474.37,-422.76 366.1,-428.87 325,-417.29 296.67,-409.3 267.63,-391.92 248.2,-378.7"/>
<polygon fill="black" stroke="black" points="250.4,-375.97 240.21,-373.1 246.39,-381.71 250.4,-375.97"/>
<text text-anchor="middle" x="756.5" y="-428.49" font-family="Times,serif" font-size="14.00">apostrofo</text>
</g>
<!-- 16 -->
<g id="node17" class="node">
<title>16</title>
<ellipse fill="none" stroke="black" cx="422" cy="-360.66" rx="20.13" ry="20.13"/>
<text text-anchor="middle" x="422" y="-355.61" font-family="Times,serif" font-size="14.00">16</text>
</g>
<!-- 0&#45;&gt;16 -->
<g id="edge23" class="edge">
<title>0&#45;&gt;16</title>
<path fill="none" stroke="black" d="M1206.81,-475.02C1157.69,-470.2 1018.34,-456.23 902.75,-441.79 850.75,-435.29 838.23,-429.59 786,-425.29 767.61,-423.77 469.86,-426.72 454,-417.29 443.98,-411.33 436.8,-400.94 431.82,-390.75"/>
<polygon fill="black" stroke="black" points="435.14,-389.6 427.99,-381.78 428.7,-392.35 435.14,-389.6"/>
<text text-anchor="middle" x="917.38" y="-428.49" font-family="Times,serif" font-size="14.00">aspas</text>
</g>
<!-- 20 -->
<g id="node21" class="node">
<title>20</title>
<ellipse fill="none" stroke="black" cx="60" cy="-360.66" rx="20.13" ry="20.13"/>
<text text-anchor="middle" x="60" y="-355.61" font-family="Times,serif" font-size="14.00">20</text>
</g>
<!-- 0&#45;&gt;20 -->
<g id="edge28" class="edge">
<title>0&#45;&gt;20</title>
<path fill="none" stroke="black" d="M1206.69,-476.01C1123.52,-472.48 772.83,-457.37 485.25,-441.79 306.85,-432.12 230.21,-519.97 84,-417.29 75.37,-411.23 69.82,-401.38 66.26,-391.64"/>
<polygon fill="black" stroke="black" points="69.69,-390.92 63.46,-382.35 62.99,-392.93 69.69,-390.92"/>
<text text-anchor="middle" x="499.12" y="-428.49" font-family="Times,serif" font-size="14.00">barra</text>
</g>
<!-- 22 -->
<g id="node23" class="node">
<title>22</title>
<ellipse fill="none" stroke="black" cx="490" cy="-360.66" rx="20.13" ry="20.13"/>
<ellipse fill="none" stroke="black" cx="490" cy="-360.66" rx="24.13" ry="24.13"/>
<text text-anchor="middle" x="490" y="-355.61" font-family="Times,serif" font-size="14.00">22</text>
</g>
<!-- 0&#45;&gt;22 -->
<g id="edge32" class="edge">
<title>0&#45;&gt;22</title>
<path fill="none" stroke="black" d="M1207.02,-474.38C1169.47,-469.24 1080.05,-456.49 1005.75,-441.79 974.5,-435.6 967.6,-429.29 936,-425.29 913.4,-422.43 545.91,-428.37 526,-417.29 516.48,-411.99 509.07,-402.99 503.52,-393.76"/>
<polygon fill="black" stroke="black" points="506.72,-392.32 498.93,-385.15 500.55,-395.62 506.72,-392.32"/>
<text text-anchor="middle" x="1009.88" y="-428.49" font-family="Times,serif" font-size="14.00">+</text>
</g>
<!-- 23 -->
<g id="node24" class="node">
<title>23</title>
<ellipse fill="none" stroke="black" cx="562" cy="-360.66" rx="20.13" ry="20.13"/>
<ellipse fill="none" stroke="black" cx="562" cy="-360.66" rx="24.13" ry="24.13"/>
<text text-anchor="middle" x="562" y="-355.61" font-family="Times,serif" font-size="14.00">23</text>
</g>
<!-- 0&#45;&gt;23 -->
<g id="edge33" class="edge">
<title>0&#45;&gt;23</title>
<path fill="none" stroke="black" d="M1207.03,-473.56C1177.18,-468.04 1115.61,-456 1064.5,-441.79 1042.56,-435.68 1038.43,-429.22 1016,-425.29 993.12,-421.28 618.3,-428.58 598,-417.29 588.48,-411.99 581.07,-402.99 575.52,-393.76"/>
<polygon fill="black" stroke="black" points="578.72,-392.33 570.93,-385.15 572.55,-395.62 578.72,-392.33"/>
<text text-anchor="middle" x="1066.75" y="-428.49" font-family="Times,serif" font-size="14.00">&#45;</text>
</g>
<!-- 24 -->
<g id="node25" class="node">
<title>24</title>
<ellipse fill="none" stroke="black" cx="696" cy="-360.66" rx="20.13" ry="20.13"/>
<ellipse fill="none" stroke="black" cx="696" cy="-360.66" rx="24.13" ry="24.13"/>
<text text-anchor="middle" x="696" y="-355.61" font-family="Times,serif" font-size="14.00">24</text>
</g>
<!-- 0&#45;&gt;24 -->
<g id="edge34" class="edge">
<title>0&#45;&gt;24</title>
<path fill="none" stroke="black" d="M1207.21,-472.73C1183.05,-466.99 1138.71,-455.65 1102.25,-441.79 1086.46,-435.78 1084.43,-429.24 1068,-425.29 1049.85,-420.91 748.29,-426.4 732,-417.29 722.49,-411.97 715.09,-402.96 709.54,-393.74"/>
<polygon fill="black" stroke="black" points="712.74,-392.3 704.94,-385.13 706.56,-395.6 712.74,-392.3"/>
<text text-anchor="middle" x="1105.62" y="-428.49" font-family="Times,serif" font-size="14.00">*</text>
</g>
<!-- 26 -->
<g id="node27" class="node">
<title>26</title>
<ellipse fill="none" stroke="black" cx="839" cy="-360.66" rx="20.13" ry="20.13"/>
<ellipse fill="none" stroke="black" cx="839" cy="-360.66" rx="24.13" ry="24.13"/>
<text text-anchor="middle" x="839" y="-355.61" font-family="Times,serif" font-size="14.00">26</text>
</g>
<!-- 0&#45;&gt;26 -->
<g id="edge36" class="edge">
<title>0&#45;&gt;26</title>
<path fill="none" stroke="black" d="M1208.26,-470.44C1191.05,-463.79 1163.58,-452.77 1140.5,-441.79 1126.58,-435.16 1124.87,-429.32 1110,-425.29 1084.79,-418.44 897.73,-430.16 875,-417.29 865.52,-411.92 858.12,-402.9 852.57,-393.68"/>
<polygon fill="black" stroke="black" points="855.77,-392.25 847.97,-385.08 849.6,-395.55 855.77,-392.25"/>
<text text-anchor="middle" x="1142.75" y="-428.49" font-family="Times,serif" font-size="14.00">(</text>
</g>
<!-- 27 -->
<g id="node28" class="node">
<title>27</title>
<ellipse fill="none" stroke="black" cx="990" cy="-360.66" rx="20.13" ry="20.13"/>
<ellipse fill="none" stroke="black" cx="990" cy="-360.66" rx="24.13" ry="24.13"/>
<text text-anchor="middle" x="990" y="-355.61" font-family="Times,serif" font-size="14.00">27</text>
</g>
<!-- 0&#45;&gt;27 -->
<g id="edge37" class="edge">
<title>0&#45;&gt;27</title>
<path fill="none" stroke="black" d="M1210.25,-467.14C1187.89,-452.56 1147.64,-426.48 1144,-425.29 1119.03,-417.09 1048.65,-430.62 1026,-417.29 1016.61,-411.76 1009.24,-402.7 1003.68,-393.49"/>
<polygon fill="black" stroke="black" points="1006.89,-392.06 999.06,-384.92 1000.72,-395.38 1006.89,-392.06"/>
<text text-anchor="middle" x="1172.43" y="-428.49" font-family="Times,serif" font-size="14.00">)</text>
</g>
<!-- 28 -->
<g id="node29" class="node">
<title>28</title>
<ellipse fill="none" stroke="black" cx="1120" cy="-360.66" rx="20.13" ry="20.13"/>
<ellipse fill="none" stroke="black" cx="1120" cy="-360.66" rx="24.13" ry="24.13"/>
<text text-anchor="middle" x="1120" y="-355.61" font-family="Times,serif" font-size="14.00">28</text>
</g>
<!-- 0&#45;&gt;28 -->
<g id="edge38" class="edge">
<title>0&#45;&gt;28</title>
<path fill="none" stroke="black" d="M1214,-463.13C1204.37,-451.85 1189.53,-436.01 1174,-425.29 1166.8,-420.31 1162.65,-422.98 1156,-417.29 1148.06,-410.5 1141.22,-401.52 1135.7,-392.77"/>
<polygon fill="black" stroke="black" points="1138.88,-391.28 1130.81,-384.41 1132.84,-394.81 1138.88,-391.28"/>
<text text-anchor="middle" x="1196.12" y="-428.49" font-family="Times,serif" font-size="14.00">[</text>
</g>
<!-- 29 -->
<g id="node30" class="node">
<title>29</title>
<ellipse fill="none" stroke="black" cx="1225" cy="-360.66" rx="20.13" ry="20.13"/>
<ellipse fill="none" stroke="black" cx="1225" cy="-360.66" rx="24.13" ry="24.13"/>
<text text-anchor="middle" x="1225" y="-355.61" font-family="Times,serif" font-size="14.00">29</text>
</g>
<!-- 0&#45;&gt;29 -->
<g id="edge39" class="edge">
<title>0&#45;&gt;29</title>
<path fill="none" stroke="black" d="M1225,-459.3C1225,-442.61 1225,-416.98 1225,-396.17"/>
<polygon fill="black" stroke="black" points="1228.5,-396.4 1225,-386.4 1221.5,-396.4 1228.5,-396.4"/>
<text text-anchor="middle" x="1227.25" y="-428.49" font-family="Times,serif" font-size="14.00">]</text>
</g>
<!-- 30 -->
<g id="node31" class="node">
<title>30</title>
<ellipse fill="none" stroke="black" cx="1330" cy="-360.66" rx="20.13" ry="20.13"/>
<ellipse fill="none" stroke="black" cx="1330" cy="-360.66" rx="24.13" ry="24.13"/>
<text text-anchor="middle" x="1330" y="-355.61" font-family="Times,serif" font-size="14.00">30</text>
</g>
<!-- 0&#45;&gt;30 -->
<g id="edge40" class="edge">
<title>0&#45;&gt;30</title>
<path fill="none" stroke="black" d="M1239.27,-466.43C1254.01,-455.3 1277.17,-436.61 1294,-417.29 1300.74,-409.56 1307.14,-400.47 1312.64,-391.9"/>
<polygon fill="black" stroke="black" points="1315.56,-393.83 1317.84,-383.48 1309.6,-390.15 1315.56,-393.83"/>
<text text-anchor="middle" x="1287.48" y="-428.49" font-family="Times,serif" font-size="14.00">,</text>
</g>
<!-- 31 -->
<g id="node33" class="node">
<title>31</title>
<ellipse fill="none" stroke="black" cx="1409" cy="-360.66" rx="27" ry="18"/>
<text text-anchor="middle" x="1409" y="-355.61" font-family="Times,serif" font-size="14.00">31</text>
</g>
<!-- 0&#45;&gt;31 -->
<g id="edge41" class="edge">
<title>0&#45;&gt;31</title>
<path fill="none" stroke="black" d="M1242.61,-473.96C1273.35,-468.24 1337.38,-452.67 1378,-417.29 1386.75,-409.66 1393.54,-398.93 1398.51,-388.92"/>
<polygon fill="black" stroke="black" points="1401.65,-390.47 1402.56,-379.91 1395.26,-387.6 1401.65,-390.47"/>
<text text-anchor="middle" x="1371.79" y="-428.49" font-family="Times,serif" font-size="14.00">=</text>
</g>
<!-- 34 -->
<g id="node35" class="node">
<title>34</title>
<ellipse fill="none" stroke="black" cx="1474" cy="-360.66" rx="20.13" ry="20.13"/>
<text text-anchor="middle" x="1474" y="-355.61" font-family="Times,serif" font-size="14.00">34</text>
</g>
<!-- 0&#45;&gt;34 -->
<g id="edge44" class="edge">
<title>0&#45;&gt;34</title>
<path fill="none" stroke="black" d="M1243.48,-477.03C1284.82,-476.57 1385.79,-469.78 1445,-417.29 1453.05,-410.15 1459.21,-400.23 1463.73,-390.74"/>
<polygon fill="black" stroke="black" points="1466.85,-392.35 1467.57,-381.78 1460.42,-389.6 1466.85,-392.35"/>
<text text-anchor="middle" x="1436.29" y="-428.49" font-family="Times,serif" font-size="14.00">&amp;</text>
</g>
<!-- 37 -->
<g id="node38" class="node">
<title>37</title>
<ellipse fill="none" stroke="black" cx="1532" cy="-360.66" rx="20.13" ry="20.13"/>
<text text-anchor="middle" x="1532" y="-355.61" font-family="Times,serif" font-size="14.00">37</text>
</g>
<!-- 0&#45;&gt;37 -->
<g id="edge47" class="edge">
<title>0&#45;&gt;37</title>
<path fill="none" stroke="black" d="M1243.09,-475.45C1281.24,-472.31 1372.49,-463.05 1446,-441.79 1472.49,-434.13 1482.79,-436.04 1503,-417.29 1510.89,-409.97 1517.01,-400.01 1521.55,-390.54"/>
<polygon fill="black" stroke="black" points="1524.65,-392.18 1525.41,-381.61 1518.23,-389.4 1524.65,-392.18"/>
<text text-anchor="middle" x="1494.4" y="-428.49" font-family="Times,serif" font-size="14.00">|</text>
</g>
<!-- 39 -->
<g id="node40" class="node">
<title>39</title>
<ellipse fill="none" stroke="black" cx="1590" cy="-360.66" rx="20.13" ry="20.13"/>
<text text-anchor="middle" x="1590" y="-355.61" font-family="Times,serif" font-size="14.00">39</text>
</g>
<!-- 0&#45;&gt;39 -->
<g id="edge49" class="edge">
<title>0&#45;&gt;39</title>
<path fill="none" stroke="black" d="M1243.32,-476.07C1287.93,-473.97 1405.44,-466.36 1500,-441.79 1528.28,-434.44 1539.35,-436.9 1561,-417.29 1568.98,-410.06 1575.12,-400.13 1579.65,-390.65"/>
<polygon fill="black" stroke="black" points="1582.76,-392.27 1583.5,-381.7 1576.33,-389.5 1582.76,-392.27"/>
<text text-anchor="middle" x="1554.3" y="-428.49" font-family="Times,serif" font-size="14.00">&lt;</text>
</g>
<!-- 42 -->
<g id="node43" class="node">
<title>42</title>
<ellipse fill="none" stroke="black" cx="1739" cy="-360.66" rx="20.13" ry="20.13"/>
<text text-anchor="middle" x="1739" y="-355.61" font-family="Times,serif" font-size="14.00">42</text>
</g>
<!-- 0&#45;&gt;42 -->
<g id="edge52" class="edge">
<title>0&#45;&gt;42</title>
<path fill="none" stroke="black" d="M1243.24,-476.81C1294.41,-476.47 1443.31,-472.69 1562,-441.79 1588.68,-434.84 1593.82,-428.53 1619,-417.29 1650.46,-403.24 1686.26,-386.55 1710.5,-375.14"/>
<polygon fill="black" stroke="black" points="1711.85,-378.37 1719.41,-370.94 1708.87,-372.04 1711.85,-378.37"/>
<text text-anchor="middle" x="1605.78" y="-428.49" font-family="Times,serif" font-size="14.00">&gt;</text>
</g>
<!-- 45 -->
<g id="node46" class="node">
<title>45</title>
<ellipse fill="none" stroke="black" cx="1928" cy="-360.66" rx="20.13" ry="20.13"/>
<text text-anchor="middle" x="1928" y="-355.61" font-family="Times,serif" font-size="14.00">45</text>
</g>
<!-- 0&#45;&gt;45 -->
<g id="edge55" class="edge">
<title>0&#45;&gt;45</title>
<path fill="none" stroke="black" d="M1243.13,-476.59C1312.39,-475.46 1566.57,-467.9 1768,-417.29 1814.74,-405.54 1867.2,-386.04 1898.91,-373.52"/>
<polygon fill="black" stroke="black" points="1900.21,-376.77 1908.2,-369.81 1897.61,-370.27 1900.21,-376.77"/>
<text text-anchor="middle" x="1727.17" y="-428.49" font-family="Times,serif" font-size="14.00">!</text>
</g>
<!-- 1&#45;&gt;1 -->
<g id="edge4" class="edge">
<title>1&#45;&gt;1</title>
<path fill="none" stroke="black" d="M2120.92,-369.35C2131.15,-371.62 2141,-368.72 2141,-360.66 2141,-355.74 2137.34,-352.74 2132.17,-351.66"/>
<polygon fill="black" stroke="black" points="2132.33,-348.16 2122.43,-351.92 2132.52,-355.16 2132.33,-348.16"/>
<text text-anchor="middle" x="2163.88" y="-355.61" font-family="Times,serif" font-size="14.00">sublinha</text>
</g>
<!-- 1&#45;&gt;2 -->
<g id="edge6" class="edge">
<title>1&#45;&gt;2</title>
<path fill="none" stroke="black" d="M2105,-342.28C2105,-322.65 2105,-290.4 2105,-267.03"/>
<polygon fill="black" stroke="black" points="2108.5,-267.25 2105,-257.25 2101.5,-267.25 2108.5,-267.25"/>
<text text-anchor="middle" x="2117" y="-305.22" font-family="Times,serif" font-size="14.00">letra</text>
</g>
<!-- 3 -->
<g id="node5" class="node">
<title>3</title>
<ellipse fill="none" stroke="black" cx="2109" cy="-138.76" rx="18" ry="18"/>
<ellipse fill="none" stroke="black" cx="2109" cy="-138.76" rx="22" ry="22"/>
<text text-anchor="middle" x="2109" y="-133.71" font-family="Times,serif" font-size="14.00">3</text>
</g>
<!-- 2&#45;&gt;3 -->
<g id="edge7" class="edge">
<title>2&#45;&gt;3</title>
<path fill="none" stroke="black" d="M2105.72,-219.12C2106.25,-206.14 2107,-187.98 2107.65,-172.31"/>
<polygon fill="black" stroke="black" points="2111.14,-172.58 2108.06,-162.45 2104.15,-172.29 2111.14,-172.58"/>
<text text-anchor="middle" x="2124.98" y="-181.96" font-family="Times,serif" font-size="14.00">outro*</text>
</g>
<!-- 4&#45;&gt;4 -->
<g id="edge9" class="edge">
<title>4&#45;&gt;4</title>
<path fill="none" stroke="black" d="M2244.92,-369.35C2255.15,-371.62 2265,-368.72 2265,-360.66 2265,-355.74 2261.34,-352.74 2256.17,-351.66"/>
<polygon fill="black" stroke="black" points="2256.33,-348.16 2246.43,-351.92 2256.52,-355.16 2256.33,-348.16"/>
<text text-anchor="middle" x="2280.75" y="-355.61" font-family="Times,serif" font-size="14.00">digito</text>
</g>
<!-- 5 -->
<g id="node7" class="node">
<title>5</title>
<ellipse fill="none" stroke="black" cx="2233" cy="-237.39" rx="18" ry="18"/>
<ellipse fill="none" stroke="black" cx="2233" cy="-237.39" rx="22" ry="22"/>
<text text-anchor="middle" x="2233" y="-232.34" font-family="Times,serif" font-size="14.00">5</text>
</g>
<!-- 4&#45;&gt;5 -->
<g id="edge10" class="edge">
<title>4&#45;&gt;5</title>
<path fill="none" stroke="black" d="M2229.57,-342.28C2230.18,-323.77 2231.16,-294.02 2231.92,-271.1"/>
<polygon fill="black" stroke="black" points="2235.41,-271.45 2232.24,-261.34 2228.42,-271.22 2235.41,-271.45"/>
<text text-anchor="middle" x="2248.51" y="-305.22" font-family="Times,serif" font-size="14.00">outro*</text>
</g>
<!-- 6 -->
<g id="node8" class="node">
<title>6</title>
<ellipse fill="none" stroke="black" cx="2339" cy="-237.39" rx="18" ry="18"/>
<text text-anchor="middle" x="2339" y="-232.34" font-family="Times,serif" font-size="14.00">6</text>
</g>
<!-- 4&#45;&gt;6 -->
<g id="edge11" class="edge">
<title>4&#45;&gt;6</title>
<path fill="none" stroke="black" d="M2244.06,-349.98C2261.35,-338.3 2289.81,-317.32 2309,-294.02 2316.2,-285.29 2322.47,-274.56 2327.39,-264.86"/>
<polygon fill="black" stroke="black" points="2330.53,-266.41 2331.69,-255.87 2324.21,-263.38 2330.53,-266.41"/>
<text text-anchor="middle" x="2316.98" y="-305.22" font-family="Times,serif" font-size="14.00">ponto</text>
</g>
<!-- 7 -->
<g id="node9" class="node">
<title>7</title>
<ellipse fill="none" stroke="black" cx="2339" cy="-138.76" rx="18" ry="18"/>
<text text-anchor="middle" x="2339" y="-133.71" font-family="Times,serif" font-size="14.00">7</text>
</g>
<!-- 6&#45;&gt;7 -->
<g id="edge12" class="edge">
<title>6&#45;&gt;7</title>
<path fill="none" stroke="black" d="M2339,-219.12C2339,-205.05 2339,-184.9 2339,-168.42"/>
<polygon fill="black" stroke="black" points="2342.5,-168.73 2339,-158.73 2335.5,-168.73 2342.5,-168.73"/>
<text text-anchor="middle" x="2354.75" y="-181.96" font-family="Times,serif" font-size="14.00">digito</text>
</g>
<!-- 7&#45;&gt;7 -->
<g id="edge13" class="edge">
<title>7&#45;&gt;7</title>
<path fill="none" stroke="black" d="M2355.29,-147.17C2365.39,-149.2 2375,-146.4 2375,-138.76 2375,-134.23 2371.61,-131.4 2366.74,-130.27"/>
<polygon fill="black" stroke="black" points="2366.78,-126.77 2356.8,-130.34 2366.83,-133.77 2366.78,-126.77"/>
<text text-anchor="middle" x="2390.75" y="-133.71" font-family="Times,serif" font-size="14.00">digito</text>
</g>
<!-- 8 -->
<g id="node10" class="node">
<title>8</title>
<ellipse fill="none" stroke="black" cx="2343" cy="-40.13" rx="18" ry="18"/>
<ellipse fill="none" stroke="black" cx="2343" cy="-40.13" rx="22" ry="22"/>
<text text-anchor="middle" x="2343" y="-35.08" font-family="Times,serif" font-size="14.00">8</text>
</g>
<!-- 7&#45;&gt;8 -->
<g id="edge14" class="edge">
<title>7&#45;&gt;8</title>
<path fill="none" stroke="black" d="M2339.72,-120.49C2340.25,-107.51 2341,-89.35 2341.65,-73.68"/>
<polygon fill="black" stroke="black" points="2345.14,-73.95 2342.06,-63.82 2338.15,-73.66 2345.14,-73.95"/>
<text text-anchor="middle" x="2358.86" y="-85.46" font-family="Times,serif" font-size="14.00">outro*</text>
</g>
<!-- 10 -->
<g id="node12" class="node">
<title>10</title>
<ellipse fill="none" stroke="black" cx="127" cy="-237.39" rx="20.13" ry="20.13"/>
<text text-anchor="middle" x="127" y="-232.34" font-family="Times,serif" font-size="14.00">10</text>
</g>
<!-- 9&#45;&gt;10 -->
<g id="edge16" class="edge">
<title>9&#45;&gt;10</title>
<path fill="none" stroke="black" d="M212.4,-347.69C199.34,-334.97 178.68,-314 163,-294.02 155.8,-284.85 148.66,-274.23 142.66,-264.73"/>
<polygon fill="black" stroke="black" points="145.67,-262.95 137.44,-256.28 139.72,-266.63 145.67,-262.95"/>
<text text-anchor="middle" x="190.35" y="-305.22" font-family="Times,serif" font-size="14.00">ch</text>
</g>
<!-- 13 -->
<g id="node14" class="node">
<title>13</title>
<ellipse fill="none" stroke="black" cx="192" cy="-237.39" rx="20.13" ry="20.13"/>
<text text-anchor="middle" x="192" y="-232.34" font-family="Times,serif" font-size="14.00">13</text>
</g>
<!-- 9&#45;&gt;13 -->
<g id="edge20" class="edge">
<title>9&#45;&gt;13</title>
<path fill="none" stroke="black" d="M220.41,-342.79C215.17,-323.53 206.49,-291.65 200.1,-268.18"/>
<polygon fill="black" stroke="black" points="203.49,-267.29 197.49,-258.56 196.74,-269.13 203.49,-267.29"/>
<text text-anchor="middle" x="218.63" y="-305.22" font-family="Times,serif" font-size="14.00">\0</text>
</g>
<!-- 14 -->
<g id="node15" class="node">
<title>14</title>
<ellipse fill="none" stroke="black" cx="258" cy="-237.39" rx="20.13" ry="20.13"/>
<text text-anchor="middle" x="258" y="-232.34" font-family="Times,serif" font-size="14.00">14</text>
</g>
<!-- 9&#45;&gt;14 -->
<g id="edge19" class="edge">
<title>9&#45;&gt;14</title>
<path fill="none" stroke="black" d="M229.59,-342.79C234.83,-323.53 243.51,-291.65 249.9,-268.18"/>
<polygon fill="black" stroke="black" points="253.26,-269.13 252.51,-258.56 246.51,-267.29 253.26,-269.13"/>
<text text-anchor="middle" x="245.76" y="-305.22" font-family="Times,serif" font-size="14.00">\n</text>
</g>
<!-- 15 -->
<g id="node16" class="node">
<title>15</title>
<ellipse fill="none" stroke="black" cx="188" cy="-138.76" rx="20.13" ry="20.13"/>
<text text-anchor="middle" x="188" y="-133.71" font-family="Times,serif" font-size="14.00">15</text>
</g>
<!-- 10&#45;&gt;15 -->
<g id="edge17" class="edge">
<title>10&#45;&gt;15</title>
<path fill="none" stroke="black" d="M125.14,-217C124.91,-205.19 126.3,-190.23 133,-178.76 139.25,-168.07 149.72,-159.56 159.86,-153.25"/>
<polygon fill="black" stroke="black" points="161.42,-156.39 168.4,-148.42 157.97,-150.3 161.42,-156.39"/>
<text text-anchor="middle" x="158.5" y="-181.96" font-family="Times,serif" font-size="14.00">apostrofo</text>
</g>
<!-- 12 -->
<g id="node13" class="node">
<title>12</title>
<ellipse fill="none" stroke="black" cx="188" cy="-40.13" rx="20.13" ry="20.13"/>
<ellipse fill="none" stroke="black" cx="188" cy="-40.13" rx="24.13" ry="24.13"/>
<text text-anchor="middle" x="188" y="-35.08" font-family="Times,serif" font-size="14.00">12</text>
</g>
<!-- 13&#45;&gt;15 -->
<g id="edge22" class="edge">
<title>13&#45;&gt;15</title>
<path fill="none" stroke="black" d="M190.38,-217.16C189.85,-210.26 189.33,-202.41 189,-195.26 188.64,-187.33 188.41,-178.77 188.26,-170.79"/>
<polygon fill="black" stroke="black" points="191.76,-170.75 188.11,-160.8 184.76,-170.85 191.76,-170.75"/>
<text text-anchor="middle" x="214.5" y="-181.96" font-family="Times,serif" font-size="14.00">apostrofo</text>
</g>
<!-- 14&#45;&gt;15 -->
<g id="edge21" class="edge">
<title>14&#45;&gt;15</title>
<path fill="none" stroke="black" d="M255.1,-217.15C252.59,-205.26 248.04,-190.15 240,-178.76 233.5,-169.56 224.15,-161.6 215.18,-155.31"/>
<polygon fill="black" stroke="black" points="217.29,-152.51 207,-150 213.47,-158.38 217.29,-152.51"/>
<text text-anchor="middle" x="273.95" y="-181.96" font-family="Times,serif" font-size="14.00">apostrofo</text>
</g>
<!-- 15&#45;&gt;12 -->
<g id="edge18" class="edge">
<title>15&#45;&gt;12</title>
<path fill="none" stroke="black" d="M188,-118.21C188,-106.14 188,-90.32 188,-76.15"/>
<polygon fill="black" stroke="black" points="191.5,-76.27 188,-66.27 184.5,-76.27 191.5,-76.27"/>
<text text-anchor="middle" x="205.62" y="-85.46" font-family="Times,serif" font-size="14.00">outro*</text>
</g>
<!-- 17 -->
<g id="node18" class="node">
<title>17</title>
<ellipse fill="none" stroke="black" cx="378" cy="-138.76" rx="20.13" ry="20.13"/>
<text text-anchor="middle" x="378" y="-133.71" font-family="Times,serif" font-size="14.00">17</text>
</g>
<!-- 16&#45;&gt;17 -->
<g id="edge24" class="edge">
<title>16&#45;&gt;17</title>
<path fill="none" stroke="black" d="M406.14,-347.61C391.97,-335.75 372.19,-316.24 363.75,-294.02 348.02,-252.6 358.44,-200.59 367.87,-168.79"/>
<polygon fill="black" stroke="black" points="371.13,-170.08 370.79,-159.49 364.45,-167.98 371.13,-170.08"/>
<text text-anchor="middle" x="378.38" y="-232.34" font-family="Times,serif" font-size="14.00">aspas</text>
</g>
<!-- 19 -->
<g id="node20" class="node">
<title>19</title>
<ellipse fill="none" stroke="black" cx="422" cy="-237.39" rx="20.13" ry="20.13"/>
<text text-anchor="middle" x="422" y="-232.34" font-family="Times,serif" font-size="14.00">19</text>
</g>
<!-- 16&#45;&gt;19 -->
<g id="edge25" class="edge">
<title>16&#45;&gt;19</title>
<path fill="none" stroke="black" d="M422,-340.17C422,-320.99 422,-291.41 422,-269.07"/>
<polygon fill="black" stroke="black" points="425.5,-269.34 422,-259.34 418.5,-269.34 425.5,-269.34"/>
<text text-anchor="middle" x="428.38" y="-305.22" font-family="Times,serif" font-size="14.00">ch</text>
</g>
<!-- 18 -->
<g id="node19" class="node">
<title>18</title>
<ellipse fill="none" stroke="black" cx="378" cy="-40.13" rx="20.13" ry="20.13"/>
<ellipse fill="none" stroke="black" cx="378" cy="-40.13" rx="24.13" ry="24.13"/>
<text text-anchor="middle" x="378" y="-35.08" font-family="Times,serif" font-size="14.00">18</text>
</g>
<!-- 17&#45;&gt;18 -->
<g id="edge26" class="edge">
<title>17&#45;&gt;18</title>
<path fill="none" stroke="black" d="M378,-118.21C378,-106.14 378,-90.32 378,-76.15"/>
<polygon fill="black" stroke="black" points="381.5,-76.27 378,-66.27 374.5,-76.27 381.5,-76.27"/>
<text text-anchor="middle" x="395.62" y="-85.46" font-family="Times,serif" font-size="14.00">outro*</text>
</g>
<!-- 19&#45;&gt;17 -->
<g id="edge27" class="edge">
<title>19&#45;&gt;17</title>
<path fill="none" stroke="black" d="M413.93,-218.67C407.46,-204.46 398.25,-184.24 390.78,-167.83"/>
<polygon fill="black" stroke="black" points="394.12,-166.73 386.8,-159.08 387.75,-169.63 394.12,-166.73"/>
<text text-anchor="middle" x="417.26" y="-181.96" font-family="Times,serif" font-size="14.00">aspas</text>
</g>
<!-- 21 -->
<g id="node22" class="node">
<title>21</title>
<ellipse fill="none" stroke="black" cx="132" cy="-568.42" rx="20.13" ry="20.13"/>
<text text-anchor="middle" x="132" y="-563.37" font-family="Times,serif" font-size="14.00">21</text>
</g>
<!-- 20&#45;&gt;21 -->
<g id="edge29" class="edge">
<title>20&#45;&gt;21</title>
<path fill="none" stroke="black" d="M66.48,-380.17C79.04,-416.05 106.77,-495.31 121.81,-538.31"/>
<polygon fill="black" stroke="black" points="118.5,-539.45 125.11,-547.73 125.11,-537.13 118.5,-539.45"/>
<text text-anchor="middle" x="120.53" y="-472.74" font-family="Times,serif" font-size="14.00">barra</text>
</g>
<!-- 25 -->
<g id="node26" class="node">
<title>25</title>
<ellipse fill="none" stroke="black" cx="45" cy="-237.39" rx="20.13" ry="20.13"/>
<ellipse fill="none" stroke="black" cx="45" cy="-237.39" rx="24.13" ry="24.13"/>
<text text-anchor="middle" x="45" y="-232.34" font-family="Times,serif" font-size="14.00">25</text>
</g>
<!-- 20&#45;&gt;25 -->
<g id="edge35" class="edge">
<title>20&#45;&gt;25</title>
<path fill="none" stroke="black" d="M53.97,-341.01C51.96,-334.03 49.93,-325.98 48.75,-318.52 46.4,-303.69 45.37,-287.14 44.96,-272.95"/>
<polygon fill="black" stroke="black" points="48.46,-273.12 44.77,-263.19 41.46,-273.25 48.46,-273.12"/>
<text text-anchor="middle" x="66.38" y="-305.22" font-family="Times,serif" font-size="14.00">outro*</text>
</g>
<!-- 21&#45;&gt;0 -->
<g id="edge31" class="edge">
<title>21&#45;&gt;0</title>
<path fill="none" stroke="black" d="M152.38,-565.77C286.1,-554.92 1037.53,-493.99 1195.75,-481.16"/>
<polygon fill="black" stroke="black" points="1195.7,-484.67 1205.38,-480.38 1195.13,-477.7 1195.7,-484.67"/>
<text text-anchor="middle" x="781.65" y="-516.99" font-family="Times,serif" font-size="14.00">\n</text>
</g>
<!-- 21&#45;&gt;21 -->
<g id="edge30" class="edge">
<title>21&#45;&gt;21</title>
<path fill="none" stroke="black" d="M150.83,-576.76C160.93,-578.17 170.13,-575.39 170.13,-568.42 170.13,-564.28 166.89,-561.61 162.14,-560.43"/>
<polygon fill="black" stroke="black" points="162.45,-556.94 152.35,-560.13 162.23,-563.94 162.45,-556.94"/>
<text text-anchor="middle" x="187.76" y="-563.37" font-family="Times,serif" font-size="14.00">outro*</text>
</g>
<!-- 32 -->
<g id="node32" class="node">
<title>32</title>
<ellipse fill="none" stroke="black" cx="1195" cy="-237.39" rx="20.13" ry="20.13"/>
<ellipse fill="none" stroke="black" cx="1195" cy="-237.39" rx="24.13" ry="24.13"/>
<text text-anchor="middle" x="1195" y="-232.34" font-family="Times,serif" font-size="14.00">32</text>
</g>
<!-- 31&#45;&gt;32 -->
<g id="edge42" class="edge">
<title>31&#45;&gt;32</title>
<path fill="none" stroke="black" d="M1396.81,-344.17C1391.59,-338.48 1385.06,-332.46 1378,-328.52 1376.17,-327.5 1232.71,-295.23 1231,-294.02 1222.32,-287.91 1215.22,-278.98 1209.69,-270.05"/>
<polygon fill="black" stroke="black" points="1212.8,-268.45 1204.85,-261.45 1206.7,-271.88 1212.8,-268.45"/>
<text text-anchor="middle" x="1338.3" y="-305.22" font-family="Times,serif" font-size="14.00">=</text>
</g>
<!-- 33 -->
<g id="node34" class="node">
<title>33</title>
<ellipse fill="none" stroke="black" cx="1076" cy="-237.39" rx="20.13" ry="20.13"/>
<ellipse fill="none" stroke="black" cx="1076" cy="-237.39" rx="24.13" ry="24.13"/>
<text text-anchor="middle" x="1076" y="-232.34" font-family="Times,serif" font-size="14.00">33</text>
</g>
<!-- 31&#45;&gt;33 -->
<g id="edge43" class="edge">
<title>31&#45;&gt;33</title>
<path fill="none" stroke="black" d="M1397.41,-343.89C1392.19,-338.01 1385.5,-331.94 1378,-328.52 1347.54,-314.67 1260.9,-323.11 1227.75,-318.52 1175.66,-311.32 1155.32,-323.82 1112,-294.02 1103.25,-288.01 1096.14,-279.1 1090.61,-270.17"/>
<polygon fill="black" stroke="black" points="1093.72,-268.56 1085.78,-261.55 1087.61,-271.98 1093.72,-268.56"/>
<text text-anchor="middle" x="1245.38" y="-305.22" font-family="Times,serif" font-size="14.00">outro*</text>
</g>
<!-- 35 -->
<g id="node36" class="node">
<title>35</title>
<ellipse fill="none" stroke="black" cx="1385" cy="-237.39" rx="20.13" ry="20.13"/>
<ellipse fill="none" stroke="black" cx="1385" cy="-237.39" rx="24.13" ry="24.13"/>
<text text-anchor="middle" x="1385" y="-232.34" font-family="Times,serif" font-size="14.00">35</text>
</g>
<!-- 34&#45;&gt;35 -->
<g id="edge45" class="edge">
<title>34&#45;&gt;35</title>
<path fill="none" stroke="black" d="M1461.11,-344.63C1450.08,-331.55 1433.97,-311.94 1421,-294.02 1415.03,-285.79 1408.9,-276.61 1403.41,-268.11"/>
<polygon fill="black" stroke="black" points="1406.47,-266.39 1398.15,-259.84 1400.56,-270.15 1406.47,-266.39"/>
<text text-anchor="middle" x="1444.9" y="-305.22" font-family="Times,serif" font-size="14.00">&amp;</text>
</g>
<!-- 36 -->
<g id="node37" class="node">
<title>36</title>
<ellipse fill="none" stroke="black" cx="1302" cy="-237.39" rx="20.13" ry="20.13"/>
<ellipse fill="none" stroke="black" cx="1302" cy="-237.39" rx="24.13" ry="24.13"/>
<text text-anchor="middle" x="1302" y="-232.34" font-family="Times,serif" font-size="14.00">36</text>
</g>
<!-- 34&#45;&gt;36 -->
<g id="edge46" class="edge">
<title>34&#45;&gt;36</title>
<path fill="none" stroke="black" d="M1462.61,-343.65C1457.8,-338.02 1451.75,-332.2 1445,-328.52 1422.7,-316.39 1412.91,-326.34 1388.75,-318.52 1364.92,-310.82 1356.78,-310.6 1338,-294.02 1330.17,-287.11 1323.36,-278.1 1317.84,-269.35"/>
<polygon fill="black" stroke="black" points="1321.02,-267.86 1312.93,-261.02 1314.99,-271.41 1321.02,-267.86"/>
<text text-anchor="middle" x="1406.38" y="-305.22" font-family="Times,serif" font-size="14.00">outro*</text>
</g>
<!-- 38 -->
<g id="node39" class="node">
<title>38</title>
<ellipse fill="none" stroke="black" cx="1479" cy="-237.39" rx="20.13" ry="20.13"/>
<ellipse fill="none" stroke="black" cx="1479" cy="-237.39" rx="24.13" ry="24.13"/>
<text text-anchor="middle" x="1479" y="-232.34" font-family="Times,serif" font-size="14.00">38</text>
</g>
<!-- 37&#45;&gt;38 -->
<g id="edge48" class="edge">
<title>37&#45;&gt;38</title>
<path fill="none" stroke="black" d="M1524.18,-341.76C1516.01,-323.08 1503.03,-293.38 1493.08,-270.6"/>
<polygon fill="black" stroke="black" points="1496.28,-269.2 1489.07,-261.44 1489.87,-272 1496.28,-269.2"/>
<text text-anchor="middle" x="1514.84" y="-305.22" font-family="Times,serif" font-size="14.00">|</text>
</g>
<!-- 40 -->
<g id="node41" class="node">
<title>40</title>
<ellipse fill="none" stroke="black" cx="1624" cy="-237.39" rx="20.13" ry="20.13"/>
<ellipse fill="none" stroke="black" cx="1624" cy="-237.39" rx="24.13" ry="24.13"/>
<text text-anchor="middle" x="1624" y="-232.34" font-family="Times,serif" font-size="14.00">40</text>
</g>
<!-- 39&#45;&gt;40 -->
<g id="edge50" class="edge">
<title>39&#45;&gt;40</title>
<path fill="none" stroke="black" d="M1595.24,-340.97C1600.38,-322.64 1608.33,-294.28 1614.57,-272.02"/>
<polygon fill="black" stroke="black" points="1617.92,-273.05 1617.25,-262.48 1611.18,-271.16 1617.92,-273.05"/>
<text text-anchor="middle" x="1610.11" y="-305.22" font-family="Times,serif" font-size="14.00">=</text>
</g>
<!-- 41 -->
<g id="node42" class="node">
<title>41</title>
<ellipse fill="none" stroke="black" cx="1552" cy="-237.39" rx="20.13" ry="20.13"/>
<ellipse fill="none" stroke="black" cx="1552" cy="-237.39" rx="24.13" ry="24.13"/>
<text text-anchor="middle" x="1552" y="-232.34" font-family="Times,serif" font-size="14.00">41</text>
</g>
<!-- 39&#45;&gt;41 -->
<g id="edge51" class="edge">
<title>39&#45;&gt;41</title>
<path fill="none" stroke="black" d="M1577.6,-344.55C1572.17,-337.14 1566.24,-327.83 1562.75,-318.52 1557.39,-304.25 1554.64,-287.67 1553.26,-273.31"/>
<polygon fill="black" stroke="black" points="1556.75,-273.08 1552.5,-263.37 1549.77,-273.61 1556.75,-273.08"/>
<text text-anchor="middle" x="1580.38" y="-305.22" font-family="Times,serif" font-size="14.00">outro*</text>
</g>
<!-- 43 -->
<g id="node44" class="node">
<title>43</title>
<ellipse fill="none" stroke="black" cx="1811" cy="-237.39" rx="20.13" ry="20.13"/>
<ellipse fill="none" stroke="black" cx="1811" cy="-237.39" rx="24.13" ry="24.13"/>
<text text-anchor="middle" x="1811" y="-232.34" font-family="Times,serif" font-size="14.00">43</text>
</g>
<!-- 42&#45;&gt;43 -->
<g id="edge53" class="edge">
<title>42&#45;&gt;43</title>
<path fill="none" stroke="black" d="M1753.74,-346.66C1761.71,-339.06 1771.26,-328.93 1778,-318.52 1787.32,-304.13 1794.88,-286.68 1800.4,-271.74"/>
<polygon fill="black" stroke="black" points="1803.7,-272.92 1803.72,-262.32 1797.1,-270.59 1803.7,-272.92"/>
<text text-anchor="middle" x="1791.48" y="-305.22" font-family="Times,serif" font-size="14.00">=</text>
</g>
<!-- 44 -->
<g id="node45" class="node">
<title>44</title>
<ellipse fill="none" stroke="black" cx="1739" cy="-237.39" rx="20.13" ry="20.13"/>
<ellipse fill="none" stroke="black" cx="1739" cy="-237.39" rx="24.13" ry="24.13"/>
<text text-anchor="middle" x="1739" y="-232.34" font-family="Times,serif" font-size="14.00">44</text>
</g>
<!-- 42&#45;&gt;44 -->
<g id="edge54" class="edge">
<title>42&#45;&gt;44</title>
<path fill="none" stroke="black" d="M1739,-340.17C1739,-322.21 1739,-295.12 1739,-273.41"/>
<polygon fill="black" stroke="black" points="1742.5,-273.5 1739,-263.5 1735.5,-273.5 1742.5,-273.5"/>
<text text-anchor="middle" x="1756.62" y="-305.22" font-family="Times,serif" font-size="14.00">outro*</text>
</g>
<!-- 46 -->
<g id="node47" class="node">
<title>46</title>
<ellipse fill="none" stroke="black" cx="2012" cy="-237.39" rx="20.13" ry="20.13"/>
<ellipse fill="none" stroke="black" cx="2012" cy="-237.39" rx="24.13" ry="24.13"/>
<text text-anchor="middle" x="2012" y="-232.34" font-family="Times,serif" font-size="14.00">46</text>
</g>
<!-- 45&#45;&gt;46 -->
<g id="edge56" class="edge">
<title>45&#45;&gt;46</title>
<path fill="none" stroke="black" d="M1942.27,-346.33C1950.08,-338.62 1959.64,-328.5 1967,-318.52 1978.23,-303.29 1988.72,-284.97 1996.73,-269.69"/>
<polygon fill="black" stroke="black" points="1999.73,-271.52 2001.18,-261.02 1993.5,-268.32 1999.73,-271.52"/>
<text text-anchor="middle" x="1981.05" y="-305.22" font-family="Times,serif" font-size="14.00">=</text>
</g>
<!-- 47 -->
<g id="node48" class="node">
<title>47</title>
<ellipse fill="none" stroke="black" cx="1928" cy="-237.39" rx="20.13" ry="20.13"/>
<ellipse fill="none" stroke="black" cx="1928" cy="-237.39" rx="24.13" ry="24.13"/>
<text text-anchor="middle" x="1928" y="-232.34" font-family="Times,serif" font-size="14.00">47</text>
</g>
<!-- 45&#45;&gt;47 -->
<g id="edge57" class="edge">
<title>45&#45;&gt;47</title>
<path fill="none" stroke="black" d="M1928,-340.17C1928,-322.21 1928,-295.12 1928,-273.41"/>
<polygon fill="black" stroke="black" points="1931.5,-273.5 1928,-263.5 1924.5,-273.5 1931.5,-273.5"/>
<text text-anchor="middle" x="1945.62" y="-305.22" font-family="Times,serif" font-size="14.00">outro*</text>
</g>
</g>
</svg>
