<?xml version="1.0" encoding="UTF-8" standalone="no"?>
<!DOCTYPE svg PUBLIC "-//W3C//DTD SVG 1.1//EN"
 "http://www.w3.org/Graphics/SVG/1.1/DTD/svg11.dtd">
<!-- Generated by graphviz version 12.1.2 (0)
 -->
<!-- Pages: 1 -->
<svg width="2538pt" height="637pt"
 viewBox="0.00 0.00 2538.00 637.05" xmlns="http://www.w3.org/2000/svg" xmlns:xlink="http://www.w3.org/1999/xlink">
<g id="graph0" class="graph" transform="scale(1 1) rotate(0) translate(4 633.05)">
<polygon fill="white" stroke="none" points="-4,4 -4,-633.05 2534,-633.05 2534,4 -4,4"/>
<g id="clust1" class="cluster">
<title>cluster_start</title>
<polygon fill="none" stroke="black" points="1230,-451.79 1230,-618.92 1385,-618.92 1385,-451.79 1230,-451.79"/>
<text text-anchor="middle" x="1307.5" y="-601.62" font-family="Times,serif" font-size="14.00">INICIO</text>
</g>
<g id="clust2" class="cluster">
<title>cluster_id</title>
<polygon fill="#dd8855" stroke="#dd8855" points="2110,-106.63 2110,-411.16 2302,-411.16 2302,-106.63 2110,-106.63"/>
<text text-anchor="middle" x="2206" y="-393.86" font-family="Times,serif" font-size="14.00">ID</text>
</g>
<g id="clust3" class="cluster">
<title>cluster_intcon</title>
<polygon fill="#ffaaff" stroke="#ffaaff" points="2310,-207.39 2310,-411.16 2412,-411.16 2412,-207.39 2310,-207.39"/>
<text text-anchor="middle" x="2361" y="-393.86" font-family="Times,serif" font-size="14.00">INTCON</text>
</g>
<g id="clust4" class="cluster">
<title>cluster_realcon</title>
<polygon fill="#8888dd" stroke="#8888dd" points="2420,-8 2420,-287.89 2522,-287.89 2522,-8 2420,-8"/>
<text text-anchor="middle" x="2471" y="-270.59" font-family="Times,serif" font-size="14.00">REALCON</text>
</g>
<g id="clust5" class="cluster">
<title>cluster_charcon</title>
<polygon fill="#88dd88" stroke="#88dd88" points="88,-104.5 88,-411.16 321,-411.16 321,-104.5 88,-104.5"/>
<text text-anchor="middle" x="204.5" y="-393.86" font-family="Times,serif" font-size="14.00">CHARCON</text>
</g>
<g id="clust6" class="cluster">
<title>cluster_stringcon</title>
<polygon fill="#dd8888" stroke="#dd8888" points="329,-104.5 329,-413.29 481,-413.29 481,-104.5 329,-104.5"/>
<text text-anchor="middle" x="405" y="-395.99" font-family="Times,serif" font-size="14.00">STRINGCON</text>
</g>
<g id="clust7" class="cluster">
<title>cluster_comentario</title>
<polygon fill="#dddd88" stroke="#dddd88" points="960,-540.29 960,-621.05 1140,-621.05 1140,-540.29 960,-540.29"/>
<text text-anchor="middle" x="1050" y="-603.75" font-family="Times,serif" font-size="14.00">COMENTARIO (IGNORAR)</text>
</g>
<g id="clust8" class="cluster">
<title>cluster_mais</title>
<polygon fill="lightgrey" stroke="black" points="489,-328.52 489,-417.29 553,-417.29 553,-328.52 489,-328.52"/>
<text text-anchor="middle" x="521" y="-399.99" font-family="Times,serif" font-size="14.00">MAIS</text>
</g>
<g id="clust9" class="cluster">
<title>cluster_menos</title>
<polygon fill="lightgrey" stroke="black" points="561,-328.52 561,-417.29 625,-417.29 625,-328.52 561,-328.52"/>
<text text-anchor="middle" x="593" y="-399.99" font-family="Times,serif" font-size="14.00">MENOS</text>
</g>
<g id="clust10" class="cluster">
<title>cluster_multiplicacao</title>
<polygon fill="lightgrey" stroke="black" points="633,-328.52 633,-417.29 759,-417.29 759,-328.52 633,-328.52"/>
<text text-anchor="middle" x="696" y="-399.99" font-family="Times,serif" font-size="14.00">MULTIPLICACAO</text>
</g>
<g id="clust11" class="cluster">
<title>cluster_divisao</title>
<polygon fill="lightgrey" stroke="black" points="8,-205.26 8,-294.02 79,-294.02 79,-205.26 8,-205.26"/>
<text text-anchor="middle" x="43.5" y="-276.72" font-family="Times,serif" font-size="14.00">DIVISAO</text>
</g>
<g id="clust12" class="cluster">
<title>cluster_abreparenteses</title>
<polygon fill="lightgrey" stroke="black" points="767,-328.52 767,-417.29 902,-417.29 902,-328.52 767,-328.52"/>
<text text-anchor="middle" x="834.5" y="-399.99" font-family="Times,serif" font-size="14.00">ABREPARENTESES</text>
</g>
<g id="clust13" class="cluster">
<title>cluster_fechaparenteses</title>
<polygon fill="lightgrey" stroke="black" points="910,-328.52 910,-417.29 1053,-417.29 1053,-328.52 910,-328.52"/>
<text text-anchor="middle" x="981.5" y="-399.99" font-family="Times,serif" font-size="14.00">FECHAPARENTESES</text>
</g>
<g id="clust14" class="cluster">
<title>cluster_abrecolchete</title>
<polygon fill="lightgrey" stroke="black" points="1061,-328.52 1061,-417.29 1183,-417.29 1183,-328.52 1061,-328.52"/>
<text text-anchor="middle" x="1122" y="-399.99" font-family="Times,serif" font-size="14.00">ABRECOLCHETE</text>
</g>
<g id="clust15" class="cluster">
<title>cluster_fechacolchete</title>
<polygon fill="lightgrey" stroke="black" points="1191,-328.52 1191,-417.29 1321,-417.29 1321,-328.52 1191,-328.52"/>
<text text-anchor="middle" x="1256" y="-399.99" font-family="Times,serif" font-size="14.00">FECHACOLCHETE</text>
</g>
<g id="clust16" class="cluster">
<title>cluster_virgula</title>
<polygon fill="lightgrey" stroke="black" points="1329,-328.52 1329,-417.29 1405,-417.29 1405,-328.52 1329,-328.52"/>
<text text-anchor="middle" x="1367" y="-399.99" font-family="Times,serif" font-size="14.00">VIRGULA</text>
</g>
<g id="clust17" class="cluster">
<title>cluster_comparacao</title>
<polygon fill="lightgrey" stroke="black" points="1147,-205.26 1147,-294.02 1258,-294.02 1258,-205.26 1147,-205.26"/>
<text text-anchor="middle" x="1202.5" y="-276.72" font-family="Times,serif" font-size="14.00">COMPARACAO</text>
</g>
<g id="clust18" class="cluster">
<title>cluster_atribuicao</title>
<polygon fill="lightgrey" stroke="black" points="1042,-205.26 1042,-294.02 1139,-294.02 1139,-205.26 1042,-205.26"/>
<text text-anchor="middle" x="1090.5" y="-276.72" font-family="Times,serif" font-size="14.00">ATRIBUICAO</text>
</g>
<g id="clust19" class="cluster">
<title>cluster_elogico</title>
<polygon fill="lightgrey" stroke="black" points="1373,-205.26 1373,-294.02 1448,-294.02 1448,-205.26 1373,-205.26"/>
<text text-anchor="middle" x="1410.5" y="-276.72" font-family="Times,serif" font-size="14.00">ELOGICO</text>
</g>
<g id="clust20" class="cluster">
<title>cluster_referencia</title>
<polygon fill="lightgrey" stroke="black" points="1266,-205.26 1266,-294.02 1365,-294.02 1365,-205.26 1266,-205.26"/>
<text text-anchor="middle" x="1315.5" y="-276.72" font-family="Times,serif" font-size="14.00">REFERENCIA</text>
</g>
<g id="clust21" class="cluster">
<title>cluster_oulogico</title>
<polygon fill="lightgrey" stroke="black" points="1456,-205.26 1456,-294.02 1542,-294.02 1542,-205.26 1456,-205.26"/>
<text text-anchor="middle" x="1499" y="-276.72" font-family="Times,serif" font-size="14.00">OULOGICO</text>
</g>
<g id="clust22" class="cluster">
<title>cluster_menorigual</title>
<polygon fill="lightgrey" stroke="black" points="1623,-205.26 1623,-294.02 1730,-294.02 1730,-205.26 1623,-205.26"/>
<text text-anchor="middle" x="1676.5" y="-276.72" font-family="Times,serif" font-size="14.00">MENORIGUAL</text>
</g>
<g id="clust23" class="cluster">
<title>cluster_menor</title>
<polygon fill="lightgrey" stroke="black" points="1550,-205.26 1550,-294.02 1615,-294.02 1615,-205.26 1550,-205.26"/>
<text text-anchor="middle" x="1582.5" y="-276.72" font-family="Times,serif" font-size="14.00">MENOR</text>
</g>
<g id="clust24" class="cluster">
<title>cluster_maiorigual</title>
<polygon fill="lightgrey" stroke="black" points="1810,-205.26 1810,-294.02 1913,-294.02 1913,-205.26 1810,-205.26"/>
<text text-anchor="middle" x="1861.5" y="-276.72" font-family="Times,serif" font-size="14.00">MAIORIGUAL</text>
</g>
<g id="clust25" class="cluster">
<title>cluster_maior</title>
<polygon fill="lightgrey" stroke="black" points="1738,-205.26 1738,-294.02 1802,-294.02 1802,-205.26 1738,-205.26"/>
<text text-anchor="middle" x="1770" y="-276.72" font-family="Times,serif" font-size="14.00">MAIOR</text>
</g>
<g id="clust26" class="cluster">
<title>cluster_diferenca</title>
<polygon fill="lightgrey" stroke="black" points="2011,-205.26 2011,-294.02 2102,-294.02 2102,-205.26 2011,-205.26"/>
<text text-anchor="middle" x="2056.5" y="-276.72" font-family="Times,serif" font-size="14.00">DIFERENCA</text>
</g>
<g id="clust27" class="cluster">
<title>cluster_negacao</title>
<polygon fill="lightgrey" stroke="black" points="1921,-205.26 1921,-294.02 2003,-294.02 2003,-205.26 1921,-205.26"/>
<text text-anchor="middle" x="1962" y="-276.72" font-family="Times,serif" font-size="14.00">NEGACAO</text>
</g>
<!-- Inicio -->
<g id="node1" class="node">
<title>Inicio</title>
</g>
<!-- 0 -->
<g id="node2" class="node">
<title>0</title>
<ellipse fill="none" stroke="black" cx="1256" cy="-477.79" rx="18" ry="18"/>
<text text-anchor="middle" x="1256" y="-472.74" font-family="Times,serif" font-size="14.00">0</text>
</g>
<!-- Inicio&#45;&gt;0 -->
<g id="edge1" class="edge">
<title>Inicio&#45;&gt;0</title>
<path fill="none" stroke="black" d="M1263.31,-550.75C1262.07,-538.52 1260.35,-521.63 1258.89,-507.28"/>
<polygon fill="black" stroke="black" points="1262.39,-507.09 1257.9,-497.49 1255.43,-507.8 1262.39,-507.09"/>
</g>
<!-- 0&#45;&gt;0 -->
<g id="edge2" class="edge">
<title>0&#45;&gt;0</title>
<path fill="none" stroke="black" d="M1272.66,-485.57C1282.62,-487.29 1292,-484.7 1292,-477.79 1292,-473.68 1288.69,-471.1 1283.92,-470.04"/>
<polygon fill="black" stroke="black" points="1284.19,-466.54 1274.18,-470.01 1284.17,-473.54 1284.19,-466.54"/>
<text text-anchor="middle" x="1334.38" y="-472.74" font-family="Times,serif" font-size="14.00">Tab, Espaco, \n</text>
</g>
<!-- 1 -->
<g id="node3" class="node">
<title>1</title>
<ellipse fill="none" stroke="black" cx="2136" cy="-360.66" rx="18" ry="18"/>
<text text-anchor="middle" x="2136" y="-355.61" font-family="Times,serif" font-size="14.00">1</text>
</g>
<!-- 0&#45;&gt;1 -->
<g id="edge3" class="edge">
<title>0&#45;&gt;1</title>
<path fill="none" stroke="black" d="M1274.16,-477C1388.85,-478.21 2010.36,-482.84 2083,-441.79 2103.54,-430.18 2117.56,-406.94 2126,-388.46"/>
<polygon fill="black" stroke="black" points="2129.17,-389.95 2129.84,-379.38 2122.72,-387.22 2129.17,-389.95"/>
<text text-anchor="middle" x="2125.66" y="-428.49" font-family="Times,serif" font-size="14.00">sublinha</text>
</g>
<!-- 2 -->
<g id="node4" class="node">
<title>2</title>
<ellipse fill="none" stroke="black" cx="2136" cy="-237.39" rx="18" ry="18"/>
<text text-anchor="middle" x="2136" y="-232.34" font-family="Times,serif" font-size="14.00">2</text>
</g>
<!-- 0&#45;&gt;2 -->
<g id="edge5" class="edge">
<title>0&#45;&gt;2</title>
<path fill="none" stroke="black" d="M1274.34,-477.1C1374.64,-478.52 1857.06,-481.85 1988,-417.29 2055.04,-384.23 2102.61,-305.2 2123.74,-264.15"/>
<polygon fill="black" stroke="black" points="2126.74,-265.97 2128.09,-255.46 2120.49,-262.84 2126.74,-265.97"/>
<text text-anchor="middle" x="2096.01" y="-355.61" font-family="Times,serif" font-size="14.00">letra</text>
</g>
<!-- 4 -->
<g id="node6" class="node">
<title>4</title>
<ellipse fill="none" stroke="black" cx="2336" cy="-360.66" rx="18" ry="18"/>
<text text-anchor="middle" x="2336" y="-355.61" font-family="Times,serif" font-size="14.00">4</text>
</g>
<!-- 0&#45;&gt;4 -->
<g id="edge9" class="edge">
<title>0&#45;&gt;4</title>
<path fill="none" stroke="black" d="M1274.37,-476.89C1367.96,-477.22 1800.95,-476.71 2153,-441.79 2221.53,-434.99 2249.85,-457.16 2306,-417.29 2315.69,-410.4 2322.56,-399.38 2327.25,-388.95"/>
<polygon fill="black" stroke="black" points="2330.4,-390.5 2330.82,-379.91 2323.89,-387.93 2330.4,-390.5"/>
<text text-anchor="middle" x="2308.77" y="-428.49" font-family="Times,serif" font-size="14.00">digito</text>
</g>
<!-- 9 -->
<g id="node11" class="node">
<title>9</title>
<ellipse fill="none" stroke="black" cx="226" cy="-360.66" rx="18" ry="18"/>
<text text-anchor="middle" x="226" y="-355.61" font-family="Times,serif" font-size="14.00">9</text>
</g>
<!-- 0&#45;&gt;9 -->
<g id="edge16" class="edge">
<title>0&#45;&gt;9</title>
<path fill="none" stroke="black" d="M1237.76,-475.55C1172.31,-471.08 943.09,-455.41 754,-441.79 655.32,-434.68 630.78,-430.86 532,-425.29 486.04,-422.69 369.3,-429.8 325,-417.29 297.05,-409.39 268.48,-392.16 249.27,-378.95"/>
<polygon fill="black" stroke="black" points="251.54,-376.28 241.36,-373.36 247.5,-381.99 251.54,-376.28"/>
<text text-anchor="middle" x="779.5" y="-428.49" font-family="Times,serif" font-size="14.00">apostrofo</text>
</g>
<!-- 14 -->
<g id="node16" class="node">
<title>14</title>
<ellipse fill="none" stroke="black" cx="422" cy="-360.66" rx="20.13" ry="20.13"/>
<text text-anchor="middle" x="422" y="-355.61" font-family="Times,serif" font-size="14.00">14</text>
</g>
<!-- 0&#45;&gt;14 -->
<g id="edge23" class="edge">
<title>0&#45;&gt;14</title>
<path fill="none" stroke="black" d="M1237.94,-475.03C1188.55,-470.2 1047.08,-456.09 929.75,-441.79 875.98,-435.23 862.99,-429.63 809,-425.29 773.1,-422.4 518.52,-430.44 485,-417.29 468.17,-410.68 452.87,-397.43 441.56,-385.52"/>
<polygon fill="black" stroke="black" points="444.38,-383.42 435.08,-378.33 439.17,-388.1 444.38,-383.42"/>
<text text-anchor="middle" x="944.38" y="-428.49" font-family="Times,serif" font-size="14.00">aspas</text>
</g>
<!-- 17 -->
<g id="node19" class="node">
<title>17</title>
<ellipse fill="none" stroke="black" cx="60" cy="-360.66" rx="20.13" ry="20.13"/>
<text text-anchor="middle" x="60" y="-355.61" font-family="Times,serif" font-size="14.00">17</text>
</g>
<!-- 0&#45;&gt;17 -->
<g id="edge28" class="edge">
<title>0&#45;&gt;17</title>
<path fill="none" stroke="black" d="M1237.86,-476.03C1153.92,-472.51 794.72,-457.27 500.25,-441.79 315.19,-432.06 235.78,-523.63 84,-417.29 75.36,-411.24 69.81,-401.39 66.25,-391.65"/>
<polygon fill="black" stroke="black" points="69.69,-390.93 63.46,-382.36 62.98,-392.94 69.69,-390.93"/>
<text text-anchor="middle" x="514.12" y="-428.49" font-family="Times,serif" font-size="14.00">barra</text>
</g>
<!-- 19 -->
<g id="node21" class="node">
<title>19</title>
<ellipse fill="none" stroke="black" cx="521" cy="-360.66" rx="20.13" ry="20.13"/>
<ellipse fill="none" stroke="black" cx="521" cy="-360.66" rx="24.13" ry="24.13"/>
<text text-anchor="middle" x="521" y="-355.61" font-family="Times,serif" font-size="14.00">19</text>
</g>
<!-- 0&#45;&gt;19 -->
<g id="edge32" class="edge">
<title>0&#45;&gt;19</title>
<path fill="none" stroke="black" d="M1237.86,-474.35C1199.98,-469.17 1109.77,-456.33 1034.75,-441.79 1002.63,-435.56 995.47,-429.3 963,-425.29 940.61,-422.52 576.71,-428.26 557,-417.29 547.48,-411.98 540.07,-402.99 534.52,-393.76"/>
<polygon fill="black" stroke="black" points="537.73,-392.32 529.93,-385.15 531.55,-395.62 537.73,-392.32"/>
<text text-anchor="middle" x="1038.88" y="-428.49" font-family="Times,serif" font-size="14.00">+</text>
</g>
<!-- 20 -->
<g id="node22" class="node">
<title>20</title>
<ellipse fill="none" stroke="black" cx="593" cy="-360.66" rx="20.13" ry="20.13"/>
<ellipse fill="none" stroke="black" cx="593" cy="-360.66" rx="24.13" ry="24.13"/>
<text text-anchor="middle" x="593" y="-355.61" font-family="Times,serif" font-size="14.00">20</text>
</g>
<!-- 0&#45;&gt;20 -->
<g id="edge33" class="edge">
<title>0&#45;&gt;20</title>
<path fill="none" stroke="black" d="M1238.4,-473.62C1208.56,-468.11 1146.24,-455.97 1094.5,-441.79 1072.14,-435.66 1067.85,-429.22 1045,-425.29 1022.22,-421.36 649.2,-428.53 629,-417.29 619.48,-411.99 612.07,-402.99 606.52,-393.76"/>
<polygon fill="black" stroke="black" points="609.72,-392.33 601.93,-385.15 603.55,-395.62 609.72,-392.33"/>
<text text-anchor="middle" x="1096.75" y="-428.49" font-family="Times,serif" font-size="14.00">&#45;</text>
</g>
<!-- 21 -->
<g id="node23" class="node">
<title>21</title>
<ellipse fill="none" stroke="black" cx="727" cy="-360.66" rx="20.13" ry="20.13"/>
<ellipse fill="none" stroke="black" cx="727" cy="-360.66" rx="24.13" ry="24.13"/>
<text text-anchor="middle" x="727" y="-355.61" font-family="Times,serif" font-size="14.00">21</text>
</g>
<!-- 0&#45;&gt;21 -->
<g id="edge34" class="edge">
<title>0&#45;&gt;21</title>
<path fill="none" stroke="black" d="M1238.23,-472.67C1214.1,-466.87 1169.78,-455.44 1133.25,-441.79 1117.05,-435.73 1114.84,-429.24 1098,-425.29 1079.88,-421.03 779.25,-426.38 763,-417.29 753.49,-411.96 746.09,-402.96 740.54,-393.73"/>
<polygon fill="black" stroke="black" points="743.74,-392.3 735.94,-385.13 737.56,-395.6 743.74,-392.3"/>
<text text-anchor="middle" x="1136.62" y="-428.49" font-family="Times,serif" font-size="14.00">*</text>
</g>
<!-- 23 -->
<g id="node25" class="node">
<title>23</title>
<ellipse fill="none" stroke="black" cx="870" cy="-360.66" rx="20.13" ry="20.13"/>
<ellipse fill="none" stroke="black" cx="870" cy="-360.66" rx="24.13" ry="24.13"/>
<text text-anchor="middle" x="870" y="-355.61" font-family="Times,serif" font-size="14.00">23</text>
</g>
<!-- 0&#45;&gt;23 -->
<g id="edge36" class="edge">
<title>0&#45;&gt;23</title>
<path fill="none" stroke="black" d="M1239.26,-470.44C1222.05,-463.79 1194.58,-452.77 1171.5,-441.79 1157.58,-435.16 1155.87,-429.32 1141,-425.29 1115.79,-418.44 928.73,-430.16 906,-417.29 896.52,-411.92 889.12,-402.9 883.57,-393.68"/>
<polygon fill="black" stroke="black" points="886.77,-392.25 878.97,-385.08 880.6,-395.55 886.77,-392.25"/>
<text text-anchor="middle" x="1173.75" y="-428.49" font-family="Times,serif" font-size="14.00">(</text>
</g>
<!-- 24 -->
<g id="node26" class="node">
<title>24</title>
<ellipse fill="none" stroke="black" cx="1021" cy="-360.66" rx="20.13" ry="20.13"/>
<ellipse fill="none" stroke="black" cx="1021" cy="-360.66" rx="24.13" ry="24.13"/>
<text text-anchor="middle" x="1021" y="-355.61" font-family="Times,serif" font-size="14.00">24</text>
</g>
<!-- 0&#45;&gt;24 -->
<g id="edge37" class="edge">
<title>0&#45;&gt;24</title>
<path fill="none" stroke="black" d="M1241.25,-467.14C1218.89,-452.56 1178.64,-426.48 1175,-425.29 1150.03,-417.09 1079.65,-430.62 1057,-417.29 1047.61,-411.76 1040.24,-402.7 1034.68,-393.49"/>
<polygon fill="black" stroke="black" points="1037.89,-392.06 1030.06,-384.92 1031.72,-395.38 1037.89,-392.06"/>
<text text-anchor="middle" x="1203.43" y="-428.49" font-family="Times,serif" font-size="14.00">)</text>
</g>
<!-- 25 -->
<g id="node27" class="node">
<title>25</title>
<ellipse fill="none" stroke="black" cx="1151" cy="-360.66" rx="20.13" ry="20.13"/>
<ellipse fill="none" stroke="black" cx="1151" cy="-360.66" rx="24.13" ry="24.13"/>
<text text-anchor="middle" x="1151" y="-355.61" font-family="Times,serif" font-size="14.00">25</text>
</g>
<!-- 0&#45;&gt;25 -->
<g id="edge38" class="edge">
<title>0&#45;&gt;25</title>
<path fill="none" stroke="black" d="M1245,-463.13C1235.37,-451.85 1220.53,-436.01 1205,-425.29 1197.8,-420.31 1193.65,-422.98 1187,-417.29 1179.06,-410.5 1172.22,-401.52 1166.7,-392.77"/>
<polygon fill="black" stroke="black" points="1169.88,-391.28 1161.81,-384.41 1163.84,-394.81 1169.88,-391.28"/>
<text text-anchor="middle" x="1227.12" y="-428.49" font-family="Times,serif" font-size="14.00">[</text>
</g>
<!-- 26 -->
<g id="node28" class="node">
<title>26</title>
<ellipse fill="none" stroke="black" cx="1256" cy="-360.66" rx="20.13" ry="20.13"/>
<ellipse fill="none" stroke="black" cx="1256" cy="-360.66" rx="24.13" ry="24.13"/>
<text text-anchor="middle" x="1256" y="-355.61" font-family="Times,serif" font-size="14.00">26</text>
</g>
<!-- 0&#45;&gt;26 -->
<g id="edge39" class="edge">
<title>0&#45;&gt;26</title>
<path fill="none" stroke="black" d="M1256,-459.3C1256,-442.61 1256,-416.98 1256,-396.17"/>
<polygon fill="black" stroke="black" points="1259.5,-396.4 1256,-386.4 1252.5,-396.4 1259.5,-396.4"/>
<text text-anchor="middle" x="1258.25" y="-428.49" font-family="Times,serif" font-size="14.00">]</text>
</g>
<!-- 27 -->
<g id="node29" class="node">
<title>27</title>
<ellipse fill="none" stroke="black" cx="1361" cy="-360.66" rx="20.13" ry="20.13"/>
<ellipse fill="none" stroke="black" cx="1361" cy="-360.66" rx="24.13" ry="24.13"/>
<text text-anchor="middle" x="1361" y="-355.61" font-family="Times,serif" font-size="14.00">27</text>
</g>
<!-- 0&#45;&gt;27 -->
<g id="edge40" class="edge">
<title>0&#45;&gt;27</title>
<path fill="none" stroke="black" d="M1270.27,-466.43C1285.01,-455.3 1308.17,-436.61 1325,-417.29 1331.74,-409.56 1338.14,-400.47 1343.64,-391.9"/>
<polygon fill="black" stroke="black" points="1346.56,-393.83 1348.84,-383.48 1340.6,-390.15 1346.56,-393.83"/>
<text text-anchor="middle" x="1318.48" y="-428.49" font-family="Times,serif" font-size="14.00">,</text>
</g>
<!-- 28 -->
<g id="node31" class="node">
<title>28</title>
<ellipse fill="none" stroke="black" cx="1440" cy="-360.66" rx="27" ry="18"/>
<text text-anchor="middle" x="1440" y="-355.61" font-family="Times,serif" font-size="14.00">28</text>
</g>
<!-- 0&#45;&gt;28 -->
<g id="edge41" class="edge">
<title>0&#45;&gt;28</title>
<path fill="none" stroke="black" d="M1273.61,-473.96C1304.35,-468.24 1368.38,-452.67 1409,-417.29 1417.75,-409.66 1424.54,-398.93 1429.51,-388.92"/>
<polygon fill="black" stroke="black" points="1432.65,-390.47 1433.56,-379.91 1426.26,-387.6 1432.65,-390.47"/>
<text text-anchor="middle" x="1402.79" y="-428.49" font-family="Times,serif" font-size="14.00">=</text>
</g>
<!-- 31 -->
<g id="node33" class="node">
<title>31</title>
<ellipse fill="none" stroke="black" cx="1505" cy="-360.66" rx="20.13" ry="20.13"/>
<text text-anchor="middle" x="1505" y="-355.61" font-family="Times,serif" font-size="14.00">31</text>
</g>
<!-- 0&#45;&gt;31 -->
<g id="edge44" class="edge">
<title>0&#45;&gt;31</title>
<path fill="none" stroke="black" d="M1274.48,-477.03C1315.82,-476.57 1416.79,-469.78 1476,-417.29 1484.05,-410.15 1490.21,-400.23 1494.73,-390.74"/>
<polygon fill="black" stroke="black" points="1497.85,-392.35 1498.57,-381.78 1491.42,-389.6 1497.85,-392.35"/>
<text text-anchor="middle" x="1467.29" y="-428.49" font-family="Times,serif" font-size="14.00">&amp;</text>
</g>
<!-- 34 -->
<g id="node36" class="node">
<title>34</title>
<ellipse fill="none" stroke="black" cx="1563" cy="-360.66" rx="20.13" ry="20.13"/>
<text text-anchor="middle" x="1563" y="-355.61" font-family="Times,serif" font-size="14.00">34</text>
</g>
<!-- 0&#45;&gt;34 -->
<g id="edge47" class="edge">
<title>0&#45;&gt;34</title>
<path fill="none" stroke="black" d="M1274.09,-475.45C1312.24,-472.31 1403.49,-463.05 1477,-441.79 1503.49,-434.13 1513.79,-436.04 1534,-417.29 1541.89,-409.97 1548.01,-400.01 1552.55,-390.54"/>
<polygon fill="black" stroke="black" points="1555.65,-392.18 1556.41,-381.61 1549.23,-389.4 1555.65,-392.18"/>
<text text-anchor="middle" x="1525.4" y="-428.49" font-family="Times,serif" font-size="14.00">|</text>
</g>
<!-- 36 -->
<g id="node38" class="node">
<title>36</title>
<ellipse fill="none" stroke="black" cx="1621" cy="-360.66" rx="20.13" ry="20.13"/>
<text text-anchor="middle" x="1621" y="-355.61" font-family="Times,serif" font-size="14.00">36</text>
</g>
<!-- 0&#45;&gt;36 -->
<g id="edge49" class="edge">
<title>0&#45;&gt;36</title>
<path fill="none" stroke="black" d="M1274.32,-476.07C1318.93,-473.97 1436.44,-466.36 1531,-441.79 1559.28,-434.44 1570.35,-436.9 1592,-417.29 1599.98,-410.06 1606.12,-400.13 1610.65,-390.65"/>
<polygon fill="black" stroke="black" points="1613.76,-392.27 1614.5,-381.7 1607.33,-389.5 1613.76,-392.27"/>
<text text-anchor="middle" x="1585.3" y="-428.49" font-family="Times,serif" font-size="14.00">&lt;</text>
</g>
<!-- 39 -->
<g id="node41" class="node">
<title>39</title>
<ellipse fill="none" stroke="black" cx="1770" cy="-360.66" rx="20.13" ry="20.13"/>
<text text-anchor="middle" x="1770" y="-355.61" font-family="Times,serif" font-size="14.00">39</text>
</g>
<!-- 0&#45;&gt;39 -->
<g id="edge52" class="edge">
<title>0&#45;&gt;39</title>
<path fill="none" stroke="black" d="M1274.24,-476.81C1325.41,-476.47 1474.31,-472.69 1593,-441.79 1619.68,-434.84 1624.82,-428.53 1650,-417.29 1681.46,-403.24 1717.26,-386.55 1741.5,-375.14"/>
<polygon fill="black" stroke="black" points="1742.85,-378.37 1750.41,-370.94 1739.87,-372.04 1742.85,-378.37"/>
<text text-anchor="middle" x="1636.78" y="-428.49" font-family="Times,serif" font-size="14.00">&gt;</text>
</g>
<!-- 42 -->
<g id="node44" class="node">
<title>42</title>
<ellipse fill="none" stroke="black" cx="1959" cy="-360.66" rx="20.13" ry="20.13"/>
<text text-anchor="middle" x="1959" y="-355.61" font-family="Times,serif" font-size="14.00">42</text>
</g>
<!-- 0&#45;&gt;42 -->
<g id="edge55" class="edge">
<title>0&#45;&gt;42</title>
<path fill="none" stroke="black" d="M1274.13,-476.59C1343.39,-475.46 1597.57,-467.9 1799,-417.29 1845.74,-405.54 1898.2,-386.04 1929.91,-373.52"/>
<polygon fill="black" stroke="black" points="1931.21,-376.77 1939.2,-369.81 1928.61,-370.27 1931.21,-376.77"/>
<text text-anchor="middle" x="1758.17" y="-428.49" font-family="Times,serif" font-size="14.00">!</text>
</g>
<!-- 1&#45;&gt;1 -->
<g id="edge4" class="edge">
<title>1&#45;&gt;1</title>
<path fill="none" stroke="black" d="M2151.92,-369.35C2162.15,-371.62 2172,-368.72 2172,-360.66 2172,-355.74 2168.34,-352.74 2163.17,-351.66"/>
<polygon fill="black" stroke="black" points="2163.33,-348.16 2153.43,-351.92 2163.52,-355.16 2163.33,-348.16"/>
<text text-anchor="middle" x="2194.88" y="-355.61" font-family="Times,serif" font-size="14.00">sublinha</text>
</g>
<!-- 1&#45;&gt;2 -->
<g id="edge6" class="edge">
<title>1&#45;&gt;2</title>
<path fill="none" stroke="black" d="M2136,-342.28C2136,-322.65 2136,-290.4 2136,-267.03"/>
<polygon fill="black" stroke="black" points="2139.5,-267.25 2136,-257.25 2132.5,-267.25 2139.5,-267.25"/>
<text text-anchor="middle" x="2148" y="-305.22" font-family="Times,serif" font-size="14.00">letra</text>
</g>
<!-- 2&#45;&gt;2 -->
<g id="edge7" class="edge">
<title>2&#45;&gt;2</title>
<path fill="none" stroke="black" d="M2151.92,-246.09C2162.15,-248.36 2172,-245.46 2172,-237.39 2172,-232.48 2168.34,-229.48 2163.17,-228.4"/>
<polygon fill="black" stroke="black" points="2163.33,-224.9 2153.43,-228.65 2163.52,-231.89 2163.33,-224.9"/>
<text text-anchor="middle" x="2232.75" y="-232.34" font-family="Times,serif" font-size="14.00">letra, digito, apostrofo</text>
</g>
<!-- 3 -->
<g id="node5" class="node">
<title>3</title>
<ellipse fill="none" stroke="black" cx="2140" cy="-136.63" rx="18" ry="18"/>
<ellipse fill="none" stroke="black" cx="2140" cy="-136.63" rx="22" ry="22"/>
<text text-anchor="middle" x="2140" y="-131.58" font-family="Times,serif" font-size="14.00">3</text>
</g>
<!-- 2&#45;&gt;3 -->
<g id="edge8" class="edge">
<title>2&#45;&gt;3</title>
<path fill="none" stroke="black" d="M2136.7,-219.19C2137.24,-205.67 2138.02,-186.45 2138.69,-170.07"/>
<polygon fill="black" stroke="black" points="2142.18,-170.4 2139.08,-160.27 2135.18,-170.12 2142.18,-170.4"/>
<text text-anchor="middle" x="2155.86" y="-181.96" font-family="Times,serif" font-size="14.00">outro*</text>
</g>
<!-- 4&#45;&gt;4 -->
<g id="edge10" class="edge">
<title>4&#45;&gt;4</title>
<path fill="none" stroke="black" d="M2351.92,-369.35C2362.15,-371.62 2372,-368.72 2372,-360.66 2372,-355.74 2368.34,-352.74 2363.17,-351.66"/>
<polygon fill="black" stroke="black" points="2363.33,-348.16 2353.43,-351.92 2363.52,-355.16 2363.33,-348.16"/>
<text text-anchor="middle" x="2387.75" y="-355.61" font-family="Times,serif" font-size="14.00">digito</text>
</g>
<!-- 5 -->
<g id="node7" class="node">
<title>5</title>
<ellipse fill="none" stroke="black" cx="2340" cy="-237.39" rx="18" ry="18"/>
<ellipse fill="none" stroke="black" cx="2340" cy="-237.39" rx="22" ry="22"/>
<text text-anchor="middle" x="2340" y="-232.34" font-family="Times,serif" font-size="14.00">5</text>
</g>
<!-- 4&#45;&gt;5 -->
<g id="edge11" class="edge">
<title>4&#45;&gt;5</title>
<path fill="none" stroke="black" d="M2336.57,-342.28C2337.18,-323.77 2338.16,-294.02 2338.92,-271.1"/>
<polygon fill="black" stroke="black" points="2342.41,-271.45 2339.24,-261.34 2335.42,-271.22 2342.41,-271.45"/>
<text text-anchor="middle" x="2355.51" y="-305.22" font-family="Times,serif" font-size="14.00">outro*</text>
</g>
<!-- 6 -->
<g id="node8" class="node">
<title>6</title>
<ellipse fill="none" stroke="black" cx="2446" cy="-237.39" rx="18" ry="18"/>
<text text-anchor="middle" x="2446" y="-232.34" font-family="Times,serif" font-size="14.00">6</text>
</g>
<!-- 4&#45;&gt;6 -->
<g id="edge12" class="edge">
<title>4&#45;&gt;6</title>
<path fill="none" stroke="black" d="M2351.06,-349.98C2368.35,-338.3 2396.81,-317.32 2416,-294.02 2423.2,-285.29 2429.47,-274.56 2434.39,-264.86"/>
<polygon fill="black" stroke="black" points="2437.53,-266.41 2438.69,-255.87 2431.21,-263.38 2437.53,-266.41"/>
<text text-anchor="middle" x="2423.98" y="-305.22" font-family="Times,serif" font-size="14.00">ponto</text>
</g>
<!-- 7 -->
<g id="node9" class="node">
<title>7</title>
<ellipse fill="none" stroke="black" cx="2446" cy="-136.63" rx="18" ry="18"/>
<text text-anchor="middle" x="2446" y="-131.58" font-family="Times,serif" font-size="14.00">7</text>
</g>
<!-- 6&#45;&gt;7 -->
<g id="edge13" class="edge">
<title>6&#45;&gt;7</title>
<path fill="none" stroke="black" d="M2446,-219.19C2446,-204.55 2446,-183.23 2446,-166.06"/>
<polygon fill="black" stroke="black" points="2449.5,-166.48 2446,-156.48 2442.5,-166.48 2449.5,-166.48"/>
<text text-anchor="middle" x="2461.75" y="-181.96" font-family="Times,serif" font-size="14.00">digito</text>
</g>
<!-- 7&#45;&gt;7 -->
<g id="edge14" class="edge">
<title>7&#45;&gt;7</title>
<path fill="none" stroke="black" d="M2461.92,-145.33C2472.15,-147.6 2482,-144.7 2482,-136.63 2482,-131.71 2478.34,-128.72 2473.17,-127.64"/>
<polygon fill="black" stroke="black" points="2473.33,-124.13 2463.43,-127.89 2473.52,-131.13 2473.33,-124.13"/>
<text text-anchor="middle" x="2497.75" y="-131.58" font-family="Times,serif" font-size="14.00">digito</text>
</g>
<!-- 8 -->
<g id="node10" class="node">
<title>8</title>
<ellipse fill="none" stroke="black" cx="2450" cy="-38" rx="18" ry="18"/>
<ellipse fill="none" stroke="black" cx="2450" cy="-38" rx="22" ry="22"/>
<text text-anchor="middle" x="2450" y="-32.95" font-family="Times,serif" font-size="14.00">8</text>
</g>
<!-- 7&#45;&gt;8 -->
<g id="edge15" class="edge">
<title>7&#45;&gt;8</title>
<path fill="none" stroke="black" d="M2446.72,-118.36C2447.25,-105.38 2448,-87.22 2448.65,-71.55"/>
<polygon fill="black" stroke="black" points="2452.14,-71.82 2449.06,-61.68 2445.15,-71.53 2452.14,-71.82"/>
<text text-anchor="middle" x="2465.98" y="-81.2" font-family="Times,serif" font-size="14.00">outro*</text>
</g>
<!-- 10 -->
<g id="node12" class="node">
<title>10</title>
<ellipse fill="none" stroke="black" cx="120" cy="-237.39" rx="20.13" ry="20.13"/>
<text text-anchor="middle" x="120" y="-232.34" font-family="Times,serif" font-size="14.00">10</text>
</g>
<!-- 9&#45;&gt;10 -->
<g id="edge17" class="edge">
<title>9&#45;&gt;10</title>
<path fill="none" stroke="black" d="M213.78,-347.38C201.03,-334.41 180.61,-313.23 164,-294.02 155.33,-284 146.18,-272.58 138.48,-262.7"/>
<polygon fill="black" stroke="black" points="141.41,-260.77 132.53,-254.99 135.87,-265.05 141.41,-260.77"/>
<text text-anchor="middle" x="191.98" y="-305.22" font-family="Times,serif" font-size="14.00">ch</text>
</g>
<!-- 12 -->
<g id="node14" class="node">
<title>12</title>
<ellipse fill="none" stroke="black" cx="193" cy="-237.39" rx="20.13" ry="20.13"/>
<text text-anchor="middle" x="193" y="-232.34" font-family="Times,serif" font-size="14.00">12</text>
</g>
<!-- 9&#45;&gt;12 -->
<g id="edge19" class="edge">
<title>9&#45;&gt;12</title>
<path fill="none" stroke="black" d="M221.41,-342.79C216.17,-323.53 207.49,-291.65 201.1,-268.18"/>
<polygon fill="black" stroke="black" points="204.49,-267.29 198.49,-258.56 197.74,-269.13 204.49,-267.29"/>
<text text-anchor="middle" x="219.63" y="-305.22" font-family="Times,serif" font-size="14.00">\n</text>
</g>
<!-- 13 -->
<g id="node15" class="node">
<title>13</title>
<ellipse fill="none" stroke="black" cx="258" cy="-237.39" rx="20.13" ry="20.13"/>
<text text-anchor="middle" x="258" y="-232.34" font-family="Times,serif" font-size="14.00">13</text>
</g>
<!-- 9&#45;&gt;13 -->
<g id="edge20" class="edge">
<title>9&#45;&gt;13</title>
<path fill="none" stroke="black" d="M230.45,-342.79C235.53,-323.53 243.95,-291.65 250.14,-268.18"/>
<polygon fill="black" stroke="black" points="253.51,-269.13 252.68,-258.56 246.74,-267.34 253.51,-269.13"/>
<text text-anchor="middle" x="246.29" y="-305.22" font-family="Times,serif" font-size="14.00">\0</text>
</g>
<!-- 11 -->
<g id="node13" class="node">
<title>11</title>
<ellipse fill="none" stroke="black" cx="188" cy="-136.63" rx="20.13" ry="20.13"/>
<ellipse fill="none" stroke="black" cx="188" cy="-136.63" rx="24.13" ry="24.13"/>
<text text-anchor="middle" x="188" y="-131.58" font-family="Times,serif" font-size="14.00">11</text>
</g>
<!-- 10&#45;&gt;11 -->
<g id="edge18" class="edge">
<title>10&#45;&gt;11</title>
<path fill="none" stroke="black" d="M121.01,-216.92C122.41,-205.09 125.63,-190.12 133,-178.76 139.1,-169.36 148.13,-161.31 157.13,-154.9"/>
<polygon fill="black" stroke="black" points="159.03,-157.84 165.46,-149.42 155.18,-151.99 159.03,-157.84"/>
<text text-anchor="middle" x="158.5" y="-181.96" font-family="Times,serif" font-size="14.00">apostrofo</text>
</g>
<!-- 12&#45;&gt;11 -->
<g id="edge21" class="edge">
<title>12&#45;&gt;11</title>
<path fill="none" stroke="black" d="M190.81,-217.17C190.11,-210.27 189.41,-202.43 189,-195.26 188.58,-187.92 188.32,-180.04 188.16,-172.54"/>
<polygon fill="black" stroke="black" points="191.66,-172.66 188.01,-162.71 184.66,-172.77 191.66,-172.66"/>
<text text-anchor="middle" x="214.5" y="-181.96" font-family="Times,serif" font-size="14.00">apostrofo</text>
</g>
<!-- 13&#45;&gt;11 -->
<g id="edge22" class="edge">
<title>13&#45;&gt;11</title>
<path fill="none" stroke="black" d="M255,-217.22C252.45,-205.36 247.9,-190.25 240,-178.76 234.19,-170.31 226.12,-162.75 218.07,-156.5"/>
<polygon fill="black" stroke="black" points="220.15,-153.68 210,-150.66 216.05,-159.36 220.15,-153.68"/>
<text text-anchor="middle" x="273.83" y="-181.96" font-family="Times,serif" font-size="14.00">apostrofo</text>
</g>
<!-- 15 -->
<g id="node17" class="node">
<title>15</title>
<ellipse fill="none" stroke="black" cx="380" cy="-136.63" rx="20.13" ry="20.13"/>
<ellipse fill="none" stroke="black" cx="380" cy="-136.63" rx="24.13" ry="24.13"/>
<text text-anchor="middle" x="380" y="-131.58" font-family="Times,serif" font-size="14.00">15</text>
</g>
<!-- 14&#45;&gt;15 -->
<g id="edge24" class="edge">
<title>14&#45;&gt;15</title>
<path fill="none" stroke="black" d="M406.14,-347.61C391.97,-335.75 372.19,-316.24 363.75,-294.02 348.32,-253.39 358.37,-202.8 368.17,-170.36"/>
<polygon fill="black" stroke="black" points="371.41,-171.72 371.13,-161.13 364.75,-169.59 371.41,-171.72"/>
<text text-anchor="middle" x="378.38" y="-232.34" font-family="Times,serif" font-size="14.00">aspas</text>
</g>
<!-- 16 -->
<g id="node18" class="node">
<title>16</title>
<ellipse fill="none" stroke="black" cx="422" cy="-237.39" rx="20.13" ry="20.13"/>
<text text-anchor="middle" x="422" y="-232.34" font-family="Times,serif" font-size="14.00">16</text>
</g>
<!-- 14&#45;&gt;16 -->
<g id="edge25" class="edge">
<title>14&#45;&gt;16</title>
<path fill="none" stroke="black" d="M422,-340.17C422,-320.99 422,-291.41 422,-269.07"/>
<polygon fill="black" stroke="black" points="425.5,-269.34 422,-259.34 418.5,-269.34 425.5,-269.34"/>
<text text-anchor="middle" x="428.38" y="-305.22" font-family="Times,serif" font-size="14.00">ch</text>
</g>
<!-- 16&#45;&gt;15 -->
<g id="edge27" class="edge">
<title>16&#45;&gt;15</title>
<path fill="none" stroke="black" d="M414.3,-218.28C408.56,-204.8 400.58,-186.03 393.76,-169.99"/>
<polygon fill="black" stroke="black" points="396.99,-168.65 389.86,-160.82 390.55,-171.39 396.99,-168.65"/>
<text text-anchor="middle" x="418.14" y="-181.96" font-family="Times,serif" font-size="14.00">aspas</text>
</g>
<!-- 16&#45;&gt;16 -->
<g id="edge26" class="edge">
<title>16&#45;&gt;16</title>
<path fill="none" stroke="black" d="M440.44,-246.39C450.69,-248.07 460.13,-245.07 460.13,-237.39 460.13,-232.72 456.63,-229.78 451.57,-228.57"/>
<polygon fill="black" stroke="black" points="452.01,-225.08 441.95,-228.42 451.9,-232.08 452.01,-225.08"/>
<text text-anchor="middle" x="466.51" y="-232.34" font-family="Times,serif" font-size="14.00">ch</text>
</g>
<!-- 18 -->
<g id="node20" class="node">
<title>18</title>
<ellipse fill="none" stroke="black" cx="1023" cy="-568.42" rx="20.13" ry="20.13"/>
<text text-anchor="middle" x="1023" y="-563.37" font-family="Times,serif" font-size="14.00">18</text>
</g>
<!-- 17&#45;&gt;18 -->
<g id="edge29" class="edge">
<title>17&#45;&gt;18</title>
<path fill="none" stroke="black" d="M63.32,-380.84C67.72,-399.81 77.45,-427.93 98,-441.79 248.8,-543.48 846.26,-563.43 991.2,-566.8"/>
<polygon fill="black" stroke="black" points="991.11,-570.3 1001.19,-567.02 991.27,-563.3 991.11,-570.3"/>
<text text-anchor="middle" x="251.2" y="-472.74" font-family="Times,serif" font-size="14.00">barra</text>
</g>
<!-- 22 -->
<g id="node24" class="node">
<title>22</title>
<ellipse fill="none" stroke="black" cx="45" cy="-237.39" rx="20.13" ry="20.13"/>
<ellipse fill="none" stroke="black" cx="45" cy="-237.39" rx="24.13" ry="24.13"/>
<text text-anchor="middle" x="45" y="-232.34" font-family="Times,serif" font-size="14.00">22</text>
</g>
<!-- 17&#45;&gt;22 -->
<g id="edge35" class="edge">
<title>17&#45;&gt;22</title>
<path fill="none" stroke="black" d="M53.97,-341.01C51.96,-334.03 49.93,-325.98 48.75,-318.52 46.4,-303.69 45.37,-287.14 44.96,-272.95"/>
<polygon fill="black" stroke="black" points="48.46,-273.12 44.77,-263.19 41.46,-273.25 48.46,-273.12"/>
<text text-anchor="middle" x="66.38" y="-305.22" font-family="Times,serif" font-size="14.00">outro*</text>
</g>
<!-- 18&#45;&gt;0 -->
<g id="edge31" class="edge">
<title>18&#45;&gt;0</title>
<path fill="none" stroke="black" d="M1041.67,-560.31C1082.66,-544.72 1180.67,-507.44 1228.63,-489.2"/>
<polygon fill="black" stroke="black" points="1229.63,-492.56 1237.73,-485.74 1227.14,-486.02 1229.63,-492.56"/>
<text text-anchor="middle" x="1165.62" y="-516.99" font-family="Times,serif" font-size="14.00">\n</text>
</g>
<!-- 18&#45;&gt;18 -->
<g id="edge30" class="edge">
<title>18&#45;&gt;18</title>
<path fill="none" stroke="black" d="M1041.83,-576.76C1051.93,-578.17 1061.13,-575.39 1061.13,-568.42 1061.13,-564.28 1057.89,-561.61 1053.14,-560.43"/>
<polygon fill="black" stroke="black" points="1053.45,-556.94 1043.35,-560.13 1053.23,-563.94 1053.45,-556.94"/>
<text text-anchor="middle" x="1078.76" y="-563.37" font-family="Times,serif" font-size="14.00">outro*</text>
</g>
<!-- 29 -->
<g id="node30" class="node">
<title>29</title>
<ellipse fill="none" stroke="black" cx="1226" cy="-237.39" rx="20.13" ry="20.13"/>
<ellipse fill="none" stroke="black" cx="1226" cy="-237.39" rx="24.13" ry="24.13"/>
<text text-anchor="middle" x="1226" y="-232.34" font-family="Times,serif" font-size="14.00">29</text>
</g>
<!-- 28&#45;&gt;29 -->
<g id="edge42" class="edge">
<title>28&#45;&gt;29</title>
<path fill="none" stroke="black" d="M1427.81,-344.17C1422.59,-338.48 1416.06,-332.46 1409,-328.52 1407.17,-327.5 1263.71,-295.23 1262,-294.02 1253.32,-287.91 1246.22,-278.98 1240.69,-270.05"/>
<polygon fill="black" stroke="black" points="1243.8,-268.45 1235.85,-261.45 1237.7,-271.88 1243.8,-268.45"/>
<text text-anchor="middle" x="1369.3" y="-305.22" font-family="Times,serif" font-size="14.00">=</text>
</g>
<!-- 30 -->
<g id="node32" class="node">
<title>30</title>
<ellipse fill="none" stroke="black" cx="1107" cy="-237.39" rx="20.13" ry="20.13"/>
<ellipse fill="none" stroke="black" cx="1107" cy="-237.39" rx="24.13" ry="24.13"/>
<text text-anchor="middle" x="1107" y="-232.34" font-family="Times,serif" font-size="14.00">30</text>
</g>
<!-- 28&#45;&gt;30 -->
<g id="edge43" class="edge">
<title>28&#45;&gt;30</title>
<path fill="none" stroke="black" d="M1428.41,-343.89C1423.19,-338.01 1416.5,-331.94 1409,-328.52 1378.54,-314.67 1291.9,-323.11 1258.75,-318.52 1206.66,-311.32 1186.32,-323.82 1143,-294.02 1134.25,-288.01 1127.14,-279.1 1121.61,-270.17"/>
<polygon fill="black" stroke="black" points="1124.72,-268.56 1116.78,-261.55 1118.61,-271.98 1124.72,-268.56"/>
<text text-anchor="middle" x="1276.38" y="-305.22" font-family="Times,serif" font-size="14.00">outro*</text>
</g>
<!-- 32 -->
<g id="node34" class="node">
<title>32</title>
<ellipse fill="none" stroke="black" cx="1416" cy="-237.39" rx="20.13" ry="20.13"/>
<ellipse fill="none" stroke="black" cx="1416" cy="-237.39" rx="24.13" ry="24.13"/>
<text text-anchor="middle" x="1416" y="-232.34" font-family="Times,serif" font-size="14.00">32</text>
</g>
<!-- 31&#45;&gt;32 -->
<g id="edge45" class="edge">
<title>31&#45;&gt;32</title>
<path fill="none" stroke="black" d="M1492.11,-344.63C1481.08,-331.55 1464.97,-311.94 1452,-294.02 1446.03,-285.79 1439.9,-276.61 1434.41,-268.11"/>
<polygon fill="black" stroke="black" points="1437.47,-266.39 1429.15,-259.84 1431.56,-270.15 1437.47,-266.39"/>
<text text-anchor="middle" x="1475.9" y="-305.22" font-family="Times,serif" font-size="14.00">&amp;</text>
</g>
<!-- 33 -->
<g id="node35" class="node">
<title>33</title>
<ellipse fill="none" stroke="black" cx="1333" cy="-237.39" rx="20.13" ry="20.13"/>
<ellipse fill="none" stroke="black" cx="1333" cy="-237.39" rx="24.13" ry="24.13"/>
<text text-anchor="middle" x="1333" y="-232.34" font-family="Times,serif" font-size="14.00">33</text>
</g>
<!-- 31&#45;&gt;33 -->
<g id="edge46" class="edge">
<title>31&#45;&gt;33</title>
<path fill="none" stroke="black" d="M1493.61,-343.65C1488.8,-338.02 1482.75,-332.2 1476,-328.52 1453.7,-316.39 1443.91,-326.34 1419.75,-318.52 1395.92,-310.82 1387.78,-310.6 1369,-294.02 1361.17,-287.11 1354.36,-278.1 1348.84,-269.35"/>
<polygon fill="black" stroke="black" points="1352.02,-267.86 1343.93,-261.02 1345.99,-271.41 1352.02,-267.86"/>
<text text-anchor="middle" x="1437.38" y="-305.22" font-family="Times,serif" font-size="14.00">outro*</text>
</g>
<!-- 35 -->
<g id="node37" class="node">
<title>35</title>
<ellipse fill="none" stroke="black" cx="1510" cy="-237.39" rx="20.13" ry="20.13"/>
<ellipse fill="none" stroke="black" cx="1510" cy="-237.39" rx="24.13" ry="24.13"/>
<text text-anchor="middle" x="1510" y="-232.34" font-family="Times,serif" font-size="14.00">35</text>
</g>
<!-- 34&#45;&gt;35 -->
<g id="edge48" class="edge">
<title>34&#45;&gt;35</title>
<path fill="none" stroke="black" d="M1555.18,-341.76C1547.01,-323.08 1534.03,-293.38 1524.08,-270.6"/>
<polygon fill="black" stroke="black" points="1527.28,-269.2 1520.07,-261.44 1520.87,-272 1527.28,-269.2"/>
<text text-anchor="middle" x="1545.84" y="-305.22" font-family="Times,serif" font-size="14.00">|</text>
</g>
<!-- 37 -->
<g id="node39" class="node">
<title>37</title>
<ellipse fill="none" stroke="black" cx="1655" cy="-237.39" rx="20.13" ry="20.13"/>
<ellipse fill="none" stroke="black" cx="1655" cy="-237.39" rx="24.13" ry="24.13"/>
<text text-anchor="middle" x="1655" y="-232.34" font-family="Times,serif" font-size="14.00">37</text>
</g>
<!-- 36&#45;&gt;37 -->
<g id="edge50" class="edge">
<title>36&#45;&gt;37</title>
<path fill="none" stroke="black" d="M1626.24,-340.97C1631.38,-322.64 1639.33,-294.28 1645.57,-272.02"/>
<polygon fill="black" stroke="black" points="1648.92,-273.05 1648.25,-262.48 1642.18,-271.16 1648.92,-273.05"/>
<text text-anchor="middle" x="1641.11" y="-305.22" font-family="Times,serif" font-size="14.00">=</text>
</g>
<!-- 38 -->
<g id="node40" class="node">
<title>38</title>
<ellipse fill="none" stroke="black" cx="1583" cy="-237.39" rx="20.13" ry="20.13"/>
<ellipse fill="none" stroke="black" cx="1583" cy="-237.39" rx="24.13" ry="24.13"/>
<text text-anchor="middle" x="1583" y="-232.34" font-family="Times,serif" font-size="14.00">38</text>
</g>
<!-- 36&#45;&gt;38 -->
<g id="edge51" class="edge">
<title>36&#45;&gt;38</title>
<path fill="none" stroke="black" d="M1608.6,-344.55C1603.17,-337.14 1597.24,-327.83 1593.75,-318.52 1588.39,-304.25 1585.64,-287.67 1584.26,-273.31"/>
<polygon fill="black" stroke="black" points="1587.75,-273.08 1583.5,-263.37 1580.77,-273.61 1587.75,-273.08"/>
<text text-anchor="middle" x="1611.38" y="-305.22" font-family="Times,serif" font-size="14.00">outro*</text>
</g>
<!-- 40 -->
<g id="node42" class="node">
<title>40</title>
<ellipse fill="none" stroke="black" cx="1842" cy="-237.39" rx="20.13" ry="20.13"/>
<ellipse fill="none" stroke="black" cx="1842" cy="-237.39" rx="24.13" ry="24.13"/>
<text text-anchor="middle" x="1842" y="-232.34" font-family="Times,serif" font-size="14.00">40</text>
</g>
<!-- 39&#45;&gt;40 -->
<g id="edge53" class="edge">
<title>39&#45;&gt;40</title>
<path fill="none" stroke="black" d="M1784.74,-346.66C1792.71,-339.06 1802.26,-328.93 1809,-318.52 1818.32,-304.13 1825.88,-286.68 1831.4,-271.74"/>
<polygon fill="black" stroke="black" points="1834.7,-272.92 1834.72,-262.32 1828.1,-270.59 1834.7,-272.92"/>
<text text-anchor="middle" x="1822.48" y="-305.22" font-family="Times,serif" font-size="14.00">=</text>
</g>
<!-- 41 -->
<g id="node43" class="node">
<title>41</title>
<ellipse fill="none" stroke="black" cx="1770" cy="-237.39" rx="20.13" ry="20.13"/>
<ellipse fill="none" stroke="black" cx="1770" cy="-237.39" rx="24.13" ry="24.13"/>
<text text-anchor="middle" x="1770" y="-232.34" font-family="Times,serif" font-size="14.00">41</text>
</g>
<!-- 39&#45;&gt;41 -->
<g id="edge54" class="edge">
<title>39&#45;&gt;41</title>
<path fill="none" stroke="black" d="M1770,-340.17C1770,-322.21 1770,-295.12 1770,-273.41"/>
<polygon fill="black" stroke="black" points="1773.5,-273.5 1770,-263.5 1766.5,-273.5 1773.5,-273.5"/>
<text text-anchor="middle" x="1787.62" y="-305.22" font-family="Times,serif" font-size="14.00">outro*</text>
</g>
<!-- 43 -->
<g id="node45" class="node">
<title>43</title>
<ellipse fill="none" stroke="black" cx="2043" cy="-237.39" rx="20.13" ry="20.13"/>
<ellipse fill="none" stroke="black" cx="2043" cy="-237.39" rx="24.13" ry="24.13"/>
<text text-anchor="middle" x="2043" y="-232.34" font-family="Times,serif" font-size="14.00">43</text>
</g>
<!-- 42&#45;&gt;43 -->
<g id="edge56" class="edge">
<title>42&#45;&gt;43</title>
<path fill="none" stroke="black" d="M1973.27,-346.33C1981.08,-338.62 1990.64,-328.5 1998,-318.52 2009.23,-303.29 2019.72,-284.97 2027.73,-269.69"/>
<polygon fill="black" stroke="black" points="2030.73,-271.52 2032.18,-261.02 2024.5,-268.32 2030.73,-271.52"/>
<text text-anchor="middle" x="2012.05" y="-305.22" font-family="Times,serif" font-size="14.00">=</text>
</g>
<!-- 44 -->
<g id="node46" class="node">
<title>44</title>
<ellipse fill="none" stroke="black" cx="1959" cy="-237.39" rx="20.13" ry="20.13"/>
<ellipse fill="none" stroke="black" cx="1959" cy="-237.39" rx="24.13" ry="24.13"/>
<text text-anchor="middle" x="1959" y="-232.34" font-family="Times,serif" font-size="14.00">44</text>
</g>
<!-- 42&#45;&gt;44 -->
<g id="edge57" class="edge">
<title>42&#45;&gt;44</title>
<path fill="none" stroke="black" d="M1959,-340.17C1959,-322.21 1959,-295.12 1959,-273.41"/>
<polygon fill="black" stroke="black" points="1962.5,-273.5 1959,-263.5 1955.5,-273.5 1962.5,-273.5"/>
<text text-anchor="middle" x="1976.62" y="-305.22" font-family="Times,serif" font-size="14.00">outro*</text>
</g>
</g>
</svg>
