<?xml version="1.0" encoding="UTF-8" standalone="no"?>
<!DOCTYPE svg PUBLIC "-//W3C//DTD SVG 1.1//EN"
 "http://www.w3.org/Graphics/SVG/1.1/DTD/svg11.dtd">
<!-- Generated by graphviz version 12.1.2 (0)
 -->
<!-- Pages: 1 -->
<svg width="2369pt" height="762pt"
 viewBox="0.00 0.00 2369.00 761.57" xmlns="http://www.w3.org/2000/svg" xmlns:xlink="http://www.w3.org/1999/xlink">
<g id="graph0" class="graph" transform="scale(1 1) rotate(0) translate(4 757.57)">
<polygon fill="white" stroke="none" points="-4,4 -4,-757.57 2365,-757.57 2365,4 -4,4"/>
<g id="clust1" class="cluster">
<title>cluster_start</title>
<polygon fill="none" stroke="black" points="1167,-576.31 1167,-743.44 1322,-743.44 1322,-576.31 1167,-576.31"/>
<text text-anchor="middle" x="1244.5" y="-726.14" font-family="Times,serif" font-size="14.00">INICIO</text>
</g>
<g id="clust2" class="cluster">
<title>cluster_id</title>
<polygon fill="#dd8855" stroke="#dd8855" points="2017,-209.52 2017,-535.68 2133,-535.68 2133,-209.52 2017,-209.52"/>
<text text-anchor="middle" x="2075" y="-518.38" font-family="Times,serif" font-size="14.00">ID</text>
</g>
<g id="clust3" class="cluster">
<title>cluster_intcon</title>
<polygon fill="#ffaaff" stroke="#ffaaff" points="2141,-331.92 2141,-535.68 2243,-535.68 2243,-331.92 2141,-331.92"/>
<text text-anchor="middle" x="2192" y="-518.38" font-family="Times,serif" font-size="14.00">INTCON</text>
</g>
<g id="clust4" class="cluster">
<title>cluster_realcon</title>
<polygon fill="#8888dd" stroke="#8888dd" points="2251,-110.89 2251,-412.42 2353,-412.42 2353,-110.89 2251,-110.89"/>
<text text-anchor="middle" x="2302" y="-395.12" font-family="Times,serif" font-size="14.00">REALCON</text>
</g>
<g id="clust5" class="cluster">
<title>cluster_charcon</title>
<polygon fill="#88dd88" stroke="#88dd88" points="88,-8 88,-535.68 289,-535.68 289,-8 88,-8"/>
<text text-anchor="middle" x="188.5" y="-518.38" font-family="Times,serif" font-size="14.00">CHARCON</text>
</g>
<g id="clust6" class="cluster">
<title>cluster_stringcon</title>
<polygon fill="#dd8888" stroke="#dd8888" points="297,-108.76 297,-537.81 418,-537.81 418,-108.76 297,-108.76"/>
<text text-anchor="middle" x="357.5" y="-520.51" font-family="Times,serif" font-size="14.00">STRINGCON</text>
</g>
<g id="clust7" class="cluster">
<title>cluster_comentario</title>
<polygon fill="#dddd88" stroke="#dddd88" points="897,-664.81 897,-745.57 1077,-745.57 1077,-664.81 897,-664.81"/>
<text text-anchor="middle" x="987" y="-728.27" font-family="Times,serif" font-size="14.00">COMENTARIO (IGNORAR)</text>
</g>
<g id="clust8" class="cluster">
<title>cluster_mais</title>
<polygon fill="lightgrey" stroke="black" points="426,-453.05 426,-541.81 490,-541.81 490,-453.05 426,-453.05"/>
<text text-anchor="middle" x="458" y="-524.51" font-family="Times,serif" font-size="14.00">MAIS</text>
</g>
<g id="clust9" class="cluster">
<title>cluster_menos</title>
<polygon fill="lightgrey" stroke="black" points="498,-453.05 498,-541.81 562,-541.81 562,-453.05 498,-453.05"/>
<text text-anchor="middle" x="530" y="-524.51" font-family="Times,serif" font-size="14.00">MENOS</text>
</g>
<g id="clust10" class="cluster">
<title>cluster_multiplicacao</title>
<polygon fill="lightgrey" stroke="black" points="570,-453.05 570,-541.81 696,-541.81 696,-453.05 570,-453.05"/>
<text text-anchor="middle" x="633" y="-524.51" font-family="Times,serif" font-size="14.00">MULTIPLICACAO</text>
</g>
<g id="clust11" class="cluster">
<title>cluster_divisao</title>
<polygon fill="lightgrey" stroke="black" points="8,-329.79 8,-418.55 79,-418.55 79,-329.79 8,-329.79"/>
<text text-anchor="middle" x="43.5" y="-401.25" font-family="Times,serif" font-size="14.00">DIVISAO</text>
</g>
<g id="clust12" class="cluster">
<title>cluster_abreparenteses</title>
<polygon fill="lightgrey" stroke="black" points="704,-453.05 704,-541.81 839,-541.81 839,-453.05 704,-453.05"/>
<text text-anchor="middle" x="771.5" y="-524.51" font-family="Times,serif" font-size="14.00">ABREPARENTESES</text>
</g>
<g id="clust13" class="cluster">
<title>cluster_fechaparenteses</title>
<polygon fill="lightgrey" stroke="black" points="847,-453.05 847,-541.81 990,-541.81 990,-453.05 847,-453.05"/>
<text text-anchor="middle" x="918.5" y="-524.51" font-family="Times,serif" font-size="14.00">FECHAPARENTESES</text>
</g>
<g id="clust14" class="cluster">
<title>cluster_abrecolchete</title>
<polygon fill="lightgrey" stroke="black" points="998,-453.05 998,-541.81 1120,-541.81 1120,-453.05 998,-453.05"/>
<text text-anchor="middle" x="1059" y="-524.51" font-family="Times,serif" font-size="14.00">ABRECOLCHETE</text>
</g>
<g id="clust15" class="cluster">
<title>cluster_fechacolchete</title>
<polygon fill="lightgrey" stroke="black" points="1128,-453.05 1128,-541.81 1258,-541.81 1258,-453.05 1128,-453.05"/>
<text text-anchor="middle" x="1193" y="-524.51" font-family="Times,serif" font-size="14.00">FECHACOLCHETE</text>
</g>
<g id="clust16" class="cluster">
<title>cluster_virgula</title>
<polygon fill="lightgrey" stroke="black" points="1266,-453.05 1266,-541.81 1342,-541.81 1342,-453.05 1266,-453.05"/>
<text text-anchor="middle" x="1304" y="-524.51" font-family="Times,serif" font-size="14.00">VIRGULA</text>
</g>
<g id="clust17" class="cluster">
<title>cluster_comparacao</title>
<polygon fill="lightgrey" stroke="black" points="1054,-329.79 1054,-418.55 1165,-418.55 1165,-329.79 1054,-329.79"/>
<text text-anchor="middle" x="1109.5" y="-401.25" font-family="Times,serif" font-size="14.00">COMPARACAO</text>
</g>
<g id="clust18" class="cluster">
<title>cluster_atribuicao</title>
<polygon fill="lightgrey" stroke="black" points="949,-329.79 949,-418.55 1046,-418.55 1046,-329.79 949,-329.79"/>
<text text-anchor="middle" x="997.5" y="-401.25" font-family="Times,serif" font-size="14.00">ATRIBUICAO</text>
</g>
<g id="clust19" class="cluster">
<title>cluster_elogico</title>
<polygon fill="lightgrey" stroke="black" points="1280,-329.79 1280,-418.55 1355,-418.55 1355,-329.79 1280,-329.79"/>
<text text-anchor="middle" x="1317.5" y="-401.25" font-family="Times,serif" font-size="14.00">ELOGICO</text>
</g>
<g id="clust20" class="cluster">
<title>cluster_referencia</title>
<polygon fill="lightgrey" stroke="black" points="1173,-329.79 1173,-418.55 1272,-418.55 1272,-329.79 1173,-329.79"/>
<text text-anchor="middle" x="1222.5" y="-401.25" font-family="Times,serif" font-size="14.00">REFERENCIA</text>
</g>
<g id="clust21" class="cluster">
<title>cluster_oulogico</title>
<polygon fill="lightgrey" stroke="black" points="1363,-329.79 1363,-418.55 1449,-418.55 1449,-329.79 1363,-329.79"/>
<text text-anchor="middle" x="1406" y="-401.25" font-family="Times,serif" font-size="14.00">OULOGICO</text>
</g>
<g id="clust22" class="cluster">
<title>cluster_menorigual</title>
<polygon fill="lightgrey" stroke="black" points="1530,-329.79 1530,-418.55 1637,-418.55 1637,-329.79 1530,-329.79"/>
<text text-anchor="middle" x="1583.5" y="-401.25" font-family="Times,serif" font-size="14.00">MENORIGUAL</text>
</g>
<g id="clust23" class="cluster">
<title>cluster_menor</title>
<polygon fill="lightgrey" stroke="black" points="1457,-329.79 1457,-418.55 1522,-418.55 1522,-329.79 1457,-329.79"/>
<text text-anchor="middle" x="1489.5" y="-401.25" font-family="Times,serif" font-size="14.00">MENOR</text>
</g>
<g id="clust24" class="cluster">
<title>cluster_maiorigual</title>
<polygon fill="lightgrey" stroke="black" points="1717,-329.79 1717,-418.55 1820,-418.55 1820,-329.79 1717,-329.79"/>
<text text-anchor="middle" x="1768.5" y="-401.25" font-family="Times,serif" font-size="14.00">MAIORIGUAL</text>
</g>
<g id="clust25" class="cluster">
<title>cluster_maior</title>
<polygon fill="lightgrey" stroke="black" points="1645,-329.79 1645,-418.55 1709,-418.55 1709,-329.79 1645,-329.79"/>
<text text-anchor="middle" x="1677" y="-401.25" font-family="Times,serif" font-size="14.00">MAIOR</text>
</g>
<g id="clust26" class="cluster">
<title>cluster_diferenca</title>
<polygon fill="lightgrey" stroke="black" points="1918,-329.79 1918,-418.55 2009,-418.55 2009,-329.79 1918,-329.79"/>
<text text-anchor="middle" x="1963.5" y="-401.25" font-family="Times,serif" font-size="14.00">DIFERENCA</text>
</g>
<g id="clust27" class="cluster">
<title>cluster_negacao</title>
<polygon fill="lightgrey" stroke="black" points="1828,-329.79 1828,-418.55 1910,-418.55 1910,-329.79 1828,-329.79"/>
<text text-anchor="middle" x="1869" y="-401.25" font-family="Times,serif" font-size="14.00">NEGACAO</text>
</g>
<!-- Inicio -->
<g id="node1" class="node">
<title>Inicio</title>
</g>
<!-- 0 -->
<g id="node2" class="node">
<title>0</title>
<ellipse fill="none" stroke="black" cx="1193" cy="-602.31" rx="18" ry="18"/>
<text text-anchor="middle" x="1193" y="-597.26" font-family="Times,serif" font-size="14.00">0</text>
</g>
<!-- Inicio&#45;&gt;0 -->
<g id="edge1" class="edge">
<title>Inicio&#45;&gt;0</title>
<path fill="none" stroke="black" d="M1200.31,-675.27C1199.07,-663.05 1197.35,-646.15 1195.89,-631.81"/>
<polygon fill="black" stroke="black" points="1199.39,-631.61 1194.9,-622.02 1192.43,-632.32 1199.39,-631.61"/>
</g>
<!-- 0&#45;&gt;0 -->
<g id="edge2" class="edge">
<title>0&#45;&gt;0</title>
<path fill="none" stroke="black" d="M1209.66,-610.09C1219.62,-611.82 1229,-609.23 1229,-602.31 1229,-598.21 1225.69,-595.62 1220.92,-594.57"/>
<polygon fill="black" stroke="black" points="1221.19,-591.07 1211.18,-594.54 1221.17,-598.07 1221.19,-591.07"/>
<text text-anchor="middle" x="1271.38" y="-597.26" font-family="Times,serif" font-size="14.00">Tab, Espaco, \n</text>
</g>
<!-- 1 -->
<g id="node3" class="node">
<title>1</title>
<ellipse fill="none" stroke="black" cx="2043" cy="-485.18" rx="18" ry="18"/>
<text text-anchor="middle" x="2043" y="-480.13" font-family="Times,serif" font-size="14.00">1</text>
</g>
<!-- 0&#45;&gt;1 -->
<g id="edge3" class="edge">
<title>0&#45;&gt;1</title>
<path fill="none" stroke="black" d="M1211.22,-601.49C1323.61,-602.48 1920.17,-605.85 1990,-566.31 2010.53,-554.69 2024.55,-531.45 2032.99,-512.97"/>
<polygon fill="black" stroke="black" points="2036.16,-514.47 2036.84,-503.9 2029.71,-511.74 2036.16,-514.47"/>
<text text-anchor="middle" x="2032.66" y="-553.01" font-family="Times,serif" font-size="14.00">sublinha</text>
</g>
<!-- 2 -->
<g id="node4" class="node">
<title>2</title>
<ellipse fill="none" stroke="black" cx="2043" cy="-361.92" rx="18" ry="18"/>
<text text-anchor="middle" x="2043" y="-356.87" font-family="Times,serif" font-size="14.00">2</text>
</g>
<!-- 0&#45;&gt;2 -->
<g id="edge5" class="edge">
<title>0&#45;&gt;2</title>
<path fill="none" stroke="black" d="M1211.22,-601.54C1308.8,-602.51 1769.71,-603.7 1895,-541.81 1962.01,-508.71 2009.6,-429.7 2030.74,-388.66"/>
<polygon fill="black" stroke="black" points="2033.74,-390.49 2035.09,-379.98 2027.48,-387.35 2033.74,-390.49"/>
<text text-anchor="middle" x="2002.99" y="-480.13" font-family="Times,serif" font-size="14.00">letra</text>
</g>
<!-- 4 -->
<g id="node6" class="node">
<title>4</title>
<ellipse fill="none" stroke="black" cx="2167" cy="-485.18" rx="18" ry="18"/>
<text text-anchor="middle" x="2167" y="-480.13" font-family="Times,serif" font-size="14.00">4</text>
</g>
<!-- 0&#45;&gt;4 -->
<g id="edge8" class="edge">
<title>0&#45;&gt;4</title>
<path fill="none" stroke="black" d="M1211.29,-601.24C1320.6,-600.7 1888.64,-596.47 2060,-566.31 2095.37,-560.09 2109.35,-564.73 2137,-541.81 2146,-534.35 2152.7,-523.48 2157.46,-513.31"/>
<polygon fill="black" stroke="black" points="2160.66,-514.73 2161.29,-504.16 2154.2,-512.03 2160.66,-514.73"/>
<text text-anchor="middle" x="2141.84" y="-553.01" font-family="Times,serif" font-size="14.00">digito</text>
</g>
<!-- 9 -->
<g id="node11" class="node">
<title>9</title>
<ellipse fill="none" stroke="black" cx="214" cy="-485.18" rx="18" ry="18"/>
<text text-anchor="middle" x="214" y="-480.13" font-family="Times,serif" font-size="14.00">9</text>
</g>
<!-- 0&#45;&gt;9 -->
<g id="edge15" class="edge">
<title>0&#45;&gt;9</title>
<path fill="none" stroke="black" d="M1174.9,-600.06C1110.95,-595.63 889.62,-580.2 707,-566.31 615.42,-559.35 592.69,-555.24 501,-549.81 477.91,-548.44 314.91,-549.22 293,-541.81 271.15,-534.43 249.99,-518.93 235.08,-506.17"/>
<polygon fill="black" stroke="black" points="237.57,-503.7 227.78,-499.67 232.92,-508.93 237.57,-503.7"/>
<text text-anchor="middle" x="732.5" y="-553.01" font-family="Times,serif" font-size="14.00">apostrofo</text>
</g>
<!-- 16 -->
<g id="node18" class="node">
<title>16</title>
<ellipse fill="none" stroke="black" cx="390" cy="-485.18" rx="20.13" ry="20.13"/>
<text text-anchor="middle" x="390" y="-480.13" font-family="Times,serif" font-size="14.00">16</text>
</g>
<!-- 0&#45;&gt;16 -->
<g id="edge24" class="edge">
<title>0&#45;&gt;16</title>
<path fill="none" stroke="black" d="M1175.03,-599.56C1126.52,-594.79 988.88,-580.93 874.75,-566.31 824.52,-559.88 812.46,-554.08 762,-549.81 743.17,-548.22 438.24,-551.46 422,-541.81 411.98,-535.85 404.8,-525.47 399.82,-515.28"/>
<polygon fill="black" stroke="black" points="403.13,-514.13 395.99,-506.31 396.7,-516.88 403.13,-514.13"/>
<text text-anchor="middle" x="889.38" y="-553.01" font-family="Times,serif" font-size="14.00">aspas</text>
</g>
<!-- 20 -->
<g id="node22" class="node">
<title>20</title>
<ellipse fill="none" stroke="black" cx="60" cy="-485.18" rx="20.13" ry="20.13"/>
<text text-anchor="middle" x="60" y="-480.13" font-family="Times,serif" font-size="14.00">20</text>
</g>
<!-- 0&#45;&gt;20 -->
<g id="edge29" class="edge">
<title>0&#45;&gt;20</title>
<path fill="none" stroke="black" d="M1174.82,-600.53C1092.94,-597.01 750.28,-582.04 469.25,-566.31 297.95,-556.72 224.28,-640.59 84,-541.81 75.38,-535.74 69.83,-525.89 66.27,-516.15"/>
<polygon fill="black" stroke="black" points="69.7,-515.43 63.47,-506.87 63,-517.45 69.7,-515.43"/>
<text text-anchor="middle" x="483.12" y="-553.01" font-family="Times,serif" font-size="14.00">barra</text>
</g>
<!-- 23 -->
<g id="node24" class="node">
<title>23</title>
<ellipse fill="none" stroke="black" cx="458" cy="-485.18" rx="20.13" ry="20.13"/>
<ellipse fill="none" stroke="black" cx="458" cy="-485.18" rx="24.13" ry="24.13"/>
<text text-anchor="middle" x="458" y="-480.13" font-family="Times,serif" font-size="14.00">23</text>
</g>
<!-- 0&#45;&gt;23 -->
<g id="edge33" class="edge">
<title>0&#45;&gt;23</title>
<path fill="none" stroke="black" d="M1174.89,-598.89C1137.5,-593.78 1049.15,-581.14 975.75,-566.31 945.37,-560.18 938.73,-553.8 908,-549.81 885.19,-546.85 514.1,-553 494,-541.81 484.48,-536.51 477.07,-527.52 471.52,-518.29"/>
<polygon fill="black" stroke="black" points="474.72,-516.85 466.93,-509.68 468.55,-520.15 474.72,-516.85"/>
<text text-anchor="middle" x="979.88" y="-553.01" font-family="Times,serif" font-size="14.00">+</text>
</g>
<!-- 24 -->
<g id="node25" class="node">
<title>24</title>
<ellipse fill="none" stroke="black" cx="530" cy="-485.18" rx="20.13" ry="20.13"/>
<ellipse fill="none" stroke="black" cx="530" cy="-485.18" rx="24.13" ry="24.13"/>
<text text-anchor="middle" x="530" y="-480.13" font-family="Times,serif" font-size="14.00">24</text>
</g>
<!-- 0&#45;&gt;24 -->
<g id="edge34" class="edge">
<title>0&#45;&gt;24</title>
<path fill="none" stroke="black" d="M1175.13,-598.11C1145.45,-592.62 1084.25,-580.64 1033.5,-566.31 1011.99,-560.24 1008,-553.74 986,-549.81 963.03,-545.71 586.39,-553.16 566,-541.81 556.48,-536.51 549.07,-527.52 543.52,-518.29"/>
<polygon fill="black" stroke="black" points="546.72,-516.85 538.93,-509.68 540.55,-520.15 546.72,-516.85"/>
<text text-anchor="middle" x="1035.75" y="-553.01" font-family="Times,serif" font-size="14.00">&#45;</text>
</g>
<!-- 25 -->
<g id="node26" class="node">
<title>25</title>
<ellipse fill="none" stroke="black" cx="664" cy="-485.18" rx="20.13" ry="20.13"/>
<ellipse fill="none" stroke="black" cx="664" cy="-485.18" rx="24.13" ry="24.13"/>
<text text-anchor="middle" x="664" y="-480.13" font-family="Times,serif" font-size="14.00">25</text>
</g>
<!-- 0&#45;&gt;25 -->
<g id="edge35" class="edge">
<title>0&#45;&gt;25</title>
<path fill="none" stroke="black" d="M1175.36,-597.24C1151.4,-591.48 1107.42,-580.11 1071.25,-566.31 1055.46,-560.29 1053.43,-553.77 1037,-549.81 1018.79,-545.43 716.34,-550.96 700,-541.81 690.49,-536.49 683.09,-527.49 677.54,-518.26"/>
<polygon fill="black" stroke="black" points="680.74,-516.83 672.94,-509.65 674.56,-520.12 680.74,-516.83"/>
<text text-anchor="middle" x="1074.62" y="-553.01" font-family="Times,serif" font-size="14.00">*</text>
</g>
<!-- 27 -->
<g id="node28" class="node">
<title>27</title>
<ellipse fill="none" stroke="black" cx="807" cy="-485.18" rx="20.13" ry="20.13"/>
<ellipse fill="none" stroke="black" cx="807" cy="-485.18" rx="24.13" ry="24.13"/>
<text text-anchor="middle" x="807" y="-480.13" font-family="Times,serif" font-size="14.00">27</text>
</g>
<!-- 0&#45;&gt;27 -->
<g id="edge37" class="edge">
<title>0&#45;&gt;27</title>
<path fill="none" stroke="black" d="M1176.15,-594.82C1159.13,-588.13 1132.19,-577.17 1109.5,-566.31 1095.6,-559.66 1093.87,-553.85 1079,-549.81 1053.68,-542.94 865.83,-554.74 843,-541.81 833.52,-536.44 826.12,-527.43 820.57,-518.2"/>
<polygon fill="black" stroke="black" points="823.77,-516.77 815.97,-509.61 817.6,-520.07 823.77,-516.77"/>
<text text-anchor="middle" x="1111.75" y="-553.01" font-family="Times,serif" font-size="14.00">(</text>
</g>
<!-- 28 -->
<g id="node29" class="node">
<title>28</title>
<ellipse fill="none" stroke="black" cx="958" cy="-485.18" rx="20.13" ry="20.13"/>
<ellipse fill="none" stroke="black" cx="958" cy="-485.18" rx="24.13" ry="24.13"/>
<text text-anchor="middle" x="958" y="-480.13" font-family="Times,serif" font-size="14.00">28</text>
</g>
<!-- 0&#45;&gt;28 -->
<g id="edge38" class="edge">
<title>0&#45;&gt;28</title>
<path fill="none" stroke="black" d="M1178.07,-591.43C1155.93,-576.8 1116.59,-551 1113,-549.81 1087.84,-541.49 1016.84,-555.25 994,-541.81 984.61,-536.28 977.24,-527.23 971.68,-518.02"/>
<polygon fill="black" stroke="black" points="974.88,-516.59 967.06,-509.45 968.72,-519.91 974.88,-516.59"/>
<text text-anchor="middle" x="1141.11" y="-553.01" font-family="Times,serif" font-size="14.00">)</text>
</g>
<!-- 29 -->
<g id="node30" class="node">
<title>29</title>
<ellipse fill="none" stroke="black" cx="1088" cy="-485.18" rx="20.13" ry="20.13"/>
<ellipse fill="none" stroke="black" cx="1088" cy="-485.18" rx="24.13" ry="24.13"/>
<text text-anchor="middle" x="1088" y="-480.13" font-family="Times,serif" font-size="14.00">29</text>
</g>
<!-- 0&#45;&gt;29 -->
<g id="edge39" class="edge">
<title>0&#45;&gt;29</title>
<path fill="none" stroke="black" d="M1182,-587.65C1172.37,-576.37 1157.53,-560.53 1142,-549.81 1134.8,-544.84 1130.65,-547.5 1124,-541.81 1116.06,-535.02 1109.22,-526.05 1103.7,-517.29"/>
<polygon fill="black" stroke="black" points="1106.88,-515.8 1098.81,-508.94 1100.84,-519.34 1106.88,-515.8"/>
<text text-anchor="middle" x="1164.12" y="-553.01" font-family="Times,serif" font-size="14.00">[</text>
</g>
<!-- 30 -->
<g id="node31" class="node">
<title>30</title>
<ellipse fill="none" stroke="black" cx="1193" cy="-485.18" rx="20.13" ry="20.13"/>
<ellipse fill="none" stroke="black" cx="1193" cy="-485.18" rx="24.13" ry="24.13"/>
<text text-anchor="middle" x="1193" y="-480.13" font-family="Times,serif" font-size="14.00">30</text>
</g>
<!-- 0&#45;&gt;30 -->
<g id="edge40" class="edge">
<title>0&#45;&gt;30</title>
<path fill="none" stroke="black" d="M1193,-583.83C1193,-567.13 1193,-541.51 1193,-520.7"/>
<polygon fill="black" stroke="black" points="1196.5,-520.93 1193,-510.93 1189.5,-520.93 1196.5,-520.93"/>
<text text-anchor="middle" x="1195.25" y="-553.01" font-family="Times,serif" font-size="14.00">]</text>
</g>
<!-- 31 -->
<g id="node32" class="node">
<title>31</title>
<ellipse fill="none" stroke="black" cx="1298" cy="-485.18" rx="20.13" ry="20.13"/>
<ellipse fill="none" stroke="black" cx="1298" cy="-485.18" rx="24.13" ry="24.13"/>
<text text-anchor="middle" x="1298" y="-480.13" font-family="Times,serif" font-size="14.00">31</text>
</g>
<!-- 0&#45;&gt;31 -->
<g id="edge41" class="edge">
<title>0&#45;&gt;31</title>
<path fill="none" stroke="black" d="M1207.27,-590.95C1222.01,-579.83 1245.17,-561.13 1262,-541.81 1268.74,-534.08 1275.14,-524.99 1280.64,-516.42"/>
<polygon fill="black" stroke="black" points="1283.56,-518.36 1285.84,-508.01 1277.6,-514.68 1283.56,-518.36"/>
<text text-anchor="middle" x="1255.48" y="-553.01" font-family="Times,serif" font-size="14.00">,</text>
</g>
<!-- 32 -->
<g id="node33" class="node">
<title>32</title>
<ellipse fill="none" stroke="black" cx="1370" cy="-485.18" rx="20.13" ry="20.13"/>
<text text-anchor="middle" x="1370" y="-480.13" font-family="Times,serif" font-size="14.00">32</text>
</g>
<!-- 0&#45;&gt;32 -->
<g id="edge42" class="edge">
<title>0&#45;&gt;32</title>
<path fill="none" stroke="black" d="M1210.99,-598.9C1242.31,-593.81 1307.22,-579.2 1346,-541.81 1353.27,-534.8 1358.46,-525.23 1362.11,-516"/>
<polygon fill="black" stroke="black" points="1365.42,-517.14 1365.34,-506.54 1358.8,-514.87 1365.42,-517.14"/>
<text text-anchor="middle" x="1340.19" y="-553.01" font-family="Times,serif" font-size="14.00">=</text>
</g>
<!-- 35 -->
<g id="node36" class="node">
<title>35</title>
<ellipse fill="none" stroke="black" cx="1428" cy="-485.18" rx="20.13" ry="20.13"/>
<text text-anchor="middle" x="1428" y="-480.13" font-family="Times,serif" font-size="14.00">35</text>
</g>
<!-- 0&#45;&gt;35 -->
<g id="edge45" class="edge">
<title>0&#45;&gt;35</title>
<path fill="none" stroke="black" d="M1211.47,-601.43C1251.29,-600.67 1345.9,-593.2 1399,-541.81 1406.73,-534.33 1412.82,-524.33 1417.37,-514.88"/>
<polygon fill="black" stroke="black" points="1420.46,-516.55 1421.27,-505.99 1414.05,-513.74 1420.46,-516.55"/>
<text text-anchor="middle" x="1391.6" y="-553.01" font-family="Times,serif" font-size="14.00">&amp;</text>
</g>
<!-- 38 -->
<g id="node39" class="node">
<title>38</title>
<ellipse fill="none" stroke="black" cx="1486" cy="-485.18" rx="20.13" ry="20.13"/>
<text text-anchor="middle" x="1486" y="-480.13" font-family="Times,serif" font-size="14.00">38</text>
</g>
<!-- 0&#45;&gt;38 -->
<g id="edge48" class="edge">
<title>0&#45;&gt;38</title>
<path fill="none" stroke="black" d="M1211.25,-599.58C1264.92,-594.13 1420.78,-575.65 1457,-541.81 1464.86,-534.46 1470.98,-524.5 1475.52,-515.04"/>
<polygon fill="black" stroke="black" points="1478.62,-516.68 1479.39,-506.11 1472.2,-513.9 1478.62,-516.68"/>
<text text-anchor="middle" x="1444.77" y="-553.01" font-family="Times,serif" font-size="14.00">|</text>
</g>
<!-- 40 -->
<g id="node41" class="node">
<title>40</title>
<ellipse fill="none" stroke="black" cx="1544" cy="-485.18" rx="20.13" ry="20.13"/>
<text text-anchor="middle" x="1544" y="-480.13" font-family="Times,serif" font-size="14.00">40</text>
</g>
<!-- 0&#45;&gt;40 -->
<g id="edge50" class="edge">
<title>0&#45;&gt;40</title>
<path fill="none" stroke="black" d="M1211.34,-600.23C1253.87,-597.43 1362.26,-588.52 1450,-566.31 1479.93,-558.74 1491.9,-562.29 1515,-541.81 1523.05,-534.67 1529.21,-524.76 1533.73,-515.27"/>
<polygon fill="black" stroke="black" points="1536.85,-516.88 1537.57,-506.31 1530.42,-514.12 1536.85,-516.88"/>
<text text-anchor="middle" x="1508.77" y="-553.01" font-family="Times,serif" font-size="14.00">&lt;</text>
</g>
<!-- 43 -->
<g id="node44" class="node">
<title>43</title>
<ellipse fill="none" stroke="black" cx="1677" cy="-485.18" rx="20.13" ry="20.13"/>
<text text-anchor="middle" x="1677" y="-480.13" font-family="Times,serif" font-size="14.00">43</text>
</g>
<!-- 0&#45;&gt;43 -->
<g id="edge53" class="edge">
<title>0&#45;&gt;43</title>
<path fill="none" stroke="black" d="M1211.26,-601.27C1261.15,-600.74 1403.55,-596.49 1517,-566.31 1543.25,-559.33 1548.56,-553.67 1573,-541.81 1599.35,-529.02 1628.73,-513.15 1649.52,-501.64"/>
<polygon fill="black" stroke="black" points="1651.2,-504.72 1658.23,-496.79 1647.79,-498.6 1651.2,-504.72"/>
<text text-anchor="middle" x="1561.24" y="-553.01" font-family="Times,serif" font-size="14.00">&gt;</text>
</g>
<!-- 46 -->
<g id="node47" class="node">
<title>46</title>
<ellipse fill="none" stroke="black" cx="1866" cy="-485.18" rx="20.13" ry="20.13"/>
<text text-anchor="middle" x="1866" y="-480.13" font-family="Times,serif" font-size="14.00">46</text>
</g>
<!-- 0&#45;&gt;46 -->
<g id="edge56" class="edge">
<title>0&#45;&gt;46</title>
<path fill="none" stroke="black" d="M1211.05,-601.04C1277.86,-599.64 1516.9,-591.26 1706,-541.81 1752.63,-529.62 1805.12,-510.24 1836.87,-497.87"/>
<polygon fill="black" stroke="black" points="1838.14,-501.13 1846.17,-494.21 1835.58,-494.62 1838.14,-501.13"/>
<text text-anchor="middle" x="1667.61" y="-553.01" font-family="Times,serif" font-size="14.00">!</text>
</g>
<!-- 1&#45;&gt;1 -->
<g id="edge4" class="edge">
<title>1&#45;&gt;1</title>
<path fill="none" stroke="black" d="M2058.92,-493.88C2069.15,-496.15 2079,-493.25 2079,-485.18 2079,-480.26 2075.34,-477.27 2070.17,-476.19"/>
<polygon fill="black" stroke="black" points="2070.33,-472.68 2060.43,-476.44 2070.52,-479.68 2070.33,-472.68"/>
<text text-anchor="middle" x="2101.88" y="-480.13" font-family="Times,serif" font-size="14.00">sublinha</text>
</g>
<!-- 1&#45;&gt;2 -->
<g id="edge6" class="edge">
<title>1&#45;&gt;2</title>
<path fill="none" stroke="black" d="M2043,-466.81C2043,-447.18 2043,-414.92 2043,-391.56"/>
<polygon fill="black" stroke="black" points="2046.5,-391.77 2043,-381.77 2039.5,-391.77 2046.5,-391.77"/>
<text text-anchor="middle" x="2055" y="-429.75" font-family="Times,serif" font-size="14.00">letra</text>
</g>
<!-- 3 -->
<g id="node5" class="node">
<title>3</title>
<ellipse fill="none" stroke="black" cx="2047" cy="-239.52" rx="18" ry="18"/>
<ellipse fill="none" stroke="black" cx="2047" cy="-239.52" rx="22" ry="22"/>
<text text-anchor="middle" x="2047" y="-234.47" font-family="Times,serif" font-size="14.00">3</text>
</g>
<!-- 2&#45;&gt;3 -->
<g id="edge7" class="edge">
<title>2&#45;&gt;3</title>
<path fill="none" stroke="black" d="M2043.57,-343.67C2044.18,-325.37 2045.16,-296.03 2045.91,-273.31"/>
<polygon fill="black" stroke="black" points="2049.41,-273.42 2046.24,-263.31 2042.41,-273.19 2049.41,-273.42"/>
<text text-anchor="middle" x="2063.22" y="-294.61" font-family="Times,serif" font-size="14.00">outro*</text>
</g>
<!-- 4&#45;&gt;4 -->
<g id="edge9" class="edge">
<title>4&#45;&gt;4</title>
<path fill="none" stroke="black" d="M2182.92,-493.88C2193.15,-496.15 2203,-493.25 2203,-485.18 2203,-480.26 2199.34,-477.27 2194.17,-476.19"/>
<polygon fill="black" stroke="black" points="2194.33,-472.68 2184.43,-476.44 2194.52,-479.68 2194.33,-472.68"/>
<text text-anchor="middle" x="2218.75" y="-480.13" font-family="Times,serif" font-size="14.00">digito</text>
</g>
<!-- 5 -->
<g id="node7" class="node">
<title>5</title>
<ellipse fill="none" stroke="black" cx="2171" cy="-361.92" rx="18" ry="18"/>
<ellipse fill="none" stroke="black" cx="2171" cy="-361.92" rx="22" ry="22"/>
<text text-anchor="middle" x="2171" y="-356.87" font-family="Times,serif" font-size="14.00">5</text>
</g>
<!-- 4&#45;&gt;5 -->
<g id="edge10" class="edge">
<title>4&#45;&gt;5</title>
<path fill="none" stroke="black" d="M2167.57,-466.81C2168.18,-448.29 2169.16,-418.55 2169.92,-395.62"/>
<polygon fill="black" stroke="black" points="2173.41,-395.97 2170.24,-385.86 2166.42,-395.74 2173.41,-395.97"/>
<text text-anchor="middle" x="2186.51" y="-429.75" font-family="Times,serif" font-size="14.00">outro*</text>
</g>
<!-- 6 -->
<g id="node8" class="node">
<title>6</title>
<ellipse fill="none" stroke="black" cx="2277" cy="-361.92" rx="18" ry="18"/>
<text text-anchor="middle" x="2277" y="-356.87" font-family="Times,serif" font-size="14.00">6</text>
</g>
<!-- 4&#45;&gt;6 -->
<g id="edge11" class="edge">
<title>4&#45;&gt;6</title>
<path fill="none" stroke="black" d="M2182.06,-474.5C2199.35,-462.83 2227.81,-441.84 2247,-418.55 2254.2,-409.81 2260.47,-399.08 2265.39,-389.38"/>
<polygon fill="black" stroke="black" points="2268.53,-390.93 2269.69,-380.4 2262.21,-387.91 2268.53,-390.93"/>
<text text-anchor="middle" x="2254.98" y="-429.75" font-family="Times,serif" font-size="14.00">ponto</text>
</g>
<!-- 7 -->
<g id="node9" class="node">
<title>7</title>
<ellipse fill="none" stroke="black" cx="2277" cy="-239.52" rx="18" ry="18"/>
<text text-anchor="middle" x="2277" y="-234.47" font-family="Times,serif" font-size="14.00">7</text>
</g>
<!-- 6&#45;&gt;7 -->
<g id="edge12" class="edge">
<title>6&#45;&gt;7</title>
<path fill="none" stroke="black" d="M2277,-343.67C2277,-324.18 2277,-292.16 2277,-268.96"/>
<polygon fill="black" stroke="black" points="2280.5,-269.26 2277,-259.26 2273.5,-269.26 2280.5,-269.26"/>
<text text-anchor="middle" x="2292.75" y="-294.61" font-family="Times,serif" font-size="14.00">digito</text>
</g>
<!-- 7&#45;&gt;7 -->
<g id="edge13" class="edge">
<title>7&#45;&gt;7</title>
<path fill="none" stroke="black" d="M2293.29,-247.93C2303.39,-249.96 2313,-247.16 2313,-239.52 2313,-234.99 2309.61,-232.16 2304.74,-231.04"/>
<polygon fill="black" stroke="black" points="2304.78,-227.54 2294.8,-231.11 2304.83,-234.54 2304.78,-227.54"/>
<text text-anchor="middle" x="2328.75" y="-234.47" font-family="Times,serif" font-size="14.00">digito</text>
</g>
<!-- 8 -->
<g id="node10" class="node">
<title>8</title>
<ellipse fill="none" stroke="black" cx="2281" cy="-140.89" rx="18" ry="18"/>
<ellipse fill="none" stroke="black" cx="2281" cy="-140.89" rx="22" ry="22"/>
<text text-anchor="middle" x="2281" y="-135.84" font-family="Times,serif" font-size="14.00">8</text>
</g>
<!-- 7&#45;&gt;8 -->
<g id="edge14" class="edge">
<title>7&#45;&gt;8</title>
<path fill="none" stroke="black" d="M2277.72,-221.25C2278.25,-208.27 2279,-190.11 2279.65,-174.44"/>
<polygon fill="black" stroke="black" points="2283.14,-174.71 2280.06,-164.58 2276.15,-174.42 2283.14,-174.71"/>
<text text-anchor="middle" x="2296.86" y="-186.22" font-family="Times,serif" font-size="14.00">outro*</text>
</g>
<!-- 10 -->
<g id="node12" class="node">
<title>10</title>
<ellipse fill="none" stroke="black" cx="145" cy="-299.66" rx="20.13" ry="20.13"/>
<text text-anchor="middle" x="145" y="-294.61" font-family="Times,serif" font-size="14.00">10</text>
</g>
<!-- 9&#45;&gt;10 -->
<g id="edge16" class="edge">
<title>9&#45;&gt;10</title>
<path fill="none" stroke="black" d="M206.57,-468.43C200.46,-455.24 191.74,-435.84 185,-418.55 173.4,-388.78 161.86,-354.09 154.18,-330.08"/>
<polygon fill="black" stroke="black" points="157.55,-329.13 151.19,-320.66 150.88,-331.25 157.55,-329.13"/>
<text text-anchor="middle" x="201.07" y="-429.75" font-family="Times,serif" font-size="14.00">ch</text>
</g>
<!-- 11 -->
<g id="node13" class="node">
<title>11</title>
<ellipse fill="none" stroke="black" cx="214" cy="-361.92" rx="20.13" ry="20.13"/>
<text text-anchor="middle" x="214" y="-356.87" font-family="Times,serif" font-size="14.00">11</text>
</g>
<!-- 9&#45;&gt;11 -->
<g id="edge17" class="edge">
<title>9&#45;&gt;11</title>
<path fill="none" stroke="black" d="M214,-466.81C214,-447.73 214,-416.75 214,-393.57"/>
<polygon fill="black" stroke="black" points="217.5,-393.78 214,-383.78 210.5,-393.78 217.5,-393.78"/>
<text text-anchor="middle" x="244.75" y="-429.75" font-family="Times,serif" font-size="14.00">contrabarra</text>
</g>
<!-- 15 -->
<g id="node17" class="node">
<title>15</title>
<ellipse fill="none" stroke="black" cx="156" cy="-140.89" rx="20.13" ry="20.13"/>
<text text-anchor="middle" x="156" y="-135.84" font-family="Times,serif" font-size="14.00">15</text>
</g>
<!-- 10&#45;&gt;15 -->
<g id="edge18" class="edge">
<title>10&#45;&gt;15</title>
<path fill="none" stroke="black" d="M133.12,-282.88C129.08,-276.58 125.06,-269.04 123,-261.52 116.89,-239.23 117.8,-232.04 123,-209.52 126.32,-195.15 133.13,-180.3 139.71,-168.19"/>
<polygon fill="black" stroke="black" points="142.67,-170.06 144.58,-159.64 136.59,-166.59 142.67,-170.06"/>
<text text-anchor="middle" x="148.5" y="-234.47" font-family="Times,serif" font-size="14.00">apostrofo</text>
</g>
<!-- 13 -->
<g id="node15" class="node">
<title>13</title>
<ellipse fill="none" stroke="black" cx="203" cy="-239.52" rx="20.13" ry="20.13"/>
<text text-anchor="middle" x="203" y="-234.47" font-family="Times,serif" font-size="14.00">13</text>
</g>
<!-- 11&#45;&gt;13 -->
<g id="edge21" class="edge">
<title>11&#45;&gt;13</title>
<path fill="none" stroke="black" d="M212.23,-341.57C210.49,-322.53 207.81,-293.16 205.78,-270.98"/>
<polygon fill="black" stroke="black" points="209.3,-270.97 204.9,-261.33 202.33,-271.6 209.3,-270.97"/>
<text text-anchor="middle" x="213.5" y="-294.61" font-family="Times,serif" font-size="14.00">0</text>
</g>
<!-- 14 -->
<g id="node16" class="node">
<title>14</title>
<ellipse fill="none" stroke="black" cx="261" cy="-239.52" rx="20.13" ry="20.13"/>
<text text-anchor="middle" x="261" y="-234.47" font-family="Times,serif" font-size="14.00">14</text>
</g>
<!-- 11&#45;&gt;14 -->
<g id="edge20" class="edge">
<title>11&#45;&gt;14</title>
<path fill="none" stroke="black" d="M221.14,-342.63C228.77,-323.07 240.99,-291.79 249.88,-269"/>
<polygon fill="black" stroke="black" points="253.02,-270.59 253.4,-260 246.5,-268.04 253.02,-270.59"/>
<text text-anchor="middle" x="247.83" y="-294.61" font-family="Times,serif" font-size="14.00">n</text>
</g>
<!-- 12 -->
<g id="node14" class="node">
<title>12</title>
<ellipse fill="none" stroke="black" cx="156" cy="-40.13" rx="20.13" ry="20.13"/>
<ellipse fill="none" stroke="black" cx="156" cy="-40.13" rx="24.13" ry="24.13"/>
<text text-anchor="middle" x="156" y="-35.08" font-family="Times,serif" font-size="14.00">12</text>
</g>
<!-- 13&#45;&gt;15 -->
<g id="edge23" class="edge">
<title>13&#45;&gt;15</title>
<path fill="none" stroke="black" d="M188.14,-225.78C182.2,-220.71 175.29,-214.83 169,-209.52 163.69,-205.05 160,-205.79 157,-199.52 153.03,-191.24 151.78,-181.49 151.81,-172.39"/>
<polygon fill="black" stroke="black" points="155.3,-172.67 152.37,-162.48 148.31,-172.27 155.3,-172.67"/>
<text text-anchor="middle" x="182.5" y="-186.22" font-family="Times,serif" font-size="14.00">apostrofo</text>
</g>
<!-- 14&#45;&gt;15 -->
<g id="edge22" class="edge">
<title>14&#45;&gt;15</title>
<path fill="none" stroke="black" d="M248.02,-223.85C237.6,-212.33 222.38,-196.12 208,-183.02 199.5,-175.28 189.72,-167.32 180.95,-160.49"/>
<polygon fill="black" stroke="black" points="183.21,-157.81 173.14,-154.5 178.95,-163.37 183.21,-157.81"/>
<text text-anchor="middle" x="250.19" y="-186.22" font-family="Times,serif" font-size="14.00">apostrofo</text>
</g>
<!-- 15&#45;&gt;12 -->
<g id="edge19" class="edge">
<title>15&#45;&gt;12</title>
<path fill="none" stroke="black" d="M156,-120.38C156,-107.69 156,-90.8 156,-75.86"/>
<polygon fill="black" stroke="black" points="159.5,-75.94 156,-65.94 152.5,-75.94 159.5,-75.94"/>
<text text-anchor="middle" x="173.62" y="-85.46" font-family="Times,serif" font-size="14.00">outro*</text>
</g>
<!-- 17 -->
<g id="node19" class="node">
<title>17</title>
<ellipse fill="none" stroke="black" cx="346" cy="-239.52" rx="20.13" ry="20.13"/>
<text text-anchor="middle" x="346" y="-234.47" font-family="Times,serif" font-size="14.00">17</text>
</g>
<!-- 16&#45;&gt;17 -->
<g id="edge25" class="edge">
<title>16&#45;&gt;17</title>
<path fill="none" stroke="black" d="M374.14,-472.13C359.97,-460.28 340.19,-440.77 331.75,-418.55 312.88,-368.85 325.67,-305.88 336.19,-269.69"/>
<polygon fill="black" stroke="black" points="339.46,-270.97 339.03,-260.39 332.76,-268.93 339.46,-270.97"/>
<text text-anchor="middle" x="346.38" y="-356.87" font-family="Times,serif" font-size="14.00">aspas</text>
</g>
<!-- 19 -->
<g id="node21" class="node">
<title>19</title>
<ellipse fill="none" stroke="black" cx="390" cy="-361.92" rx="20.13" ry="20.13"/>
<text text-anchor="middle" x="390" y="-356.87" font-family="Times,serif" font-size="14.00">19</text>
</g>
<!-- 16&#45;&gt;19 -->
<g id="edge26" class="edge">
<title>16&#45;&gt;19</title>
<path fill="none" stroke="black" d="M390,-464.7C390,-445.52 390,-415.93 390,-393.59"/>
<polygon fill="black" stroke="black" points="393.5,-393.87 390,-383.87 386.5,-393.87 393.5,-393.87"/>
<text text-anchor="middle" x="396.38" y="-429.75" font-family="Times,serif" font-size="14.00">ch</text>
</g>
<!-- 18 -->
<g id="node20" class="node">
<title>18</title>
<ellipse fill="none" stroke="black" cx="346" cy="-140.89" rx="20.13" ry="20.13"/>
<ellipse fill="none" stroke="black" cx="346" cy="-140.89" rx="24.13" ry="24.13"/>
<text text-anchor="middle" x="346" y="-135.84" font-family="Times,serif" font-size="14.00">18</text>
</g>
<!-- 17&#45;&gt;18 -->
<g id="edge27" class="edge">
<title>17&#45;&gt;18</title>
<path fill="none" stroke="black" d="M346,-218.97C346,-206.91 346,-191.08 346,-176.91"/>
<polygon fill="black" stroke="black" points="349.5,-177.03 346,-167.03 342.5,-177.03 349.5,-177.03"/>
<text text-anchor="middle" x="363.62" y="-186.22" font-family="Times,serif" font-size="14.00">outro*</text>
</g>
<!-- 19&#45;&gt;17 -->
<g id="edge28" class="edge">
<title>19&#45;&gt;17</title>
<path fill="none" stroke="black" d="M383.32,-342.63C376.24,-323.27 364.97,-292.44 356.67,-269.71"/>
<polygon fill="black" stroke="black" points="359.99,-268.59 353.27,-260.4 353.41,-271 359.99,-268.59"/>
<text text-anchor="middle" x="389.14" y="-294.61" font-family="Times,serif" font-size="14.00">aspas</text>
</g>
<!-- 21 -->
<g id="node23" class="node">
<title>21</title>
<ellipse fill="none" stroke="black" cx="960" cy="-692.94" rx="20.13" ry="20.13"/>
<text text-anchor="middle" x="960" y="-687.89" font-family="Times,serif" font-size="14.00">21</text>
</g>
<!-- 20&#45;&gt;21 -->
<g id="edge30" class="edge">
<title>20&#45;&gt;21</title>
<path fill="none" stroke="black" d="M63.17,-505.22C67.4,-524.07 76.83,-552.1 97,-566.31 235.17,-663.65 788.73,-686.76 928.05,-691.08"/>
<polygon fill="black" stroke="black" points="927.89,-694.58 937.99,-691.38 928.1,-687.58 927.89,-694.58"/>
<text text-anchor="middle" x="250.68" y="-597.26" font-family="Times,serif" font-size="14.00">barra</text>
</g>
<!-- 26 -->
<g id="node27" class="node">
<title>26</title>
<ellipse fill="none" stroke="black" cx="45" cy="-361.92" rx="20.13" ry="20.13"/>
<ellipse fill="none" stroke="black" cx="45" cy="-361.92" rx="24.13" ry="24.13"/>
<text text-anchor="middle" x="45" y="-356.87" font-family="Times,serif" font-size="14.00">26</text>
</g>
<!-- 20&#45;&gt;26 -->
<g id="edge36" class="edge">
<title>20&#45;&gt;26</title>
<path fill="none" stroke="black" d="M53.97,-465.53C51.96,-458.55 49.93,-450.51 48.75,-443.05 46.4,-428.22 45.37,-411.67 44.96,-397.48"/>
<polygon fill="black" stroke="black" points="48.46,-397.64 44.77,-387.71 41.46,-397.78 48.46,-397.64"/>
<text text-anchor="middle" x="66.38" y="-429.75" font-family="Times,serif" font-size="14.00">outro*</text>
</g>
<!-- 21&#45;&gt;0 -->
<g id="edge32" class="edge">
<title>21&#45;&gt;0</title>
<path fill="none" stroke="black" d="M978.67,-684.84C1019.66,-669.25 1117.67,-631.97 1165.63,-613.72"/>
<polygon fill="black" stroke="black" points="1166.63,-617.09 1174.73,-610.26 1164.14,-610.55 1166.63,-617.09"/>
<text text-anchor="middle" x="1102.62" y="-641.51" font-family="Times,serif" font-size="14.00">\n</text>
</g>
<!-- 21&#45;&gt;21 -->
<g id="edge31" class="edge">
<title>21&#45;&gt;21</title>
<path fill="none" stroke="black" d="M978.83,-701.28C988.93,-702.7 998.13,-699.92 998.13,-692.94 998.13,-688.8 994.89,-686.14 990.14,-684.96"/>
<polygon fill="black" stroke="black" points="990.45,-681.46 980.35,-684.65 990.23,-688.46 990.45,-681.46"/>
<text text-anchor="middle" x="1015.76" y="-687.89" font-family="Times,serif" font-size="14.00">outro*</text>
</g>
<!-- 33 -->
<g id="node34" class="node">
<title>33</title>
<ellipse fill="none" stroke="black" cx="1133" cy="-361.92" rx="20.13" ry="20.13"/>
<ellipse fill="none" stroke="black" cx="1133" cy="-361.92" rx="24.13" ry="24.13"/>
<text text-anchor="middle" x="1133" y="-356.87" font-family="Times,serif" font-size="14.00">33</text>
</g>
<!-- 32&#45;&gt;33 -->
<g id="edge43" class="edge">
<title>32&#45;&gt;33</title>
<path fill="none" stroke="black" d="M1360.47,-467.08C1356.66,-461.75 1351.78,-456.41 1346,-453.05 1317.96,-436.78 1305.62,-448.97 1273.75,-443.05 1226.74,-434.32 1208.1,-446.06 1169,-418.55 1160.32,-412.44 1153.22,-403.51 1147.69,-394.58"/>
<polygon fill="black" stroke="black" points="1150.8,-392.98 1142.85,-385.97 1144.7,-396.41 1150.8,-392.98"/>
<text text-anchor="middle" x="1277.88" y="-429.75" font-family="Times,serif" font-size="14.00">=</text>
</g>
<!-- 34 -->
<g id="node35" class="node">
<title>34</title>
<ellipse fill="none" stroke="black" cx="1014" cy="-361.92" rx="20.13" ry="20.13"/>
<ellipse fill="none" stroke="black" cx="1014" cy="-361.92" rx="24.13" ry="24.13"/>
<text text-anchor="middle" x="1014" y="-356.87" font-family="Times,serif" font-size="14.00">34</text>
</g>
<!-- 32&#45;&gt;34 -->
<g id="edge44" class="edge">
<title>32&#45;&gt;34</title>
<path fill="none" stroke="black" d="M1360.86,-467.11C1357.03,-461.65 1352.05,-456.21 1346,-453.05 1325.96,-442.58 1165.09,-446.51 1142.75,-443.05 1100.62,-436.52 1084.52,-443.58 1050,-418.55 1041.41,-412.32 1034.33,-403.35 1028.79,-394.43"/>
<polygon fill="black" stroke="black" points="1031.91,-392.83 1023.95,-385.84 1025.82,-396.27 1031.91,-392.83"/>
<text text-anchor="middle" x="1160.38" y="-429.75" font-family="Times,serif" font-size="14.00">outro*</text>
</g>
<!-- 36 -->
<g id="node37" class="node">
<title>36</title>
<ellipse fill="none" stroke="black" cx="1323" cy="-361.92" rx="20.13" ry="20.13"/>
<ellipse fill="none" stroke="black" cx="1323" cy="-361.92" rx="24.13" ry="24.13"/>
<text text-anchor="middle" x="1323" y="-356.87" font-family="Times,serif" font-size="14.00">36</text>
</g>
<!-- 35&#45;&gt;36 -->
<g id="edge46" class="edge">
<title>35&#45;&gt;36</title>
<path fill="none" stroke="black" d="M1415.04,-469.61C1410.13,-464.28 1404.43,-458.27 1399,-453.05 1382.08,-436.77 1374.42,-436.25 1359,-418.55 1352.26,-410.82 1345.86,-401.73 1340.36,-393.16"/>
<polygon fill="black" stroke="black" points="1343.4,-391.41 1335.16,-384.75 1337.44,-395.09 1343.4,-391.41"/>
<text text-anchor="middle" x="1393.01" y="-429.75" font-family="Times,serif" font-size="14.00">&amp;</text>
</g>
<!-- 37 -->
<g id="node38" class="node">
<title>37</title>
<ellipse fill="none" stroke="black" cx="1240" cy="-361.92" rx="20.13" ry="20.13"/>
<ellipse fill="none" stroke="black" cx="1240" cy="-361.92" rx="24.13" ry="24.13"/>
<text text-anchor="middle" x="1240" y="-356.87" font-family="Times,serif" font-size="14.00">37</text>
</g>
<!-- 35&#45;&gt;37 -->
<g id="edge47" class="edge">
<title>35&#45;&gt;37</title>
<path fill="none" stroke="black" d="M1416.68,-468.04C1411.88,-462.4 1405.81,-456.6 1399,-453.05 1370.64,-438.28 1358.38,-452.22 1327.75,-443.05 1303.37,-435.75 1295.14,-435.32 1276,-418.55 1268.14,-411.67 1261.33,-402.66 1255.81,-393.91"/>
<polygon fill="black" stroke="black" points="1258.99,-392.42 1250.9,-385.57 1252.95,-395.97 1258.99,-392.42"/>
<text text-anchor="middle" x="1345.38" y="-429.75" font-family="Times,serif" font-size="14.00">outro*</text>
</g>
<!-- 39 -->
<g id="node40" class="node">
<title>39</title>
<ellipse fill="none" stroke="black" cx="1417" cy="-361.92" rx="20.13" ry="20.13"/>
<ellipse fill="none" stroke="black" cx="1417" cy="-361.92" rx="24.13" ry="24.13"/>
<text text-anchor="middle" x="1417" y="-356.87" font-family="Times,serif" font-size="14.00">39</text>
</g>
<!-- 38&#45;&gt;39 -->
<g id="edge49" class="edge">
<title>38&#45;&gt;39</title>
<path fill="none" stroke="black" d="M1476.26,-467.06C1465.32,-447.84 1447.37,-416.29 1434.08,-392.94"/>
<polygon fill="black" stroke="black" points="1437.27,-391.46 1429.28,-384.5 1431.18,-394.92 1437.27,-391.46"/>
<text text-anchor="middle" x="1463.21" y="-429.75" font-family="Times,serif" font-size="14.00">|</text>
</g>
<!-- 41 -->
<g id="node42" class="node">
<title>41</title>
<ellipse fill="none" stroke="black" cx="1562" cy="-361.92" rx="20.13" ry="20.13"/>
<ellipse fill="none" stroke="black" cx="1562" cy="-361.92" rx="24.13" ry="24.13"/>
<text text-anchor="middle" x="1562" y="-356.87" font-family="Times,serif" font-size="14.00">41</text>
</g>
<!-- 40&#45;&gt;41 -->
<g id="edge51" class="edge">
<title>40&#45;&gt;41</title>
<path fill="none" stroke="black" d="M1546.85,-464.97C1549.54,-446.85 1553.63,-419.29 1556.89,-397.37"/>
<polygon fill="black" stroke="black" points="1560.32,-398.09 1558.32,-387.69 1553.39,-397.07 1560.32,-398.09"/>
<text text-anchor="middle" x="1556.59" y="-429.75" font-family="Times,serif" font-size="14.00">=</text>
</g>
<!-- 42 -->
<g id="node43" class="node">
<title>42</title>
<ellipse fill="none" stroke="black" cx="1490" cy="-361.92" rx="20.13" ry="20.13"/>
<ellipse fill="none" stroke="black" cx="1490" cy="-361.92" rx="24.13" ry="24.13"/>
<text text-anchor="middle" x="1490" y="-356.87" font-family="Times,serif" font-size="14.00">42</text>
</g>
<!-- 40&#45;&gt;42 -->
<g id="edge52" class="edge">
<title>40&#45;&gt;42</title>
<path fill="none" stroke="black" d="M1530.02,-470.02C1523.32,-462.54 1515.71,-452.89 1510.75,-443.05 1503.61,-428.87 1498.77,-412.01 1495.57,-397.42"/>
<polygon fill="black" stroke="black" points="1499.04,-396.9 1493.64,-387.78 1492.17,-398.27 1499.04,-396.9"/>
<text text-anchor="middle" x="1528.38" y="-429.75" font-family="Times,serif" font-size="14.00">outro*</text>
</g>
<!-- 44 -->
<g id="node45" class="node">
<title>44</title>
<ellipse fill="none" stroke="black" cx="1749" cy="-361.92" rx="20.13" ry="20.13"/>
<ellipse fill="none" stroke="black" cx="1749" cy="-361.92" rx="24.13" ry="24.13"/>
<text text-anchor="middle" x="1749" y="-356.87" font-family="Times,serif" font-size="14.00">44</text>
</g>
<!-- 43&#45;&gt;44 -->
<g id="edge54" class="edge">
<title>43&#45;&gt;44</title>
<path fill="none" stroke="black" d="M1691.74,-471.18C1699.71,-463.58 1709.26,-453.46 1716,-443.05 1725.32,-428.66 1732.88,-411.2 1738.4,-396.26"/>
<polygon fill="black" stroke="black" points="1741.7,-397.44 1741.72,-386.85 1735.1,-395.11 1741.7,-397.44"/>
<text text-anchor="middle" x="1729.48" y="-429.75" font-family="Times,serif" font-size="14.00">=</text>
</g>
<!-- 45 -->
<g id="node46" class="node">
<title>45</title>
<ellipse fill="none" stroke="black" cx="1677" cy="-361.92" rx="20.13" ry="20.13"/>
<ellipse fill="none" stroke="black" cx="1677" cy="-361.92" rx="24.13" ry="24.13"/>
<text text-anchor="middle" x="1677" y="-356.87" font-family="Times,serif" font-size="14.00">45</text>
</g>
<!-- 43&#45;&gt;45 -->
<g id="edge55" class="edge">
<title>43&#45;&gt;45</title>
<path fill="none" stroke="black" d="M1677,-464.7C1677,-446.73 1677,-419.65 1677,-397.93"/>
<polygon fill="black" stroke="black" points="1680.5,-398.03 1677,-388.03 1673.5,-398.03 1680.5,-398.03"/>
<text text-anchor="middle" x="1694.62" y="-429.75" font-family="Times,serif" font-size="14.00">outro*</text>
</g>
<!-- 47 -->
<g id="node48" class="node">
<title>47</title>
<ellipse fill="none" stroke="black" cx="1950" cy="-361.92" rx="20.13" ry="20.13"/>
<ellipse fill="none" stroke="black" cx="1950" cy="-361.92" rx="24.13" ry="24.13"/>
<text text-anchor="middle" x="1950" y="-356.87" font-family="Times,serif" font-size="14.00">47</text>
</g>
<!-- 46&#45;&gt;47 -->
<g id="edge57" class="edge">
<title>46&#45;&gt;47</title>
<path fill="none" stroke="black" d="M1880.27,-470.85C1888.08,-463.15 1897.64,-453.03 1905,-443.05 1916.23,-427.81 1926.72,-409.49 1934.73,-394.22"/>
<polygon fill="black" stroke="black" points="1937.73,-396.04 1939.18,-385.55 1931.5,-392.85 1937.73,-396.04"/>
<text text-anchor="middle" x="1919.05" y="-429.75" font-family="Times,serif" font-size="14.00">=</text>
</g>
<!-- 48 -->
<g id="node49" class="node">
<title>48</title>
<ellipse fill="none" stroke="black" cx="1866" cy="-361.92" rx="20.13" ry="20.13"/>
<ellipse fill="none" stroke="black" cx="1866" cy="-361.92" rx="24.13" ry="24.13"/>
<text text-anchor="middle" x="1866" y="-356.87" font-family="Times,serif" font-size="14.00">48</text>
</g>
<!-- 46&#45;&gt;48 -->
<g id="edge58" class="edge">
<title>46&#45;&gt;48</title>
<path fill="none" stroke="black" d="M1866,-464.7C1866,-446.73 1866,-419.65 1866,-397.93"/>
<polygon fill="black" stroke="black" points="1869.5,-398.03 1866,-388.03 1862.5,-398.03 1869.5,-398.03"/>
<text text-anchor="middle" x="1883.62" y="-429.75" font-family="Times,serif" font-size="14.00">outro*</text>
</g>
</g>
</svg>
