<?xml version="1.0" encoding="UTF-8" standalone="no"?>
<!DOCTYPE svg PUBLIC "-//W3C//DTD SVG 1.1//EN"
 "http://www.w3.org/Graphics/SVG/1.1/DTD/svg11.dtd">
<!-- Generated by graphviz version 12.1.2 (0)
 -->
<!-- Pages: 1 -->
<svg width="771pt" height="726pt"
 viewBox="0.00 0.00 771.48 725.55" xmlns="http://www.w3.org/2000/svg" xmlns:xlink="http://www.w3.org/1999/xlink">
<g id="graph0" class="graph" transform="scale(1 1) rotate(0) translate(4 721.55)">
<polygon fill="white" stroke="none" points="-4,4 -4,-721.55 767.48,-721.55 767.48,4 -4,4"/>
<g id="clust1" class="cluster">
<title>cluster_start</title>
<polygon fill="none" stroke="black" points="263.48,-560.05 263.48,-709.55 333.48,-709.55 333.48,-560.05 263.48,-560.05"/>
<text text-anchor="middle" x="298.48" y="-692.25" font-family="Times,serif" font-size="14.00">INICIO</text>
</g>
<g id="clust2" class="cluster">
<title>cluster_id</title>
<polygon fill="lightgrey" stroke="black" points="38.48,-209.52 38.48,-523.42 154.48,-523.42 154.48,-209.52 38.48,-209.52"/>
<text text-anchor="middle" x="96.48" y="-506.12" font-family="Times,serif" font-size="14.00">ID</text>
</g>
<g id="clust3" class="cluster">
<title>cluster_intcon</title>
<polygon fill="#ffaaff" stroke="#ffaaff" points="272.48,-329.79 272.48,-523.42 374.48,-523.42 374.48,-329.79 272.48,-329.79"/>
<text text-anchor="middle" x="323.48" y="-506.12" font-family="Times,serif" font-size="14.00">INTCON</text>
</g>
<g id="clust4" class="cluster">
<title>cluster_realcon</title>
<polygon fill="#8888dd" stroke="#8888dd" points="162.48,-110.89 162.48,-410.29 264.48,-410.29 264.48,-110.89 162.48,-110.89"/>
<text text-anchor="middle" x="213.48" y="-392.99" font-family="Times,serif" font-size="14.00">REALCON</text>
</g>
<g id="clust5" class="cluster">
<title>cluster_charcon</title>
<polygon fill="#88dd88" stroke="#88dd88" points="382.48,-8 382.48,-523.42 626.48,-523.42 626.48,-8 382.48,-8"/>
<text text-anchor="middle" x="504.48" y="-506.12" font-family="Times,serif" font-size="14.00">CHARCON</text>
</g>
<g id="clust6" class="cluster">
<title>cluster_stringcon</title>
<polygon fill="#dd8888" stroke="#dd8888" points="634.48,-108.76 634.48,-525.55 755.48,-525.55 755.48,-108.76 634.48,-108.76"/>
<text text-anchor="middle" x="694.98" y="-508.25" font-family="Times,serif" font-size="14.00">STRINGCON</text>
</g>
<!-- Inicio -->
<g id="node1" class="node">
<title>Inicio</title>
</g>
<!-- 0 -->
<g id="node2" class="node">
<title>0</title>
<ellipse fill="none" stroke="black" cx="298.48" cy="-586.05" rx="18" ry="18"/>
<text text-anchor="middle" x="298.48" y="-581" font-family="Times,serif" font-size="14.00">0</text>
</g>
<!-- Inicio&#45;&gt;0 -->
<g id="edge1" class="edge">
<title>Inicio&#45;&gt;0</title>
<path fill="none" stroke="black" d="M298.48,-641.22C298.48,-633.61 298.48,-624.4 298.48,-615.74"/>
<polygon fill="black" stroke="black" points="301.98,-616.01 298.48,-606.01 294.98,-616.01 301.98,-616.01"/>
</g>
<!-- 1 -->
<g id="node3" class="node">
<title>1</title>
<ellipse fill="none" stroke="black" cx="64.48" cy="-472.92" rx="18" ry="18"/>
<text text-anchor="middle" x="64.48" y="-467.87" font-family="Times,serif" font-size="14.00">1</text>
</g>
<!-- 0&#45;&gt;1 -->
<g id="edge2" class="edge">
<title>0&#45;&gt;1</title>
<path fill="none" stroke="black" d="M282.4,-577.41C242.74,-558.58 139.95,-509.76 91.07,-486.54"/>
<polygon fill="black" stroke="black" points="92.58,-483.39 82.05,-482.26 89.58,-489.71 92.58,-483.39"/>
<text text-anchor="middle" x="245.67" y="-536.75" font-family="Times,serif" font-size="14.00">sublinha</text>
</g>
<!-- 2 -->
<g id="node4" class="node">
<title>2</title>
<ellipse fill="none" stroke="black" cx="64.48" cy="-359.79" rx="18" ry="18"/>
<text text-anchor="middle" x="64.48" y="-354.74" font-family="Times,serif" font-size="14.00">2</text>
</g>
<!-- 0&#45;&gt;2 -->
<g id="edge4" class="edge">
<title>0&#45;&gt;2</title>
<path fill="none" stroke="black" d="M280.34,-584.14C223.01,-580.84 47.52,-567.42 13.48,-525.55 -21.22,-482.86 20.16,-416.58 46.29,-382.56"/>
<polygon fill="black" stroke="black" points="48.77,-385.06 52.24,-375.05 43.28,-380.72 48.77,-385.06"/>
<text text-anchor="middle" x="25.48" y="-467.87" font-family="Times,serif" font-size="14.00">letra</text>
</g>
<!-- 4 -->
<g id="node6" class="node">
<title>4</title>
<ellipse fill="none" stroke="black" cx="298.48" cy="-472.92" rx="18" ry="18"/>
<text text-anchor="middle" x="298.48" y="-467.87" font-family="Times,serif" font-size="14.00">4</text>
</g>
<!-- 0&#45;&gt;4 -->
<g id="edge7" class="edge">
<title>0&#45;&gt;4</title>
<path fill="none" stroke="black" d="M298.48,-567.68C298.48,-550.23 298.48,-523.03 298.48,-502.42"/>
<polygon fill="black" stroke="black" points="301.98,-502.67 298.48,-492.67 294.98,-502.67 301.98,-502.67"/>
<text text-anchor="middle" x="314.23" y="-536.75" font-family="Times,serif" font-size="14.00">digito</text>
</g>
<!-- 9 -->
<g id="node11" class="node">
<title>9</title>
<ellipse fill="none" stroke="black" cx="410.48" cy="-472.92" rx="18" ry="18"/>
<text text-anchor="middle" x="410.48" y="-467.87" font-family="Times,serif" font-size="14.00">9</text>
</g>
<!-- 0&#45;&gt;9 -->
<g id="edge14" class="edge">
<title>0&#45;&gt;9</title>
<path fill="none" stroke="black" d="M313.99,-576C331.18,-565.44 359.04,-546.71 378.48,-525.55 385.66,-517.73 392.14,-508.09 397.36,-499.25"/>
<polygon fill="black" stroke="black" points="400.3,-501.17 402.14,-490.74 394.19,-497.75 400.3,-501.17"/>
<text text-anchor="middle" x="394.46" y="-536.75" font-family="Times,serif" font-size="14.00">apostrofo</text>
</g>
<!-- 17 -->
<g id="node18" class="node">
<title>17</title>
<ellipse fill="none" stroke="black" cx="662.48" cy="-472.92" rx="20.13" ry="20.13"/>
<text text-anchor="middle" x="662.48" y="-467.87" font-family="Times,serif" font-size="14.00">17</text>
</g>
<!-- 0&#45;&gt;17 -->
<g id="edge23" class="edge">
<title>0&#45;&gt;17</title>
<path fill="none" stroke="black" d="M316.44,-583.75C377.78,-579.01 578.17,-561.08 630.48,-525.55 638.95,-519.8 645.59,-510.99 650.58,-502.27"/>
<polygon fill="black" stroke="black" points="653.58,-504.1 655,-493.6 647.34,-500.92 653.58,-504.1"/>
<text text-anchor="middle" x="626.48" y="-536.75" font-family="Times,serif" font-size="14.00">aspas</text>
</g>
<!-- 1&#45;&gt;1 -->
<g id="edge3" class="edge">
<title>1&#45;&gt;1</title>
<path fill="none" stroke="black" d="M80.77,-481C90.87,-482.95 100.48,-480.26 100.48,-472.92 100.48,-468.56 97.1,-465.84 92.23,-464.76"/>
<polygon fill="black" stroke="black" points="92.26,-461.26 82.29,-464.82 92.31,-468.26 92.26,-461.26"/>
<text text-anchor="middle" x="123.36" y="-467.87" font-family="Times,serif" font-size="14.00">sublinha</text>
</g>
<!-- 1&#45;&gt;2 -->
<g id="edge5" class="edge">
<title>1&#45;&gt;2</title>
<path fill="none" stroke="black" d="M64.48,-454.55C64.48,-437.1 64.48,-409.9 64.48,-389.29"/>
<polygon fill="black" stroke="black" points="67.98,-389.54 64.48,-379.54 60.98,-389.54 67.98,-389.54"/>
<text text-anchor="middle" x="76.48" y="-421.49" font-family="Times,serif" font-size="14.00">letra</text>
</g>
<!-- 3 -->
<g id="node5" class="node">
<title>3</title>
<ellipse fill="none" stroke="black" cx="68.48" cy="-239.52" rx="18" ry="18"/>
<ellipse fill="none" stroke="black" cx="68.48" cy="-239.52" rx="22" ry="22"/>
<text text-anchor="middle" x="68.48" y="-234.47" font-family="Times,serif" font-size="14.00">3</text>
</g>
<!-- 2&#45;&gt;3 -->
<g id="edge6" class="edge">
<title>2&#45;&gt;3</title>
<path fill="none" stroke="black" d="M65.07,-341.34C65.68,-323.45 66.63,-295.2 67.38,-273.15"/>
<polygon fill="black" stroke="black" points="70.88,-273.27 67.72,-263.16 63.88,-273.03 70.88,-273.27"/>
<text text-anchor="middle" x="84.7" y="-294.61" font-family="Times,serif" font-size="14.00">outro*</text>
</g>
<!-- 4&#45;&gt;4 -->
<g id="edge8" class="edge">
<title>4&#45;&gt;4</title>
<path fill="none" stroke="black" d="M314.77,-481C324.87,-482.95 334.48,-480.26 334.48,-472.92 334.48,-468.56 331.1,-465.84 326.23,-464.76"/>
<polygon fill="black" stroke="black" points="326.26,-461.26 316.29,-464.82 326.31,-468.26 326.26,-461.26"/>
<text text-anchor="middle" x="350.23" y="-467.87" font-family="Times,serif" font-size="14.00">digito</text>
</g>
<!-- 5 -->
<g id="node7" class="node">
<title>5</title>
<ellipse fill="none" stroke="black" cx="302.48" cy="-359.79" rx="18" ry="18"/>
<ellipse fill="none" stroke="black" cx="302.48" cy="-359.79" rx="22" ry="22"/>
<text text-anchor="middle" x="302.48" y="-354.74" font-family="Times,serif" font-size="14.00">5</text>
</g>
<!-- 4&#45;&gt;5 -->
<g id="edge9" class="edge">
<title>4&#45;&gt;5</title>
<path fill="none" stroke="black" d="M299.11,-454.55C299.69,-438.3 300.58,-413.59 301.3,-393.62"/>
<polygon fill="black" stroke="black" points="304.8,-393.85 301.66,-383.73 297.8,-393.59 304.8,-393.85"/>
<text text-anchor="middle" x="317.99" y="-421.49" font-family="Times,serif" font-size="14.00">outro*</text>
</g>
<!-- 6 -->
<g id="node8" class="node">
<title>6</title>
<ellipse fill="none" stroke="black" cx="209.48" cy="-359.79" rx="18" ry="18"/>
<text text-anchor="middle" x="209.48" y="-354.74" font-family="Times,serif" font-size="14.00">6</text>
</g>
<!-- 4&#45;&gt;6 -->
<g id="edge10" class="edge">
<title>4&#45;&gt;6</title>
<path fill="none" stroke="black" d="M286.3,-459.13C279.74,-452.09 271.61,-443.12 264.73,-434.79 251.1,-418.25 236.63,-398.8 225.92,-383.99"/>
<polygon fill="black" stroke="black" points="229.03,-382.32 220.36,-376.24 223.35,-386.4 229.03,-382.32"/>
<text text-anchor="middle" x="280.11" y="-421.49" font-family="Times,serif" font-size="14.00">ponto</text>
</g>
<!-- 7 -->
<g id="node9" class="node">
<title>7</title>
<ellipse fill="none" stroke="black" cx="188.48" cy="-239.52" rx="18" ry="18"/>
<text text-anchor="middle" x="188.48" y="-234.47" font-family="Times,serif" font-size="14.00">7</text>
</g>
<!-- 6&#45;&gt;7 -->
<g id="edge11" class="edge">
<title>6&#45;&gt;7</title>
<path fill="none" stroke="black" d="M206.43,-341.59C203.05,-322.58 197.57,-291.67 193.55,-269.03"/>
<polygon fill="black" stroke="black" points="197,-268.47 191.81,-259.23 190.11,-269.69 197,-268.47"/>
<text text-anchor="middle" x="217.84" y="-294.61" font-family="Times,serif" font-size="14.00">digito</text>
</g>
<!-- 7&#45;&gt;7 -->
<g id="edge12" class="edge">
<title>7&#45;&gt;7</title>
<path fill="none" stroke="black" d="M204.77,-247.93C214.87,-249.96 224.48,-247.16 224.48,-239.52 224.48,-234.99 221.1,-232.16 216.23,-231.04"/>
<polygon fill="black" stroke="black" points="216.26,-227.54 206.29,-231.11 216.31,-234.54 216.26,-227.54"/>
<text text-anchor="middle" x="240.23" y="-234.47" font-family="Times,serif" font-size="14.00">digito</text>
</g>
<!-- 8 -->
<g id="node10" class="node">
<title>8</title>
<ellipse fill="none" stroke="black" cx="192.48" cy="-140.89" rx="18" ry="18"/>
<ellipse fill="none" stroke="black" cx="192.48" cy="-140.89" rx="22" ry="22"/>
<text text-anchor="middle" x="192.48" y="-135.84" font-family="Times,serif" font-size="14.00">8</text>
</g>
<!-- 7&#45;&gt;8 -->
<g id="edge13" class="edge">
<title>7&#45;&gt;8</title>
<path fill="none" stroke="black" d="M189.2,-221.25C189.74,-208.27 190.49,-190.11 191.14,-174.44"/>
<polygon fill="black" stroke="black" points="194.63,-174.71 191.54,-164.58 187.63,-174.42 194.63,-174.71"/>
<text text-anchor="middle" x="208.35" y="-186.22" font-family="Times,serif" font-size="14.00">outro*</text>
</g>
<!-- 10 -->
<g id="node12" class="node">
<title>10</title>
<ellipse fill="none" stroke="black" cx="410.48" cy="-299.66" rx="20.13" ry="20.13"/>
<text text-anchor="middle" x="410.48" y="-294.61" font-family="Times,serif" font-size="14.00">10</text>
</g>
<!-- 9&#45;&gt;10 -->
<g id="edge15" class="edge">
<title>9&#45;&gt;10</title>
<path fill="none" stroke="black" d="M410.48,-454.55C410.48,-425.67 410.48,-367.4 410.48,-331.43"/>
<polygon fill="black" stroke="black" points="413.98,-331.67 410.48,-321.67 406.98,-331.67 413.98,-331.67"/>
<text text-anchor="middle" x="416.86" y="-421.49" font-family="Times,serif" font-size="14.00">ch</text>
</g>
<!-- 11 -->
<g id="node13" class="node">
<title>11</title>
<ellipse fill="none" stroke="black" cx="497.48" cy="-359.79" rx="20.13" ry="20.13"/>
<text text-anchor="middle" x="497.48" y="-354.74" font-family="Times,serif" font-size="14.00">11</text>
</g>
<!-- 9&#45;&gt;11 -->
<g id="edge16" class="edge">
<title>9&#45;&gt;11</title>
<path fill="none" stroke="black" d="M421.15,-458.29C435.36,-440.14 460.76,-407.7 478.33,-385.25"/>
<polygon fill="black" stroke="black" points="480.99,-387.54 484.4,-377.5 475.48,-383.22 480.99,-387.54"/>
<text text-anchor="middle" x="482.12" y="-421.49" font-family="Times,serif" font-size="14.00">contrabarra</text>
</g>
<!-- 15 -->
<g id="node17" class="node">
<title>15</title>
<ellipse fill="none" stroke="black" cx="514.48" cy="-140.89" rx="20.13" ry="20.13"/>
<text text-anchor="middle" x="514.48" y="-135.84" font-family="Times,serif" font-size="14.00">15</text>
</g>
<!-- 10&#45;&gt;15 -->
<g id="edge17" class="edge">
<title>10&#45;&gt;15</title>
<path fill="none" stroke="black" d="M407.49,-279.55C405.49,-260.5 405.14,-231.07 417.48,-209.52 432.57,-183.19 462.57,-164.72 485.23,-153.81"/>
<polygon fill="black" stroke="black" points="486.64,-157.02 494.3,-149.69 483.75,-150.64 486.64,-157.02"/>
<text text-anchor="middle" x="442.98" y="-234.47" font-family="Times,serif" font-size="14.00">apostrofo</text>
</g>
<!-- 14 -->
<g id="node16" class="node">
<title>14</title>
<ellipse fill="none" stroke="black" cx="497.48" cy="-239.52" rx="20.13" ry="20.13"/>
<text text-anchor="middle" x="497.48" y="-234.47" font-family="Times,serif" font-size="14.00">14</text>
</g>
<!-- 11&#45;&gt;14 -->
<g id="edge19" class="edge">
<title>11&#45;&gt;14</title>
<path fill="none" stroke="black" d="M497.48,-339.26C497.48,-320.86 497.48,-292.98 497.48,-271.54"/>
<polygon fill="black" stroke="black" points="500.98,-271.6 497.48,-261.6 493.98,-271.6 500.98,-271.6"/>
<text text-anchor="middle" x="500.86" y="-294.61" font-family="Times,serif" font-size="14.00">n</text>
</g>
<!-- 11&#45;&gt;15 -->
<g id="edge20" class="edge">
<title>11&#45;&gt;15</title>
<path fill="none" stroke="black" d="M504.2,-340.49C514.48,-311.22 533.47,-251.82 538.48,-199.52 539.18,-192.22 540.4,-190.1 538.48,-183.02 537.02,-177.62 534.66,-172.2 531.97,-167.15"/>
<polygon fill="black" stroke="black" points="535.07,-165.52 526.95,-158.72 529.06,-169.1 535.07,-165.52"/>
<text text-anchor="middle" x="540.46" y="-234.47" font-family="Times,serif" font-size="14.00">0</text>
</g>
<!-- 12 -->
<g id="node14" class="node">
<title>12</title>
<ellipse fill="none" stroke="black" cx="514.48" cy="-40.13" rx="20.13" ry="20.13"/>
<ellipse fill="none" stroke="black" cx="514.48" cy="-40.13" rx="24.13" ry="24.13"/>
<text text-anchor="middle" x="514.48" y="-35.08" font-family="Times,serif" font-size="14.00">12</text>
</g>
<!-- 13 -->
<g id="node15" class="node">
<title>13</title>
<ellipse fill="none" stroke="black" cx="598.48" cy="-239.52" rx="20.13" ry="20.13"/>
<text text-anchor="middle" x="598.48" y="-234.47" font-family="Times,serif" font-size="14.00">13</text>
</g>
<!-- 13&#45;&gt;15 -->
<g id="edge22" class="edge">
<title>13&#45;&gt;15</title>
<path fill="none" stroke="black" d="M585.73,-223.85C572.16,-208.24 550.51,-183.33 534.63,-165.07"/>
<polygon fill="black" stroke="black" points="537.56,-163.1 528.35,-157.85 532.27,-167.69 537.56,-163.1"/>
<text text-anchor="middle" x="589.51" y="-186.22" font-family="Times,serif" font-size="14.00">apostrofo</text>
</g>
<!-- 14&#45;&gt;15 -->
<g id="edge21" class="edge">
<title>14&#45;&gt;15</title>
<path fill="none" stroke="black" d="M490.03,-220.54C486.52,-209.56 483.81,-195.31 487.48,-183.02 489.21,-177.24 492.05,-171.51 495.24,-166.25"/>
<polygon fill="black" stroke="black" points="498.07,-168.32 500.79,-158.08 492.28,-164.39 498.07,-168.32"/>
<text text-anchor="middle" x="512.98" y="-186.22" font-family="Times,serif" font-size="14.00">apostrofo</text>
</g>
<!-- 15&#45;&gt;12 -->
<g id="edge18" class="edge">
<title>15&#45;&gt;12</title>
<path fill="none" stroke="black" d="M514.48,-120.38C514.48,-107.69 514.48,-90.8 514.48,-75.86"/>
<polygon fill="black" stroke="black" points="517.98,-75.94 514.48,-65.94 510.98,-75.94 517.98,-75.94"/>
<text text-anchor="middle" x="532.11" y="-85.46" font-family="Times,serif" font-size="14.00">outro*</text>
</g>
<!-- 18 -->
<g id="node19" class="node">
<title>18</title>
<ellipse fill="none" stroke="black" cx="683.48" cy="-239.52" rx="20.13" ry="20.13"/>
<text text-anchor="middle" x="683.48" y="-234.47" font-family="Times,serif" font-size="14.00">18</text>
</g>
<!-- 17&#45;&gt;18 -->
<g id="edge24" class="edge">
<title>17&#45;&gt;18</title>
<path fill="none" stroke="black" d="M662.72,-452.56C663.22,-425.16 664.72,-373.53 669.23,-329.79 671.27,-310.1 674.76,-288.14 677.77,-270.93"/>
<polygon fill="black" stroke="black" points="681.22,-271.55 679.54,-261.09 674.33,-270.31 681.22,-271.55"/>
<text text-anchor="middle" x="683.86" y="-354.74" font-family="Times,serif" font-size="14.00">aspas</text>
</g>
<!-- 20 -->
<g id="node21" class="node">
<title>20</title>
<ellipse fill="none" stroke="black" cx="727.48" cy="-359.79" rx="20.13" ry="20.13"/>
<text text-anchor="middle" x="727.48" y="-354.74" font-family="Times,serif" font-size="14.00">20</text>
</g>
<!-- 17&#45;&gt;20 -->
<g id="edge25" class="edge">
<title>17&#45;&gt;20</title>
<path fill="none" stroke="black" d="M672.36,-455.04C682.81,-437.17 699.46,-408.71 711.73,-387.73"/>
<polygon fill="black" stroke="black" points="714.73,-389.53 716.75,-379.13 708.68,-386 714.73,-389.53"/>
<text text-anchor="middle" x="699.41" y="-421.49" font-family="Times,serif" font-size="14.00">ch</text>
</g>
<!-- 19 -->
<g id="node20" class="node">
<title>19</title>
<ellipse fill="none" stroke="black" cx="683.48" cy="-140.89" rx="20.13" ry="20.13"/>
<ellipse fill="none" stroke="black" cx="683.48" cy="-140.89" rx="24.13" ry="24.13"/>
<text text-anchor="middle" x="683.48" y="-135.84" font-family="Times,serif" font-size="14.00">19</text>
</g>
<!-- 18&#45;&gt;19 -->
<g id="edge26" class="edge">
<title>18&#45;&gt;19</title>
<path fill="none" stroke="black" d="M683.48,-218.97C683.48,-206.91 683.48,-191.08 683.48,-176.91"/>
<polygon fill="black" stroke="black" points="686.98,-177.03 683.48,-167.03 679.98,-177.03 686.98,-177.03"/>
<text text-anchor="middle" x="701.11" y="-186.22" font-family="Times,serif" font-size="14.00">outro*</text>
</g>
<!-- 20&#45;&gt;18 -->
<g id="edge27" class="edge">
<title>20&#45;&gt;18</title>
<path fill="none" stroke="black" d="M720.7,-340.57C713.65,-321.61 702.51,-291.65 694.25,-269.45"/>
<polygon fill="black" stroke="black" points="697.64,-268.53 690.87,-260.38 691.08,-270.97 697.64,-268.53"/>
<text text-anchor="middle" x="726.62" y="-294.61" font-family="Times,serif" font-size="14.00">aspas</text>
</g>
</g>
</svg>
