<?xml version="1.0" encoding="UTF-8" standalone="no"?>
<!DOCTYPE svg PUBLIC "-//W3C//DTD SVG 1.1//EN"
 "http://www.w3.org/Graphics/SVG/1.1/DTD/svg11.dtd">
<!-- Generated by graphviz version 12.1.2 (0)
 -->
<!-- Pages: 1 -->
<svg width="2484pt" height="746pt"
 viewBox="0.00 0.00 2484.00 746.07" xmlns="http://www.w3.org/2000/svg" xmlns:xlink="http://www.w3.org/1999/xlink">
<g id="graph0" class="graph" transform="scale(1 1) rotate(0) translate(4 742.07)">
<polygon fill="white" stroke="none" points="-4,4 -4,-742.07 2480,-742.07 2480,4 -4,4"/>
<g id="clust1" class="cluster">
<title>cluster_start</title>
<polygon fill="none" stroke="black" points="1174,-580.57 1174,-730.07 1329,-730.07 1329,-580.57 1174,-580.57"/>
<text text-anchor="middle" x="1251.5" y="-712.77" font-family="Times,serif" font-size="14.00">INICIO</text>
</g>
<g id="clust2" class="cluster">
<title>cluster_id</title>
<polygon fill="#dd8855" stroke="#dd8855" points="228,-211.66 228,-539.94 344,-539.94 344,-211.66 228,-211.66"/>
<text text-anchor="middle" x="286" y="-522.64" font-family="Times,serif" font-size="14.00">ID</text>
</g>
<g id="clust3" class="cluster">
<title>cluster_intcon</title>
<polygon fill="#ffaaff" stroke="#ffaaff" points="8,-336.18 8,-539.94 110,-539.94 110,-336.18 8,-336.18"/>
<text text-anchor="middle" x="59" y="-522.64" font-family="Times,serif" font-size="14.00">INTCON</text>
</g>
<g id="clust4" class="cluster">
<title>cluster_realcon</title>
<polygon fill="#8888dd" stroke="#8888dd" points="118,-110.89 118,-416.68 220,-416.68 220,-110.89 118,-110.89"/>
<text text-anchor="middle" x="169" y="-399.38" font-family="Times,serif" font-size="14.00">REALCON</text>
</g>
<g id="clust5" class="cluster">
<title>cluster_charcon</title>
<polygon fill="#88dd88" stroke="#88dd88" points="352,-8 352,-539.94 596,-539.94 596,-8 352,-8"/>
<text text-anchor="middle" x="474" y="-522.64" font-family="Times,serif" font-size="14.00">CHARCON</text>
</g>
<g id="clust6" class="cluster">
<title>cluster_stringcon</title>
<polygon fill="#dd8888" stroke="#dd8888" points="604,-108.76 604,-542.07 725,-542.07 725,-108.76 604,-108.76"/>
<text text-anchor="middle" x="664.5" y="-524.77" font-family="Times,serif" font-size="14.00">STRINGCON</text>
</g>
<g id="clust7" class="cluster">
<title>cluster_comentario</title>
<polygon fill="#dddd88" stroke="#dddd88" points="812,-209.52 812,-418.81 921,-418.81 921,-209.52 812,-209.52"/>
<text text-anchor="middle" x="866.5" y="-401.51" font-family="Times,serif" font-size="14.00">COMENTARIO</text>
</g>
<g id="clust8" class="cluster">
<title>cluster_mais</title>
<polygon fill="lightgrey" stroke="black" points="783,-457.31 783,-546.07 847,-546.07 847,-457.31 783,-457.31"/>
<text text-anchor="middle" x="815" y="-528.77" font-family="Times,serif" font-size="14.00">MAIS</text>
</g>
<g id="clust9" class="cluster">
<title>cluster_menos</title>
<polygon fill="lightgrey" stroke="black" points="855,-457.31 855,-546.07 919,-546.07 919,-457.31 855,-457.31"/>
<text text-anchor="middle" x="887" y="-528.77" font-family="Times,serif" font-size="14.00">MENOS</text>
</g>
<g id="clust10" class="cluster">
<title>cluster_multiplicacao</title>
<polygon fill="lightgrey" stroke="black" points="927,-457.31 927,-546.07 1053,-546.07 1053,-457.31 927,-457.31"/>
<text text-anchor="middle" x="990" y="-528.77" font-family="Times,serif" font-size="14.00">MULTIPLICACAO</text>
</g>
<g id="clust11" class="cluster">
<title>cluster_divisao</title>
<polygon fill="lightgrey" stroke="black" points="733,-334.05 733,-422.81 804,-422.81 804,-334.05 733,-334.05"/>
<text text-anchor="middle" x="768.5" y="-405.51" font-family="Times,serif" font-size="14.00">DIVISAO</text>
</g>
<g id="clust12" class="cluster">
<title>cluster_abreparenteses</title>
<polygon fill="lightgrey" stroke="black" points="1061,-457.31 1061,-546.07 1196,-546.07 1196,-457.31 1061,-457.31"/>
<text text-anchor="middle" x="1128.5" y="-528.77" font-family="Times,serif" font-size="14.00">ABREPARENTESES</text>
</g>
<g id="clust13" class="cluster">
<title>cluster_fechaparenteses</title>
<polygon fill="lightgrey" stroke="black" points="1204,-457.31 1204,-546.07 1347,-546.07 1347,-457.31 1204,-457.31"/>
<text text-anchor="middle" x="1275.5" y="-528.77" font-family="Times,serif" font-size="14.00">FECHAPARENTESES</text>
</g>
<g id="clust14" class="cluster">
<title>cluster_abrecolchete</title>
<polygon fill="lightgrey" stroke="black" points="1355,-457.31 1355,-546.07 1477,-546.07 1477,-457.31 1355,-457.31"/>
<text text-anchor="middle" x="1416" y="-528.77" font-family="Times,serif" font-size="14.00">ABRECOLCHETE</text>
</g>
<g id="clust15" class="cluster">
<title>cluster_fechacolchete</title>
<polygon fill="lightgrey" stroke="black" points="1485,-457.31 1485,-546.07 1615,-546.07 1615,-457.31 1485,-457.31"/>
<text text-anchor="middle" x="1550" y="-528.77" font-family="Times,serif" font-size="14.00">FECHACOLCHETE</text>
</g>
<g id="clust16" class="cluster">
<title>cluster_virgula</title>
<polygon fill="lightgrey" stroke="black" points="1623,-457.31 1623,-546.07 1699,-546.07 1699,-457.31 1623,-457.31"/>
<text text-anchor="middle" x="1661" y="-528.77" font-family="Times,serif" font-size="14.00">VIRGULA</text>
</g>
<g id="clust17" class="cluster">
<title>cluster_comparacao</title>
<polygon fill="lightgrey" stroke="black" points="1513,-334.05 1513,-422.81 1624,-422.81 1624,-334.05 1513,-334.05"/>
<text text-anchor="middle" x="1568.5" y="-405.51" font-family="Times,serif" font-size="14.00">COMPARACAO</text>
</g>
<g id="clust18" class="cluster">
<title>cluster_atribuicao</title>
<polygon fill="lightgrey" stroke="black" points="1408,-334.05 1408,-422.81 1505,-422.81 1505,-334.05 1408,-334.05"/>
<text text-anchor="middle" x="1456.5" y="-405.51" font-family="Times,serif" font-size="14.00">ATRIBUICAO</text>
</g>
<g id="clust19" class="cluster">
<title>cluster_elogico</title>
<polygon fill="lightgrey" stroke="black" points="1739,-334.05 1739,-422.81 1814,-422.81 1814,-334.05 1739,-334.05"/>
<text text-anchor="middle" x="1776.5" y="-405.51" font-family="Times,serif" font-size="14.00">ELOGICO</text>
</g>
<g id="clust20" class="cluster">
<title>cluster_referencia</title>
<polygon fill="lightgrey" stroke="black" points="1632,-334.05 1632,-422.81 1731,-422.81 1731,-334.05 1632,-334.05"/>
<text text-anchor="middle" x="1681.5" y="-405.51" font-family="Times,serif" font-size="14.00">REFERENCIA</text>
</g>
<g id="clust21" class="cluster">
<title>cluster_oulogico</title>
<polygon fill="lightgrey" stroke="black" points="1822,-334.05 1822,-422.81 1908,-422.81 1908,-334.05 1822,-334.05"/>
<text text-anchor="middle" x="1865" y="-405.51" font-family="Times,serif" font-size="14.00">OULOGICO</text>
</g>
<g id="clust22" class="cluster">
<title>cluster_menorigual</title>
<polygon fill="lightgrey" stroke="black" points="1989,-334.05 1989,-422.81 2096,-422.81 2096,-334.05 1989,-334.05"/>
<text text-anchor="middle" x="2042.5" y="-405.51" font-family="Times,serif" font-size="14.00">MENORIGUAL</text>
</g>
<g id="clust23" class="cluster">
<title>cluster_menor</title>
<polygon fill="lightgrey" stroke="black" points="1916,-334.05 1916,-422.81 1981,-422.81 1981,-334.05 1916,-334.05"/>
<text text-anchor="middle" x="1948.5" y="-405.51" font-family="Times,serif" font-size="14.00">MENOR</text>
</g>
<g id="clust24" class="cluster">
<title>cluster_maiorigual</title>
<polygon fill="lightgrey" stroke="black" points="2176,-334.05 2176,-422.81 2279,-422.81 2279,-334.05 2176,-334.05"/>
<text text-anchor="middle" x="2227.5" y="-405.51" font-family="Times,serif" font-size="14.00">MAIORIGUAL</text>
</g>
<g id="clust25" class="cluster">
<title>cluster_maior</title>
<polygon fill="lightgrey" stroke="black" points="2104,-334.05 2104,-422.81 2168,-422.81 2168,-334.05 2104,-334.05"/>
<text text-anchor="middle" x="2136" y="-405.51" font-family="Times,serif" font-size="14.00">MAIOR</text>
</g>
<g id="clust26" class="cluster">
<title>cluster_diferenca</title>
<polygon fill="lightgrey" stroke="black" points="2377,-334.05 2377,-422.81 2468,-422.81 2468,-334.05 2377,-334.05"/>
<text text-anchor="middle" x="2422.5" y="-405.51" font-family="Times,serif" font-size="14.00">DIFERENCA</text>
</g>
<g id="clust27" class="cluster">
<title>cluster_negacao</title>
<polygon fill="lightgrey" stroke="black" points="2287,-334.05 2287,-422.81 2369,-422.81 2369,-334.05 2287,-334.05"/>
<text text-anchor="middle" x="2328" y="-405.51" font-family="Times,serif" font-size="14.00">NEGACAO</text>
</g>
<!-- Inicio -->
<g id="node1" class="node">
<title>Inicio</title>
</g>
<!-- 0 -->
<g id="node2" class="node">
<title>0</title>
<ellipse fill="none" stroke="black" cx="1200" cy="-606.57" rx="18" ry="18"/>
<text text-anchor="middle" x="1200" y="-601.52" font-family="Times,serif" font-size="14.00">0</text>
</g>
<!-- Inicio&#45;&gt;0 -->
<g id="edge1" class="edge">
<title>Inicio&#45;&gt;0</title>
<path fill="none" stroke="black" d="M1206.87,-661.75C1205.9,-654.08 1204.72,-644.79 1203.61,-636.08"/>
<polygon fill="black" stroke="black" points="1207.1,-635.75 1202.37,-626.27 1200.16,-636.63 1207.1,-635.75"/>
</g>
<!-- 0&#45;&gt;0 -->
<g id="edge2" class="edge">
<title>0&#45;&gt;0</title>
<path fill="none" stroke="black" d="M1217.04,-613.04C1226.86,-614.36 1236,-612.21 1236,-606.57 1236,-603.32 1232.94,-601.22 1228.47,-600.29"/>
<polygon fill="black" stroke="black" points="1228.61,-596.79 1218.55,-600.13 1228.49,-603.79 1228.61,-596.79"/>
<text text-anchor="middle" x="1278.38" y="-601.52" font-family="Times,serif" font-size="14.00">Tab, Espaco, \n</text>
</g>
<!-- 1 -->
<g id="node3" class="node">
<title>1</title>
<ellipse fill="none" stroke="black" cx="254" cy="-489.44" rx="18" ry="18"/>
<text text-anchor="middle" x="254" y="-484.39" font-family="Times,serif" font-size="14.00">1</text>
</g>
<!-- 0&#45;&gt;1 -->
<g id="edge3" class="edge">
<title>0&#45;&gt;1</title>
<path fill="none" stroke="black" d="M1181.86,-605.54C1073.44,-605.12 510.43,-600.37 348,-546.07 322.05,-537.4 295.49,-520.83 277.26,-508.02"/>
<polygon fill="black" stroke="black" points="279.42,-505.27 269.26,-502.25 275.32,-510.95 279.42,-505.27"/>
<text text-anchor="middle" x="490.29" y="-557.27" font-family="Times,serif" font-size="14.00">sublinha</text>
</g>
<!-- 2 -->
<g id="node4" class="node">
<title>2</title>
<ellipse fill="none" stroke="black" cx="254" cy="-366.18" rx="18" ry="18"/>
<text text-anchor="middle" x="254" y="-361.13" font-family="Times,serif" font-size="14.00">2</text>
</g>
<!-- 0&#45;&gt;2 -->
<g id="edge5" class="edge">
<title>0&#45;&gt;2</title>
<path fill="none" stroke="black" d="M1181.65,-605.21C1048.63,-602.51 236.47,-584.47 203,-546.07 177.08,-516.34 192.35,-495.3 203,-457.31 207.85,-440.03 215.07,-438.38 224,-422.81 229.63,-412.99 235.6,-402.05 240.71,-392.49"/>
<polygon fill="black" stroke="black" points="243.75,-394.22 245.35,-383.75 237.57,-390.94 243.75,-394.22"/>
<text text-anchor="middle" x="215" y="-484.39" font-family="Times,serif" font-size="14.00">letra</text>
</g>
<!-- 4 -->
<g id="node6" class="node">
<title>4</title>
<ellipse fill="none" stroke="black" cx="34" cy="-489.44" rx="18" ry="18"/>
<text text-anchor="middle" x="34" y="-484.39" font-family="Times,serif" font-size="14.00">4</text>
</g>
<!-- 0&#45;&gt;4 -->
<g id="edge8" class="edge">
<title>0&#45;&gt;4</title>
<path fill="none" stroke="black" d="M1181.57,-605.59C1049.56,-605.63 250.19,-604.49 148.5,-570.57 111.65,-558.28 76.1,-530.02 54.64,-510.57"/>
<polygon fill="black" stroke="black" points="57.16,-508.13 47.45,-503.88 52.39,-513.25 57.16,-508.13"/>
<text text-anchor="middle" x="164.25" y="-557.27" font-family="Times,serif" font-size="14.00">digito</text>
</g>
<!-- 9 -->
<g id="node11" class="node">
<title>9</title>
<ellipse fill="none" stroke="black" cx="506" cy="-489.44" rx="18" ry="18"/>
<text text-anchor="middle" x="506" y="-484.39" font-family="Times,serif" font-size="14.00">9</text>
</g>
<!-- 0&#45;&gt;9 -->
<g id="edge15" class="edge">
<title>0&#45;&gt;9</title>
<path fill="none" stroke="black" d="M1181.69,-605.96C1113.94,-607.06 871.21,-607.97 676,-570.57 641.14,-563.9 632.36,-560.65 600,-546.07 575.2,-534.9 548.68,-518.79 530.15,-506.77"/>
<polygon fill="black" stroke="black" points="532.29,-503.99 522.01,-501.41 528.44,-509.83 532.29,-503.99"/>
<text text-anchor="middle" x="701.5" y="-557.27" font-family="Times,serif" font-size="14.00">apostrofo</text>
</g>
<!-- 16 -->
<g id="node18" class="node">
<title>16</title>
<ellipse fill="none" stroke="black" cx="695" cy="-489.44" rx="20.13" ry="20.13"/>
<text text-anchor="middle" x="695" y="-484.39" font-family="Times,serif" font-size="14.00">16</text>
</g>
<!-- 0&#45;&gt;16 -->
<g id="edge24" class="edge">
<title>0&#45;&gt;16</title>
<path fill="none" stroke="black" d="M1181.78,-605.55C1108.37,-605.25 834.46,-602 754.75,-570.57 731.97,-561.59 716.15,-538.17 706.54,-518.95"/>
<polygon fill="black" stroke="black" points="709.73,-517.52 702.35,-509.92 703.38,-520.46 709.73,-517.52"/>
<text text-anchor="middle" x="769.38" y="-557.27" font-family="Times,serif" font-size="14.00">aspas</text>
</g>
<!-- 20 -->
<g id="node22" class="node">
<title>20</title>
<ellipse fill="none" stroke="black" cx="753" cy="-489.44" rx="20.13" ry="20.13"/>
<text text-anchor="middle" x="753" y="-484.39" font-family="Times,serif" font-size="14.00">20</text>
</g>
<!-- 0&#45;&gt;20 -->
<g id="edge29" class="edge">
<title>0&#45;&gt;20</title>
<path fill="none" stroke="black" d="M1181.57,-606.03C1126.99,-606.91 961.84,-606.23 831.25,-570.57 806.51,-563.82 797.12,-564.22 779,-546.07 771.69,-538.75 766.19,-528.99 762.17,-519.69"/>
<polygon fill="black" stroke="black" points="765.52,-518.64 758.66,-510.57 758.98,-521.16 765.52,-518.64"/>
<text text-anchor="middle" x="845.12" y="-557.27" font-family="Times,serif" font-size="14.00">barra</text>
</g>
<!-- 23 -->
<g id="node25" class="node">
<title>23</title>
<ellipse fill="none" stroke="black" cx="815" cy="-489.44" rx="20.13" ry="20.13"/>
<ellipse fill="none" stroke="black" cx="815" cy="-489.44" rx="24.13" ry="24.13"/>
<text text-anchor="middle" x="815" y="-484.39" font-family="Times,serif" font-size="14.00">23</text>
</g>
<!-- 0&#45;&gt;23 -->
<g id="edge33" class="edge">
<title>0&#45;&gt;23</title>
<path fill="none" stroke="black" d="M1181.68,-604.51C1137.06,-601.66 1019.4,-592.51 923.75,-570.57 890.5,-562.95 877.94,-567.01 851,-546.07 842.68,-539.61 835.71,-530.66 830.19,-521.82"/>
<polygon fill="black" stroke="black" points="833.33,-520.27 825.32,-513.34 827.26,-523.76 833.33,-520.27"/>
<text text-anchor="middle" x="927.88" y="-557.27" font-family="Times,serif" font-size="14.00">+</text>
</g>
<!-- 24 -->
<g id="node26" class="node">
<title>24</title>
<ellipse fill="none" stroke="black" cx="887" cy="-489.44" rx="20.13" ry="20.13"/>
<ellipse fill="none" stroke="black" cx="887" cy="-489.44" rx="24.13" ry="24.13"/>
<text text-anchor="middle" x="887" y="-484.39" font-family="Times,serif" font-size="14.00">24</text>
</g>
<!-- 0&#45;&gt;24 -->
<g id="edge34" class="edge">
<title>0&#45;&gt;24</title>
<path fill="none" stroke="black" d="M1181.63,-606.24C1134.32,-607.06 1006.19,-603.48 923,-546.07 914.26,-540.04 907.15,-531.13 901.62,-522.2"/>
<polygon fill="black" stroke="black" points="904.73,-520.6 896.79,-513.58 898.62,-524.02 904.73,-520.6"/>
<text text-anchor="middle" x="965.15" y="-557.27" font-family="Times,serif" font-size="14.00">&#45;</text>
</g>
<!-- 25 -->
<g id="node27" class="node">
<title>25</title>
<ellipse fill="none" stroke="black" cx="1021" cy="-489.44" rx="20.13" ry="20.13"/>
<ellipse fill="none" stroke="black" cx="1021" cy="-489.44" rx="24.13" ry="24.13"/>
<text text-anchor="middle" x="1021" y="-484.39" font-family="Times,serif" font-size="14.00">25</text>
</g>
<!-- 0&#45;&gt;25 -->
<g id="edge35" class="edge">
<title>0&#45;&gt;25</title>
<path fill="none" stroke="black" d="M1182.39,-601.85C1153.49,-595.01 1095.4,-578.12 1057,-546.07 1048.91,-539.33 1042.01,-530.29 1036.47,-521.47"/>
<polygon fill="black" stroke="black" points="1039.62,-519.92 1031.57,-513.03 1033.57,-523.44 1039.62,-519.92"/>
<text text-anchor="middle" x="1095.54" y="-557.27" font-family="Times,serif" font-size="14.00">*</text>
</g>
<!-- 27 -->
<g id="node29" class="node">
<title>27</title>
<ellipse fill="none" stroke="black" cx="1164" cy="-489.44" rx="20.13" ry="20.13"/>
<ellipse fill="none" stroke="black" cx="1164" cy="-489.44" rx="24.13" ry="24.13"/>
<text text-anchor="middle" x="1164" y="-484.39" font-family="Times,serif" font-size="14.00">27</text>
</g>
<!-- 0&#45;&gt;27 -->
<g id="edge37" class="edge">
<title>0&#45;&gt;27</title>
<path fill="none" stroke="black" d="M1194.84,-589.08C1189.54,-572.11 1181.12,-545.2 1174.42,-523.77"/>
<polygon fill="black" stroke="black" points="1177.78,-522.78 1171.45,-514.28 1171.1,-524.87 1177.78,-522.78"/>
<text text-anchor="middle" x="1190.61" y="-557.27" font-family="Times,serif" font-size="14.00">(</text>
</g>
<!-- 28 -->
<g id="node30" class="node">
<title>28</title>
<ellipse fill="none" stroke="black" cx="1236" cy="-489.44" rx="20.13" ry="20.13"/>
<ellipse fill="none" stroke="black" cx="1236" cy="-489.44" rx="24.13" ry="24.13"/>
<text text-anchor="middle" x="1236" y="-484.39" font-family="Times,serif" font-size="14.00">28</text>
</g>
<!-- 0&#45;&gt;28 -->
<g id="edge38" class="edge">
<title>0&#45;&gt;28</title>
<path fill="none" stroke="black" d="M1205.16,-589.08C1210.46,-572.11 1218.88,-545.2 1225.58,-523.77"/>
<polygon fill="black" stroke="black" points="1228.9,-524.87 1228.55,-514.28 1222.22,-522.78 1228.9,-524.87"/>
<text text-anchor="middle" x="1218.09" y="-557.27" font-family="Times,serif" font-size="14.00">)</text>
</g>
<!-- 29 -->
<g id="node31" class="node">
<title>29</title>
<ellipse fill="none" stroke="black" cx="1387" cy="-489.44" rx="20.13" ry="20.13"/>
<ellipse fill="none" stroke="black" cx="1387" cy="-489.44" rx="24.13" ry="24.13"/>
<text text-anchor="middle" x="1387" y="-484.39" font-family="Times,serif" font-size="14.00">29</text>
</g>
<!-- 0&#45;&gt;29 -->
<g id="edge39" class="edge">
<title>0&#45;&gt;29</title>
<path fill="none" stroke="black" d="M1217.63,-602.31C1247.79,-595.99 1310.01,-579.62 1351,-546.07 1359.15,-539.4 1366.07,-530.39 1371.61,-521.56"/>
<polygon fill="black" stroke="black" points="1374.52,-523.52 1376.5,-513.12 1368.46,-520.02 1374.52,-523.52"/>
<text text-anchor="middle" x="1339.17" y="-557.27" font-family="Times,serif" font-size="14.00">[</text>
</g>
<!-- 30 -->
<g id="node32" class="node">
<title>30</title>
<ellipse fill="none" stroke="black" cx="1517" cy="-489.44" rx="20.13" ry="20.13"/>
<ellipse fill="none" stroke="black" cx="1517" cy="-489.44" rx="24.13" ry="24.13"/>
<text text-anchor="middle" x="1517" y="-484.39" font-family="Times,serif" font-size="14.00">30</text>
</g>
<!-- 0&#45;&gt;30 -->
<g id="edge40" class="edge">
<title>0&#45;&gt;30</title>
<path fill="none" stroke="black" d="M1218.29,-606.31C1265.99,-607.34 1396.37,-604.29 1481,-546.07 1489.75,-540.06 1496.86,-531.15 1502.39,-522.22"/>
<polygon fill="black" stroke="black" points="1505.39,-524.03 1507.22,-513.6 1499.28,-520.61 1505.39,-524.03"/>
<text text-anchor="middle" x="1470.31" y="-557.27" font-family="Times,serif" font-size="14.00">]</text>
</g>
<!-- 31 -->
<g id="node33" class="node">
<title>31</title>
<ellipse fill="none" stroke="black" cx="1655" cy="-489.44" rx="20.13" ry="20.13"/>
<ellipse fill="none" stroke="black" cx="1655" cy="-489.44" rx="24.13" ry="24.13"/>
<text text-anchor="middle" x="1655" y="-484.39" font-family="Times,serif" font-size="14.00">31</text>
</g>
<!-- 0&#45;&gt;31 -->
<g id="edge41" class="edge">
<title>0&#45;&gt;31</title>
<path fill="none" stroke="black" d="M1218.04,-605.03C1289.4,-602.6 1551.41,-590.71 1619,-546.07 1627.93,-540.18 1635.12,-531.22 1640.66,-522.21"/>
<polygon fill="black" stroke="black" points="1643.7,-523.94 1645.48,-513.5 1637.58,-520.55 1643.7,-523.94"/>
<text text-anchor="middle" x="1604.05" y="-557.27" font-family="Times,serif" font-size="14.00">,</text>
</g>
<!-- 32 -->
<g id="node34" class="node">
<title>32</title>
<ellipse fill="none" stroke="black" cx="1727" cy="-489.44" rx="20.13" ry="20.13"/>
<text text-anchor="middle" x="1727" y="-484.39" font-family="Times,serif" font-size="14.00">32</text>
</g>
<!-- 0&#45;&gt;32 -->
<g id="edge42" class="edge">
<title>0&#45;&gt;32</title>
<path fill="none" stroke="black" d="M1218.13,-605.14C1275.8,-603.52 1460.06,-596.52 1610,-570.57 1652.12,-563.28 1670.6,-573.95 1703,-546.07 1710.79,-539.37 1716.13,-529.67 1719.76,-520.25"/>
<polygon fill="black" stroke="black" points="1723.02,-521.53 1722.8,-510.94 1716.37,-519.36 1723.02,-521.53"/>
<text text-anchor="middle" x="1696" y="-557.27" font-family="Times,serif" font-size="14.00">=</text>
</g>
<!-- 35 -->
<g id="node37" class="node">
<title>35</title>
<ellipse fill="none" stroke="black" cx="1785" cy="-489.44" rx="20.13" ry="20.13"/>
<text text-anchor="middle" x="1785" y="-484.39" font-family="Times,serif" font-size="14.00">35</text>
</g>
<!-- 0&#45;&gt;35 -->
<g id="edge45" class="edge">
<title>0&#45;&gt;35</title>
<path fill="none" stroke="black" d="M1218.25,-605.21C1297.16,-603.49 1609.36,-595.23 1704,-570.57 1728.72,-564.13 1737.58,-563.77 1756,-546.07 1763.76,-538.62 1769.85,-528.63 1774.41,-519.17"/>
<polygon fill="black" stroke="black" points="1777.5,-520.84 1778.29,-510.28 1771.08,-518.04 1777.5,-520.84"/>
<text text-anchor="middle" x="1752.46" y="-557.27" font-family="Times,serif" font-size="14.00">&amp;</text>
</g>
<!-- 38 -->
<g id="node40" class="node">
<title>38</title>
<ellipse fill="none" stroke="black" cx="1850" cy="-489.44" rx="20.13" ry="20.13"/>
<text text-anchor="middle" x="1850" y="-484.39" font-family="Times,serif" font-size="14.00">38</text>
</g>
<!-- 0&#45;&gt;38 -->
<g id="edge48" class="edge">
<title>0&#45;&gt;38</title>
<path fill="none" stroke="black" d="M1218.32,-605.36C1302.85,-604.22 1655.59,-597.89 1762,-570.57 1786.75,-564.22 1794.77,-562.89 1814,-546.07 1822.94,-538.26 1830.52,-527.71 1836.38,-517.9"/>
<polygon fill="black" stroke="black" points="1839.3,-519.85 1841.12,-509.41 1833.19,-516.43 1839.3,-519.85"/>
<text text-anchor="middle" x="1805.08" y="-557.27" font-family="Times,serif" font-size="14.00">|</text>
</g>
<!-- 40 -->
<g id="node42" class="node">
<title>40</title>
<ellipse fill="none" stroke="black" cx="1949" cy="-489.44" rx="20.13" ry="20.13"/>
<text text-anchor="middle" x="1949" y="-484.39" font-family="Times,serif" font-size="14.00">40</text>
</g>
<!-- 0&#45;&gt;40 -->
<g id="edge50" class="edge">
<title>0&#45;&gt;40</title>
<path fill="none" stroke="black" d="M1218.36,-605.23C1307.24,-603.48 1693.37,-594.6 1811,-570.57 1842.47,-564.14 1850.94,-561.72 1879,-546.07 1896.07,-536.55 1913.29,-522.94 1926.38,-511.56"/>
<polygon fill="black" stroke="black" points="1928.46,-514.39 1933.59,-505.12 1923.8,-509.17 1928.46,-514.39"/>
<text text-anchor="middle" x="1867" y="-557.27" font-family="Times,serif" font-size="14.00">&lt;</text>
</g>
<!-- 43 -->
<g id="node45" class="node">
<title>43</title>
<ellipse fill="none" stroke="black" cx="2136" cy="-489.44" rx="20.13" ry="20.13"/>
<text text-anchor="middle" x="2136" y="-484.39" font-family="Times,serif" font-size="14.00">43</text>
</g>
<!-- 0&#45;&gt;43 -->
<g id="edge53" class="edge">
<title>0&#45;&gt;43</title>
<path fill="none" stroke="black" d="M1218.37,-605.84C1297.46,-606.73 1616.56,-607.7 1875,-570.57 1921.58,-563.88 1932.86,-559.35 1978,-546.07 2023.47,-532.7 2075.09,-513.81 2106.59,-501.84"/>
<polygon fill="black" stroke="black" points="2107.73,-505.15 2115.83,-498.31 2105.23,-498.61 2107.73,-505.15"/>
<text text-anchor="middle" x="1954.52" y="-557.27" font-family="Times,serif" font-size="14.00">&gt;</text>
</g>
<!-- 46 -->
<g id="node48" class="node">
<title>46</title>
<ellipse fill="none" stroke="black" cx="2327" cy="-489.44" rx="20.13" ry="20.13"/>
<text text-anchor="middle" x="2327" y="-484.39" font-family="Times,serif" font-size="14.00">46</text>
</g>
<!-- 0&#45;&gt;46 -->
<g id="edge56" class="edge">
<title>0&#45;&gt;46</title>
<path fill="none" stroke="black" d="M1218.09,-605.27C1334.12,-603.17 1974.82,-589.75 2165,-546.07 2212.7,-535.12 2266.03,-515.25 2298.03,-502.46"/>
<polygon fill="black" stroke="black" points="2299.06,-505.83 2307.02,-498.83 2296.43,-499.34 2299.06,-505.83"/>
<text text-anchor="middle" x="2123.94" y="-557.27" font-family="Times,serif" font-size="14.00">!</text>
</g>
<!-- 1&#45;&gt;1 -->
<g id="edge4" class="edge">
<title>1&#45;&gt;1</title>
<path fill="none" stroke="black" d="M269.92,-498.14C280.15,-500.41 290,-497.51 290,-489.44 290,-484.53 286.34,-481.53 281.17,-480.45"/>
<polygon fill="black" stroke="black" points="281.33,-476.94 271.43,-480.7 281.52,-483.94 281.33,-476.94"/>
<text text-anchor="middle" x="312.88" y="-484.39" font-family="Times,serif" font-size="14.00">sublinha</text>
</g>
<!-- 1&#45;&gt;2 -->
<g id="edge6" class="edge">
<title>1&#45;&gt;2</title>
<path fill="none" stroke="black" d="M254,-471.07C254,-451.44 254,-419.19 254,-395.82"/>
<polygon fill="black" stroke="black" points="257.5,-396.04 254,-386.04 250.5,-396.04 257.5,-396.04"/>
<text text-anchor="middle" x="266" y="-434.01" font-family="Times,serif" font-size="14.00">letra</text>
</g>
<!-- 3 -->
<g id="node5" class="node">
<title>3</title>
<ellipse fill="none" stroke="black" cx="258" cy="-241.66" rx="18" ry="18"/>
<ellipse fill="none" stroke="black" cx="258" cy="-241.66" rx="22" ry="22"/>
<text text-anchor="middle" x="258" y="-236.61" font-family="Times,serif" font-size="14.00">3</text>
</g>
<!-- 2&#45;&gt;3 -->
<g id="edge7" class="edge">
<title>2&#45;&gt;3</title>
<path fill="none" stroke="black" d="M254.56,-347.89C255.18,-329.12 256.17,-298.73 256.93,-275.42"/>
<polygon fill="black" stroke="black" points="260.43,-275.6 257.25,-265.49 253.43,-275.37 260.43,-275.6"/>
<text text-anchor="middle" x="274.22" y="-298.87" font-family="Times,serif" font-size="14.00">outro*</text>
</g>
<!-- 4&#45;&gt;4 -->
<g id="edge9" class="edge">
<title>4&#45;&gt;4</title>
<path fill="none" stroke="black" d="M49.92,-498.14C60.15,-500.41 70,-497.51 70,-489.44 70,-484.53 66.34,-481.53 61.17,-480.45"/>
<polygon fill="black" stroke="black" points="61.33,-476.94 51.43,-480.7 61.52,-483.94 61.33,-476.94"/>
<text text-anchor="middle" x="85.75" y="-484.39" font-family="Times,serif" font-size="14.00">digito</text>
</g>
<!-- 5 -->
<g id="node7" class="node">
<title>5</title>
<ellipse fill="none" stroke="black" cx="38" cy="-366.18" rx="18" ry="18"/>
<ellipse fill="none" stroke="black" cx="38" cy="-366.18" rx="22" ry="22"/>
<text text-anchor="middle" x="38" y="-361.13" font-family="Times,serif" font-size="14.00">5</text>
</g>
<!-- 4&#45;&gt;5 -->
<g id="edge10" class="edge">
<title>4&#45;&gt;5</title>
<path fill="none" stroke="black" d="M34.57,-471.07C35.18,-452.55 36.16,-422.81 36.92,-399.88"/>
<polygon fill="black" stroke="black" points="40.41,-400.23 37.24,-390.12 33.42,-400 40.41,-400.23"/>
<text text-anchor="middle" x="53.51" y="-434.01" font-family="Times,serif" font-size="14.00">outro*</text>
</g>
<!-- 6 -->
<g id="node8" class="node">
<title>6</title>
<ellipse fill="none" stroke="black" cx="144" cy="-366.18" rx="18" ry="18"/>
<text text-anchor="middle" x="144" y="-361.13" font-family="Times,serif" font-size="14.00">6</text>
</g>
<!-- 4&#45;&gt;6 -->
<g id="edge11" class="edge">
<title>4&#45;&gt;6</title>
<path fill="none" stroke="black" d="M49.06,-478.77C66.35,-467.09 94.81,-446.1 114,-422.81 121.2,-414.07 127.47,-403.34 132.39,-393.65"/>
<polygon fill="black" stroke="black" points="135.53,-395.19 136.69,-384.66 129.21,-392.17 135.53,-395.19"/>
<text text-anchor="middle" x="121.98" y="-434.01" font-family="Times,serif" font-size="14.00">ponto</text>
</g>
<!-- 7 -->
<g id="node9" class="node">
<title>7</title>
<ellipse fill="none" stroke="black" cx="144" cy="-241.66" rx="18" ry="18"/>
<text text-anchor="middle" x="144" y="-236.61" font-family="Times,serif" font-size="14.00">7</text>
</g>
<!-- 6&#45;&gt;7 -->
<g id="edge12" class="edge">
<title>6&#45;&gt;7</title>
<path fill="none" stroke="black" d="M144,-347.89C144,-328 144,-295.05 144,-271.32"/>
<polygon fill="black" stroke="black" points="147.5,-271.38 144,-261.38 140.5,-271.38 147.5,-271.38"/>
<text text-anchor="middle" x="159.75" y="-298.87" font-family="Times,serif" font-size="14.00">digito</text>
</g>
<!-- 7&#45;&gt;7 -->
<g id="edge13" class="edge">
<title>7&#45;&gt;7</title>
<path fill="none" stroke="black" d="M159.92,-250.35C170.15,-252.62 180,-249.72 180,-241.66 180,-236.74 176.34,-233.74 171.17,-232.66"/>
<polygon fill="black" stroke="black" points="171.33,-229.16 161.43,-232.92 171.52,-236.16 171.33,-229.16"/>
<text text-anchor="middle" x="195.75" y="-236.61" font-family="Times,serif" font-size="14.00">digito</text>
</g>
<!-- 8 -->
<g id="node10" class="node">
<title>8</title>
<ellipse fill="none" stroke="black" cx="148" cy="-140.89" rx="18" ry="18"/>
<ellipse fill="none" stroke="black" cx="148" cy="-140.89" rx="22" ry="22"/>
<text text-anchor="middle" x="148" y="-135.84" font-family="Times,serif" font-size="14.00">8</text>
</g>
<!-- 7&#45;&gt;8 -->
<g id="edge14" class="edge">
<title>7&#45;&gt;8</title>
<path fill="none" stroke="black" d="M144.7,-223.45C145.24,-209.93 146.02,-190.71 146.69,-174.33"/>
<polygon fill="black" stroke="black" points="150.18,-174.67 147.08,-164.53 143.18,-174.38 150.18,-174.67"/>
<text text-anchor="middle" x="163.86" y="-186.22" font-family="Times,serif" font-size="14.00">outro*</text>
</g>
<!-- 10 -->
<g id="node12" class="node">
<title>10</title>
<ellipse fill="none" stroke="black" cx="403" cy="-303.92" rx="20.13" ry="20.13"/>
<text text-anchor="middle" x="403" y="-298.87" font-family="Times,serif" font-size="14.00">10</text>
</g>
<!-- 9&#45;&gt;10 -->
<g id="edge16" class="edge">
<title>9&#45;&gt;10</title>
<path fill="none" stroke="black" d="M497.4,-473.11C479.86,-441.87 439.82,-370.52 417.94,-331.54"/>
<polygon fill="black" stroke="black" points="421.23,-330.25 413.28,-323.24 415.13,-333.68 421.23,-330.25"/>
<text text-anchor="middle" x="488.25" y="-434.01" font-family="Times,serif" font-size="14.00">ch</text>
</g>
<!-- 11 -->
<g id="node13" class="node">
<title>11</title>
<ellipse fill="none" stroke="black" cx="506" cy="-366.18" rx="20.13" ry="20.13"/>
<text text-anchor="middle" x="506" y="-361.13" font-family="Times,serif" font-size="14.00">11</text>
</g>
<!-- 9&#45;&gt;11 -->
<g id="edge17" class="edge">
<title>9&#45;&gt;11</title>
<path fill="none" stroke="black" d="M506,-471.07C506,-452 506,-421.01 506,-397.83"/>
<polygon fill="black" stroke="black" points="509.5,-398.04 506,-388.04 502.5,-398.04 509.5,-398.04"/>
<text text-anchor="middle" x="536.75" y="-434.01" font-family="Times,serif" font-size="14.00">contrabarra</text>
</g>
<!-- 15 -->
<g id="node17" class="node">
<title>15</title>
<ellipse fill="none" stroke="black" cx="484" cy="-140.89" rx="20.13" ry="20.13"/>
<text text-anchor="middle" x="484" y="-135.84" font-family="Times,serif" font-size="14.00">15</text>
</g>
<!-- 10&#45;&gt;15 -->
<g id="edge18" class="edge">
<title>10&#45;&gt;15</title>
<path fill="none" stroke="black" d="M393.93,-285.73C384.97,-266.2 374.29,-233.88 387,-209.52 401.18,-182.34 431.83,-163.86 454.91,-153.17"/>
<polygon fill="black" stroke="black" points="456.05,-156.49 463.82,-149.29 453.25,-150.08 456.05,-156.49"/>
<text text-anchor="middle" x="412.5" y="-236.61" font-family="Times,serif" font-size="14.00">apostrofo</text>
</g>
<!-- 14 -->
<g id="node16" class="node">
<title>14</title>
<ellipse fill="none" stroke="black" cx="467" cy="-241.66" rx="20.13" ry="20.13"/>
<text text-anchor="middle" x="467" y="-236.61" font-family="Times,serif" font-size="14.00">14</text>
</g>
<!-- 11&#45;&gt;14 -->
<g id="edge20" class="edge">
<title>11&#45;&gt;14</title>
<path fill="none" stroke="black" d="M500.08,-346.57C493.77,-326.76 483.7,-295.12 476.33,-271.96"/>
<polygon fill="black" stroke="black" points="479.68,-270.95 473.31,-262.48 473.01,-273.07 479.68,-270.95"/>
<text text-anchor="middle" x="495.65" y="-298.87" font-family="Times,serif" font-size="14.00">n</text>
</g>
<!-- 11&#45;&gt;15 -->
<g id="edge21" class="edge">
<title>11&#45;&gt;15</title>
<path fill="none" stroke="black" d="M509.59,-345.87C515.12,-312.13 523.56,-240.57 508,-183.02 506.54,-177.62 504.17,-172.2 501.48,-167.15"/>
<polygon fill="black" stroke="black" points="504.59,-165.52 496.46,-158.72 498.57,-169.1 504.59,-165.52"/>
<text text-anchor="middle" x="520.28" y="-236.61" font-family="Times,serif" font-size="14.00">0</text>
</g>
<!-- 12 -->
<g id="node14" class="node">
<title>12</title>
<ellipse fill="none" stroke="black" cx="484" cy="-40.13" rx="20.13" ry="20.13"/>
<ellipse fill="none" stroke="black" cx="484" cy="-40.13" rx="24.13" ry="24.13"/>
<text text-anchor="middle" x="484" y="-35.08" font-family="Times,serif" font-size="14.00">12</text>
</g>
<!-- 13 -->
<g id="node15" class="node">
<title>13</title>
<ellipse fill="none" stroke="black" cx="568" cy="-241.66" rx="20.13" ry="20.13"/>
<text text-anchor="middle" x="568" y="-236.61" font-family="Times,serif" font-size="14.00">13</text>
</g>
<!-- 13&#45;&gt;15 -->
<g id="edge23" class="edge">
<title>13&#45;&gt;15</title>
<path fill="none" stroke="black" d="M555.24,-225.66C541.6,-209.61 519.77,-183.95 503.87,-165.26"/>
<polygon fill="black" stroke="black" points="506.73,-163.21 497.58,-157.86 501.4,-167.75 506.73,-163.21"/>
<text text-anchor="middle" x="556.53" y="-186.22" font-family="Times,serif" font-size="14.00">apostrofo</text>
</g>
<!-- 14&#45;&gt;15 -->
<g id="edge22" class="edge">
<title>14&#45;&gt;15</title>
<path fill="none" stroke="black" d="M459.61,-222.49C455.98,-211.01 453.13,-195.96 457,-183.02 458.73,-177.24 461.56,-171.51 464.76,-166.25"/>
<polygon fill="black" stroke="black" points="467.59,-168.32 470.3,-158.08 461.79,-164.39 467.59,-168.32"/>
<text text-anchor="middle" x="482.5" y="-186.22" font-family="Times,serif" font-size="14.00">apostrofo</text>
</g>
<!-- 15&#45;&gt;12 -->
<g id="edge19" class="edge">
<title>15&#45;&gt;12</title>
<path fill="none" stroke="black" d="M484,-120.38C484,-107.69 484,-90.8 484,-75.86"/>
<polygon fill="black" stroke="black" points="487.5,-75.94 484,-65.94 480.5,-75.94 487.5,-75.94"/>
<text text-anchor="middle" x="501.62" y="-85.46" font-family="Times,serif" font-size="14.00">outro*</text>
</g>
<!-- 17 -->
<g id="node19" class="node">
<title>17</title>
<ellipse fill="none" stroke="black" cx="653" cy="-241.66" rx="20.13" ry="20.13"/>
<text text-anchor="middle" x="653" y="-236.61" font-family="Times,serif" font-size="14.00">17</text>
</g>
<!-- 16&#45;&gt;17 -->
<g id="edge25" class="edge">
<title>16&#45;&gt;17</title>
<path fill="none" stroke="black" d="M679.41,-476.04C665.74,-464.08 646.82,-444.63 638.75,-422.81 620.04,-372.23 632.88,-308.35 643.34,-271.83"/>
<polygon fill="black" stroke="black" points="646.63,-273.03 646.17,-262.44 639.93,-271.01 646.63,-273.03"/>
<text text-anchor="middle" x="653.38" y="-361.13" font-family="Times,serif" font-size="14.00">aspas</text>
</g>
<!-- 19 -->
<g id="node21" class="node">
<title>19</title>
<ellipse fill="none" stroke="black" cx="697" cy="-366.18" rx="20.13" ry="20.13"/>
<text text-anchor="middle" x="697" y="-361.13" font-family="Times,serif" font-size="14.00">19</text>
</g>
<!-- 16&#45;&gt;19 -->
<g id="edge26" class="edge">
<title>16&#45;&gt;19</title>
<path fill="none" stroke="black" d="M695.32,-468.96C695.64,-449.78 696.13,-420.19 696.49,-397.85"/>
<polygon fill="black" stroke="black" points="699.99,-398.18 696.65,-388.13 692.99,-398.07 699.99,-398.18"/>
<text text-anchor="middle" x="702.32" y="-434.01" font-family="Times,serif" font-size="14.00">ch</text>
</g>
<!-- 18 -->
<g id="node20" class="node">
<title>18</title>
<ellipse fill="none" stroke="black" cx="653" cy="-140.89" rx="20.13" ry="20.13"/>
<ellipse fill="none" stroke="black" cx="653" cy="-140.89" rx="24.13" ry="24.13"/>
<text text-anchor="middle" x="653" y="-135.84" font-family="Times,serif" font-size="14.00">18</text>
</g>
<!-- 17&#45;&gt;18 -->
<g id="edge27" class="edge">
<title>17&#45;&gt;18</title>
<path fill="none" stroke="black" d="M653,-221.14C653,-208.46 653,-191.56 653,-176.62"/>
<polygon fill="black" stroke="black" points="656.5,-176.7 653,-166.7 649.5,-176.7 656.5,-176.7"/>
<text text-anchor="middle" x="670.62" y="-186.22" font-family="Times,serif" font-size="14.00">outro*</text>
</g>
<!-- 19&#45;&gt;17 -->
<g id="edge28" class="edge">
<title>19&#45;&gt;17</title>
<path fill="none" stroke="black" d="M690.41,-346.84C683.28,-326.99 671.82,-295.06 663.46,-271.77"/>
<polygon fill="black" stroke="black" points="666.82,-270.78 660.14,-262.55 660.23,-273.14 666.82,-270.78"/>
<text text-anchor="middle" x="696.14" y="-298.87" font-family="Times,serif" font-size="14.00">aspas</text>
</g>
<!-- 21 -->
<g id="node23" class="node">
<title>21</title>
<ellipse fill="none" stroke="black" cx="840" cy="-366.18" rx="20.13" ry="20.13"/>
<text text-anchor="middle" x="840" y="-361.13" font-family="Times,serif" font-size="14.00">21</text>
</g>
<!-- 20&#45;&gt;21 -->
<g id="edge30" class="edge">
<title>20&#45;&gt;21</title>
<path fill="none" stroke="black" d="M764.35,-472.46C768.56,-467.23 773.63,-461.65 779,-457.31 786.42,-451.31 791.26,-454.06 798,-447.31 812.38,-432.9 822.97,-412.55 829.91,-395.95"/>
<polygon fill="black" stroke="black" points="832.99,-397.69 833.4,-387.1 826.48,-395.13 832.99,-397.69"/>
<text text-anchor="middle" x="824.38" y="-434.01" font-family="Times,serif" font-size="14.00">barra</text>
</g>
<!-- 26 -->
<g id="node28" class="node">
<title>26</title>
<ellipse fill="none" stroke="black" cx="765" cy="-366.18" rx="20.13" ry="20.13"/>
<ellipse fill="none" stroke="black" cx="765" cy="-366.18" rx="24.13" ry="24.13"/>
<text text-anchor="middle" x="765" y="-361.13" font-family="Times,serif" font-size="14.00">26</text>
</g>
<!-- 20&#45;&gt;26 -->
<g id="edge36" class="edge">
<title>20&#45;&gt;26</title>
<path fill="none" stroke="black" d="M754.93,-468.96C756.72,-450.88 759.42,-423.57 761.58,-401.78"/>
<polygon fill="black" stroke="black" points="765.06,-402.15 762.56,-391.85 758.09,-401.46 765.06,-402.15"/>
<text text-anchor="middle" x="776.27" y="-434.01" font-family="Times,serif" font-size="14.00">outro*</text>
</g>
<!-- 21&#45;&gt;21 -->
<g id="edge31" class="edge">
<title>21&#45;&gt;21</title>
<path fill="none" stroke="black" d="M857.25,-377.03C867.95,-379.65 878.13,-376.03 878.13,-366.18 878.13,-360.02 874.15,-356.3 868.56,-355.02"/>
<polygon fill="black" stroke="black" points="868.67,-351.51 858.77,-355.29 868.86,-358.51 868.67,-351.51"/>
<text text-anchor="middle" x="895.76" y="-361.13" font-family="Times,serif" font-size="14.00">outro*</text>
</g>
<!-- 22 -->
<g id="node24" class="node">
<title>22</title>
<ellipse fill="none" stroke="black" cx="844" cy="-241.66" rx="20.13" ry="20.13"/>
<ellipse fill="none" stroke="black" cx="844" cy="-241.66" rx="24.13" ry="24.13"/>
<text text-anchor="middle" x="844" y="-236.61" font-family="Times,serif" font-size="14.00">22</text>
</g>
<!-- 21&#45;&gt;22 -->
<g id="edge32" class="edge">
<title>21&#45;&gt;22</title>
<path fill="none" stroke="black" d="M840.63,-345.77C841.23,-327.46 842.14,-299.61 842.86,-277.47"/>
<polygon fill="black" stroke="black" points="846.35,-277.79 843.18,-267.68 839.36,-277.56 846.35,-277.79"/>
<text text-anchor="middle" x="847.84" y="-298.87" font-family="Times,serif" font-size="14.00">\n</text>
</g>
<!-- 33 -->
<g id="node35" class="node">
<title>33</title>
<ellipse fill="none" stroke="black" cx="1592" cy="-366.18" rx="20.13" ry="20.13"/>
<ellipse fill="none" stroke="black" cx="1592" cy="-366.18" rx="24.13" ry="24.13"/>
<text text-anchor="middle" x="1592" y="-361.13" font-family="Times,serif" font-size="14.00">33</text>
</g>
<!-- 32&#45;&gt;33 -->
<g id="edge43" class="edge">
<title>32&#45;&gt;33</title>
<path fill="none" stroke="black" d="M1716.6,-471.94C1712.78,-466.79 1708.12,-461.39 1703,-457.31 1674.3,-434.45 1655.73,-446.83 1628,-422.81 1620.1,-415.97 1613.28,-406.98 1607.76,-398.23"/>
<polygon fill="black" stroke="black" points="1610.94,-396.74 1602.86,-389.88 1604.9,-400.28 1610.94,-396.74"/>
<text text-anchor="middle" x="1690.97" y="-434.01" font-family="Times,serif" font-size="14.00">=</text>
</g>
<!-- 34 -->
<g id="node36" class="node">
<title>34</title>
<ellipse fill="none" stroke="black" cx="1473" cy="-366.18" rx="20.13" ry="20.13"/>
<ellipse fill="none" stroke="black" cx="1473" cy="-366.18" rx="24.13" ry="24.13"/>
<text text-anchor="middle" x="1473" y="-361.13" font-family="Times,serif" font-size="14.00">34</text>
</g>
<!-- 32&#45;&gt;34 -->
<g id="edge44" class="edge">
<title>32&#45;&gt;34</title>
<path fill="none" stroke="black" d="M1717.55,-471.2C1713.74,-465.87 1708.85,-460.55 1703,-457.31 1682.83,-446.15 1622.43,-451.44 1599.75,-447.31 1558.65,-439.83 1542.76,-447.43 1509,-422.81 1500.42,-416.56 1493.35,-407.58 1487.82,-398.66"/>
<polygon fill="black" stroke="black" points="1490.93,-397.06 1482.96,-390.08 1484.84,-400.51 1490.93,-397.06"/>
<text text-anchor="middle" x="1617.38" y="-434.01" font-family="Times,serif" font-size="14.00">outro*</text>
</g>
<!-- 36 -->
<g id="node38" class="node">
<title>36</title>
<ellipse fill="none" stroke="black" cx="1782" cy="-366.18" rx="20.13" ry="20.13"/>
<ellipse fill="none" stroke="black" cx="1782" cy="-366.18" rx="24.13" ry="24.13"/>
<text text-anchor="middle" x="1782" y="-361.13" font-family="Times,serif" font-size="14.00">36</text>
</g>
<!-- 35&#45;&gt;36 -->
<g id="edge46" class="edge">
<title>35&#45;&gt;36</title>
<path fill="none" stroke="black" d="M1784.52,-468.96C1784.07,-451 1783.4,-423.91 1782.87,-402.19"/>
<polygon fill="black" stroke="black" points="1786.37,-402.2 1782.62,-392.29 1779.37,-402.37 1786.37,-402.2"/>
<text text-anchor="middle" x="1789.57" y="-434.01" font-family="Times,serif" font-size="14.00">&amp;</text>
</g>
<!-- 37 -->
<g id="node39" class="node">
<title>37</title>
<ellipse fill="none" stroke="black" cx="1699" cy="-366.18" rx="20.13" ry="20.13"/>
<ellipse fill="none" stroke="black" cx="1699" cy="-366.18" rx="24.13" ry="24.13"/>
<text text-anchor="middle" x="1699" y="-361.13" font-family="Times,serif" font-size="14.00">37</text>
</g>
<!-- 35&#45;&gt;37 -->
<g id="edge47" class="edge">
<title>35&#45;&gt;37</title>
<path fill="none" stroke="black" d="M1771.99,-473.92C1767.09,-468.59 1761.39,-462.58 1756,-457.31 1751.21,-452.64 1748.96,-452.51 1744.75,-447.31 1732.7,-432.45 1721.93,-414.02 1713.88,-398.57"/>
<polygon fill="black" stroke="black" points="1717.07,-397.14 1709.43,-389.79 1710.83,-400.3 1717.07,-397.14"/>
<text text-anchor="middle" x="1762.38" y="-434.01" font-family="Times,serif" font-size="14.00">outro*</text>
</g>
<!-- 39 -->
<g id="node41" class="node">
<title>39</title>
<ellipse fill="none" stroke="black" cx="1854" cy="-366.18" rx="20.13" ry="20.13"/>
<ellipse fill="none" stroke="black" cx="1854" cy="-366.18" rx="24.13" ry="24.13"/>
<text text-anchor="middle" x="1854" y="-361.13" font-family="Times,serif" font-size="14.00">39</text>
</g>
<!-- 38&#45;&gt;39 -->
<g id="edge49" class="edge">
<title>38&#45;&gt;39</title>
<path fill="none" stroke="black" d="M1850.64,-468.96C1851.24,-451 1852.13,-423.91 1852.85,-402.19"/>
<polygon fill="black" stroke="black" points="1856.34,-402.4 1853.17,-392.29 1849.34,-402.17 1856.34,-402.4"/>
<text text-anchor="middle" x="1853.38" y="-434.01" font-family="Times,serif" font-size="14.00">|</text>
</g>
<!-- 41 -->
<g id="node43" class="node">
<title>41</title>
<ellipse fill="none" stroke="black" cx="2021" cy="-366.18" rx="20.13" ry="20.13"/>
<ellipse fill="none" stroke="black" cx="2021" cy="-366.18" rx="24.13" ry="24.13"/>
<text text-anchor="middle" x="2021" y="-361.13" font-family="Times,serif" font-size="14.00">41</text>
</g>
<!-- 40&#45;&gt;41 -->
<g id="edge51" class="edge">
<title>40&#45;&gt;41</title>
<path fill="none" stroke="black" d="M1963.74,-475.45C1971.71,-467.84 1981.26,-457.72 1988,-447.31 1997.32,-432.92 2004.88,-415.46 2010.4,-400.52"/>
<polygon fill="black" stroke="black" points="2013.7,-401.7 2013.72,-391.11 2007.1,-399.38 2013.7,-401.7"/>
<text text-anchor="middle" x="2001.48" y="-434.01" font-family="Times,serif" font-size="14.00">=</text>
</g>
<!-- 42 -->
<g id="node44" class="node">
<title>42</title>
<ellipse fill="none" stroke="black" cx="1949" cy="-366.18" rx="20.13" ry="20.13"/>
<ellipse fill="none" stroke="black" cx="1949" cy="-366.18" rx="24.13" ry="24.13"/>
<text text-anchor="middle" x="1949" y="-361.13" font-family="Times,serif" font-size="14.00">42</text>
</g>
<!-- 40&#45;&gt;42 -->
<g id="edge52" class="edge">
<title>40&#45;&gt;42</title>
<path fill="none" stroke="black" d="M1949,-468.96C1949,-451 1949,-423.91 1949,-402.19"/>
<polygon fill="black" stroke="black" points="1952.5,-402.29 1949,-392.29 1945.5,-402.29 1952.5,-402.29"/>
<text text-anchor="middle" x="1966.62" y="-434.01" font-family="Times,serif" font-size="14.00">outro*</text>
</g>
<!-- 44 -->
<g id="node46" class="node">
<title>44</title>
<ellipse fill="none" stroke="black" cx="2208" cy="-366.18" rx="20.13" ry="20.13"/>
<ellipse fill="none" stroke="black" cx="2208" cy="-366.18" rx="24.13" ry="24.13"/>
<text text-anchor="middle" x="2208" y="-361.13" font-family="Times,serif" font-size="14.00">44</text>
</g>
<!-- 43&#45;&gt;44 -->
<g id="edge54" class="edge">
<title>43&#45;&gt;44</title>
<path fill="none" stroke="black" d="M2150.74,-475.45C2158.71,-467.84 2168.26,-457.72 2175,-447.31 2184.32,-432.92 2191.88,-415.46 2197.4,-400.52"/>
<polygon fill="black" stroke="black" points="2200.7,-401.7 2200.72,-391.11 2194.1,-399.38 2200.7,-401.7"/>
<text text-anchor="middle" x="2188.48" y="-434.01" font-family="Times,serif" font-size="14.00">=</text>
</g>
<!-- 45 -->
<g id="node47" class="node">
<title>45</title>
<ellipse fill="none" stroke="black" cx="2136" cy="-366.18" rx="20.13" ry="20.13"/>
<ellipse fill="none" stroke="black" cx="2136" cy="-366.18" rx="24.13" ry="24.13"/>
<text text-anchor="middle" x="2136" y="-361.13" font-family="Times,serif" font-size="14.00">45</text>
</g>
<!-- 43&#45;&gt;45 -->
<g id="edge55" class="edge">
<title>43&#45;&gt;45</title>
<path fill="none" stroke="black" d="M2136,-468.96C2136,-451 2136,-423.91 2136,-402.19"/>
<polygon fill="black" stroke="black" points="2139.5,-402.29 2136,-392.29 2132.5,-402.29 2139.5,-402.29"/>
<text text-anchor="middle" x="2153.62" y="-434.01" font-family="Times,serif" font-size="14.00">outro*</text>
</g>
<!-- 47 -->
<g id="node49" class="node">
<title>47</title>
<ellipse fill="none" stroke="black" cx="2409" cy="-366.18" rx="20.13" ry="20.13"/>
<ellipse fill="none" stroke="black" cx="2409" cy="-366.18" rx="24.13" ry="24.13"/>
<text text-anchor="middle" x="2409" y="-361.13" font-family="Times,serif" font-size="14.00">47</text>
</g>
<!-- 46&#45;&gt;47 -->
<g id="edge57" class="edge">
<title>46&#45;&gt;47</title>
<path fill="none" stroke="black" d="M2341.34,-475.17C2349.18,-467.48 2358.74,-457.36 2366,-447.31 2376.97,-432.13 2387,-413.81 2394.62,-398.52"/>
<polygon fill="black" stroke="black" points="2397.6,-400.39 2398.82,-389.86 2391.31,-397.33 2397.6,-400.39"/>
<text text-anchor="middle" x="2379.77" y="-434.01" font-family="Times,serif" font-size="14.00">=</text>
</g>
<!-- 48 -->
<g id="node50" class="node">
<title>48</title>
<ellipse fill="none" stroke="black" cx="2327" cy="-366.18" rx="20.13" ry="20.13"/>
<ellipse fill="none" stroke="black" cx="2327" cy="-366.18" rx="24.13" ry="24.13"/>
<text text-anchor="middle" x="2327" y="-361.13" font-family="Times,serif" font-size="14.00">48</text>
</g>
<!-- 46&#45;&gt;48 -->
<g id="edge58" class="edge">
<title>46&#45;&gt;48</title>
<path fill="none" stroke="black" d="M2327,-468.96C2327,-451 2327,-423.91 2327,-402.19"/>
<polygon fill="black" stroke="black" points="2330.5,-402.29 2327,-392.29 2323.5,-402.29 2330.5,-402.29"/>
<text text-anchor="middle" x="2344.62" y="-434.01" font-family="Times,serif" font-size="14.00">outro*</text>
</g>
</g>
</svg>
