<?xml version="1.0" encoding="UTF-8" standalone="no"?>
<!DOCTYPE svg PUBLIC "-//W3C//DTD SVG 1.1//EN"
 "http://www.w3.org/Graphics/SVG/1.1/DTD/svg11.dtd">
<!-- Generated by graphviz version 12.1.2 (0)
 -->
<!-- Pages: 1 -->
<svg width="2441pt" height="746pt"
 viewBox="0.00 0.00 2441.00 746.07" xmlns="http://www.w3.org/2000/svg" xmlns:xlink="http://www.w3.org/1999/xlink">
<g id="graph0" class="graph" transform="scale(1 1) rotate(0) translate(4 742.07)">
<polygon fill="white" stroke="none" points="-4,4 -4,-742.07 2437,-742.07 2437,4 -4,4"/>
<g id="clust1" class="cluster">
<title>cluster_start</title>
<polygon fill="none" stroke="black" points="1131,-580.57 1131,-730.07 1286,-730.07 1286,-580.57 1131,-580.57"/>
<text text-anchor="middle" x="1208.5" y="-712.77" font-family="Times,serif" font-size="14.00">INICIO</text>
</g>
<g id="clust2" class="cluster">
<title>cluster_id</title>
<polygon fill="#dd8855" stroke="#dd8855" points="228,-211.66 228,-539.94 344,-539.94 344,-211.66 228,-211.66"/>
<text text-anchor="middle" x="286" y="-522.64" font-family="Times,serif" font-size="14.00">ID</text>
</g>
<g id="clust3" class="cluster">
<title>cluster_intcon</title>
<polygon fill="#ffaaff" stroke="#ffaaff" points="8,-336.18 8,-539.94 110,-539.94 110,-336.18 8,-336.18"/>
<text text-anchor="middle" x="59" y="-522.64" font-family="Times,serif" font-size="14.00">INTCON</text>
</g>
<g id="clust4" class="cluster">
<title>cluster_realcon</title>
<polygon fill="#8888dd" stroke="#8888dd" points="118,-110.89 118,-416.68 220,-416.68 220,-110.89 118,-110.89"/>
<text text-anchor="middle" x="169" y="-399.38" font-family="Times,serif" font-size="14.00">REALCON</text>
</g>
<g id="clust5" class="cluster">
<title>cluster_charcon</title>
<polygon fill="#88dd88" stroke="#88dd88" points="352,-8 352,-539.94 553,-539.94 553,-8 352,-8"/>
<text text-anchor="middle" x="452.5" y="-522.64" font-family="Times,serif" font-size="14.00">CHARCON</text>
</g>
<g id="clust6" class="cluster">
<title>cluster_stringcon</title>
<polygon fill="#dd8888" stroke="#dd8888" points="561,-108.76 561,-542.07 682,-542.07 682,-108.76 561,-108.76"/>
<text text-anchor="middle" x="621.5" y="-524.77" font-family="Times,serif" font-size="14.00">STRINGCON</text>
</g>
<g id="clust7" class="cluster">
<title>cluster_comentario</title>
<polygon fill="#dddd88" stroke="#dddd88" points="769,-209.52 769,-418.81 878,-418.81 878,-209.52 769,-209.52"/>
<text text-anchor="middle" x="823.5" y="-401.51" font-family="Times,serif" font-size="14.00">COMENTARIO</text>
</g>
<g id="clust8" class="cluster">
<title>cluster_mais</title>
<polygon fill="lightgrey" stroke="black" points="740,-457.31 740,-546.07 804,-546.07 804,-457.31 740,-457.31"/>
<text text-anchor="middle" x="772" y="-528.77" font-family="Times,serif" font-size="14.00">MAIS</text>
</g>
<g id="clust9" class="cluster">
<title>cluster_menos</title>
<polygon fill="lightgrey" stroke="black" points="812,-457.31 812,-546.07 876,-546.07 876,-457.31 812,-457.31"/>
<text text-anchor="middle" x="844" y="-528.77" font-family="Times,serif" font-size="14.00">MENOS</text>
</g>
<g id="clust10" class="cluster">
<title>cluster_multiplicacao</title>
<polygon fill="lightgrey" stroke="black" points="884,-457.31 884,-546.07 1010,-546.07 1010,-457.31 884,-457.31"/>
<text text-anchor="middle" x="947" y="-528.77" font-family="Times,serif" font-size="14.00">MULTIPLICACAO</text>
</g>
<g id="clust11" class="cluster">
<title>cluster_divisao</title>
<polygon fill="lightgrey" stroke="black" points="690,-334.05 690,-422.81 761,-422.81 761,-334.05 690,-334.05"/>
<text text-anchor="middle" x="725.5" y="-405.51" font-family="Times,serif" font-size="14.00">DIVISAO</text>
</g>
<g id="clust12" class="cluster">
<title>cluster_abreparenteses</title>
<polygon fill="lightgrey" stroke="black" points="1018,-457.31 1018,-546.07 1153,-546.07 1153,-457.31 1018,-457.31"/>
<text text-anchor="middle" x="1085.5" y="-528.77" font-family="Times,serif" font-size="14.00">ABREPARENTESES</text>
</g>
<g id="clust13" class="cluster">
<title>cluster_fechaparenteses</title>
<polygon fill="lightgrey" stroke="black" points="1161,-457.31 1161,-546.07 1304,-546.07 1304,-457.31 1161,-457.31"/>
<text text-anchor="middle" x="1232.5" y="-528.77" font-family="Times,serif" font-size="14.00">FECHAPARENTESES</text>
</g>
<g id="clust14" class="cluster">
<title>cluster_abrecolchete</title>
<polygon fill="lightgrey" stroke="black" points="1312,-457.31 1312,-546.07 1434,-546.07 1434,-457.31 1312,-457.31"/>
<text text-anchor="middle" x="1373" y="-528.77" font-family="Times,serif" font-size="14.00">ABRECOLCHETE</text>
</g>
<g id="clust15" class="cluster">
<title>cluster_fechacolchete</title>
<polygon fill="lightgrey" stroke="black" points="1442,-457.31 1442,-546.07 1572,-546.07 1572,-457.31 1442,-457.31"/>
<text text-anchor="middle" x="1507" y="-528.77" font-family="Times,serif" font-size="14.00">FECHACOLCHETE</text>
</g>
<g id="clust16" class="cluster">
<title>cluster_virgula</title>
<polygon fill="lightgrey" stroke="black" points="1580,-457.31 1580,-546.07 1656,-546.07 1656,-457.31 1580,-457.31"/>
<text text-anchor="middle" x="1618" y="-528.77" font-family="Times,serif" font-size="14.00">VIRGULA</text>
</g>
<g id="clust17" class="cluster">
<title>cluster_comparacao</title>
<polygon fill="lightgrey" stroke="black" points="1470,-334.05 1470,-422.81 1581,-422.81 1581,-334.05 1470,-334.05"/>
<text text-anchor="middle" x="1525.5" y="-405.51" font-family="Times,serif" font-size="14.00">COMPARACAO</text>
</g>
<g id="clust18" class="cluster">
<title>cluster_atribuicao</title>
<polygon fill="lightgrey" stroke="black" points="1365,-334.05 1365,-422.81 1462,-422.81 1462,-334.05 1365,-334.05"/>
<text text-anchor="middle" x="1413.5" y="-405.51" font-family="Times,serif" font-size="14.00">ATRIBUICAO</text>
</g>
<g id="clust19" class="cluster">
<title>cluster_elogico</title>
<polygon fill="lightgrey" stroke="black" points="1696,-334.05 1696,-422.81 1771,-422.81 1771,-334.05 1696,-334.05"/>
<text text-anchor="middle" x="1733.5" y="-405.51" font-family="Times,serif" font-size="14.00">ELOGICO</text>
</g>
<g id="clust20" class="cluster">
<title>cluster_referencia</title>
<polygon fill="lightgrey" stroke="black" points="1589,-334.05 1589,-422.81 1688,-422.81 1688,-334.05 1589,-334.05"/>
<text text-anchor="middle" x="1638.5" y="-405.51" font-family="Times,serif" font-size="14.00">REFERENCIA</text>
</g>
<g id="clust21" class="cluster">
<title>cluster_oulogico</title>
<polygon fill="lightgrey" stroke="black" points="1779,-334.05 1779,-422.81 1865,-422.81 1865,-334.05 1779,-334.05"/>
<text text-anchor="middle" x="1822" y="-405.51" font-family="Times,serif" font-size="14.00">OULOGICO</text>
</g>
<g id="clust22" class="cluster">
<title>cluster_menorigual</title>
<polygon fill="lightgrey" stroke="black" points="1946,-334.05 1946,-422.81 2053,-422.81 2053,-334.05 1946,-334.05"/>
<text text-anchor="middle" x="1999.5" y="-405.51" font-family="Times,serif" font-size="14.00">MENORIGUAL</text>
</g>
<g id="clust23" class="cluster">
<title>cluster_menor</title>
<polygon fill="lightgrey" stroke="black" points="1873,-334.05 1873,-422.81 1938,-422.81 1938,-334.05 1873,-334.05"/>
<text text-anchor="middle" x="1905.5" y="-405.51" font-family="Times,serif" font-size="14.00">MENOR</text>
</g>
<g id="clust24" class="cluster">
<title>cluster_maiorigual</title>
<polygon fill="lightgrey" stroke="black" points="2133,-334.05 2133,-422.81 2236,-422.81 2236,-334.05 2133,-334.05"/>
<text text-anchor="middle" x="2184.5" y="-405.51" font-family="Times,serif" font-size="14.00">MAIORIGUAL</text>
</g>
<g id="clust25" class="cluster">
<title>cluster_maior</title>
<polygon fill="lightgrey" stroke="black" points="2061,-334.05 2061,-422.81 2125,-422.81 2125,-334.05 2061,-334.05"/>
<text text-anchor="middle" x="2093" y="-405.51" font-family="Times,serif" font-size="14.00">MAIOR</text>
</g>
<g id="clust26" class="cluster">
<title>cluster_diferenca</title>
<polygon fill="lightgrey" stroke="black" points="2334,-334.05 2334,-422.81 2425,-422.81 2425,-334.05 2334,-334.05"/>
<text text-anchor="middle" x="2379.5" y="-405.51" font-family="Times,serif" font-size="14.00">DIFERENCA</text>
</g>
<g id="clust27" class="cluster">
<title>cluster_negacao</title>
<polygon fill="lightgrey" stroke="black" points="2244,-334.05 2244,-422.81 2326,-422.81 2326,-334.05 2244,-334.05"/>
<text text-anchor="middle" x="2285" y="-405.51" font-family="Times,serif" font-size="14.00">NEGACAO</text>
</g>
<!-- Inicio -->
<g id="node1" class="node">
<title>Inicio</title>
</g>
<!-- 0 -->
<g id="node2" class="node">
<title>0</title>
<ellipse fill="none" stroke="black" cx="1157" cy="-606.57" rx="18" ry="18"/>
<text text-anchor="middle" x="1157" y="-601.52" font-family="Times,serif" font-size="14.00">0</text>
</g>
<!-- Inicio&#45;&gt;0 -->
<g id="edge1" class="edge">
<title>Inicio&#45;&gt;0</title>
<path fill="none" stroke="black" d="M1163.87,-661.75C1162.9,-654.08 1161.72,-644.79 1160.61,-636.08"/>
<polygon fill="black" stroke="black" points="1164.1,-635.75 1159.37,-626.27 1157.16,-636.63 1164.1,-635.75"/>
</g>
<!-- 0&#45;&gt;0 -->
<g id="edge2" class="edge">
<title>0&#45;&gt;0</title>
<path fill="none" stroke="black" d="M1174.04,-613.04C1183.86,-614.36 1193,-612.21 1193,-606.57 1193,-603.32 1189.94,-601.22 1185.47,-600.29"/>
<polygon fill="black" stroke="black" points="1185.61,-596.79 1175.55,-600.13 1185.49,-603.79 1185.61,-596.79"/>
<text text-anchor="middle" x="1235.38" y="-601.52" font-family="Times,serif" font-size="14.00">Tab, Espaco, \n</text>
</g>
<!-- 1 -->
<g id="node3" class="node">
<title>1</title>
<ellipse fill="none" stroke="black" cx="254" cy="-489.44" rx="18" ry="18"/>
<text text-anchor="middle" x="254" y="-484.39" font-family="Times,serif" font-size="14.00">1</text>
</g>
<!-- 0&#45;&gt;1 -->
<g id="edge3" class="edge">
<title>0&#45;&gt;1</title>
<path fill="none" stroke="black" d="M1138.61,-605.11C1062.8,-603.06 767.16,-593.95 525.25,-570.57 446.09,-562.92 423.08,-572.28 348,-546.07 322.17,-537.06 295.6,-520.53 277.32,-507.83"/>
<polygon fill="black" stroke="black" points="279.49,-505.07 269.31,-502.11 275.42,-510.77 279.49,-505.07"/>
<text text-anchor="middle" x="548.12" y="-557.27" font-family="Times,serif" font-size="14.00">sublinha</text>
</g>
<!-- 2 -->
<g id="node4" class="node">
<title>2</title>
<ellipse fill="none" stroke="black" cx="254" cy="-366.18" rx="18" ry="18"/>
<text text-anchor="middle" x="254" y="-361.13" font-family="Times,serif" font-size="14.00">2</text>
</g>
<!-- 0&#45;&gt;2 -->
<g id="edge5" class="edge">
<title>0&#45;&gt;2</title>
<path fill="none" stroke="black" d="M1138.62,-605.16C1008.84,-602.17 234.85,-582.84 203,-546.07 177.17,-516.25 192.35,-495.3 203,-457.31 207.85,-440.03 215.07,-438.38 224,-422.81 229.63,-412.99 235.6,-402.05 240.71,-392.49"/>
<polygon fill="black" stroke="black" points="243.75,-394.22 245.35,-383.75 237.57,-390.94 243.75,-394.22"/>
<text text-anchor="middle" x="215" y="-484.39" font-family="Times,serif" font-size="14.00">letra</text>
</g>
<!-- 4 -->
<g id="node6" class="node">
<title>4</title>
<ellipse fill="none" stroke="black" cx="34" cy="-489.44" rx="18" ry="18"/>
<text text-anchor="middle" x="34" y="-484.39" font-family="Times,serif" font-size="14.00">4</text>
</g>
<!-- 0&#45;&gt;4 -->
<g id="edge8" class="edge">
<title>0&#45;&gt;4</title>
<path fill="none" stroke="black" d="M1138.92,-605.56C1011.08,-605.41 245.91,-603.14 148.5,-570.57 111.65,-558.25 76.1,-530 54.65,-510.56"/>
<polygon fill="black" stroke="black" points="57.16,-508.12 47.46,-503.87 52.39,-513.24 57.16,-508.12"/>
<text text-anchor="middle" x="164.25" y="-557.27" font-family="Times,serif" font-size="14.00">digito</text>
</g>
<!-- 9 -->
<g id="node11" class="node">
<title>9</title>
<ellipse fill="none" stroke="black" cx="478" cy="-489.44" rx="18" ry="18"/>
<text text-anchor="middle" x="478" y="-484.39" font-family="Times,serif" font-size="14.00">9</text>
</g>
<!-- 0&#45;&gt;9 -->
<g id="edge15" class="edge">
<title>0&#45;&gt;9</title>
<path fill="none" stroke="black" d="M1138.69,-605.96C1070.94,-607.06 828.21,-607.97 633,-570.57 598.14,-563.9 588.76,-561.91 557,-546.07 536.49,-535.84 515.37,-520.68 500.13,-508.77"/>
<polygon fill="black" stroke="black" points="502.64,-506.3 492.64,-502.79 498.27,-511.77 502.64,-506.3"/>
<text text-anchor="middle" x="658.5" y="-557.27" font-family="Times,serif" font-size="14.00">apostrofo</text>
</g>
<!-- 16 -->
<g id="node18" class="node">
<title>16</title>
<ellipse fill="none" stroke="black" cx="652" cy="-489.44" rx="20.13" ry="20.13"/>
<text text-anchor="middle" x="652" y="-484.39" font-family="Times,serif" font-size="14.00">16</text>
</g>
<!-- 0&#45;&gt;16 -->
<g id="edge24" class="edge">
<title>0&#45;&gt;16</title>
<path fill="none" stroke="black" d="M1138.78,-605.55C1065.37,-605.25 791.46,-602 711.75,-570.57 688.97,-561.59 673.15,-538.17 663.54,-518.95"/>
<polygon fill="black" stroke="black" points="666.73,-517.52 659.35,-509.92 660.38,-520.46 666.73,-517.52"/>
<text text-anchor="middle" x="726.38" y="-557.27" font-family="Times,serif" font-size="14.00">aspas</text>
</g>
<!-- 20 -->
<g id="node22" class="node">
<title>20</title>
<ellipse fill="none" stroke="black" cx="710" cy="-489.44" rx="20.13" ry="20.13"/>
<text text-anchor="middle" x="710" y="-484.39" font-family="Times,serif" font-size="14.00">20</text>
</g>
<!-- 0&#45;&gt;20 -->
<g id="edge29" class="edge">
<title>0&#45;&gt;20</title>
<path fill="none" stroke="black" d="M1138.57,-606.03C1083.99,-606.91 918.84,-606.23 788.25,-570.57 763.51,-563.82 754.12,-564.22 736,-546.07 728.69,-538.75 723.19,-528.99 719.17,-519.69"/>
<polygon fill="black" stroke="black" points="722.52,-518.64 715.66,-510.57 715.98,-521.16 722.52,-518.64"/>
<text text-anchor="middle" x="802.12" y="-557.27" font-family="Times,serif" font-size="14.00">barra</text>
</g>
<!-- 23 -->
<g id="node25" class="node">
<title>23</title>
<ellipse fill="none" stroke="black" cx="772" cy="-489.44" rx="20.13" ry="20.13"/>
<ellipse fill="none" stroke="black" cx="772" cy="-489.44" rx="24.13" ry="24.13"/>
<text text-anchor="middle" x="772" y="-484.39" font-family="Times,serif" font-size="14.00">23</text>
</g>
<!-- 0&#45;&gt;23 -->
<g id="edge33" class="edge">
<title>0&#45;&gt;23</title>
<path fill="none" stroke="black" d="M1138.68,-604.51C1094.06,-601.66 976.4,-592.51 880.75,-570.57 847.5,-562.95 834.94,-567.01 808,-546.07 799.68,-539.61 792.71,-530.66 787.19,-521.82"/>
<polygon fill="black" stroke="black" points="790.33,-520.27 782.32,-513.34 784.26,-523.76 790.33,-520.27"/>
<text text-anchor="middle" x="884.88" y="-557.27" font-family="Times,serif" font-size="14.00">+</text>
</g>
<!-- 24 -->
<g id="node26" class="node">
<title>24</title>
<ellipse fill="none" stroke="black" cx="844" cy="-489.44" rx="20.13" ry="20.13"/>
<ellipse fill="none" stroke="black" cx="844" cy="-489.44" rx="24.13" ry="24.13"/>
<text text-anchor="middle" x="844" y="-484.39" font-family="Times,serif" font-size="14.00">24</text>
</g>
<!-- 0&#45;&gt;24 -->
<g id="edge34" class="edge">
<title>0&#45;&gt;24</title>
<path fill="none" stroke="black" d="M1138.63,-606.24C1091.32,-607.06 963.19,-603.48 880,-546.07 871.26,-540.04 864.15,-531.13 858.62,-522.2"/>
<polygon fill="black" stroke="black" points="861.73,-520.6 853.79,-513.58 855.62,-524.02 861.73,-520.6"/>
<text text-anchor="middle" x="922.15" y="-557.27" font-family="Times,serif" font-size="14.00">&#45;</text>
</g>
<!-- 25 -->
<g id="node27" class="node">
<title>25</title>
<ellipse fill="none" stroke="black" cx="978" cy="-489.44" rx="20.13" ry="20.13"/>
<ellipse fill="none" stroke="black" cx="978" cy="-489.44" rx="24.13" ry="24.13"/>
<text text-anchor="middle" x="978" y="-484.39" font-family="Times,serif" font-size="14.00">25</text>
</g>
<!-- 0&#45;&gt;25 -->
<g id="edge35" class="edge">
<title>0&#45;&gt;25</title>
<path fill="none" stroke="black" d="M1139.39,-601.85C1110.49,-595.01 1052.4,-578.12 1014,-546.07 1005.91,-539.33 999.01,-530.29 993.47,-521.47"/>
<polygon fill="black" stroke="black" points="996.62,-519.92 988.57,-513.03 990.57,-523.44 996.62,-519.92"/>
<text text-anchor="middle" x="1052.54" y="-557.27" font-family="Times,serif" font-size="14.00">*</text>
</g>
<!-- 27 -->
<g id="node29" class="node">
<title>27</title>
<ellipse fill="none" stroke="black" cx="1121" cy="-489.44" rx="20.13" ry="20.13"/>
<ellipse fill="none" stroke="black" cx="1121" cy="-489.44" rx="24.13" ry="24.13"/>
<text text-anchor="middle" x="1121" y="-484.39" font-family="Times,serif" font-size="14.00">27</text>
</g>
<!-- 0&#45;&gt;27 -->
<g id="edge37" class="edge">
<title>0&#45;&gt;27</title>
<path fill="none" stroke="black" d="M1151.84,-589.08C1146.54,-572.11 1138.12,-545.2 1131.42,-523.77"/>
<polygon fill="black" stroke="black" points="1134.78,-522.78 1128.45,-514.28 1128.1,-524.87 1134.78,-522.78"/>
<text text-anchor="middle" x="1147.61" y="-557.27" font-family="Times,serif" font-size="14.00">(</text>
</g>
<!-- 28 -->
<g id="node30" class="node">
<title>28</title>
<ellipse fill="none" stroke="black" cx="1193" cy="-489.44" rx="20.13" ry="20.13"/>
<ellipse fill="none" stroke="black" cx="1193" cy="-489.44" rx="24.13" ry="24.13"/>
<text text-anchor="middle" x="1193" y="-484.39" font-family="Times,serif" font-size="14.00">28</text>
</g>
<!-- 0&#45;&gt;28 -->
<g id="edge38" class="edge">
<title>0&#45;&gt;28</title>
<path fill="none" stroke="black" d="M1162.16,-589.08C1167.46,-572.11 1175.88,-545.2 1182.58,-523.77"/>
<polygon fill="black" stroke="black" points="1185.9,-524.87 1185.55,-514.28 1179.22,-522.78 1185.9,-524.87"/>
<text text-anchor="middle" x="1175.09" y="-557.27" font-family="Times,serif" font-size="14.00">)</text>
</g>
<!-- 29 -->
<g id="node31" class="node">
<title>29</title>
<ellipse fill="none" stroke="black" cx="1344" cy="-489.44" rx="20.13" ry="20.13"/>
<ellipse fill="none" stroke="black" cx="1344" cy="-489.44" rx="24.13" ry="24.13"/>
<text text-anchor="middle" x="1344" y="-484.39" font-family="Times,serif" font-size="14.00">29</text>
</g>
<!-- 0&#45;&gt;29 -->
<g id="edge39" class="edge">
<title>0&#45;&gt;29</title>
<path fill="none" stroke="black" d="M1174.63,-602.31C1204.79,-595.99 1267.01,-579.62 1308,-546.07 1316.15,-539.4 1323.07,-530.39 1328.61,-521.56"/>
<polygon fill="black" stroke="black" points="1331.52,-523.52 1333.5,-513.12 1325.46,-520.02 1331.52,-523.52"/>
<text text-anchor="middle" x="1296.17" y="-557.27" font-family="Times,serif" font-size="14.00">[</text>
</g>
<!-- 30 -->
<g id="node32" class="node">
<title>30</title>
<ellipse fill="none" stroke="black" cx="1474" cy="-489.44" rx="20.13" ry="20.13"/>
<ellipse fill="none" stroke="black" cx="1474" cy="-489.44" rx="24.13" ry="24.13"/>
<text text-anchor="middle" x="1474" y="-484.39" font-family="Times,serif" font-size="14.00">30</text>
</g>
<!-- 0&#45;&gt;30 -->
<g id="edge40" class="edge">
<title>0&#45;&gt;30</title>
<path fill="none" stroke="black" d="M1175.29,-606.31C1222.99,-607.34 1353.37,-604.29 1438,-546.07 1446.75,-540.06 1453.86,-531.15 1459.39,-522.22"/>
<polygon fill="black" stroke="black" points="1462.39,-524.03 1464.22,-513.6 1456.28,-520.61 1462.39,-524.03"/>
<text text-anchor="middle" x="1427.31" y="-557.27" font-family="Times,serif" font-size="14.00">]</text>
</g>
<!-- 31 -->
<g id="node33" class="node">
<title>31</title>
<ellipse fill="none" stroke="black" cx="1612" cy="-489.44" rx="20.13" ry="20.13"/>
<ellipse fill="none" stroke="black" cx="1612" cy="-489.44" rx="24.13" ry="24.13"/>
<text text-anchor="middle" x="1612" y="-484.39" font-family="Times,serif" font-size="14.00">31</text>
</g>
<!-- 0&#45;&gt;31 -->
<g id="edge41" class="edge">
<title>0&#45;&gt;31</title>
<path fill="none" stroke="black" d="M1175.04,-605.03C1246.4,-602.6 1508.41,-590.71 1576,-546.07 1584.93,-540.18 1592.12,-531.22 1597.66,-522.21"/>
<polygon fill="black" stroke="black" points="1600.7,-523.94 1602.48,-513.5 1594.58,-520.55 1600.7,-523.94"/>
<text text-anchor="middle" x="1561.05" y="-557.27" font-family="Times,serif" font-size="14.00">,</text>
</g>
<!-- 32 -->
<g id="node34" class="node">
<title>32</title>
<ellipse fill="none" stroke="black" cx="1684" cy="-489.44" rx="20.13" ry="20.13"/>
<text text-anchor="middle" x="1684" y="-484.39" font-family="Times,serif" font-size="14.00">32</text>
</g>
<!-- 0&#45;&gt;32 -->
<g id="edge42" class="edge">
<title>0&#45;&gt;32</title>
<path fill="none" stroke="black" d="M1175.13,-605.14C1232.8,-603.52 1417.06,-596.52 1567,-570.57 1609.12,-563.28 1627.6,-573.95 1660,-546.07 1667.79,-539.37 1673.13,-529.67 1676.76,-520.25"/>
<polygon fill="black" stroke="black" points="1680.02,-521.53 1679.8,-510.94 1673.37,-519.36 1680.02,-521.53"/>
<text text-anchor="middle" x="1653" y="-557.27" font-family="Times,serif" font-size="14.00">=</text>
</g>
<!-- 35 -->
<g id="node37" class="node">
<title>35</title>
<ellipse fill="none" stroke="black" cx="1742" cy="-489.44" rx="20.13" ry="20.13"/>
<text text-anchor="middle" x="1742" y="-484.39" font-family="Times,serif" font-size="14.00">35</text>
</g>
<!-- 0&#45;&gt;35 -->
<g id="edge45" class="edge">
<title>0&#45;&gt;35</title>
<path fill="none" stroke="black" d="M1175.25,-605.21C1254.16,-603.49 1566.36,-595.23 1661,-570.57 1685.72,-564.13 1694.58,-563.77 1713,-546.07 1720.76,-538.62 1726.85,-528.63 1731.41,-519.17"/>
<polygon fill="black" stroke="black" points="1734.5,-520.84 1735.29,-510.28 1728.08,-518.04 1734.5,-520.84"/>
<text text-anchor="middle" x="1709.46" y="-557.27" font-family="Times,serif" font-size="14.00">&amp;</text>
</g>
<!-- 38 -->
<g id="node40" class="node">
<title>38</title>
<ellipse fill="none" stroke="black" cx="1807" cy="-489.44" rx="20.13" ry="20.13"/>
<text text-anchor="middle" x="1807" y="-484.39" font-family="Times,serif" font-size="14.00">38</text>
</g>
<!-- 0&#45;&gt;38 -->
<g id="edge48" class="edge">
<title>0&#45;&gt;38</title>
<path fill="none" stroke="black" d="M1175.32,-605.36C1259.85,-604.22 1612.59,-597.89 1719,-570.57 1743.75,-564.22 1751.77,-562.89 1771,-546.07 1779.94,-538.26 1787.52,-527.71 1793.38,-517.9"/>
<polygon fill="black" stroke="black" points="1796.3,-519.85 1798.12,-509.41 1790.19,-516.43 1796.3,-519.85"/>
<text text-anchor="middle" x="1762.08" y="-557.27" font-family="Times,serif" font-size="14.00">|</text>
</g>
<!-- 40 -->
<g id="node42" class="node">
<title>40</title>
<ellipse fill="none" stroke="black" cx="1906" cy="-489.44" rx="20.13" ry="20.13"/>
<text text-anchor="middle" x="1906" y="-484.39" font-family="Times,serif" font-size="14.00">40</text>
</g>
<!-- 0&#45;&gt;40 -->
<g id="edge50" class="edge">
<title>0&#45;&gt;40</title>
<path fill="none" stroke="black" d="M1175.36,-605.23C1264.24,-603.48 1650.37,-594.6 1768,-570.57 1799.47,-564.14 1807.94,-561.72 1836,-546.07 1853.07,-536.55 1870.29,-522.94 1883.38,-511.56"/>
<polygon fill="black" stroke="black" points="1885.46,-514.39 1890.59,-505.12 1880.8,-509.17 1885.46,-514.39"/>
<text text-anchor="middle" x="1824" y="-557.27" font-family="Times,serif" font-size="14.00">&lt;</text>
</g>
<!-- 43 -->
<g id="node45" class="node">
<title>43</title>
<ellipse fill="none" stroke="black" cx="2093" cy="-489.44" rx="20.13" ry="20.13"/>
<text text-anchor="middle" x="2093" y="-484.39" font-family="Times,serif" font-size="14.00">43</text>
</g>
<!-- 0&#45;&gt;43 -->
<g id="edge53" class="edge">
<title>0&#45;&gt;43</title>
<path fill="none" stroke="black" d="M1175.37,-605.84C1254.46,-606.73 1573.56,-607.7 1832,-570.57 1878.58,-563.88 1889.86,-559.35 1935,-546.07 1980.47,-532.7 2032.09,-513.81 2063.59,-501.84"/>
<polygon fill="black" stroke="black" points="2064.73,-505.15 2072.83,-498.31 2062.23,-498.61 2064.73,-505.15"/>
<text text-anchor="middle" x="1911.52" y="-557.27" font-family="Times,serif" font-size="14.00">&gt;</text>
</g>
<!-- 46 -->
<g id="node48" class="node">
<title>46</title>
<ellipse fill="none" stroke="black" cx="2284" cy="-489.44" rx="20.13" ry="20.13"/>
<text text-anchor="middle" x="2284" y="-484.39" font-family="Times,serif" font-size="14.00">46</text>
</g>
<!-- 0&#45;&gt;46 -->
<g id="edge56" class="edge">
<title>0&#45;&gt;46</title>
<path fill="none" stroke="black" d="M1175.09,-605.27C1291.12,-603.17 1931.82,-589.75 2122,-546.07 2169.7,-535.12 2223.03,-515.25 2255.03,-502.46"/>
<polygon fill="black" stroke="black" points="2256.06,-505.83 2264.02,-498.83 2253.43,-499.34 2256.06,-505.83"/>
<text text-anchor="middle" x="2080.94" y="-557.27" font-family="Times,serif" font-size="14.00">!</text>
</g>
<!-- 1&#45;&gt;1 -->
<g id="edge4" class="edge">
<title>1&#45;&gt;1</title>
<path fill="none" stroke="black" d="M269.92,-498.14C280.15,-500.41 290,-497.51 290,-489.44 290,-484.53 286.34,-481.53 281.17,-480.45"/>
<polygon fill="black" stroke="black" points="281.33,-476.94 271.43,-480.7 281.52,-483.94 281.33,-476.94"/>
<text text-anchor="middle" x="312.88" y="-484.39" font-family="Times,serif" font-size="14.00">sublinha</text>
</g>
<!-- 1&#45;&gt;2 -->
<g id="edge6" class="edge">
<title>1&#45;&gt;2</title>
<path fill="none" stroke="black" d="M254,-471.07C254,-451.44 254,-419.19 254,-395.82"/>
<polygon fill="black" stroke="black" points="257.5,-396.04 254,-386.04 250.5,-396.04 257.5,-396.04"/>
<text text-anchor="middle" x="266" y="-434.01" font-family="Times,serif" font-size="14.00">letra</text>
</g>
<!-- 3 -->
<g id="node5" class="node">
<title>3</title>
<ellipse fill="none" stroke="black" cx="258" cy="-241.66" rx="18" ry="18"/>
<ellipse fill="none" stroke="black" cx="258" cy="-241.66" rx="22" ry="22"/>
<text text-anchor="middle" x="258" y="-236.61" font-family="Times,serif" font-size="14.00">3</text>
</g>
<!-- 2&#45;&gt;3 -->
<g id="edge7" class="edge">
<title>2&#45;&gt;3</title>
<path fill="none" stroke="black" d="M254.56,-347.89C255.18,-329.12 256.17,-298.73 256.93,-275.42"/>
<polygon fill="black" stroke="black" points="260.43,-275.6 257.25,-265.49 253.43,-275.37 260.43,-275.6"/>
<text text-anchor="middle" x="274.22" y="-298.87" font-family="Times,serif" font-size="14.00">outro*</text>
</g>
<!-- 4&#45;&gt;4 -->
<g id="edge9" class="edge">
<title>4&#45;&gt;4</title>
<path fill="none" stroke="black" d="M49.92,-498.14C60.15,-500.41 70,-497.51 70,-489.44 70,-484.53 66.34,-481.53 61.17,-480.45"/>
<polygon fill="black" stroke="black" points="61.33,-476.94 51.43,-480.7 61.52,-483.94 61.33,-476.94"/>
<text text-anchor="middle" x="85.75" y="-484.39" font-family="Times,serif" font-size="14.00">digito</text>
</g>
<!-- 5 -->
<g id="node7" class="node">
<title>5</title>
<ellipse fill="none" stroke="black" cx="38" cy="-366.18" rx="18" ry="18"/>
<ellipse fill="none" stroke="black" cx="38" cy="-366.18" rx="22" ry="22"/>
<text text-anchor="middle" x="38" y="-361.13" font-family="Times,serif" font-size="14.00">5</text>
</g>
<!-- 4&#45;&gt;5 -->
<g id="edge10" class="edge">
<title>4&#45;&gt;5</title>
<path fill="none" stroke="black" d="M34.57,-471.07C35.18,-452.55 36.16,-422.81 36.92,-399.88"/>
<polygon fill="black" stroke="black" points="40.41,-400.23 37.24,-390.12 33.42,-400 40.41,-400.23"/>
<text text-anchor="middle" x="53.51" y="-434.01" font-family="Times,serif" font-size="14.00">outro*</text>
</g>
<!-- 6 -->
<g id="node8" class="node">
<title>6</title>
<ellipse fill="none" stroke="black" cx="144" cy="-366.18" rx="18" ry="18"/>
<text text-anchor="middle" x="144" y="-361.13" font-family="Times,serif" font-size="14.00">6</text>
</g>
<!-- 4&#45;&gt;6 -->
<g id="edge11" class="edge">
<title>4&#45;&gt;6</title>
<path fill="none" stroke="black" d="M49.06,-478.77C66.35,-467.09 94.81,-446.1 114,-422.81 121.2,-414.07 127.47,-403.34 132.39,-393.65"/>
<polygon fill="black" stroke="black" points="135.53,-395.19 136.69,-384.66 129.21,-392.17 135.53,-395.19"/>
<text text-anchor="middle" x="121.98" y="-434.01" font-family="Times,serif" font-size="14.00">ponto</text>
</g>
<!-- 7 -->
<g id="node9" class="node">
<title>7</title>
<ellipse fill="none" stroke="black" cx="144" cy="-241.66" rx="18" ry="18"/>
<text text-anchor="middle" x="144" y="-236.61" font-family="Times,serif" font-size="14.00">7</text>
</g>
<!-- 6&#45;&gt;7 -->
<g id="edge12" class="edge">
<title>6&#45;&gt;7</title>
<path fill="none" stroke="black" d="M144,-347.89C144,-328 144,-295.05 144,-271.32"/>
<polygon fill="black" stroke="black" points="147.5,-271.38 144,-261.38 140.5,-271.38 147.5,-271.38"/>
<text text-anchor="middle" x="159.75" y="-298.87" font-family="Times,serif" font-size="14.00">digito</text>
</g>
<!-- 7&#45;&gt;7 -->
<g id="edge13" class="edge">
<title>7&#45;&gt;7</title>
<path fill="none" stroke="black" d="M159.92,-250.35C170.15,-252.62 180,-249.72 180,-241.66 180,-236.74 176.34,-233.74 171.17,-232.66"/>
<polygon fill="black" stroke="black" points="171.33,-229.16 161.43,-232.92 171.52,-236.16 171.33,-229.16"/>
<text text-anchor="middle" x="195.75" y="-236.61" font-family="Times,serif" font-size="14.00">digito</text>
</g>
<!-- 8 -->
<g id="node10" class="node">
<title>8</title>
<ellipse fill="none" stroke="black" cx="148" cy="-140.89" rx="18" ry="18"/>
<ellipse fill="none" stroke="black" cx="148" cy="-140.89" rx="22" ry="22"/>
<text text-anchor="middle" x="148" y="-135.84" font-family="Times,serif" font-size="14.00">8</text>
</g>
<!-- 7&#45;&gt;8 -->
<g id="edge14" class="edge">
<title>7&#45;&gt;8</title>
<path fill="none" stroke="black" d="M144.7,-223.45C145.24,-209.93 146.02,-190.71 146.69,-174.33"/>
<polygon fill="black" stroke="black" points="150.18,-174.67 147.08,-164.53 143.18,-174.38 150.18,-174.67"/>
<text text-anchor="middle" x="163.86" y="-186.22" font-family="Times,serif" font-size="14.00">outro*</text>
</g>
<!-- 10 -->
<g id="node12" class="node">
<title>10</title>
<ellipse fill="none" stroke="black" cx="409" cy="-303.92" rx="20.13" ry="20.13"/>
<text text-anchor="middle" x="409" y="-298.87" font-family="Times,serif" font-size="14.00">10</text>
</g>
<!-- 9&#45;&gt;10 -->
<g id="edge16" class="edge">
<title>9&#45;&gt;10</title>
<path fill="none" stroke="black" d="M470.57,-472.69C464.46,-459.5 455.74,-440.11 449,-422.81 437.4,-393.04 425.86,-358.35 418.18,-334.34"/>
<polygon fill="black" stroke="black" points="421.55,-333.4 415.19,-324.92 414.88,-335.51 421.55,-333.4"/>
<text text-anchor="middle" x="465.07" y="-434.01" font-family="Times,serif" font-size="14.00">ch</text>
</g>
<!-- 11 -->
<g id="node13" class="node">
<title>11</title>
<ellipse fill="none" stroke="black" cx="478" cy="-366.18" rx="20.13" ry="20.13"/>
<text text-anchor="middle" x="478" y="-361.13" font-family="Times,serif" font-size="14.00">11</text>
</g>
<!-- 9&#45;&gt;11 -->
<g id="edge17" class="edge">
<title>9&#45;&gt;11</title>
<path fill="none" stroke="black" d="M478,-471.07C478,-452 478,-421.01 478,-397.83"/>
<polygon fill="black" stroke="black" points="481.5,-398.04 478,-388.04 474.5,-398.04 481.5,-398.04"/>
<text text-anchor="middle" x="508.75" y="-434.01" font-family="Times,serif" font-size="14.00">contrabarra</text>
</g>
<!-- 15 -->
<g id="node17" class="node">
<title>15</title>
<ellipse fill="none" stroke="black" cx="420" cy="-140.89" rx="20.13" ry="20.13"/>
<text text-anchor="middle" x="420" y="-135.84" font-family="Times,serif" font-size="14.00">15</text>
</g>
<!-- 10&#45;&gt;15 -->
<g id="edge18" class="edge">
<title>10&#45;&gt;15</title>
<path fill="none" stroke="black" d="M397.12,-287.14C393.08,-280.84 389.06,-273.3 387,-265.79 380.39,-241.67 381.37,-233.89 387,-209.52 390.32,-195.15 397.13,-180.3 403.71,-168.19"/>
<polygon fill="black" stroke="black" points="406.67,-170.06 408.58,-159.64 400.59,-166.59 406.67,-170.06"/>
<text text-anchor="middle" x="412.5" y="-236.61" font-family="Times,serif" font-size="14.00">apostrofo</text>
</g>
<!-- 13 -->
<g id="node15" class="node">
<title>13</title>
<ellipse fill="none" stroke="black" cx="467" cy="-241.66" rx="20.13" ry="20.13"/>
<text text-anchor="middle" x="467" y="-236.61" font-family="Times,serif" font-size="14.00">13</text>
</g>
<!-- 11&#45;&gt;13 -->
<g id="edge21" class="edge">
<title>11&#45;&gt;13</title>
<path fill="none" stroke="black" d="M476.26,-345.77C474.51,-326.32 471.8,-296.09 469.76,-273.39"/>
<polygon fill="black" stroke="black" points="473.25,-273.13 468.87,-263.49 466.28,-273.76 473.25,-273.13"/>
<text text-anchor="middle" x="477.5" y="-298.87" font-family="Times,serif" font-size="14.00">0</text>
</g>
<!-- 14 -->
<g id="node16" class="node">
<title>14</title>
<ellipse fill="none" stroke="black" cx="525" cy="-241.66" rx="20.13" ry="20.13"/>
<text text-anchor="middle" x="525" y="-236.61" font-family="Times,serif" font-size="14.00">14</text>
</g>
<!-- 11&#45;&gt;14 -->
<g id="edge20" class="edge">
<title>11&#45;&gt;14</title>
<path fill="none" stroke="black" d="M485.04,-346.84C492.69,-326.87 505.04,-294.69 513.99,-271.37"/>
<polygon fill="black" stroke="black" points="517.21,-272.73 517.53,-262.14 510.68,-270.22 517.21,-272.73"/>
<text text-anchor="middle" x="511.83" y="-298.87" font-family="Times,serif" font-size="14.00">n</text>
</g>
<!-- 12 -->
<g id="node14" class="node">
<title>12</title>
<ellipse fill="none" stroke="black" cx="420" cy="-40.13" rx="20.13" ry="20.13"/>
<ellipse fill="none" stroke="black" cx="420" cy="-40.13" rx="24.13" ry="24.13"/>
<text text-anchor="middle" x="420" y="-35.08" font-family="Times,serif" font-size="14.00">12</text>
</g>
<!-- 13&#45;&gt;15 -->
<g id="edge23" class="edge">
<title>13&#45;&gt;15</title>
<path fill="none" stroke="black" d="M452.57,-227.17C446.58,-221.64 439.51,-215.21 433,-209.52 427.77,-204.96 424,-205.79 421,-199.52 417.03,-191.24 415.78,-181.49 415.81,-172.39"/>
<polygon fill="black" stroke="black" points="419.3,-172.67 416.37,-162.48 412.31,-172.27 419.3,-172.67"/>
<text text-anchor="middle" x="446.5" y="-186.22" font-family="Times,serif" font-size="14.00">apostrofo</text>
</g>
<!-- 14&#45;&gt;15 -->
<g id="edge22" class="edge">
<title>14&#45;&gt;15</title>
<path fill="none" stroke="black" d="M512.53,-225.85C502.15,-213.83 486.74,-196.71 472,-183.02 463.57,-175.2 453.81,-167.22 445.03,-160.4"/>
<polygon fill="black" stroke="black" points="447.28,-157.71 437.21,-154.43 443.03,-163.28 447.28,-157.71"/>
<text text-anchor="middle" x="512.81" y="-186.22" font-family="Times,serif" font-size="14.00">apostrofo</text>
</g>
<!-- 15&#45;&gt;12 -->
<g id="edge19" class="edge">
<title>15&#45;&gt;12</title>
<path fill="none" stroke="black" d="M420,-120.38C420,-107.69 420,-90.8 420,-75.86"/>
<polygon fill="black" stroke="black" points="423.5,-75.94 420,-65.94 416.5,-75.94 423.5,-75.94"/>
<text text-anchor="middle" x="437.62" y="-85.46" font-family="Times,serif" font-size="14.00">outro*</text>
</g>
<!-- 17 -->
<g id="node19" class="node">
<title>17</title>
<ellipse fill="none" stroke="black" cx="610" cy="-241.66" rx="20.13" ry="20.13"/>
<text text-anchor="middle" x="610" y="-236.61" font-family="Times,serif" font-size="14.00">17</text>
</g>
<!-- 16&#45;&gt;17 -->
<g id="edge25" class="edge">
<title>16&#45;&gt;17</title>
<path fill="none" stroke="black" d="M636.41,-476.04C622.74,-464.08 603.82,-444.63 595.75,-422.81 577.04,-372.23 589.88,-308.35 600.34,-271.83"/>
<polygon fill="black" stroke="black" points="603.63,-273.03 603.17,-262.44 596.93,-271.01 603.63,-273.03"/>
<text text-anchor="middle" x="610.38" y="-361.13" font-family="Times,serif" font-size="14.00">aspas</text>
</g>
<!-- 19 -->
<g id="node21" class="node">
<title>19</title>
<ellipse fill="none" stroke="black" cx="654" cy="-366.18" rx="20.13" ry="20.13"/>
<text text-anchor="middle" x="654" y="-361.13" font-family="Times,serif" font-size="14.00">19</text>
</g>
<!-- 16&#45;&gt;19 -->
<g id="edge26" class="edge">
<title>16&#45;&gt;19</title>
<path fill="none" stroke="black" d="M652.32,-468.96C652.64,-449.78 653.13,-420.19 653.49,-397.85"/>
<polygon fill="black" stroke="black" points="656.99,-398.18 653.65,-388.13 649.99,-398.07 656.99,-398.18"/>
<text text-anchor="middle" x="659.32" y="-434.01" font-family="Times,serif" font-size="14.00">ch</text>
</g>
<!-- 18 -->
<g id="node20" class="node">
<title>18</title>
<ellipse fill="none" stroke="black" cx="610" cy="-140.89" rx="20.13" ry="20.13"/>
<ellipse fill="none" stroke="black" cx="610" cy="-140.89" rx="24.13" ry="24.13"/>
<text text-anchor="middle" x="610" y="-135.84" font-family="Times,serif" font-size="14.00">18</text>
</g>
<!-- 17&#45;&gt;18 -->
<g id="edge27" class="edge">
<title>17&#45;&gt;18</title>
<path fill="none" stroke="black" d="M610,-221.14C610,-208.46 610,-191.56 610,-176.62"/>
<polygon fill="black" stroke="black" points="613.5,-176.7 610,-166.7 606.5,-176.7 613.5,-176.7"/>
<text text-anchor="middle" x="627.62" y="-186.22" font-family="Times,serif" font-size="14.00">outro*</text>
</g>
<!-- 19&#45;&gt;17 -->
<g id="edge28" class="edge">
<title>19&#45;&gt;17</title>
<path fill="none" stroke="black" d="M647.41,-346.84C640.28,-326.99 628.82,-295.06 620.46,-271.77"/>
<polygon fill="black" stroke="black" points="623.82,-270.78 617.14,-262.55 617.23,-273.14 623.82,-270.78"/>
<text text-anchor="middle" x="653.14" y="-298.87" font-family="Times,serif" font-size="14.00">aspas</text>
</g>
<!-- 21 -->
<g id="node23" class="node">
<title>21</title>
<ellipse fill="none" stroke="black" cx="797" cy="-366.18" rx="20.13" ry="20.13"/>
<text text-anchor="middle" x="797" y="-361.13" font-family="Times,serif" font-size="14.00">21</text>
</g>
<!-- 20&#45;&gt;21 -->
<g id="edge30" class="edge">
<title>20&#45;&gt;21</title>
<path fill="none" stroke="black" d="M721.35,-472.46C725.56,-467.23 730.63,-461.65 736,-457.31 743.42,-451.31 748.26,-454.06 755,-447.31 769.38,-432.9 779.97,-412.55 786.91,-395.95"/>
<polygon fill="black" stroke="black" points="789.99,-397.69 790.4,-387.1 783.48,-395.13 789.99,-397.69"/>
<text text-anchor="middle" x="781.38" y="-434.01" font-family="Times,serif" font-size="14.00">barra</text>
</g>
<!-- 26 -->
<g id="node28" class="node">
<title>26</title>
<ellipse fill="none" stroke="black" cx="722" cy="-366.18" rx="20.13" ry="20.13"/>
<ellipse fill="none" stroke="black" cx="722" cy="-366.18" rx="24.13" ry="24.13"/>
<text text-anchor="middle" x="722" y="-361.13" font-family="Times,serif" font-size="14.00">26</text>
</g>
<!-- 20&#45;&gt;26 -->
<g id="edge36" class="edge">
<title>20&#45;&gt;26</title>
<path fill="none" stroke="black" d="M711.93,-468.96C713.72,-450.88 716.42,-423.57 718.58,-401.78"/>
<polygon fill="black" stroke="black" points="722.06,-402.15 719.56,-391.85 715.09,-401.46 722.06,-402.15"/>
<text text-anchor="middle" x="733.27" y="-434.01" font-family="Times,serif" font-size="14.00">outro*</text>
</g>
<!-- 21&#45;&gt;21 -->
<g id="edge31" class="edge">
<title>21&#45;&gt;21</title>
<path fill="none" stroke="black" d="M814.25,-377.03C824.95,-379.65 835.13,-376.03 835.13,-366.18 835.13,-360.02 831.15,-356.3 825.56,-355.02"/>
<polygon fill="black" stroke="black" points="825.67,-351.51 815.77,-355.29 825.86,-358.51 825.67,-351.51"/>
<text text-anchor="middle" x="852.76" y="-361.13" font-family="Times,serif" font-size="14.00">outro*</text>
</g>
<!-- 22 -->
<g id="node24" class="node">
<title>22</title>
<ellipse fill="none" stroke="black" cx="801" cy="-241.66" rx="20.13" ry="20.13"/>
<ellipse fill="none" stroke="black" cx="801" cy="-241.66" rx="24.13" ry="24.13"/>
<text text-anchor="middle" x="801" y="-236.61" font-family="Times,serif" font-size="14.00">22</text>
</g>
<!-- 21&#45;&gt;22 -->
<g id="edge32" class="edge">
<title>21&#45;&gt;22</title>
<path fill="none" stroke="black" d="M797.63,-345.77C798.23,-327.46 799.14,-299.61 799.86,-277.47"/>
<polygon fill="black" stroke="black" points="803.35,-277.79 800.18,-267.68 796.36,-277.56 803.35,-277.79"/>
<text text-anchor="middle" x="804.84" y="-298.87" font-family="Times,serif" font-size="14.00">\n</text>
</g>
<!-- 33 -->
<g id="node35" class="node">
<title>33</title>
<ellipse fill="none" stroke="black" cx="1549" cy="-366.18" rx="20.13" ry="20.13"/>
<ellipse fill="none" stroke="black" cx="1549" cy="-366.18" rx="24.13" ry="24.13"/>
<text text-anchor="middle" x="1549" y="-361.13" font-family="Times,serif" font-size="14.00">33</text>
</g>
<!-- 32&#45;&gt;33 -->
<g id="edge43" class="edge">
<title>32&#45;&gt;33</title>
<path fill="none" stroke="black" d="M1673.6,-471.94C1669.78,-466.79 1665.12,-461.39 1660,-457.31 1631.3,-434.45 1612.73,-446.83 1585,-422.81 1577.1,-415.97 1570.28,-406.98 1564.76,-398.23"/>
<polygon fill="black" stroke="black" points="1567.94,-396.74 1559.86,-389.88 1561.9,-400.28 1567.94,-396.74"/>
<text text-anchor="middle" x="1647.97" y="-434.01" font-family="Times,serif" font-size="14.00">=</text>
</g>
<!-- 34 -->
<g id="node36" class="node">
<title>34</title>
<ellipse fill="none" stroke="black" cx="1430" cy="-366.18" rx="20.13" ry="20.13"/>
<ellipse fill="none" stroke="black" cx="1430" cy="-366.18" rx="24.13" ry="24.13"/>
<text text-anchor="middle" x="1430" y="-361.13" font-family="Times,serif" font-size="14.00">34</text>
</g>
<!-- 32&#45;&gt;34 -->
<g id="edge44" class="edge">
<title>32&#45;&gt;34</title>
<path fill="none" stroke="black" d="M1674.55,-471.2C1670.74,-465.87 1665.85,-460.55 1660,-457.31 1639.83,-446.15 1579.43,-451.44 1556.75,-447.31 1515.65,-439.83 1499.76,-447.43 1466,-422.81 1457.42,-416.56 1450.35,-407.58 1444.82,-398.66"/>
<polygon fill="black" stroke="black" points="1447.93,-397.06 1439.96,-390.08 1441.84,-400.51 1447.93,-397.06"/>
<text text-anchor="middle" x="1574.38" y="-434.01" font-family="Times,serif" font-size="14.00">outro*</text>
</g>
<!-- 36 -->
<g id="node38" class="node">
<title>36</title>
<ellipse fill="none" stroke="black" cx="1739" cy="-366.18" rx="20.13" ry="20.13"/>
<ellipse fill="none" stroke="black" cx="1739" cy="-366.18" rx="24.13" ry="24.13"/>
<text text-anchor="middle" x="1739" y="-361.13" font-family="Times,serif" font-size="14.00">36</text>
</g>
<!-- 35&#45;&gt;36 -->
<g id="edge46" class="edge">
<title>35&#45;&gt;36</title>
<path fill="none" stroke="black" d="M1741.52,-468.96C1741.07,-451 1740.4,-423.91 1739.87,-402.19"/>
<polygon fill="black" stroke="black" points="1743.37,-402.2 1739.62,-392.29 1736.37,-402.37 1743.37,-402.2"/>
<text text-anchor="middle" x="1746.57" y="-434.01" font-family="Times,serif" font-size="14.00">&amp;</text>
</g>
<!-- 37 -->
<g id="node39" class="node">
<title>37</title>
<ellipse fill="none" stroke="black" cx="1656" cy="-366.18" rx="20.13" ry="20.13"/>
<ellipse fill="none" stroke="black" cx="1656" cy="-366.18" rx="24.13" ry="24.13"/>
<text text-anchor="middle" x="1656" y="-361.13" font-family="Times,serif" font-size="14.00">37</text>
</g>
<!-- 35&#45;&gt;37 -->
<g id="edge47" class="edge">
<title>35&#45;&gt;37</title>
<path fill="none" stroke="black" d="M1728.99,-473.92C1724.09,-468.59 1718.39,-462.58 1713,-457.31 1708.21,-452.64 1705.96,-452.51 1701.75,-447.31 1689.7,-432.45 1678.93,-414.02 1670.88,-398.57"/>
<polygon fill="black" stroke="black" points="1674.07,-397.14 1666.43,-389.79 1667.83,-400.3 1674.07,-397.14"/>
<text text-anchor="middle" x="1719.38" y="-434.01" font-family="Times,serif" font-size="14.00">outro*</text>
</g>
<!-- 39 -->
<g id="node41" class="node">
<title>39</title>
<ellipse fill="none" stroke="black" cx="1811" cy="-366.18" rx="20.13" ry="20.13"/>
<ellipse fill="none" stroke="black" cx="1811" cy="-366.18" rx="24.13" ry="24.13"/>
<text text-anchor="middle" x="1811" y="-361.13" font-family="Times,serif" font-size="14.00">39</text>
</g>
<!-- 38&#45;&gt;39 -->
<g id="edge49" class="edge">
<title>38&#45;&gt;39</title>
<path fill="none" stroke="black" d="M1807.64,-468.96C1808.24,-451 1809.13,-423.91 1809.85,-402.19"/>
<polygon fill="black" stroke="black" points="1813.34,-402.4 1810.17,-392.29 1806.34,-402.17 1813.34,-402.4"/>
<text text-anchor="middle" x="1810.38" y="-434.01" font-family="Times,serif" font-size="14.00">|</text>
</g>
<!-- 41 -->
<g id="node43" class="node">
<title>41</title>
<ellipse fill="none" stroke="black" cx="1978" cy="-366.18" rx="20.13" ry="20.13"/>
<ellipse fill="none" stroke="black" cx="1978" cy="-366.18" rx="24.13" ry="24.13"/>
<text text-anchor="middle" x="1978" y="-361.13" font-family="Times,serif" font-size="14.00">41</text>
</g>
<!-- 40&#45;&gt;41 -->
<g id="edge51" class="edge">
<title>40&#45;&gt;41</title>
<path fill="none" stroke="black" d="M1920.74,-475.45C1928.71,-467.84 1938.26,-457.72 1945,-447.31 1954.32,-432.92 1961.88,-415.46 1967.4,-400.52"/>
<polygon fill="black" stroke="black" points="1970.7,-401.7 1970.72,-391.11 1964.1,-399.38 1970.7,-401.7"/>
<text text-anchor="middle" x="1958.48" y="-434.01" font-family="Times,serif" font-size="14.00">=</text>
</g>
<!-- 42 -->
<g id="node44" class="node">
<title>42</title>
<ellipse fill="none" stroke="black" cx="1906" cy="-366.18" rx="20.13" ry="20.13"/>
<ellipse fill="none" stroke="black" cx="1906" cy="-366.18" rx="24.13" ry="24.13"/>
<text text-anchor="middle" x="1906" y="-361.13" font-family="Times,serif" font-size="14.00">42</text>
</g>
<!-- 40&#45;&gt;42 -->
<g id="edge52" class="edge">
<title>40&#45;&gt;42</title>
<path fill="none" stroke="black" d="M1906,-468.96C1906,-451 1906,-423.91 1906,-402.19"/>
<polygon fill="black" stroke="black" points="1909.5,-402.29 1906,-392.29 1902.5,-402.29 1909.5,-402.29"/>
<text text-anchor="middle" x="1923.62" y="-434.01" font-family="Times,serif" font-size="14.00">outro*</text>
</g>
<!-- 44 -->
<g id="node46" class="node">
<title>44</title>
<ellipse fill="none" stroke="black" cx="2165" cy="-366.18" rx="20.13" ry="20.13"/>
<ellipse fill="none" stroke="black" cx="2165" cy="-366.18" rx="24.13" ry="24.13"/>
<text text-anchor="middle" x="2165" y="-361.13" font-family="Times,serif" font-size="14.00">44</text>
</g>
<!-- 43&#45;&gt;44 -->
<g id="edge54" class="edge">
<title>43&#45;&gt;44</title>
<path fill="none" stroke="black" d="M2107.74,-475.45C2115.71,-467.84 2125.26,-457.72 2132,-447.31 2141.32,-432.92 2148.88,-415.46 2154.4,-400.52"/>
<polygon fill="black" stroke="black" points="2157.7,-401.7 2157.72,-391.11 2151.1,-399.38 2157.7,-401.7"/>
<text text-anchor="middle" x="2145.48" y="-434.01" font-family="Times,serif" font-size="14.00">=</text>
</g>
<!-- 45 -->
<g id="node47" class="node">
<title>45</title>
<ellipse fill="none" stroke="black" cx="2093" cy="-366.18" rx="20.13" ry="20.13"/>
<ellipse fill="none" stroke="black" cx="2093" cy="-366.18" rx="24.13" ry="24.13"/>
<text text-anchor="middle" x="2093" y="-361.13" font-family="Times,serif" font-size="14.00">45</text>
</g>
<!-- 43&#45;&gt;45 -->
<g id="edge55" class="edge">
<title>43&#45;&gt;45</title>
<path fill="none" stroke="black" d="M2093,-468.96C2093,-451 2093,-423.91 2093,-402.19"/>
<polygon fill="black" stroke="black" points="2096.5,-402.29 2093,-392.29 2089.5,-402.29 2096.5,-402.29"/>
<text text-anchor="middle" x="2110.62" y="-434.01" font-family="Times,serif" font-size="14.00">outro*</text>
</g>
<!-- 47 -->
<g id="node49" class="node">
<title>47</title>
<ellipse fill="none" stroke="black" cx="2366" cy="-366.18" rx="20.13" ry="20.13"/>
<ellipse fill="none" stroke="black" cx="2366" cy="-366.18" rx="24.13" ry="24.13"/>
<text text-anchor="middle" x="2366" y="-361.13" font-family="Times,serif" font-size="14.00">47</text>
</g>
<!-- 46&#45;&gt;47 -->
<g id="edge57" class="edge">
<title>46&#45;&gt;47</title>
<path fill="none" stroke="black" d="M2298.34,-475.17C2306.18,-467.48 2315.74,-457.36 2323,-447.31 2333.97,-432.13 2344,-413.81 2351.62,-398.52"/>
<polygon fill="black" stroke="black" points="2354.6,-400.39 2355.82,-389.86 2348.31,-397.33 2354.6,-400.39"/>
<text text-anchor="middle" x="2336.77" y="-434.01" font-family="Times,serif" font-size="14.00">=</text>
</g>
<!-- 48 -->
<g id="node50" class="node">
<title>48</title>
<ellipse fill="none" stroke="black" cx="2284" cy="-366.18" rx="20.13" ry="20.13"/>
<ellipse fill="none" stroke="black" cx="2284" cy="-366.18" rx="24.13" ry="24.13"/>
<text text-anchor="middle" x="2284" y="-361.13" font-family="Times,serif" font-size="14.00">48</text>
</g>
<!-- 46&#45;&gt;48 -->
<g id="edge58" class="edge">
<title>46&#45;&gt;48</title>
<path fill="none" stroke="black" d="M2284,-468.96C2284,-451 2284,-423.91 2284,-402.19"/>
<polygon fill="black" stroke="black" points="2287.5,-402.29 2284,-392.29 2280.5,-402.29 2287.5,-402.29"/>
<text text-anchor="middle" x="2301.62" y="-434.01" font-family="Times,serif" font-size="14.00">outro*</text>
</g>
</g>
</svg>
