<?xml version="1.0" encoding="UTF-8" standalone="no"?>
<!DOCTYPE svg PUBLIC "-//W3C//DTD SVG 1.1//EN"
 "http://www.w3.org/Graphics/SVG/1.1/DTD/svg11.dtd">
<!-- Generated by graphviz version 12.1.2 (0)
 -->
<!-- Pages: 1 -->
<svg width="1748pt" height="746pt"
 viewBox="0.00 0.00 1748.45 746.07" xmlns="http://www.w3.org/2000/svg" xmlns:xlink="http://www.w3.org/1999/xlink">
<g id="graph0" class="graph" transform="scale(1 1) rotate(0) translate(4 742.07)">
<polygon fill="white" stroke="none" points="-4,4 -4,-742.07 1744.45,-742.07 1744.45,4 -4,4"/>
<g id="clust1" class="cluster">
<title>cluster_start</title>
<polygon fill="none" stroke="black" points="857.45,-580.57 857.45,-730.07 1012.45,-730.07 1012.45,-580.57 857.45,-580.57"/>
<text text-anchor="middle" x="934.95" y="-712.77" font-family="Times,serif" font-size="14.00">INICIO</text>
</g>
<g id="clust2" class="cluster">
<title>cluster_id</title>
<polygon fill="#dd8855" stroke="#dd8855" points="41.45,-211.66 41.45,-539.94 157.45,-539.94 157.45,-211.66 41.45,-211.66"/>
<text text-anchor="middle" x="99.45" y="-522.64" font-family="Times,serif" font-size="14.00">ID</text>
</g>
<g id="clust3" class="cluster">
<title>cluster_intcon</title>
<polygon fill="#ffaaff" stroke="#ffaaff" points="275.45,-336.18 275.45,-539.94 377.45,-539.94 377.45,-336.18 275.45,-336.18"/>
<text text-anchor="middle" x="326.45" y="-522.64" font-family="Times,serif" font-size="14.00">INTCON</text>
</g>
<g id="clust4" class="cluster">
<title>cluster_realcon</title>
<polygon fill="#8888dd" stroke="#8888dd" points="165.45,-110.89 165.45,-416.68 267.45,-416.68 267.45,-110.89 165.45,-110.89"/>
<text text-anchor="middle" x="216.45" y="-399.38" font-family="Times,serif" font-size="14.00">REALCON</text>
</g>
<g id="clust5" class="cluster">
<title>cluster_charcon</title>
<polygon fill="#88dd88" stroke="#88dd88" points="385.45,-8 385.45,-539.94 629.45,-539.94 629.45,-8 385.45,-8"/>
<text text-anchor="middle" x="507.45" y="-522.64" font-family="Times,serif" font-size="14.00">CHARCON</text>
</g>
<g id="clust6" class="cluster">
<title>cluster_stringcon</title>
<polygon fill="#dd8888" stroke="#dd8888" points="637.45,-108.76 637.45,-542.07 758.45,-542.07 758.45,-108.76 637.45,-108.76"/>
<text text-anchor="middle" x="697.95" y="-524.77" font-family="Times,serif" font-size="14.00">STRINGCON</text>
</g>
<g id="clust7" class="cluster">
<title>cluster_comentario</title>
<polygon fill="#dddd88" stroke="#dddd88" points="766.45,-209.52 766.45,-418.81 875.45,-418.81 875.45,-209.52 766.45,-209.52"/>
<text text-anchor="middle" x="820.95" y="-401.51" font-family="Times,serif" font-size="14.00">COMENTARIO</text>
</g>
<g id="clust8" class="cluster">
<title>cluster_mais</title>
<polygon fill="lightgrey" stroke="black" points="816.45,-457.31 816.45,-546.07 880.45,-546.07 880.45,-457.31 816.45,-457.31"/>
<text text-anchor="middle" x="848.45" y="-528.77" font-family="Times,serif" font-size="14.00">MAIS</text>
</g>
<g id="clust9" class="cluster">
<title>cluster_menos</title>
<polygon fill="lightgrey" stroke="black" points="888.45,-457.31 888.45,-546.07 952.45,-546.07 952.45,-457.31 888.45,-457.31"/>
<text text-anchor="middle" x="920.45" y="-528.77" font-family="Times,serif" font-size="14.00">MENOS</text>
</g>
<g id="clust10" class="cluster">
<title>cluster_multiplicacao</title>
<polygon fill="lightgrey" stroke="black" points="960.45,-457.31 960.45,-546.07 1086.45,-546.07 1086.45,-457.31 960.45,-457.31"/>
<text text-anchor="middle" x="1023.45" y="-528.77" font-family="Times,serif" font-size="14.00">MULTIPLICACAO</text>
</g>
<g id="clust11" class="cluster">
<title>cluster_divisao</title>
<polygon fill="lightgrey" stroke="black" points="883.45,-334.05 883.45,-422.81 954.45,-422.81 954.45,-334.05 883.45,-334.05"/>
<text text-anchor="middle" x="918.95" y="-405.51" font-family="Times,serif" font-size="14.00">DIVISAO</text>
</g>
<g id="clust12" class="cluster">
<title>cluster_abreparenteses</title>
<polygon fill="lightgrey" stroke="black" points="1094.45,-457.31 1094.45,-546.07 1229.45,-546.07 1229.45,-457.31 1094.45,-457.31"/>
<text text-anchor="middle" x="1161.95" y="-528.77" font-family="Times,serif" font-size="14.00">ABREPARENTESES</text>
</g>
<g id="clust13" class="cluster">
<title>cluster_fechaparenteses</title>
<polygon fill="lightgrey" stroke="black" points="1237.45,-457.31 1237.45,-546.07 1380.45,-546.07 1380.45,-457.31 1237.45,-457.31"/>
<text text-anchor="middle" x="1308.95" y="-528.77" font-family="Times,serif" font-size="14.00">FECHAPARENTESES</text>
</g>
<g id="clust14" class="cluster">
<title>cluster_abrecolchete</title>
<polygon fill="lightgrey" stroke="black" points="1388.45,-457.31 1388.45,-546.07 1510.45,-546.07 1510.45,-457.31 1388.45,-457.31"/>
<text text-anchor="middle" x="1449.45" y="-528.77" font-family="Times,serif" font-size="14.00">ABRECOLCHETE</text>
</g>
<g id="clust15" class="cluster">
<title>cluster_fechacolchete</title>
<polygon fill="lightgrey" stroke="black" points="1518.45,-457.31 1518.45,-546.07 1648.45,-546.07 1648.45,-457.31 1518.45,-457.31"/>
<text text-anchor="middle" x="1583.45" y="-528.77" font-family="Times,serif" font-size="14.00">FECHACOLCHETE</text>
</g>
<g id="clust16" class="cluster">
<title>cluster_virgula</title>
<polygon fill="lightgrey" stroke="black" points="1656.45,-457.31 1656.45,-546.07 1732.45,-546.07 1732.45,-457.31 1656.45,-457.31"/>
<text text-anchor="middle" x="1694.45" y="-528.77" font-family="Times,serif" font-size="14.00">VIRGULA</text>
</g>
<!-- Inicio -->
<g id="node1" class="node">
<title>Inicio</title>
</g>
<!-- 0 -->
<g id="node2" class="node">
<title>0</title>
<ellipse fill="none" stroke="black" cx="883.45" cy="-606.57" rx="18" ry="18"/>
<text text-anchor="middle" x="883.45" y="-601.52" font-family="Times,serif" font-size="14.00">0</text>
</g>
<!-- Inicio&#45;&gt;0 -->
<g id="edge1" class="edge">
<title>Inicio&#45;&gt;0</title>
<path fill="none" stroke="black" d="M890.32,-661.75C889.35,-654.08 888.17,-644.79 887.07,-636.08"/>
<polygon fill="black" stroke="black" points="890.55,-635.75 885.82,-626.27 883.61,-636.63 890.55,-635.75"/>
</g>
<!-- 0&#45;&gt;0 -->
<g id="edge2" class="edge">
<title>0&#45;&gt;0</title>
<path fill="none" stroke="black" d="M900.49,-613.04C910.31,-614.36 919.45,-612.21 919.45,-606.57 919.45,-603.32 916.4,-601.22 911.92,-600.29"/>
<polygon fill="black" stroke="black" points="912.06,-596.79 902,-600.13 911.95,-603.79 912.06,-596.79"/>
<text text-anchor="middle" x="961.83" y="-601.52" font-family="Times,serif" font-size="14.00">Tab, Espaco, \n</text>
</g>
<!-- 1 -->
<g id="node3" class="node">
<title>1</title>
<ellipse fill="none" stroke="black" cx="67.45" cy="-489.44" rx="18" ry="18"/>
<text text-anchor="middle" x="67.45" y="-484.39" font-family="Times,serif" font-size="14.00">1</text>
</g>
<!-- 0&#45;&gt;1 -->
<g id="edge3" class="edge">
<title>0&#45;&gt;1</title>
<path fill="none" stroke="black" d="M865.28,-605.65C798,-605.66 556.89,-603.28 361.7,-570.57 320.71,-563.7 311.56,-556.99 271.45,-546.07 208.86,-529.04 135.47,-509.01 96.02,-498.24"/>
<polygon fill="black" stroke="black" points="96.95,-494.87 86.38,-495.61 95.1,-501.62 96.95,-494.87"/>
<text text-anchor="middle" x="384.58" y="-557.27" font-family="Times,serif" font-size="14.00">sublinha</text>
</g>
<!-- 2 -->
<g id="node4" class="node">
<title>2</title>
<ellipse fill="none" stroke="black" cx="67.45" cy="-366.18" rx="18" ry="18"/>
<text text-anchor="middle" x="67.45" y="-361.13" font-family="Times,serif" font-size="14.00">2</text>
</g>
<!-- 0&#45;&gt;2 -->
<g id="edge5" class="edge">
<title>0&#45;&gt;2</title>
<path fill="none" stroke="black" d="M865.15,-605.79C745.33,-607.01 75.82,-610.88 16.45,-546.07 -24.4,-501.48 21.81,-426.4 49.56,-389.3"/>
<polygon fill="black" stroke="black" points="52.23,-391.57 55.56,-381.51 46.69,-387.3 52.23,-391.57"/>
<text text-anchor="middle" x="28.45" y="-484.39" font-family="Times,serif" font-size="14.00">letra</text>
</g>
<!-- 4 -->
<g id="node6" class="node">
<title>4</title>
<ellipse fill="none" stroke="black" cx="301.45" cy="-489.44" rx="18" ry="18"/>
<text text-anchor="middle" x="301.45" y="-484.39" font-family="Times,serif" font-size="14.00">4</text>
</g>
<!-- 0&#45;&gt;4 -->
<g id="edge8" class="edge">
<title>0&#45;&gt;4</title>
<path fill="none" stroke="black" d="M865.14,-604.59C785.96,-600.18 472.94,-580.8 381.45,-546.07 359.71,-537.82 338.25,-522.39 323.04,-509.87"/>
<polygon fill="black" stroke="black" points="325.47,-507.34 315.58,-503.52 320.93,-512.67 325.47,-507.34"/>
<text text-anchor="middle" x="501.58" y="-557.27" font-family="Times,serif" font-size="14.00">digito</text>
</g>
<!-- 9 -->
<g id="node11" class="node">
<title>9</title>
<ellipse fill="none" stroke="black" cx="539.45" cy="-489.44" rx="18" ry="18"/>
<text text-anchor="middle" x="539.45" y="-484.39" font-family="Times,serif" font-size="14.00">9</text>
</g>
<!-- 0&#45;&gt;9 -->
<g id="edge15" class="edge">
<title>0&#45;&gt;9</title>
<path fill="none" stroke="black" d="M865.44,-603.63C823.27,-598.59 715.5,-582.83 633.45,-546.07 608.63,-534.95 582.11,-518.83 563.59,-506.8"/>
<polygon fill="black" stroke="black" points="565.73,-504.01 555.45,-501.43 561.87,-509.86 565.73,-504.01"/>
<text text-anchor="middle" x="724.98" y="-557.27" font-family="Times,serif" font-size="14.00">apostrofo</text>
</g>
<!-- 16 -->
<g id="node18" class="node">
<title>16</title>
<ellipse fill="none" stroke="black" cx="728.45" cy="-489.44" rx="20.13" ry="20.13"/>
<text text-anchor="middle" x="728.45" y="-484.39" font-family="Times,serif" font-size="14.00">16</text>
</g>
<!-- 0&#45;&gt;16 -->
<g id="edge24" class="edge">
<title>0&#45;&gt;16</title>
<path fill="none" stroke="black" d="M865.81,-602.31C838.31,-596.26 785.48,-580.65 757.45,-546.07 750.85,-537.92 745.11,-528.03 740.52,-518.86"/>
<polygon fill="black" stroke="black" points="743.75,-517.5 736.32,-509.95 737.41,-520.49 743.75,-517.5"/>
<text text-anchor="middle" x="797.02" y="-557.27" font-family="Times,serif" font-size="14.00">aspas</text>
</g>
<!-- 20 -->
<g id="node22" class="node">
<title>20</title>
<ellipse fill="none" stroke="black" cx="786.45" cy="-489.44" rx="20.13" ry="20.13"/>
<text text-anchor="middle" x="786.45" y="-484.39" font-family="Times,serif" font-size="14.00">20</text>
</g>
<!-- 0&#45;&gt;20 -->
<g id="edge29" class="edge">
<title>0&#45;&gt;20</title>
<path fill="none" stroke="black" d="M868.38,-596.43C852.43,-586.04 827.54,-567.71 812.45,-546.07 806.73,-537.87 801.71,-528.2 797.65,-519.25"/>
<polygon fill="black" stroke="black" points="800.93,-518.03 793.78,-510.22 794.5,-520.79 800.93,-518.03"/>
<text text-anchor="middle" x="848.29" y="-557.27" font-family="Times,serif" font-size="14.00">barra</text>
</g>
<!-- 23 -->
<g id="node25" class="node">
<title>23</title>
<ellipse fill="none" stroke="black" cx="848.45" cy="-489.44" rx="20.13" ry="20.13"/>
<ellipse fill="none" stroke="black" cx="848.45" cy="-489.44" rx="24.13" ry="24.13"/>
<text text-anchor="middle" x="848.45" y="-484.39" font-family="Times,serif" font-size="14.00">23</text>
</g>
<!-- 0&#45;&gt;23 -->
<g id="edge33" class="edge">
<title>0&#45;&gt;23</title>
<path fill="none" stroke="black" d="M878.44,-589.08C873.28,-572.11 865.1,-545.2 858.59,-523.77"/>
<polygon fill="black" stroke="black" points="861.96,-522.84 855.7,-514.29 855.26,-524.87 861.96,-522.84"/>
<text text-anchor="middle" x="876.26" y="-557.27" font-family="Times,serif" font-size="14.00">+</text>
</g>
<!-- 24 -->
<g id="node26" class="node">
<title>24</title>
<ellipse fill="none" stroke="black" cx="920.45" cy="-489.44" rx="20.13" ry="20.13"/>
<ellipse fill="none" stroke="black" cx="920.45" cy="-489.44" rx="24.13" ry="24.13"/>
<text text-anchor="middle" x="920.45" y="-484.39" font-family="Times,serif" font-size="14.00">24</text>
</g>
<!-- 0&#45;&gt;24 -->
<g id="edge34" class="edge">
<title>0&#45;&gt;24</title>
<path fill="none" stroke="black" d="M888.75,-589.08C894.21,-572.11 902.86,-545.2 909.74,-523.77"/>
<polygon fill="black" stroke="black" points="913.07,-524.87 912.79,-514.28 906.4,-522.73 913.07,-524.87"/>
<text text-anchor="middle" x="901.99" y="-557.27" font-family="Times,serif" font-size="14.00">&#45;</text>
</g>
<!-- 25 -->
<g id="node27" class="node">
<title>25</title>
<ellipse fill="none" stroke="black" cx="992.45" cy="-489.44" rx="20.13" ry="20.13"/>
<ellipse fill="none" stroke="black" cx="992.45" cy="-489.44" rx="24.13" ry="24.13"/>
<text text-anchor="middle" x="992.45" y="-484.39" font-family="Times,serif" font-size="14.00">25</text>
</g>
<!-- 0&#45;&gt;25 -->
<g id="edge35" class="edge">
<title>0&#45;&gt;25</title>
<path fill="none" stroke="black" d="M898.31,-595.58C913.94,-584.62 938.67,-565.92 956.45,-546.07 963.3,-538.44 969.74,-529.38 975.23,-520.81"/>
<polygon fill="black" stroke="black" points="978.15,-522.73 980.41,-512.38 972.19,-519.06 978.15,-522.73"/>
<text text-anchor="middle" x="951" y="-557.27" font-family="Times,serif" font-size="14.00">*</text>
</g>
<!-- 27 -->
<g id="node29" class="node">
<title>27</title>
<ellipse fill="none" stroke="black" cx="1126.45" cy="-489.44" rx="20.13" ry="20.13"/>
<ellipse fill="none" stroke="black" cx="1126.45" cy="-489.44" rx="24.13" ry="24.13"/>
<text text-anchor="middle" x="1126.45" y="-484.39" font-family="Times,serif" font-size="14.00">27</text>
</g>
<!-- 0&#45;&gt;27 -->
<g id="edge37" class="edge">
<title>0&#45;&gt;27</title>
<path fill="none" stroke="black" d="M901.65,-604.56C940.14,-601.59 1031.14,-590.07 1090.45,-546.07 1098.98,-539.75 1106.04,-530.76 1111.58,-521.84"/>
<polygon fill="black" stroke="black" points="1114.55,-523.7 1116.44,-513.27 1108.46,-520.24 1114.55,-523.7"/>
<text text-anchor="middle" x="1078.33" y="-557.27" font-family="Times,serif" font-size="14.00">(</text>
</g>
<!-- 28 -->
<g id="node30" class="node">
<title>28</title>
<ellipse fill="none" stroke="black" cx="1269.45" cy="-489.44" rx="20.13" ry="20.13"/>
<ellipse fill="none" stroke="black" cx="1269.45" cy="-489.44" rx="24.13" ry="24.13"/>
<text text-anchor="middle" x="1269.45" y="-484.39" font-family="Times,serif" font-size="14.00">28</text>
</g>
<!-- 0&#45;&gt;28 -->
<g id="edge38" class="edge">
<title>0&#45;&gt;28</title>
<path fill="none" stroke="black" d="M901.46,-604.41C964.95,-600.03 1177.6,-582.86 1233.45,-546.07 1242.39,-540.19 1249.58,-531.24 1255.12,-522.22"/>
<polygon fill="black" stroke="black" points="1258.17,-523.95 1259.94,-513.51 1252.04,-520.56 1258.17,-523.95"/>
<text text-anchor="middle" x="1215.96" y="-557.27" font-family="Times,serif" font-size="14.00">)</text>
</g>
<!-- 29 -->
<g id="node31" class="node">
<title>29</title>
<ellipse fill="none" stroke="black" cx="1420.45" cy="-489.44" rx="20.13" ry="20.13"/>
<ellipse fill="none" stroke="black" cx="1420.45" cy="-489.44" rx="24.13" ry="24.13"/>
<text text-anchor="middle" x="1420.45" y="-484.39" font-family="Times,serif" font-size="14.00">29</text>
</g>
<!-- 0&#45;&gt;29 -->
<g id="edge39" class="edge">
<title>0&#45;&gt;29</title>
<path fill="none" stroke="black" d="M901.92,-605.5C982.42,-604.89 1302.31,-599.1 1384.45,-546.07 1393.44,-540.27 1400.65,-531.34 1406.19,-522.32"/>
<polygon fill="black" stroke="black" points="1409.24,-524.04 1411,-513.59 1403.11,-520.66 1409.24,-524.04"/>
<text text-anchor="middle" x="1366.53" y="-557.27" font-family="Times,serif" font-size="14.00">[</text>
</g>
<!-- 30 -->
<g id="node32" class="node">
<title>30</title>
<ellipse fill="none" stroke="black" cx="1550.45" cy="-489.44" rx="20.13" ry="20.13"/>
<ellipse fill="none" stroke="black" cx="1550.45" cy="-489.44" rx="24.13" ry="24.13"/>
<text text-anchor="middle" x="1550.45" y="-484.39" font-family="Times,serif" font-size="14.00">30</text>
</g>
<!-- 0&#45;&gt;30 -->
<g id="edge40" class="edge">
<title>0&#45;&gt;30</title>
<path fill="none" stroke="black" d="M901.72,-604.92C966.27,-602.48 1189.53,-592.84 1372.45,-570.57 1436.03,-562.83 1461.01,-581.37 1514.45,-546.07 1523.38,-540.18 1530.57,-531.22 1536.11,-522.21"/>
<polygon fill="black" stroke="black" points="1539.16,-523.94 1540.94,-513.5 1533.03,-520.55 1539.16,-523.94"/>
<text text-anchor="middle" x="1501.46" y="-557.27" font-family="Times,serif" font-size="14.00">]</text>
</g>
<!-- 31 -->
<g id="node33" class="node">
<title>31</title>
<ellipse fill="none" stroke="black" cx="1688.45" cy="-489.44" rx="20.13" ry="20.13"/>
<ellipse fill="none" stroke="black" cx="1688.45" cy="-489.44" rx="24.13" ry="24.13"/>
<text text-anchor="middle" x="1688.45" y="-484.39" font-family="Times,serif" font-size="14.00">31</text>
</g>
<!-- 0&#45;&gt;31 -->
<g id="edge41" class="edge">
<title>0&#45;&gt;31</title>
<path fill="none" stroke="black" d="M901.89,-605.29C977.26,-603.97 1269.16,-597.3 1507.45,-570.57 1572.4,-563.29 1597.85,-582 1652.45,-546.07 1661.39,-540.19 1668.59,-531.24 1674.13,-522.23"/>
<polygon fill="black" stroke="black" points="1677.17,-523.96 1678.95,-513.51 1671.04,-520.57 1677.17,-523.96"/>
<text text-anchor="middle" x="1638.75" y="-557.27" font-family="Times,serif" font-size="14.00">,</text>
</g>
<!-- 1&#45;&gt;1 -->
<g id="edge4" class="edge">
<title>1&#45;&gt;1</title>
<path fill="none" stroke="black" d="M83.37,-498.14C93.6,-500.41 103.45,-497.51 103.45,-489.44 103.45,-484.53 99.8,-481.53 94.62,-480.45"/>
<polygon fill="black" stroke="black" points="94.79,-476.94 84.88,-480.7 94.97,-483.94 94.79,-476.94"/>
<text text-anchor="middle" x="126.33" y="-484.39" font-family="Times,serif" font-size="14.00">sublinha</text>
</g>
<!-- 1&#45;&gt;2 -->
<g id="edge6" class="edge">
<title>1&#45;&gt;2</title>
<path fill="none" stroke="black" d="M67.45,-471.07C67.45,-451.44 67.45,-419.19 67.45,-395.82"/>
<polygon fill="black" stroke="black" points="70.95,-396.04 67.45,-386.04 63.95,-396.04 70.95,-396.04"/>
<text text-anchor="middle" x="79.45" y="-434.01" font-family="Times,serif" font-size="14.00">letra</text>
</g>
<!-- 3 -->
<g id="node5" class="node">
<title>3</title>
<ellipse fill="none" stroke="black" cx="71.45" cy="-241.66" rx="18" ry="18"/>
<ellipse fill="none" stroke="black" cx="71.45" cy="-241.66" rx="22" ry="22"/>
<text text-anchor="middle" x="71.45" y="-236.61" font-family="Times,serif" font-size="14.00">3</text>
</g>
<!-- 2&#45;&gt;3 -->
<g id="edge7" class="edge">
<title>2&#45;&gt;3</title>
<path fill="none" stroke="black" d="M68.02,-347.89C68.63,-329.12 69.62,-298.73 70.38,-275.42"/>
<polygon fill="black" stroke="black" points="73.88,-275.6 70.71,-265.49 66.88,-275.37 73.88,-275.6"/>
<text text-anchor="middle" x="87.67" y="-298.87" font-family="Times,serif" font-size="14.00">outro*</text>
</g>
<!-- 4&#45;&gt;4 -->
<g id="edge9" class="edge">
<title>4&#45;&gt;4</title>
<path fill="none" stroke="black" d="M317.37,-498.14C327.6,-500.41 337.45,-497.51 337.45,-489.44 337.45,-484.53 333.8,-481.53 328.62,-480.45"/>
<polygon fill="black" stroke="black" points="328.79,-476.94 318.88,-480.7 328.97,-483.94 328.79,-476.94"/>
<text text-anchor="middle" x="353.2" y="-484.39" font-family="Times,serif" font-size="14.00">digito</text>
</g>
<!-- 5 -->
<g id="node7" class="node">
<title>5</title>
<ellipse fill="none" stroke="black" cx="305.45" cy="-366.18" rx="18" ry="18"/>
<ellipse fill="none" stroke="black" cx="305.45" cy="-366.18" rx="22" ry="22"/>
<text text-anchor="middle" x="305.45" y="-361.13" font-family="Times,serif" font-size="14.00">5</text>
</g>
<!-- 4&#45;&gt;5 -->
<g id="edge10" class="edge">
<title>4&#45;&gt;5</title>
<path fill="none" stroke="black" d="M302.03,-471.07C302.64,-452.55 303.62,-422.81 304.37,-399.88"/>
<polygon fill="black" stroke="black" points="307.87,-400.23 304.7,-390.12 300.87,-400 307.87,-400.23"/>
<text text-anchor="middle" x="320.96" y="-434.01" font-family="Times,serif" font-size="14.00">outro*</text>
</g>
<!-- 6 -->
<g id="node8" class="node">
<title>6</title>
<ellipse fill="none" stroke="black" cx="225.45" cy="-366.18" rx="18" ry="18"/>
<text text-anchor="middle" x="225.45" y="-361.13" font-family="Times,serif" font-size="14.00">6</text>
</g>
<!-- 4&#45;&gt;6 -->
<g id="edge11" class="edge">
<title>4&#45;&gt;6</title>
<path fill="none" stroke="black" d="M289.8,-475.63C282.95,-467.77 274.35,-457.31 267.7,-447.31 256.25,-430.07 245.41,-409.37 237.57,-393.33"/>
<polygon fill="black" stroke="black" points="240.79,-391.94 233.31,-384.44 234.48,-394.97 240.79,-391.94"/>
<text text-anchor="middle" x="283.08" y="-434.01" font-family="Times,serif" font-size="14.00">ponto</text>
</g>
<!-- 7 -->
<g id="node9" class="node">
<title>7</title>
<ellipse fill="none" stroke="black" cx="191.45" cy="-241.66" rx="18" ry="18"/>
<text text-anchor="middle" x="191.45" y="-236.61" font-family="Times,serif" font-size="14.00">7</text>
</g>
<!-- 6&#45;&gt;7 -->
<g id="edge12" class="edge">
<title>6&#45;&gt;7</title>
<path fill="none" stroke="black" d="M220.8,-348.4C215.2,-328.24 205.74,-294.12 199.07,-270.11"/>
<polygon fill="black" stroke="black" points="202.5,-269.39 196.46,-260.69 195.76,-271.26 202.5,-269.39"/>
<text text-anchor="middle" x="229.24" y="-298.87" font-family="Times,serif" font-size="14.00">digito</text>
</g>
<!-- 7&#45;&gt;7 -->
<g id="edge13" class="edge">
<title>7&#45;&gt;7</title>
<path fill="none" stroke="black" d="M207.37,-250.35C217.6,-252.62 227.45,-249.72 227.45,-241.66 227.45,-236.74 223.8,-233.74 218.62,-232.66"/>
<polygon fill="black" stroke="black" points="218.79,-229.16 208.88,-232.92 218.97,-236.16 218.79,-229.16"/>
<text text-anchor="middle" x="243.2" y="-236.61" font-family="Times,serif" font-size="14.00">digito</text>
</g>
<!-- 8 -->
<g id="node10" class="node">
<title>8</title>
<ellipse fill="none" stroke="black" cx="195.45" cy="-140.89" rx="18" ry="18"/>
<ellipse fill="none" stroke="black" cx="195.45" cy="-140.89" rx="22" ry="22"/>
<text text-anchor="middle" x="195.45" y="-135.84" font-family="Times,serif" font-size="14.00">8</text>
</g>
<!-- 7&#45;&gt;8 -->
<g id="edge14" class="edge">
<title>7&#45;&gt;8</title>
<path fill="none" stroke="black" d="M192.15,-223.45C192.7,-209.93 193.48,-190.71 194.14,-174.33"/>
<polygon fill="black" stroke="black" points="197.63,-174.67 194.54,-164.53 190.63,-174.38 197.63,-174.67"/>
<text text-anchor="middle" x="211.32" y="-186.22" font-family="Times,serif" font-size="14.00">outro*</text>
</g>
<!-- 10 -->
<g id="node12" class="node">
<title>10</title>
<ellipse fill="none" stroke="black" cx="436.45" cy="-303.92" rx="20.13" ry="20.13"/>
<text text-anchor="middle" x="436.45" y="-298.87" font-family="Times,serif" font-size="14.00">10</text>
</g>
<!-- 9&#45;&gt;10 -->
<g id="edge16" class="edge">
<title>9&#45;&gt;10</title>
<path fill="none" stroke="black" d="M530.85,-473.11C513.32,-441.87 473.27,-370.52 451.4,-331.54"/>
<polygon fill="black" stroke="black" points="454.68,-330.25 446.74,-323.24 448.58,-333.68 454.68,-330.25"/>
<text text-anchor="middle" x="521.7" y="-434.01" font-family="Times,serif" font-size="14.00">ch</text>
</g>
<!-- 11 -->
<g id="node13" class="node">
<title>11</title>
<ellipse fill="none" stroke="black" cx="539.45" cy="-366.18" rx="20.13" ry="20.13"/>
<text text-anchor="middle" x="539.45" y="-361.13" font-family="Times,serif" font-size="14.00">11</text>
</g>
<!-- 9&#45;&gt;11 -->
<g id="edge17" class="edge">
<title>9&#45;&gt;11</title>
<path fill="none" stroke="black" d="M539.45,-471.07C539.45,-452 539.45,-421.01 539.45,-397.83"/>
<polygon fill="black" stroke="black" points="542.95,-398.04 539.45,-388.04 535.95,-398.04 542.95,-398.04"/>
<text text-anchor="middle" x="570.2" y="-434.01" font-family="Times,serif" font-size="14.00">contrabarra</text>
</g>
<!-- 15 -->
<g id="node17" class="node">
<title>15</title>
<ellipse fill="none" stroke="black" cx="517.45" cy="-140.89" rx="20.13" ry="20.13"/>
<text text-anchor="middle" x="517.45" y="-135.84" font-family="Times,serif" font-size="14.00">15</text>
</g>
<!-- 10&#45;&gt;15 -->
<g id="edge18" class="edge">
<title>10&#45;&gt;15</title>
<path fill="none" stroke="black" d="M427.39,-285.73C418.43,-266.2 407.74,-233.88 420.45,-209.52 434.64,-182.34 465.29,-163.86 488.36,-153.17"/>
<polygon fill="black" stroke="black" points="489.5,-156.49 497.27,-149.29 486.71,-150.08 489.5,-156.49"/>
<text text-anchor="middle" x="445.95" y="-236.61" font-family="Times,serif" font-size="14.00">apostrofo</text>
</g>
<!-- 14 -->
<g id="node16" class="node">
<title>14</title>
<ellipse fill="none" stroke="black" cx="500.45" cy="-241.66" rx="20.13" ry="20.13"/>
<text text-anchor="middle" x="500.45" y="-236.61" font-family="Times,serif" font-size="14.00">14</text>
</g>
<!-- 11&#45;&gt;14 -->
<g id="edge20" class="edge">
<title>11&#45;&gt;14</title>
<path fill="none" stroke="black" d="M533.53,-346.57C527.22,-326.76 517.15,-295.12 509.78,-271.96"/>
<polygon fill="black" stroke="black" points="513.13,-270.95 506.76,-262.48 506.46,-273.07 513.13,-270.95"/>
<text text-anchor="middle" x="529.1" y="-298.87" font-family="Times,serif" font-size="14.00">n</text>
</g>
<!-- 11&#45;&gt;15 -->
<g id="edge21" class="edge">
<title>11&#45;&gt;15</title>
<path fill="none" stroke="black" d="M543.04,-345.87C548.58,-312.13 557.02,-240.57 541.45,-183.02 539.99,-177.62 537.63,-172.2 534.94,-167.15"/>
<polygon fill="black" stroke="black" points="538.04,-165.52 529.92,-158.72 532.03,-169.1 538.04,-165.52"/>
<text text-anchor="middle" x="553.73" y="-236.61" font-family="Times,serif" font-size="14.00">0</text>
</g>
<!-- 12 -->
<g id="node14" class="node">
<title>12</title>
<ellipse fill="none" stroke="black" cx="517.45" cy="-40.13" rx="20.13" ry="20.13"/>
<ellipse fill="none" stroke="black" cx="517.45" cy="-40.13" rx="24.13" ry="24.13"/>
<text text-anchor="middle" x="517.45" y="-35.08" font-family="Times,serif" font-size="14.00">12</text>
</g>
<!-- 13 -->
<g id="node15" class="node">
<title>13</title>
<ellipse fill="none" stroke="black" cx="601.45" cy="-241.66" rx="20.13" ry="20.13"/>
<text text-anchor="middle" x="601.45" y="-236.61" font-family="Times,serif" font-size="14.00">13</text>
</g>
<!-- 13&#45;&gt;15 -->
<g id="edge23" class="edge">
<title>13&#45;&gt;15</title>
<path fill="none" stroke="black" d="M588.7,-225.66C575.05,-209.61 553.22,-183.95 537.32,-165.26"/>
<polygon fill="black" stroke="black" points="540.18,-163.21 531.04,-157.86 534.85,-167.75 540.18,-163.21"/>
<text text-anchor="middle" x="589.98" y="-186.22" font-family="Times,serif" font-size="14.00">apostrofo</text>
</g>
<!-- 14&#45;&gt;15 -->
<g id="edge22" class="edge">
<title>14&#45;&gt;15</title>
<path fill="none" stroke="black" d="M493.07,-222.49C489.44,-211.01 486.59,-195.96 490.45,-183.02 492.18,-177.24 495.02,-171.51 498.21,-166.25"/>
<polygon fill="black" stroke="black" points="501.04,-168.32 503.76,-158.08 495.25,-164.39 501.04,-168.32"/>
<text text-anchor="middle" x="515.95" y="-186.22" font-family="Times,serif" font-size="14.00">apostrofo</text>
</g>
<!-- 15&#45;&gt;12 -->
<g id="edge19" class="edge">
<title>15&#45;&gt;12</title>
<path fill="none" stroke="black" d="M517.45,-120.38C517.45,-107.69 517.45,-90.8 517.45,-75.86"/>
<polygon fill="black" stroke="black" points="520.95,-75.94 517.45,-65.94 513.95,-75.94 520.95,-75.94"/>
<text text-anchor="middle" x="535.08" y="-85.46" font-family="Times,serif" font-size="14.00">outro*</text>
</g>
<!-- 17 -->
<g id="node19" class="node">
<title>17</title>
<ellipse fill="none" stroke="black" cx="686.45" cy="-241.66" rx="20.13" ry="20.13"/>
<text text-anchor="middle" x="686.45" y="-236.61" font-family="Times,serif" font-size="14.00">17</text>
</g>
<!-- 16&#45;&gt;17 -->
<g id="edge25" class="edge">
<title>16&#45;&gt;17</title>
<path fill="none" stroke="black" d="M712.86,-476.04C699.19,-464.08 680.27,-444.63 672.2,-422.81 653.49,-372.23 666.33,-308.35 676.79,-271.83"/>
<polygon fill="black" stroke="black" points="680.09,-273.03 679.62,-262.44 673.39,-271.01 680.09,-273.03"/>
<text text-anchor="middle" x="686.83" y="-361.13" font-family="Times,serif" font-size="14.00">aspas</text>
</g>
<!-- 19 -->
<g id="node21" class="node">
<title>19</title>
<ellipse fill="none" stroke="black" cx="730.45" cy="-366.18" rx="20.13" ry="20.13"/>
<text text-anchor="middle" x="730.45" y="-361.13" font-family="Times,serif" font-size="14.00">19</text>
</g>
<!-- 16&#45;&gt;19 -->
<g id="edge26" class="edge">
<title>16&#45;&gt;19</title>
<path fill="none" stroke="black" d="M728.77,-468.96C729.09,-449.78 729.58,-420.19 729.95,-397.85"/>
<polygon fill="black" stroke="black" points="733.44,-398.18 730.11,-388.13 726.44,-398.07 733.44,-398.18"/>
<text text-anchor="middle" x="735.77" y="-434.01" font-family="Times,serif" font-size="14.00">ch</text>
</g>
<!-- 18 -->
<g id="node20" class="node">
<title>18</title>
<ellipse fill="none" stroke="black" cx="686.45" cy="-140.89" rx="20.13" ry="20.13"/>
<ellipse fill="none" stroke="black" cx="686.45" cy="-140.89" rx="24.13" ry="24.13"/>
<text text-anchor="middle" x="686.45" y="-135.84" font-family="Times,serif" font-size="14.00">18</text>
</g>
<!-- 17&#45;&gt;18 -->
<g id="edge27" class="edge">
<title>17&#45;&gt;18</title>
<path fill="none" stroke="black" d="M686.45,-221.14C686.45,-208.46 686.45,-191.56 686.45,-176.62"/>
<polygon fill="black" stroke="black" points="689.95,-176.7 686.45,-166.7 682.95,-176.7 689.95,-176.7"/>
<text text-anchor="middle" x="704.08" y="-186.22" font-family="Times,serif" font-size="14.00">outro*</text>
</g>
<!-- 19&#45;&gt;17 -->
<g id="edge28" class="edge">
<title>19&#45;&gt;17</title>
<path fill="none" stroke="black" d="M723.87,-346.84C716.74,-326.99 705.27,-295.06 696.91,-271.77"/>
<polygon fill="black" stroke="black" points="700.27,-270.78 693.6,-262.55 693.68,-273.14 700.27,-270.78"/>
<text text-anchor="middle" x="729.59" y="-298.87" font-family="Times,serif" font-size="14.00">aspas</text>
</g>
<!-- 21 -->
<g id="node23" class="node">
<title>21</title>
<ellipse fill="none" stroke="black" cx="794.45" cy="-366.18" rx="20.13" ry="20.13"/>
<text text-anchor="middle" x="794.45" y="-361.13" font-family="Times,serif" font-size="14.00">21</text>
</g>
<!-- 20&#45;&gt;21 -->
<g id="edge30" class="edge">
<title>20&#45;&gt;21</title>
<path fill="none" stroke="black" d="M787.74,-468.96C789,-449.78 790.96,-420.19 792.43,-397.85"/>
<polygon fill="black" stroke="black" points="795.91,-398.33 793.07,-388.12 788.92,-397.87 795.91,-398.33"/>
<text text-anchor="middle" x="804.09" y="-434.01" font-family="Times,serif" font-size="14.00">barra</text>
</g>
<!-- 26 -->
<g id="node28" class="node">
<title>26</title>
<ellipse fill="none" stroke="black" cx="915.45" cy="-366.18" rx="20.13" ry="20.13"/>
<ellipse fill="none" stroke="black" cx="915.45" cy="-366.18" rx="24.13" ry="24.13"/>
<text text-anchor="middle" x="915.45" y="-361.13" font-family="Times,serif" font-size="14.00">26</text>
</g>
<!-- 20&#45;&gt;26 -->
<g id="edge36" class="edge">
<title>20&#45;&gt;26</title>
<path fill="none" stroke="black" d="M797.78,-472.43C801.99,-467.2 807.07,-461.62 812.45,-457.31 838.6,-436.37 854.63,-445.3 879.45,-422.81 887.2,-415.8 893.98,-406.76 899.5,-398.01"/>
<polygon fill="black" stroke="black" points="902.35,-400.08 904.42,-389.69 896.32,-396.52 902.35,-400.08"/>
<text text-anchor="middle" x="885.76" y="-434.01" font-family="Times,serif" font-size="14.00">outro*</text>
</g>
<!-- 21&#45;&gt;21 -->
<g id="edge31" class="edge">
<title>21&#45;&gt;21</title>
<path fill="none" stroke="black" d="M811.71,-377.03C822.4,-379.65 832.58,-376.03 832.58,-366.18 832.58,-360.02 828.61,-356.3 823.01,-355.02"/>
<polygon fill="black" stroke="black" points="823.12,-351.51 813.22,-355.29 823.31,-358.51 823.12,-351.51"/>
<text text-anchor="middle" x="850.21" y="-361.13" font-family="Times,serif" font-size="14.00">outro*</text>
</g>
<!-- 22 -->
<g id="node24" class="node">
<title>22</title>
<ellipse fill="none" stroke="black" cx="798.45" cy="-241.66" rx="20.13" ry="20.13"/>
<ellipse fill="none" stroke="black" cx="798.45" cy="-241.66" rx="24.13" ry="24.13"/>
<text text-anchor="middle" x="798.45" y="-236.61" font-family="Times,serif" font-size="14.00">22</text>
</g>
<!-- 21&#45;&gt;22 -->
<g id="edge32" class="edge">
<title>21&#45;&gt;22</title>
<path fill="none" stroke="black" d="M795.09,-345.77C795.68,-327.46 796.59,-299.61 797.32,-277.47"/>
<polygon fill="black" stroke="black" points="800.81,-277.79 797.64,-267.68 793.81,-277.56 800.81,-277.79"/>
<text text-anchor="middle" x="802.3" y="-298.87" font-family="Times,serif" font-size="14.00">\n</text>
</g>
</g>
</svg>
