<?xml version="1.0" encoding="UTF-8" standalone="no"?>
<!DOCTYPE svg PUBLIC "-//W3C//DTD SVG 1.1//EN"
 "http://www.w3.org/Graphics/SVG/1.1/DTD/svg11.dtd">
<!-- Generated by graphviz version 12.1.2 (0)
 -->
<!-- Pages: 1 -->
<svg width="2431pt" height="641pt"
 viewBox="0.00 0.00 2431.00 641.31" xmlns="http://www.w3.org/2000/svg" xmlns:xlink="http://www.w3.org/1999/xlink">
<g id="graph0" class="graph" transform="scale(1 1) rotate(0) translate(4 637.31)">
<polygon fill="white" stroke="none" points="-4,4 -4,-637.31 2427,-637.31 2427,4 -4,4"/>
<g id="clust1" class="cluster">
<title>cluster_start</title>
<polygon fill="none" stroke="black" points="1199,-456.05 1199,-623.18 1354,-623.18 1354,-456.05 1199,-456.05"/>
<text text-anchor="middle" x="1276.5" y="-605.88" font-family="Times,serif" font-size="14.00">INICIO</text>
</g>
<g id="clust2" class="cluster">
<title>cluster_id</title>
<polygon fill="#dd8855" stroke="#dd8855" points="2079,-110.89 2079,-415.42 2195,-415.42 2195,-110.89 2079,-110.89"/>
<text text-anchor="middle" x="2137" y="-398.12" font-family="Times,serif" font-size="14.00">ID</text>
</g>
<g id="clust3" class="cluster">
<title>cluster_intcon</title>
<polygon fill="#ffaaff" stroke="#ffaaff" points="2203,-211.66 2203,-415.42 2305,-415.42 2305,-211.66 2203,-211.66"/>
<text text-anchor="middle" x="2254" y="-398.12" font-family="Times,serif" font-size="14.00">INTCON</text>
</g>
<g id="clust4" class="cluster">
<title>cluster_realcon</title>
<polygon fill="#8888dd" stroke="#8888dd" points="2313,-10.13 2313,-292.16 2415,-292.16 2415,-10.13 2313,-10.13"/>
<text text-anchor="middle" x="2364" y="-274.86" font-family="Times,serif" font-size="14.00">REALCON</text>
</g>
<g id="clust5" class="cluster">
<title>cluster_charcon</title>
<polygon fill="#88dd88" stroke="#88dd88" points="88,-108.76 88,-415.42 321,-415.42 321,-108.76 88,-108.76"/>
<text text-anchor="middle" x="204.5" y="-398.12" font-family="Times,serif" font-size="14.00">CHARCON</text>
</g>
<g id="clust6" class="cluster">
<title>cluster_stringcon</title>
<polygon fill="#dd8888" stroke="#dd8888" points="329,-8 329,-417.55 450,-417.55 450,-8 329,-8"/>
<text text-anchor="middle" x="389.5" y="-400.25" font-family="Times,serif" font-size="14.00">STRINGCON</text>
</g>
<g id="clust7" class="cluster">
<title>cluster_comentario</title>
<polygon fill="#dddd88" stroke="#dddd88" points="69,-544.55 69,-625.31 249,-625.31 249,-544.55 69,-544.55"/>
<text text-anchor="middle" x="159" y="-608.01" font-family="Times,serif" font-size="14.00">COMENTARIO (IGNORAR)</text>
</g>
<g id="clust8" class="cluster">
<title>cluster_mais</title>
<polygon fill="lightgrey" stroke="black" points="458,-332.79 458,-421.55 522,-421.55 522,-332.79 458,-332.79"/>
<text text-anchor="middle" x="490" y="-404.25" font-family="Times,serif" font-size="14.00">MAIS</text>
</g>
<g id="clust9" class="cluster">
<title>cluster_menos</title>
<polygon fill="lightgrey" stroke="black" points="530,-332.79 530,-421.55 594,-421.55 594,-332.79 530,-332.79"/>
<text text-anchor="middle" x="562" y="-404.25" font-family="Times,serif" font-size="14.00">MENOS</text>
</g>
<g id="clust10" class="cluster">
<title>cluster_multiplicacao</title>
<polygon fill="lightgrey" stroke="black" points="602,-332.79 602,-421.55 728,-421.55 728,-332.79 602,-332.79"/>
<text text-anchor="middle" x="665" y="-404.25" font-family="Times,serif" font-size="14.00">MULTIPLICACAO</text>
</g>
<g id="clust11" class="cluster">
<title>cluster_divisao</title>
<polygon fill="lightgrey" stroke="black" points="8,-209.52 8,-298.29 79,-298.29 79,-209.52 8,-209.52"/>
<text text-anchor="middle" x="43.5" y="-280.99" font-family="Times,serif" font-size="14.00">DIVISAO</text>
</g>
<g id="clust12" class="cluster">
<title>cluster_abreparenteses</title>
<polygon fill="lightgrey" stroke="black" points="736,-332.79 736,-421.55 871,-421.55 871,-332.79 736,-332.79"/>
<text text-anchor="middle" x="803.5" y="-404.25" font-family="Times,serif" font-size="14.00">ABREPARENTESES</text>
</g>
<g id="clust13" class="cluster">
<title>cluster_fechaparenteses</title>
<polygon fill="lightgrey" stroke="black" points="879,-332.79 879,-421.55 1022,-421.55 1022,-332.79 879,-332.79"/>
<text text-anchor="middle" x="950.5" y="-404.25" font-family="Times,serif" font-size="14.00">FECHAPARENTESES</text>
</g>
<g id="clust14" class="cluster">
<title>cluster_abrecolchete</title>
<polygon fill="lightgrey" stroke="black" points="1030,-332.79 1030,-421.55 1152,-421.55 1152,-332.79 1030,-332.79"/>
<text text-anchor="middle" x="1091" y="-404.25" font-family="Times,serif" font-size="14.00">ABRECOLCHETE</text>
</g>
<g id="clust15" class="cluster">
<title>cluster_fechacolchete</title>
<polygon fill="lightgrey" stroke="black" points="1160,-332.79 1160,-421.55 1290,-421.55 1290,-332.79 1160,-332.79"/>
<text text-anchor="middle" x="1225" y="-404.25" font-family="Times,serif" font-size="14.00">FECHACOLCHETE</text>
</g>
<g id="clust16" class="cluster">
<title>cluster_virgula</title>
<polygon fill="lightgrey" stroke="black" points="1298,-332.79 1298,-421.55 1374,-421.55 1374,-332.79 1298,-332.79"/>
<text text-anchor="middle" x="1336" y="-404.25" font-family="Times,serif" font-size="14.00">VIRGULA</text>
</g>
<g id="clust17" class="cluster">
<title>cluster_comparacao</title>
<polygon fill="lightgrey" stroke="black" points="1116,-209.52 1116,-298.29 1227,-298.29 1227,-209.52 1116,-209.52"/>
<text text-anchor="middle" x="1171.5" y="-280.99" font-family="Times,serif" font-size="14.00">COMPARACAO</text>
</g>
<g id="clust18" class="cluster">
<title>cluster_atribuicao</title>
<polygon fill="lightgrey" stroke="black" points="1011,-209.52 1011,-298.29 1108,-298.29 1108,-209.52 1011,-209.52"/>
<text text-anchor="middle" x="1059.5" y="-280.99" font-family="Times,serif" font-size="14.00">ATRIBUICAO</text>
</g>
<g id="clust19" class="cluster">
<title>cluster_elogico</title>
<polygon fill="lightgrey" stroke="black" points="1342,-209.52 1342,-298.29 1417,-298.29 1417,-209.52 1342,-209.52"/>
<text text-anchor="middle" x="1379.5" y="-280.99" font-family="Times,serif" font-size="14.00">ELOGICO</text>
</g>
<g id="clust20" class="cluster">
<title>cluster_referencia</title>
<polygon fill="lightgrey" stroke="black" points="1235,-209.52 1235,-298.29 1334,-298.29 1334,-209.52 1235,-209.52"/>
<text text-anchor="middle" x="1284.5" y="-280.99" font-family="Times,serif" font-size="14.00">REFERENCIA</text>
</g>
<g id="clust21" class="cluster">
<title>cluster_oulogico</title>
<polygon fill="lightgrey" stroke="black" points="1425,-209.52 1425,-298.29 1511,-298.29 1511,-209.52 1425,-209.52"/>
<text text-anchor="middle" x="1468" y="-280.99" font-family="Times,serif" font-size="14.00">OULOGICO</text>
</g>
<g id="clust22" class="cluster">
<title>cluster_menorigual</title>
<polygon fill="lightgrey" stroke="black" points="1592,-209.52 1592,-298.29 1699,-298.29 1699,-209.52 1592,-209.52"/>
<text text-anchor="middle" x="1645.5" y="-280.99" font-family="Times,serif" font-size="14.00">MENORIGUAL</text>
</g>
<g id="clust23" class="cluster">
<title>cluster_menor</title>
<polygon fill="lightgrey" stroke="black" points="1519,-209.52 1519,-298.29 1584,-298.29 1584,-209.52 1519,-209.52"/>
<text text-anchor="middle" x="1551.5" y="-280.99" font-family="Times,serif" font-size="14.00">MENOR</text>
</g>
<g id="clust24" class="cluster">
<title>cluster_maiorigual</title>
<polygon fill="lightgrey" stroke="black" points="1779,-209.52 1779,-298.29 1882,-298.29 1882,-209.52 1779,-209.52"/>
<text text-anchor="middle" x="1830.5" y="-280.99" font-family="Times,serif" font-size="14.00">MAIORIGUAL</text>
</g>
<g id="clust25" class="cluster">
<title>cluster_maior</title>
<polygon fill="lightgrey" stroke="black" points="1707,-209.52 1707,-298.29 1771,-298.29 1771,-209.52 1707,-209.52"/>
<text text-anchor="middle" x="1739" y="-280.99" font-family="Times,serif" font-size="14.00">MAIOR</text>
</g>
<g id="clust26" class="cluster">
<title>cluster_diferenca</title>
<polygon fill="lightgrey" stroke="black" points="1980,-209.52 1980,-298.29 2071,-298.29 2071,-209.52 1980,-209.52"/>
<text text-anchor="middle" x="2025.5" y="-280.99" font-family="Times,serif" font-size="14.00">DIFERENCA</text>
</g>
<g id="clust27" class="cluster">
<title>cluster_negacao</title>
<polygon fill="lightgrey" stroke="black" points="1890,-209.52 1890,-298.29 1972,-298.29 1972,-209.52 1890,-209.52"/>
<text text-anchor="middle" x="1931" y="-280.99" font-family="Times,serif" font-size="14.00">NEGACAO</text>
</g>
<!-- Inicio -->
<g id="node1" class="node">
<title>Inicio</title>
</g>
<!-- 0 -->
<g id="node2" class="node">
<title>0</title>
<ellipse fill="none" stroke="black" cx="1225" cy="-482.05" rx="18" ry="18"/>
<text text-anchor="middle" x="1225" y="-477" font-family="Times,serif" font-size="14.00">0</text>
</g>
<!-- Inicio&#45;&gt;0 -->
<g id="edge1" class="edge">
<title>Inicio&#45;&gt;0</title>
<path fill="none" stroke="black" d="M1232.31,-555.01C1231.07,-542.79 1229.35,-525.89 1227.89,-511.54"/>
<polygon fill="black" stroke="black" points="1231.39,-511.35 1226.9,-501.76 1224.43,-512.06 1231.39,-511.35"/>
</g>
<!-- 0&#45;&gt;0 -->
<g id="edge2" class="edge">
<title>0&#45;&gt;0</title>
<path fill="none" stroke="black" d="M1241.66,-489.83C1251.62,-491.56 1261,-488.96 1261,-482.05 1261,-477.94 1257.69,-475.36 1252.92,-474.3"/>
<polygon fill="black" stroke="black" points="1253.19,-470.8 1243.18,-474.28 1253.17,-477.8 1253.19,-470.8"/>
<text text-anchor="middle" x="1303.38" y="-477" font-family="Times,serif" font-size="14.00">Tab, Espaco, \n</text>
</g>
<!-- 1 -->
<g id="node3" class="node">
<title>1</title>
<ellipse fill="none" stroke="black" cx="2105" cy="-364.92" rx="18" ry="18"/>
<text text-anchor="middle" x="2105" y="-359.87" font-family="Times,serif" font-size="14.00">1</text>
</g>
<!-- 0&#45;&gt;1 -->
<g id="edge3" class="edge">
<title>0&#45;&gt;1</title>
<path fill="none" stroke="black" d="M1243.16,-481.26C1357.85,-482.47 1979.36,-487.1 2052,-446.05 2072.54,-434.44 2086.56,-411.2 2095,-392.72"/>
<polygon fill="black" stroke="black" points="2098.17,-394.22 2098.84,-383.64 2091.72,-391.49 2098.17,-394.22"/>
<text text-anchor="middle" x="2094.66" y="-432.75" font-family="Times,serif" font-size="14.00">sublinha</text>
</g>
<!-- 2 -->
<g id="node4" class="node">
<title>2</title>
<ellipse fill="none" stroke="black" cx="2105" cy="-241.66" rx="18" ry="18"/>
<text text-anchor="middle" x="2105" y="-236.61" font-family="Times,serif" font-size="14.00">2</text>
</g>
<!-- 0&#45;&gt;2 -->
<g id="edge5" class="edge">
<title>0&#45;&gt;2</title>
<path fill="none" stroke="black" d="M1243.34,-481.36C1343.64,-482.78 1826.06,-486.11 1957,-421.55 2024.04,-388.5 2071.61,-309.47 2092.74,-268.41"/>
<polygon fill="black" stroke="black" points="2095.74,-270.23 2097.09,-259.72 2089.49,-267.1 2095.74,-270.23"/>
<text text-anchor="middle" x="2065.01" y="-359.87" font-family="Times,serif" font-size="14.00">letra</text>
</g>
<!-- 4 -->
<g id="node6" class="node">
<title>4</title>
<ellipse fill="none" stroke="black" cx="2229" cy="-364.92" rx="18" ry="18"/>
<text text-anchor="middle" x="2229" y="-359.87" font-family="Times,serif" font-size="14.00">4</text>
</g>
<!-- 0&#45;&gt;4 -->
<g id="edge8" class="edge">
<title>0&#45;&gt;4</title>
<path fill="none" stroke="black" d="M1243.19,-481C1354.47,-480.63 1944.32,-477.2 2122,-446.05 2157.37,-439.85 2171.35,-444.47 2199,-421.55 2208,-414.09 2214.7,-403.21 2219.46,-393.05"/>
<polygon fill="black" stroke="black" points="2222.66,-394.47 2223.29,-383.89 2216.2,-391.76 2222.66,-394.47"/>
<text text-anchor="middle" x="2203.85" y="-432.75" font-family="Times,serif" font-size="14.00">digito</text>
</g>
<!-- 9 -->
<g id="node11" class="node">
<title>9</title>
<ellipse fill="none" stroke="black" cx="225" cy="-364.92" rx="18" ry="18"/>
<text text-anchor="middle" x="225" y="-359.87" font-family="Times,serif" font-size="14.00">9</text>
</g>
<!-- 0&#45;&gt;9 -->
<g id="edge15" class="edge">
<title>0&#45;&gt;9</title>
<path fill="none" stroke="black" d="M1207.05,-479.82C1142.64,-475.39 917.07,-459.81 731,-446.05 635.87,-439.01 612.23,-435.2 517,-429.55 474.37,-427.02 366.1,-433.13 325,-421.55 296.67,-413.57 267.63,-396.19 248.2,-382.96"/>
<polygon fill="black" stroke="black" points="250.4,-380.24 240.21,-377.37 246.39,-385.97 250.4,-380.24"/>
<text text-anchor="middle" x="756.5" y="-432.75" font-family="Times,serif" font-size="14.00">apostrofo</text>
</g>
<!-- 14 -->
<g id="node16" class="node">
<title>14</title>
<ellipse fill="none" stroke="black" cx="422" cy="-364.92" rx="20.13" ry="20.13"/>
<text text-anchor="middle" x="422" y="-359.87" font-family="Times,serif" font-size="14.00">14</text>
</g>
<!-- 0&#45;&gt;14 -->
<g id="edge22" class="edge">
<title>0&#45;&gt;14</title>
<path fill="none" stroke="black" d="M1206.81,-479.28C1157.69,-474.46 1018.34,-460.49 902.75,-446.05 850.75,-439.55 838.23,-433.85 786,-429.55 767.61,-428.03 469.86,-430.98 454,-421.55 443.98,-415.59 436.8,-405.21 431.82,-395.01"/>
<polygon fill="black" stroke="black" points="435.14,-393.86 427.99,-386.04 428.7,-396.61 435.14,-393.86"/>
<text text-anchor="middle" x="917.38" y="-432.75" font-family="Times,serif" font-size="14.00">aspas</text>
</g>
<!-- 18 -->
<g id="node20" class="node">
<title>18</title>
<ellipse fill="none" stroke="black" cx="60" cy="-364.92" rx="20.13" ry="20.13"/>
<text text-anchor="middle" x="60" y="-359.87" font-family="Times,serif" font-size="14.00">18</text>
</g>
<!-- 0&#45;&gt;18 -->
<g id="edge27" class="edge">
<title>0&#45;&gt;18</title>
<path fill="none" stroke="black" d="M1206.69,-480.28C1123.52,-476.74 772.83,-461.63 485.25,-446.05 306.85,-436.38 230.21,-524.23 84,-421.55 75.37,-415.49 69.82,-405.64 66.26,-395.9"/>
<polygon fill="black" stroke="black" points="69.69,-395.18 63.46,-386.61 62.99,-397.2 69.69,-395.18"/>
<text text-anchor="middle" x="499.12" y="-432.75" font-family="Times,serif" font-size="14.00">barra</text>
</g>
<!-- 20 -->
<g id="node22" class="node">
<title>20</title>
<ellipse fill="none" stroke="black" cx="490" cy="-364.92" rx="20.13" ry="20.13"/>
<ellipse fill="none" stroke="black" cx="490" cy="-364.92" rx="24.13" ry="24.13"/>
<text text-anchor="middle" x="490" y="-359.87" font-family="Times,serif" font-size="14.00">20</text>
</g>
<!-- 0&#45;&gt;20 -->
<g id="edge31" class="edge">
<title>0&#45;&gt;20</title>
<path fill="none" stroke="black" d="M1207.02,-478.64C1169.47,-473.5 1080.05,-460.75 1005.75,-446.05 974.5,-439.87 967.6,-433.55 936,-429.55 913.4,-426.69 545.91,-432.63 526,-421.55 516.48,-416.25 509.07,-407.25 503.52,-398.02"/>
<polygon fill="black" stroke="black" points="506.72,-396.59 498.93,-389.41 500.55,-399.88 506.72,-396.59"/>
<text text-anchor="middle" x="1009.88" y="-432.75" font-family="Times,serif" font-size="14.00">+</text>
</g>
<!-- 21 -->
<g id="node23" class="node">
<title>21</title>
<ellipse fill="none" stroke="black" cx="562" cy="-364.92" rx="20.13" ry="20.13"/>
<ellipse fill="none" stroke="black" cx="562" cy="-364.92" rx="24.13" ry="24.13"/>
<text text-anchor="middle" x="562" y="-359.87" font-family="Times,serif" font-size="14.00">21</text>
</g>
<!-- 0&#45;&gt;21 -->
<g id="edge32" class="edge">
<title>0&#45;&gt;21</title>
<path fill="none" stroke="black" d="M1207.03,-477.82C1177.18,-472.3 1115.61,-460.27 1064.5,-446.05 1042.56,-439.95 1038.43,-433.48 1016,-429.55 993.12,-425.54 618.3,-432.84 598,-421.55 588.48,-416.25 581.07,-407.25 575.52,-398.02"/>
<polygon fill="black" stroke="black" points="578.72,-396.59 570.93,-389.41 572.55,-399.89 578.72,-396.59"/>
<text text-anchor="middle" x="1066.75" y="-432.75" font-family="Times,serif" font-size="14.00">&#45;</text>
</g>
<!-- 22 -->
<g id="node24" class="node">
<title>22</title>
<ellipse fill="none" stroke="black" cx="696" cy="-364.92" rx="20.13" ry="20.13"/>
<ellipse fill="none" stroke="black" cx="696" cy="-364.92" rx="24.13" ry="24.13"/>
<text text-anchor="middle" x="696" y="-359.87" font-family="Times,serif" font-size="14.00">22</text>
</g>
<!-- 0&#45;&gt;22 -->
<g id="edge33" class="edge">
<title>0&#45;&gt;22</title>
<path fill="none" stroke="black" d="M1207.21,-476.99C1183.05,-471.26 1138.71,-459.91 1102.25,-446.05 1086.46,-440.04 1084.43,-433.51 1068,-429.55 1049.85,-425.18 748.29,-430.67 732,-421.55 722.49,-416.23 715.09,-407.23 709.54,-398"/>
<polygon fill="black" stroke="black" points="712.74,-396.56 704.94,-389.39 706.56,-399.86 712.74,-396.56"/>
<text text-anchor="middle" x="1105.62" y="-432.75" font-family="Times,serif" font-size="14.00">*</text>
</g>
<!-- 24 -->
<g id="node26" class="node">
<title>24</title>
<ellipse fill="none" stroke="black" cx="839" cy="-364.92" rx="20.13" ry="20.13"/>
<ellipse fill="none" stroke="black" cx="839" cy="-364.92" rx="24.13" ry="24.13"/>
<text text-anchor="middle" x="839" y="-359.87" font-family="Times,serif" font-size="14.00">24</text>
</g>
<!-- 0&#45;&gt;24 -->
<g id="edge35" class="edge">
<title>0&#45;&gt;24</title>
<path fill="none" stroke="black" d="M1208.26,-474.71C1191.05,-468.05 1163.58,-457.04 1140.5,-446.05 1126.58,-439.42 1124.87,-433.58 1110,-429.55 1084.79,-422.71 897.73,-434.42 875,-421.55 865.52,-416.18 858.12,-407.17 852.57,-397.94"/>
<polygon fill="black" stroke="black" points="855.77,-396.51 847.97,-389.34 849.6,-399.81 855.77,-396.51"/>
<text text-anchor="middle" x="1142.75" y="-432.75" font-family="Times,serif" font-size="14.00">(</text>
</g>
<!-- 25 -->
<g id="node27" class="node">
<title>25</title>
<ellipse fill="none" stroke="black" cx="990" cy="-364.92" rx="20.13" ry="20.13"/>
<ellipse fill="none" stroke="black" cx="990" cy="-364.92" rx="24.13" ry="24.13"/>
<text text-anchor="middle" x="990" y="-359.87" font-family="Times,serif" font-size="14.00">25</text>
</g>
<!-- 0&#45;&gt;25 -->
<g id="edge36" class="edge">
<title>0&#45;&gt;25</title>
<path fill="none" stroke="black" d="M1210.25,-471.4C1187.89,-456.83 1147.64,-430.74 1144,-429.55 1119.03,-421.36 1048.65,-434.88 1026,-421.55 1016.61,-416.02 1009.24,-406.96 1003.68,-397.75"/>
<polygon fill="black" stroke="black" points="1006.89,-396.33 999.06,-389.18 1000.72,-399.65 1006.89,-396.33"/>
<text text-anchor="middle" x="1172.43" y="-432.75" font-family="Times,serif" font-size="14.00">)</text>
</g>
<!-- 26 -->
<g id="node28" class="node">
<title>26</title>
<ellipse fill="none" stroke="black" cx="1120" cy="-364.92" rx="20.13" ry="20.13"/>
<ellipse fill="none" stroke="black" cx="1120" cy="-364.92" rx="24.13" ry="24.13"/>
<text text-anchor="middle" x="1120" y="-359.87" font-family="Times,serif" font-size="14.00">26</text>
</g>
<!-- 0&#45;&gt;26 -->
<g id="edge37" class="edge">
<title>0&#45;&gt;26</title>
<path fill="none" stroke="black" d="M1214,-467.39C1204.37,-456.11 1189.53,-440.27 1174,-429.55 1166.8,-424.58 1162.65,-427.24 1156,-421.55 1148.06,-414.76 1141.22,-405.79 1135.7,-397.03"/>
<polygon fill="black" stroke="black" points="1138.88,-395.54 1130.81,-388.68 1132.84,-399.07 1138.88,-395.54"/>
<text text-anchor="middle" x="1196.12" y="-432.75" font-family="Times,serif" font-size="14.00">[</text>
</g>
<!-- 27 -->
<g id="node29" class="node">
<title>27</title>
<ellipse fill="none" stroke="black" cx="1225" cy="-364.92" rx="20.13" ry="20.13"/>
<ellipse fill="none" stroke="black" cx="1225" cy="-364.92" rx="24.13" ry="24.13"/>
<text text-anchor="middle" x="1225" y="-359.87" font-family="Times,serif" font-size="14.00">27</text>
</g>
<!-- 0&#45;&gt;27 -->
<g id="edge38" class="edge">
<title>0&#45;&gt;27</title>
<path fill="none" stroke="black" d="M1225,-463.56C1225,-446.87 1225,-421.25 1225,-400.44"/>
<polygon fill="black" stroke="black" points="1228.5,-400.66 1225,-390.66 1221.5,-400.66 1228.5,-400.66"/>
<text text-anchor="middle" x="1227.25" y="-432.75" font-family="Times,serif" font-size="14.00">]</text>
</g>
<!-- 28 -->
<g id="node30" class="node">
<title>28</title>
<ellipse fill="none" stroke="black" cx="1330" cy="-364.92" rx="20.13" ry="20.13"/>
<ellipse fill="none" stroke="black" cx="1330" cy="-364.92" rx="24.13" ry="24.13"/>
<text text-anchor="middle" x="1330" y="-359.87" font-family="Times,serif" font-size="14.00">28</text>
</g>
<!-- 0&#45;&gt;28 -->
<g id="edge39" class="edge">
<title>0&#45;&gt;28</title>
<path fill="none" stroke="black" d="M1239.27,-470.69C1254.01,-459.56 1277.17,-440.87 1294,-421.55 1300.74,-413.82 1307.14,-404.73 1312.64,-396.16"/>
<polygon fill="black" stroke="black" points="1315.56,-398.09 1317.84,-387.75 1309.6,-394.42 1315.56,-398.09"/>
<text text-anchor="middle" x="1287.48" y="-432.75" font-family="Times,serif" font-size="14.00">,</text>
</g>
<!-- 29 -->
<g id="node32" class="node">
<title>29</title>
<ellipse fill="none" stroke="black" cx="1409" cy="-364.92" rx="27" ry="18"/>
<text text-anchor="middle" x="1409" y="-359.87" font-family="Times,serif" font-size="14.00">29</text>
</g>
<!-- 0&#45;&gt;29 -->
<g id="edge40" class="edge">
<title>0&#45;&gt;29</title>
<path fill="none" stroke="black" d="M1242.61,-478.23C1273.35,-472.5 1337.38,-456.93 1378,-421.55 1386.75,-413.92 1393.54,-403.19 1398.51,-393.19"/>
<polygon fill="black" stroke="black" points="1401.65,-394.73 1402.56,-384.18 1395.26,-391.86 1401.65,-394.73"/>
<text text-anchor="middle" x="1371.79" y="-432.75" font-family="Times,serif" font-size="14.00">=</text>
</g>
<!-- 32 -->
<g id="node34" class="node">
<title>32</title>
<ellipse fill="none" stroke="black" cx="1474" cy="-364.92" rx="20.13" ry="20.13"/>
<text text-anchor="middle" x="1474" y="-359.87" font-family="Times,serif" font-size="14.00">32</text>
</g>
<!-- 0&#45;&gt;32 -->
<g id="edge43" class="edge">
<title>0&#45;&gt;32</title>
<path fill="none" stroke="black" d="M1243.48,-481.29C1284.82,-480.83 1385.79,-474.05 1445,-421.55 1453.05,-414.41 1459.21,-404.49 1463.73,-395.01"/>
<polygon fill="black" stroke="black" points="1466.85,-396.61 1467.57,-386.04 1460.42,-393.86 1466.85,-396.61"/>
<text text-anchor="middle" x="1436.29" y="-432.75" font-family="Times,serif" font-size="14.00">&amp;</text>
</g>
<!-- 35 -->
<g id="node37" class="node">
<title>35</title>
<ellipse fill="none" stroke="black" cx="1532" cy="-364.92" rx="20.13" ry="20.13"/>
<text text-anchor="middle" x="1532" y="-359.87" font-family="Times,serif" font-size="14.00">35</text>
</g>
<!-- 0&#45;&gt;35 -->
<g id="edge46" class="edge">
<title>0&#45;&gt;35</title>
<path fill="none" stroke="black" d="M1243.09,-479.72C1281.24,-476.57 1372.49,-467.31 1446,-446.05 1472.49,-438.39 1482.79,-440.31 1503,-421.55 1510.89,-414.23 1517.01,-404.27 1521.55,-394.8"/>
<polygon fill="black" stroke="black" points="1524.65,-396.44 1525.41,-385.88 1518.23,-393.66 1524.65,-396.44"/>
<text text-anchor="middle" x="1494.4" y="-432.75" font-family="Times,serif" font-size="14.00">|</text>
</g>
<!-- 37 -->
<g id="node39" class="node">
<title>37</title>
<ellipse fill="none" stroke="black" cx="1590" cy="-364.92" rx="20.13" ry="20.13"/>
<text text-anchor="middle" x="1590" y="-359.87" font-family="Times,serif" font-size="14.00">37</text>
</g>
<!-- 0&#45;&gt;37 -->
<g id="edge48" class="edge">
<title>0&#45;&gt;37</title>
<path fill="none" stroke="black" d="M1243.32,-480.33C1287.93,-478.23 1405.44,-470.62 1500,-446.05 1528.28,-438.7 1539.35,-441.16 1561,-421.55 1568.98,-414.32 1575.12,-404.39 1579.65,-394.91"/>
<polygon fill="black" stroke="black" points="1582.76,-396.53 1583.5,-385.96 1576.33,-393.77 1582.76,-396.53"/>
<text text-anchor="middle" x="1554.3" y="-432.75" font-family="Times,serif" font-size="14.00">&lt;</text>
</g>
<!-- 40 -->
<g id="node42" class="node">
<title>40</title>
<ellipse fill="none" stroke="black" cx="1739" cy="-364.92" rx="20.13" ry="20.13"/>
<text text-anchor="middle" x="1739" y="-359.87" font-family="Times,serif" font-size="14.00">40</text>
</g>
<!-- 0&#45;&gt;40 -->
<g id="edge51" class="edge">
<title>0&#45;&gt;40</title>
<path fill="none" stroke="black" d="M1243.24,-481.07C1294.41,-480.73 1443.31,-476.95 1562,-446.05 1588.68,-439.1 1593.82,-432.79 1619,-421.55 1650.46,-407.5 1686.26,-390.81 1710.5,-379.4"/>
<polygon fill="black" stroke="black" points="1711.85,-382.64 1719.41,-375.21 1708.87,-376.3 1711.85,-382.64"/>
<text text-anchor="middle" x="1605.78" y="-432.75" font-family="Times,serif" font-size="14.00">&gt;</text>
</g>
<!-- 43 -->
<g id="node45" class="node">
<title>43</title>
<ellipse fill="none" stroke="black" cx="1928" cy="-364.92" rx="20.13" ry="20.13"/>
<text text-anchor="middle" x="1928" y="-359.87" font-family="Times,serif" font-size="14.00">43</text>
</g>
<!-- 0&#45;&gt;43 -->
<g id="edge54" class="edge">
<title>0&#45;&gt;43</title>
<path fill="none" stroke="black" d="M1243.13,-480.85C1312.39,-479.72 1566.57,-472.17 1768,-421.55 1814.74,-409.8 1867.2,-390.3 1898.91,-377.78"/>
<polygon fill="black" stroke="black" points="1900.21,-381.03 1908.2,-374.08 1897.61,-374.53 1900.21,-381.03"/>
<text text-anchor="middle" x="1727.17" y="-432.75" font-family="Times,serif" font-size="14.00">!</text>
</g>
<!-- 1&#45;&gt;1 -->
<g id="edge4" class="edge">
<title>1&#45;&gt;1</title>
<path fill="none" stroke="black" d="M2120.92,-373.62C2131.15,-375.89 2141,-372.99 2141,-364.92 2141,-360 2137.34,-357 2132.17,-355.93"/>
<polygon fill="black" stroke="black" points="2132.33,-352.42 2122.43,-356.18 2132.52,-359.42 2132.33,-352.42"/>
<text text-anchor="middle" x="2163.88" y="-359.87" font-family="Times,serif" font-size="14.00">sublinha</text>
</g>
<!-- 1&#45;&gt;2 -->
<g id="edge6" class="edge">
<title>1&#45;&gt;2</title>
<path fill="none" stroke="black" d="M2105,-346.54C2105,-326.91 2105,-294.66 2105,-271.29"/>
<polygon fill="black" stroke="black" points="2108.5,-271.51 2105,-261.51 2101.5,-271.51 2108.5,-271.51"/>
<text text-anchor="middle" x="2117" y="-309.49" font-family="Times,serif" font-size="14.00">letra</text>
</g>
<!-- 3 -->
<g id="node5" class="node">
<title>3</title>
<ellipse fill="none" stroke="black" cx="2109" cy="-140.89" rx="18" ry="18"/>
<ellipse fill="none" stroke="black" cx="2109" cy="-140.89" rx="22" ry="22"/>
<text text-anchor="middle" x="2109" y="-135.84" font-family="Times,serif" font-size="14.00">3</text>
</g>
<!-- 2&#45;&gt;3 -->
<g id="edge7" class="edge">
<title>2&#45;&gt;3</title>
<path fill="none" stroke="black" d="M2105.7,-223.45C2106.24,-209.93 2107.02,-190.71 2107.69,-174.33"/>
<polygon fill="black" stroke="black" points="2111.18,-174.67 2108.08,-164.53 2104.18,-174.38 2111.18,-174.67"/>
<text text-anchor="middle" x="2124.86" y="-186.22" font-family="Times,serif" font-size="14.00">outro*</text>
</g>
<!-- 4&#45;&gt;4 -->
<g id="edge9" class="edge">
<title>4&#45;&gt;4</title>
<path fill="none" stroke="black" d="M2244.92,-373.62C2255.15,-375.89 2265,-372.99 2265,-364.92 2265,-360 2261.34,-357 2256.17,-355.93"/>
<polygon fill="black" stroke="black" points="2256.33,-352.42 2246.43,-356.18 2256.52,-359.42 2256.33,-352.42"/>
<text text-anchor="middle" x="2280.75" y="-359.87" font-family="Times,serif" font-size="14.00">digito</text>
</g>
<!-- 5 -->
<g id="node7" class="node">
<title>5</title>
<ellipse fill="none" stroke="black" cx="2233" cy="-241.66" rx="18" ry="18"/>
<ellipse fill="none" stroke="black" cx="2233" cy="-241.66" rx="22" ry="22"/>
<text text-anchor="middle" x="2233" y="-236.61" font-family="Times,serif" font-size="14.00">5</text>
</g>
<!-- 4&#45;&gt;5 -->
<g id="edge10" class="edge">
<title>4&#45;&gt;5</title>
<path fill="none" stroke="black" d="M2229.57,-346.54C2230.18,-328.03 2231.16,-298.29 2231.92,-275.36"/>
<polygon fill="black" stroke="black" points="2235.41,-275.71 2232.24,-265.6 2228.42,-275.48 2235.41,-275.71"/>
<text text-anchor="middle" x="2248.51" y="-309.49" font-family="Times,serif" font-size="14.00">outro*</text>
</g>
<!-- 6 -->
<g id="node8" class="node">
<title>6</title>
<ellipse fill="none" stroke="black" cx="2339" cy="-241.66" rx="18" ry="18"/>
<text text-anchor="middle" x="2339" y="-236.61" font-family="Times,serif" font-size="14.00">6</text>
</g>
<!-- 4&#45;&gt;6 -->
<g id="edge11" class="edge">
<title>4&#45;&gt;6</title>
<path fill="none" stroke="black" d="M2244.06,-354.24C2261.35,-342.57 2289.81,-321.58 2309,-298.29 2316.2,-289.55 2322.47,-278.82 2327.39,-269.12"/>
<polygon fill="black" stroke="black" points="2330.53,-270.67 2331.69,-260.14 2324.21,-267.64 2330.53,-270.67"/>
<text text-anchor="middle" x="2316.98" y="-309.49" font-family="Times,serif" font-size="14.00">ponto</text>
</g>
<!-- 7 -->
<g id="node9" class="node">
<title>7</title>
<ellipse fill="none" stroke="black" cx="2339" cy="-140.89" rx="18" ry="18"/>
<text text-anchor="middle" x="2339" y="-135.84" font-family="Times,serif" font-size="14.00">7</text>
</g>
<!-- 6&#45;&gt;7 -->
<g id="edge12" class="edge">
<title>6&#45;&gt;7</title>
<path fill="none" stroke="black" d="M2339,-223.45C2339,-208.81 2339,-187.49 2339,-170.32"/>
<polygon fill="black" stroke="black" points="2342.5,-170.74 2339,-160.74 2335.5,-170.74 2342.5,-170.74"/>
<text text-anchor="middle" x="2354.75" y="-186.22" font-family="Times,serif" font-size="14.00">digito</text>
</g>
<!-- 7&#45;&gt;7 -->
<g id="edge13" class="edge">
<title>7&#45;&gt;7</title>
<path fill="none" stroke="black" d="M2354.92,-149.59C2365.15,-151.86 2375,-148.96 2375,-140.89 2375,-135.98 2371.34,-132.98 2366.17,-131.9"/>
<polygon fill="black" stroke="black" points="2366.33,-128.4 2356.43,-132.15 2366.52,-135.39 2366.33,-128.4"/>
<text text-anchor="middle" x="2390.75" y="-135.84" font-family="Times,serif" font-size="14.00">digito</text>
</g>
<!-- 8 -->
<g id="node10" class="node">
<title>8</title>
<ellipse fill="none" stroke="black" cx="2343" cy="-40.13" rx="18" ry="18"/>
<ellipse fill="none" stroke="black" cx="2343" cy="-40.13" rx="22" ry="22"/>
<text text-anchor="middle" x="2343" y="-35.08" font-family="Times,serif" font-size="14.00">8</text>
</g>
<!-- 7&#45;&gt;8 -->
<g id="edge14" class="edge">
<title>7&#45;&gt;8</title>
<path fill="none" stroke="black" d="M2339.7,-122.69C2340.24,-109.17 2341.02,-89.95 2341.69,-73.57"/>
<polygon fill="black" stroke="black" points="2345.18,-73.9 2342.08,-63.77 2338.18,-73.62 2345.18,-73.9"/>
<text text-anchor="middle" x="2358.86" y="-85.46" font-family="Times,serif" font-size="14.00">outro*</text>
</g>
<!-- 10 -->
<g id="node12" class="node">
<title>10</title>
<ellipse fill="none" stroke="black" cx="127" cy="-241.66" rx="20.13" ry="20.13"/>
<text text-anchor="middle" x="127" y="-236.61" font-family="Times,serif" font-size="14.00">10</text>
</g>
<!-- 9&#45;&gt;10 -->
<g id="edge16" class="edge">
<title>9&#45;&gt;10</title>
<path fill="none" stroke="black" d="M212.4,-351.95C199.34,-339.24 178.68,-318.26 163,-298.29 155.8,-289.12 148.66,-278.49 142.66,-268.99"/>
<polygon fill="black" stroke="black" points="145.67,-267.22 137.44,-260.55 139.72,-270.89 145.67,-267.22"/>
<text text-anchor="middle" x="190.35" y="-309.49" font-family="Times,serif" font-size="14.00">ch</text>
</g>
<!-- 12 -->
<g id="node14" class="node">
<title>12</title>
<ellipse fill="none" stroke="black" cx="192" cy="-241.66" rx="20.13" ry="20.13"/>
<text text-anchor="middle" x="192" y="-236.61" font-family="Times,serif" font-size="14.00">12</text>
</g>
<!-- 9&#45;&gt;12 -->
<g id="edge18" class="edge">
<title>9&#45;&gt;12</title>
<path fill="none" stroke="black" d="M220.41,-347.06C215.17,-327.79 206.49,-295.91 200.1,-272.44"/>
<polygon fill="black" stroke="black" points="203.49,-271.55 197.49,-262.82 196.74,-273.39 203.49,-271.55"/>
<text text-anchor="middle" x="218.63" y="-309.49" font-family="Times,serif" font-size="14.00">\n</text>
</g>
<!-- 13 -->
<g id="node15" class="node">
<title>13</title>
<ellipse fill="none" stroke="black" cx="258" cy="-241.66" rx="20.13" ry="20.13"/>
<text text-anchor="middle" x="258" y="-236.61" font-family="Times,serif" font-size="14.00">13</text>
</g>
<!-- 9&#45;&gt;13 -->
<g id="edge19" class="edge">
<title>9&#45;&gt;13</title>
<path fill="none" stroke="black" d="M229.59,-347.06C234.83,-327.79 243.51,-295.91 249.9,-272.44"/>
<polygon fill="black" stroke="black" points="253.26,-273.39 252.51,-262.82 246.51,-271.55 253.26,-273.39"/>
<text text-anchor="middle" x="245.76" y="-309.49" font-family="Times,serif" font-size="14.00">\0</text>
</g>
<!-- 11 -->
<g id="node13" class="node">
<title>11</title>
<ellipse fill="none" stroke="black" cx="188" cy="-140.89" rx="20.13" ry="20.13"/>
<ellipse fill="none" stroke="black" cx="188" cy="-140.89" rx="24.13" ry="24.13"/>
<text text-anchor="middle" x="188" y="-135.84" font-family="Times,serif" font-size="14.00">11</text>
</g>
<!-- 10&#45;&gt;11 -->
<g id="edge17" class="edge">
<title>10&#45;&gt;11</title>
<path fill="none" stroke="black" d="M125.25,-221.32C125.06,-209.53 126.45,-194.57 133,-183.02 138.63,-173.1 147.75,-164.84 156.95,-158.4"/>
<polygon fill="black" stroke="black" points="158.61,-161.49 165.15,-153.16 154.84,-155.59 158.61,-161.49"/>
<text text-anchor="middle" x="158.5" y="-186.22" font-family="Times,serif" font-size="14.00">apostrofo</text>
</g>
<!-- 12&#45;&gt;11 -->
<g id="edge20" class="edge">
<title>12&#45;&gt;11</title>
<path fill="none" stroke="black" d="M190.38,-221.42C189.85,-214.52 189.32,-206.68 189,-199.52 188.67,-192.18 188.44,-184.3 188.29,-176.8"/>
<polygon fill="black" stroke="black" points="191.8,-176.91 188.14,-166.97 184.8,-177.02 191.8,-176.91"/>
<text text-anchor="middle" x="214.5" y="-186.22" font-family="Times,serif" font-size="14.00">apostrofo</text>
</g>
<!-- 13&#45;&gt;11 -->
<g id="edge21" class="edge">
<title>13&#45;&gt;11</title>
<path fill="none" stroke="black" d="M255,-221.48C252.45,-209.62 247.9,-194.51 240,-183.02 234.19,-174.57 226.12,-167.02 218.07,-160.76"/>
<polygon fill="black" stroke="black" points="220.15,-157.95 210,-154.93 216.05,-163.62 220.15,-157.95"/>
<text text-anchor="middle" x="273.83" y="-186.22" font-family="Times,serif" font-size="14.00">apostrofo</text>
</g>
<!-- 15 -->
<g id="node17" class="node">
<title>15</title>
<ellipse fill="none" stroke="black" cx="378" cy="-140.89" rx="20.13" ry="20.13"/>
<text text-anchor="middle" x="378" y="-135.84" font-family="Times,serif" font-size="14.00">15</text>
</g>
<!-- 14&#45;&gt;15 -->
<g id="edge23" class="edge">
<title>14&#45;&gt;15</title>
<path fill="none" stroke="black" d="M406.14,-351.87C391.97,-340.02 372.19,-320.5 363.75,-298.29 347.72,-256.06 358.4,-203 367.94,-170.8"/>
<polygon fill="black" stroke="black" points="371.24,-171.98 370.89,-161.39 364.56,-169.88 371.24,-171.98"/>
<text text-anchor="middle" x="378.38" y="-236.61" font-family="Times,serif" font-size="14.00">aspas</text>
</g>
<!-- 17 -->
<g id="node19" class="node">
<title>17</title>
<ellipse fill="none" stroke="black" cx="422" cy="-241.66" rx="20.13" ry="20.13"/>
<text text-anchor="middle" x="422" y="-236.61" font-family="Times,serif" font-size="14.00">17</text>
</g>
<!-- 14&#45;&gt;17 -->
<g id="edge24" class="edge">
<title>14&#45;&gt;17</title>
<path fill="none" stroke="black" d="M422,-344.43C422,-325.25 422,-295.67 422,-273.33"/>
<polygon fill="black" stroke="black" points="425.5,-273.6 422,-263.6 418.5,-273.6 425.5,-273.6"/>
<text text-anchor="middle" x="428.38" y="-309.49" font-family="Times,serif" font-size="14.00">ch</text>
</g>
<!-- 16 -->
<g id="node18" class="node">
<title>16</title>
<ellipse fill="none" stroke="black" cx="378" cy="-40.13" rx="20.13" ry="20.13"/>
<ellipse fill="none" stroke="black" cx="378" cy="-40.13" rx="24.13" ry="24.13"/>
<text text-anchor="middle" x="378" y="-35.08" font-family="Times,serif" font-size="14.00">16</text>
</g>
<!-- 15&#45;&gt;16 -->
<g id="edge25" class="edge">
<title>15&#45;&gt;16</title>
<path fill="none" stroke="black" d="M378,-120.38C378,-107.69 378,-90.8 378,-75.86"/>
<polygon fill="black" stroke="black" points="381.5,-75.94 378,-65.94 374.5,-75.94 381.5,-75.94"/>
<text text-anchor="middle" x="395.62" y="-85.46" font-family="Times,serif" font-size="14.00">outro*</text>
</g>
<!-- 17&#45;&gt;15 -->
<g id="edge26" class="edge">
<title>17&#45;&gt;15</title>
<path fill="none" stroke="black" d="M414.13,-223C407.6,-208.34 398.2,-187.22 390.61,-170.21"/>
<polygon fill="black" stroke="black" points="393.83,-168.82 386.56,-161.11 387.44,-171.67 393.83,-168.82"/>
<text text-anchor="middle" x="417.26" y="-186.22" font-family="Times,serif" font-size="14.00">aspas</text>
</g>
<!-- 19 -->
<g id="node21" class="node">
<title>19</title>
<ellipse fill="none" stroke="black" cx="132" cy="-572.68" rx="20.13" ry="20.13"/>
<text text-anchor="middle" x="132" y="-567.63" font-family="Times,serif" font-size="14.00">19</text>
</g>
<!-- 18&#45;&gt;19 -->
<g id="edge28" class="edge">
<title>18&#45;&gt;19</title>
<path fill="none" stroke="black" d="M66.48,-384.43C79.04,-420.32 106.77,-499.57 121.81,-542.57"/>
<polygon fill="black" stroke="black" points="118.5,-543.71 125.11,-551.99 125.11,-541.4 118.5,-543.71"/>
<text text-anchor="middle" x="120.53" y="-477" font-family="Times,serif" font-size="14.00">barra</text>
</g>
<!-- 23 -->
<g id="node25" class="node">
<title>23</title>
<ellipse fill="none" stroke="black" cx="45" cy="-241.66" rx="20.13" ry="20.13"/>
<ellipse fill="none" stroke="black" cx="45" cy="-241.66" rx="24.13" ry="24.13"/>
<text text-anchor="middle" x="45" y="-236.61" font-family="Times,serif" font-size="14.00">23</text>
</g>
<!-- 18&#45;&gt;23 -->
<g id="edge34" class="edge">
<title>18&#45;&gt;23</title>
<path fill="none" stroke="black" d="M53.97,-345.27C51.96,-338.29 49.93,-330.25 48.75,-322.79 46.4,-307.96 45.37,-291.41 44.96,-277.21"/>
<polygon fill="black" stroke="black" points="48.46,-277.38 44.77,-267.45 41.46,-277.51 48.46,-277.38"/>
<text text-anchor="middle" x="66.38" y="-309.49" font-family="Times,serif" font-size="14.00">outro*</text>
</g>
<!-- 19&#45;&gt;0 -->
<g id="edge30" class="edge">
<title>19&#45;&gt;0</title>
<path fill="none" stroke="black" d="M152.38,-570.03C286.1,-559.18 1037.53,-498.25 1195.75,-485.42"/>
<polygon fill="black" stroke="black" points="1195.7,-488.94 1205.38,-484.64 1195.13,-481.96 1195.7,-488.94"/>
<text text-anchor="middle" x="781.65" y="-521.25" font-family="Times,serif" font-size="14.00">\n</text>
</g>
<!-- 19&#45;&gt;19 -->
<g id="edge29" class="edge">
<title>19&#45;&gt;19</title>
<path fill="none" stroke="black" d="M150.83,-581.02C160.93,-582.43 170.13,-579.66 170.13,-572.68 170.13,-568.54 166.89,-565.88 162.14,-564.69"/>
<polygon fill="black" stroke="black" points="162.45,-561.2 152.35,-564.39 162.23,-568.2 162.45,-561.2"/>
<text text-anchor="middle" x="187.76" y="-567.63" font-family="Times,serif" font-size="14.00">outro*</text>
</g>
<!-- 30 -->
<g id="node31" class="node">
<title>30</title>
<ellipse fill="none" stroke="black" cx="1195" cy="-241.66" rx="20.13" ry="20.13"/>
<ellipse fill="none" stroke="black" cx="1195" cy="-241.66" rx="24.13" ry="24.13"/>
<text text-anchor="middle" x="1195" y="-236.61" font-family="Times,serif" font-size="14.00">30</text>
</g>
<!-- 29&#45;&gt;30 -->
<g id="edge41" class="edge">
<title>29&#45;&gt;30</title>
<path fill="none" stroke="black" d="M1396.81,-348.44C1391.59,-342.74 1385.06,-336.73 1378,-332.79 1376.17,-331.76 1232.71,-299.49 1231,-298.29 1222.32,-292.18 1215.22,-283.24 1209.69,-274.32"/>
<polygon fill="black" stroke="black" points="1212.8,-272.71 1204.85,-265.71 1206.7,-276.14 1212.8,-272.71"/>
<text text-anchor="middle" x="1338.3" y="-309.49" font-family="Times,serif" font-size="14.00">=</text>
</g>
<!-- 31 -->
<g id="node33" class="node">
<title>31</title>
<ellipse fill="none" stroke="black" cx="1076" cy="-241.66" rx="20.13" ry="20.13"/>
<ellipse fill="none" stroke="black" cx="1076" cy="-241.66" rx="24.13" ry="24.13"/>
<text text-anchor="middle" x="1076" y="-236.61" font-family="Times,serif" font-size="14.00">31</text>
</g>
<!-- 29&#45;&gt;31 -->
<g id="edge42" class="edge">
<title>29&#45;&gt;31</title>
<path fill="none" stroke="black" d="M1397.41,-348.15C1392.19,-342.27 1385.5,-336.2 1378,-332.79 1347.54,-318.93 1260.9,-327.37 1227.75,-322.79 1175.66,-315.58 1155.32,-328.09 1112,-298.29 1103.25,-292.27 1096.14,-283.36 1090.61,-274.43"/>
<polygon fill="black" stroke="black" points="1093.72,-272.83 1085.78,-265.81 1087.61,-276.25 1093.72,-272.83"/>
<text text-anchor="middle" x="1245.38" y="-309.49" font-family="Times,serif" font-size="14.00">outro*</text>
</g>
<!-- 33 -->
<g id="node35" class="node">
<title>33</title>
<ellipse fill="none" stroke="black" cx="1385" cy="-241.66" rx="20.13" ry="20.13"/>
<ellipse fill="none" stroke="black" cx="1385" cy="-241.66" rx="24.13" ry="24.13"/>
<text text-anchor="middle" x="1385" y="-236.61" font-family="Times,serif" font-size="14.00">33</text>
</g>
<!-- 32&#45;&gt;33 -->
<g id="edge44" class="edge">
<title>32&#45;&gt;33</title>
<path fill="none" stroke="black" d="M1461.11,-348.89C1450.08,-335.81 1433.97,-316.2 1421,-298.29 1415.03,-290.05 1408.9,-280.87 1403.41,-272.38"/>
<polygon fill="black" stroke="black" points="1406.47,-270.65 1398.15,-264.1 1400.56,-274.41 1406.47,-270.65"/>
<text text-anchor="middle" x="1444.9" y="-309.49" font-family="Times,serif" font-size="14.00">&amp;</text>
</g>
<!-- 34 -->
<g id="node36" class="node">
<title>34</title>
<ellipse fill="none" stroke="black" cx="1302" cy="-241.66" rx="20.13" ry="20.13"/>
<ellipse fill="none" stroke="black" cx="1302" cy="-241.66" rx="24.13" ry="24.13"/>
<text text-anchor="middle" x="1302" y="-236.61" font-family="Times,serif" font-size="14.00">34</text>
</g>
<!-- 32&#45;&gt;34 -->
<g id="edge45" class="edge">
<title>32&#45;&gt;34</title>
<path fill="none" stroke="black" d="M1462.61,-347.91C1457.8,-342.29 1451.75,-336.46 1445,-332.79 1422.7,-320.65 1412.91,-330.6 1388.75,-322.79 1364.92,-315.08 1356.78,-314.86 1338,-298.29 1330.17,-291.37 1323.36,-282.36 1317.84,-273.61"/>
<polygon fill="black" stroke="black" points="1321.02,-272.12 1312.93,-265.28 1314.99,-275.67 1321.02,-272.12"/>
<text text-anchor="middle" x="1406.38" y="-309.49" font-family="Times,serif" font-size="14.00">outro*</text>
</g>
<!-- 36 -->
<g id="node38" class="node">
<title>36</title>
<ellipse fill="none" stroke="black" cx="1479" cy="-241.66" rx="20.13" ry="20.13"/>
<ellipse fill="none" stroke="black" cx="1479" cy="-241.66" rx="24.13" ry="24.13"/>
<text text-anchor="middle" x="1479" y="-236.61" font-family="Times,serif" font-size="14.00">36</text>
</g>
<!-- 35&#45;&gt;36 -->
<g id="edge47" class="edge">
<title>35&#45;&gt;36</title>
<path fill="none" stroke="black" d="M1524.18,-346.03C1516.01,-327.34 1503.03,-297.64 1493.08,-274.86"/>
<polygon fill="black" stroke="black" points="1496.28,-273.46 1489.07,-265.7 1489.87,-276.26 1496.28,-273.46"/>
<text text-anchor="middle" x="1514.84" y="-309.49" font-family="Times,serif" font-size="14.00">|</text>
</g>
<!-- 38 -->
<g id="node40" class="node">
<title>38</title>
<ellipse fill="none" stroke="black" cx="1624" cy="-241.66" rx="20.13" ry="20.13"/>
<ellipse fill="none" stroke="black" cx="1624" cy="-241.66" rx="24.13" ry="24.13"/>
<text text-anchor="middle" x="1624" y="-236.61" font-family="Times,serif" font-size="14.00">38</text>
</g>
<!-- 37&#45;&gt;38 -->
<g id="edge49" class="edge">
<title>37&#45;&gt;38</title>
<path fill="none" stroke="black" d="M1595.24,-345.24C1600.38,-326.91 1608.33,-298.54 1614.57,-276.28"/>
<polygon fill="black" stroke="black" points="1617.92,-277.32 1617.25,-266.74 1611.18,-275.43 1617.92,-277.32"/>
<text text-anchor="middle" x="1610.11" y="-309.49" font-family="Times,serif" font-size="14.00">=</text>
</g>
<!-- 39 -->
<g id="node41" class="node">
<title>39</title>
<ellipse fill="none" stroke="black" cx="1552" cy="-241.66" rx="20.13" ry="20.13"/>
<ellipse fill="none" stroke="black" cx="1552" cy="-241.66" rx="24.13" ry="24.13"/>
<text text-anchor="middle" x="1552" y="-236.61" font-family="Times,serif" font-size="14.00">39</text>
</g>
<!-- 37&#45;&gt;39 -->
<g id="edge50" class="edge">
<title>37&#45;&gt;39</title>
<path fill="none" stroke="black" d="M1577.6,-348.81C1572.17,-341.41 1566.24,-332.09 1562.75,-322.79 1557.39,-308.52 1554.64,-291.93 1553.26,-277.57"/>
<polygon fill="black" stroke="black" points="1556.75,-277.34 1552.5,-267.63 1549.77,-277.87 1556.75,-277.34"/>
<text text-anchor="middle" x="1580.38" y="-309.49" font-family="Times,serif" font-size="14.00">outro*</text>
</g>
<!-- 41 -->
<g id="node43" class="node">
<title>41</title>
<ellipse fill="none" stroke="black" cx="1811" cy="-241.66" rx="20.13" ry="20.13"/>
<ellipse fill="none" stroke="black" cx="1811" cy="-241.66" rx="24.13" ry="24.13"/>
<text text-anchor="middle" x="1811" y="-236.61" font-family="Times,serif" font-size="14.00">41</text>
</g>
<!-- 40&#45;&gt;41 -->
<g id="edge52" class="edge">
<title>40&#45;&gt;41</title>
<path fill="none" stroke="black" d="M1753.74,-350.92C1761.71,-343.32 1771.26,-333.19 1778,-322.79 1787.32,-308.4 1794.88,-290.94 1800.4,-276"/>
<polygon fill="black" stroke="black" points="1803.7,-277.18 1803.72,-266.58 1797.1,-274.85 1803.7,-277.18"/>
<text text-anchor="middle" x="1791.48" y="-309.49" font-family="Times,serif" font-size="14.00">=</text>
</g>
<!-- 42 -->
<g id="node44" class="node">
<title>42</title>
<ellipse fill="none" stroke="black" cx="1739" cy="-241.66" rx="20.13" ry="20.13"/>
<ellipse fill="none" stroke="black" cx="1739" cy="-241.66" rx="24.13" ry="24.13"/>
<text text-anchor="middle" x="1739" y="-236.61" font-family="Times,serif" font-size="14.00">42</text>
</g>
<!-- 40&#45;&gt;42 -->
<g id="edge53" class="edge">
<title>40&#45;&gt;42</title>
<path fill="none" stroke="black" d="M1739,-344.43C1739,-326.47 1739,-299.38 1739,-277.67"/>
<polygon fill="black" stroke="black" points="1742.5,-277.76 1739,-267.76 1735.5,-277.76 1742.5,-277.76"/>
<text text-anchor="middle" x="1756.62" y="-309.49" font-family="Times,serif" font-size="14.00">outro*</text>
</g>
<!-- 44 -->
<g id="node46" class="node">
<title>44</title>
<ellipse fill="none" stroke="black" cx="2012" cy="-241.66" rx="20.13" ry="20.13"/>
<ellipse fill="none" stroke="black" cx="2012" cy="-241.66" rx="24.13" ry="24.13"/>
<text text-anchor="middle" x="2012" y="-236.61" font-family="Times,serif" font-size="14.00">44</text>
</g>
<!-- 43&#45;&gt;44 -->
<g id="edge55" class="edge">
<title>43&#45;&gt;44</title>
<path fill="none" stroke="black" d="M1942.27,-350.59C1950.08,-342.89 1959.64,-332.77 1967,-322.79 1978.23,-307.55 1988.72,-289.23 1996.73,-273.95"/>
<polygon fill="black" stroke="black" points="1999.73,-275.78 2001.18,-265.29 1993.5,-272.59 1999.73,-275.78"/>
<text text-anchor="middle" x="1981.05" y="-309.49" font-family="Times,serif" font-size="14.00">=</text>
</g>
<!-- 45 -->
<g id="node47" class="node">
<title>45</title>
<ellipse fill="none" stroke="black" cx="1928" cy="-241.66" rx="20.13" ry="20.13"/>
<ellipse fill="none" stroke="black" cx="1928" cy="-241.66" rx="24.13" ry="24.13"/>
<text text-anchor="middle" x="1928" y="-236.61" font-family="Times,serif" font-size="14.00">45</text>
</g>
<!-- 43&#45;&gt;45 -->
<g id="edge56" class="edge">
<title>43&#45;&gt;45</title>
<path fill="none" stroke="black" d="M1928,-344.43C1928,-326.47 1928,-299.38 1928,-277.67"/>
<polygon fill="black" stroke="black" points="1931.5,-277.76 1928,-267.76 1924.5,-277.76 1931.5,-277.76"/>
<text text-anchor="middle" x="1945.62" y="-309.49" font-family="Times,serif" font-size="14.00">outro*</text>
</g>
</g>
</svg>
